<?xml version="1.0" encoding="UTF-8" standalone="no"?>
<!DOCTYPE svg PUBLIC "-//W3C//DTD SVG 1.1//EN" "http://www.w3.org/Graphics/SVG/1.1/DTD/svg11.dtd">
<!-- Illustrator: Larry Huang -->
<svg xmlns="http://www.w3.org/2000/svg" xmlns:xlink="http://www.w3.org/1999/xlink" xmlns:ev="http://www.w3.org/2001/xml-events"
		width="10.5567in" height="1.89531in" viewBox="0 0 760.085 136.463" xml:space="preserve" color-interpolation-filters="sRGB"
		class="st5">
	<style type="text/css">
	<![CDATA[
		.st1 {fill:none;stroke:#000000;stroke-width:1}
		.st2 {fill:#000000;font-family:Times New Roman;font-size:1.33333em}
		.st3 {fill:none;stroke:none;stroke-width:0.25}
		.st4 {fill:#759fcc;font-family:Times New Roman;font-size:1.33333em}
		.st5 {fill:none;fill-rule:evenodd;font-size:12px;overflow:visible;stroke-linecap:square;stroke-miterlimit:3}
	]]>
	</style>

	<g>
		<title>Page-1</title>
		<g id="shape1-1" transform="translate(344.234,-19)">
			<title>Rounded Rectangle.89</title>
			<desc>data</desc>
			<path d="M8.5 136.46 L76.54 136.46 A8.5038 8.5038 -180 0 0 85.04 127.96 L85.04 102.45 A8.5038 8.5038 -180 0 0 76.54 93.94
						 L8.5 93.94 A8.5038 8.5038 -180 0 0 -0 102.45 L0 127.96 A8.5038 8.5038 -180 0 0 8.5 136.46 Z" class="st1"/>
			<text x="29.2" y="120" class="st2">data</text>		</g>
		<g id="shape2-4" transform="translate(429.274,-19)">
			<title>Rounded Rectangle.90</title>
			<desc>next</desc>
			<path d="M4.25 136.46 L38.27 136.46 A4.2519 4.2519 -180 0 0 42.52 132.21 L42.52 98.19 A4.2519 4.2519 -180 0 0 38.27 93.94
						 L4.25 93.94 A4.2519 4.2519 -180 0 0 0 98.19 L0 132.21 A4.2519 4.2519 -180 0 0 4.25 136.46 Z" class="st1"/>
			<text x="7.49" y="120" class="st2">next</text>		</g>
		<g id="shape3-7" transform="translate(301.715,-19)">
			<title>Rounded Rectangle.91</title>
			<desc>prev</desc>
			<path d="M4.25 136.46 L38.27 136.46 A4.2519 4.2519 -180 0 0 42.52 132.21 L42.52 98.19 A4.2519 4.2519 -180 0 0 38.27 93.94
						 L4.25 93.94 A4.2519 4.2519 -180 0 0 0 98.19 L0 132.21 A4.2519 4.2519 -180 0 0 4.25 136.46 Z" class="st1"/>
			<text x="7.04" y="120" class="st2">prev</text>		</g>
		<g id="shape4-10" transform="translate(131.636,-19)">
			<title>Rounded Rectangle.4</title>
			<desc>data</desc>
			<path d="M8.5 136.46 L76.54 136.46 A8.5038 8.5038 -180 0 0 85.04 127.96 L85.04 102.45 A8.5038 8.5038 -180 0 0 76.54 93.94
						 L8.5 93.94 A8.5038 8.5038 -180 0 0 -0 102.45 L0 127.96 A8.5038 8.5038 -180 0 0 8.5 136.46 Z" class="st1"/>
			<text x="29.2" y="120" class="st2">data</text>		</g>
		<g id="shape5-13" transform="translate(89.1161,-19)">
			<title>Rounded Rectangle.5</title>
			<desc>next</desc>
			<path d="M4.25 136.46 L38.27 136.46 A4.2519 4.2519 -180 0 0 42.52 132.21 L42.52 98.19 A4.2519 4.2519 -180 0 0 38.27 93.94
						 L4.25 93.94 A4.2519 4.2519 -180 0 0 0 98.19 L0 132.21 A4.2519 4.2519 -180 0 0 4.25 136.46 Z" class="st1"/>
			<text x="7.49" y="120" class="st2">next</text>		</g>
		<g id="shape6-16" transform="translate(46.5965,-19)">
			<title>Rounded Rectangle.6</title>
			<desc>prev</desc>
			<path d="M4.25 136.46 L38.27 136.46 A4.2519 4.2519 -180 0 0 42.52 132.21 L42.52 98.19 A4.2519 4.2519 -180 0 0 38.27 93.94
						 L4.25 93.94 A4.2519 4.2519 -180 0 0 0 98.19 L0 132.21 A4.2519 4.2519 -180 0 0 4.25 136.46 Z" class="st1"/>
			<text x="7.04" y="120" class="st2">prev</text>		</g>
		<g id="shape7-19" transform="translate(571.006,-19)">
			<title>Rounded Rectangle.7</title>
			<desc>data</desc>
			<path d="M8.5 136.46 L76.54 136.46 A8.5038 8.5038 -180 0 0 85.04 127.96 L85.04 102.45 A8.5038 8.5038 -180 0 0 76.54 93.94
						 L8.5 93.94 A8.5038 8.5038 -180 0 0 -0 102.45 L0 127.96 A8.5038 8.5038 -180 0 0 8.5 136.46 Z" class="st1"/>
			<text x="29.2" y="120" class="st2">data</text>		</g>
		<g id="shape8-22" transform="translate(698.565,-19)">
			<title>Rounded Rectangle.8</title>
			<desc>next</desc>
			<path d="M4.25 136.46 L38.27 136.46 A4.2519 4.2519 -180 0 0 42.52 132.21 L42.52 98.19 A4.2519 4.2519 -180 0 0 38.27 93.94
						 L4.25 93.94 A4.2519 4.2519 -180 0 0 0 98.19 L0 132.21 A4.2519 4.2519 -180 0 0 4.25 136.46 Z" class="st1"/>
			<text x="7.49" y="120" class="st2">next</text>		</g>
		<g id="shape9-25" transform="translate(656.045,-19)">
			<title>Rounded Rectangle.9</title>
			<desc>prev</desc>
			<path d="M4.25 136.46 L38.27 136.46 A4.2519 4.2519 -180 0 0 42.52 132.21 L42.52 98.19 A4.2519 4.2519 -180 0 0 38.27 93.94
						 L4.25 93.94 A4.2519 4.2519 -180 0 0 0 98.19 L0 132.21 A4.2519 4.2519 -180 0 0 4.25 136.46 Z" class="st1"/>
			<text x="7.04" y="120" class="st2">prev</text>		</g>
		<g id="shape10-28" transform="translate(18.25,-89.8661)">
			<title>Sheet.10</title>
			<desc>What&#39;s the difference among these list node data structures?</desc>
			<rect x="0" y="108.116" width="396.85" height="28.3465" class="st3"/>
			<text x="6.84" y="127.09" class="st4">What&#39;s the difference among these list node data structures?</text>		</g>
	</g>
</svg>
