<?xml version="1.0" encoding="UTF-8" standalone="no"?>
<!DOCTYPE svg PUBLIC "-//W3C//DTD SVG 1.1//EN" "http://www.w3.org/Graphics/SVG/1.1/DTD/svg11.dtd">
<!-- Illustrator: Larry Huang -->
<svg xmlns="http://www.w3.org/2000/svg" xmlns:xlink="http://www.w3.org/1999/xlink" xmlns:ev="http://www.w3.org/2001/xml-events"
		width="12.9085in" height="3.8534in" viewBox="0 0 929.413 277.445" xml:space="preserve" color-interpolation-filters="sRGB"
		class="st21">
	<style type="text/css">
	<![CDATA[
		.st1 {fill:none;stroke:none;stroke-width:0.25}
		.st2 {fill:#0000ff;font-family:Times New Roman;font-size:1.99999em}
		.st3 {fill:none;stroke:#000000;stroke-width:1}
		.st4 {fill:#000000;font-family:Times New Roman;font-size:1.16666em}
		.st5 {fill:none;stroke:#7f7f7f;stroke-dasharray:1,2;stroke-width:1}
		.st6 {fill:#7f7f7f;font-family:Times New Roman;font-size:1.00001em}
		.st7 {font-size:1em}
		.st8 {fill:#7f7f7f;font-family:Times New Roman;font-size:0.666664em}
		.st9 {fill:none;stroke:#7f7f7f;stroke-dasharray:1.75,1.25;stroke-width:0.25}
		.st10 {fill:none;stroke:none;stroke-width:1}
		.st11 {fill:#000000;font-family:Times New Roman;font-size:1.33333em}
		.st12 {marker-end:url(#mrkr5-52);stroke:#000000;stroke-linecap:round;stroke-linejoin:round;stroke-width:1}
		.st13 {fill:#000000;fill-opacity:1;stroke:#000000;stroke-opacity:1;stroke-width:0.28409090909091}
		.st14 {marker-start:url(#mrkr5-63);stroke:#000000;stroke-linecap:round;stroke-linejoin:round;stroke-width:1}
		.st15 {marker-end:url(#mrkr5-52);stroke:#000000;stroke-width:1}
		.st16 {stroke:#7f7f7f;stroke-linecap:round;stroke-linejoin:round;stroke-width:1}
		.st17 {stroke:#7f7f7f;stroke-width:0.25}
		.st18 {marker-end:url(#mrkr5-120);stroke:#000000;stroke-linecap:round;stroke-linejoin:round;stroke-width:1}
		.st19 {fill:#000000;fill-opacity:1;stroke:#000000;stroke-opacity:1;stroke-width:0.23584905660377}
		.st20 {fill:#7f7f7f;font-family:Times New Roman;font-size:1.16666em}
		.st21 {fill:none;fill-rule:evenodd;font-size:12px;overflow:visible;stroke-linecap:square;stroke-miterlimit:3}
	]]>
	</style>

	<defs id="Markers">
		<g id="lend5">
			<path d="M 2 1 L 0 0 L 1.98117 -0.993387 C 1.67173 -0.364515 1.67301 0.372641 1.98465 1.00043 " style="stroke:none"/>
		</g>
		<marker id="mrkr5-52" class="st13" refX="-6.16" orient="auto" markerUnits="strokeWidth" overflow="visible">
			<use xlink:href="#lend5" transform="scale(-3.52,-3.52) "/>
		</marker>
		<marker id="mrkr5-63" class="st13" refX="5.8" orient="auto" markerUnits="strokeWidth" overflow="visible">
			<use xlink:href="#lend5" transform="scale(3.52) "/>
		</marker>
		<marker id="mrkr5-120" class="st19" refX="-7.42" orient="auto" markerUnits="strokeWidth" overflow="visible">
			<use xlink:href="#lend5" transform="scale(-4.24,-4.24) "/>
		</marker>
	</defs>
	<g>
		<title>Page-1</title>
		<g id="shape1-1" transform="translate(32.4232,-216.675)">
			<title>Sheet.1</title>
			<desc>list</desc>
			<rect x="0" y="234.925" width="42.5197" height="42.5197" class="st1"/>
			<text x="6.59" y="263.39" class="st2">list</text>		</g>
		<g id="shape2-4" transform="translate(89.1161,-60.7697)">
			<title>Circle.85</title>
			<path d="M0 227.84 A49.6063 49.6063 0 1 1 99.21 227.84 A49.6063 49.6063 0 1 1 0 227.84 Z" class="st3"/>
		</g>
		<g id="shape3-6" transform="translate(110.376,-117.463)">
			<title>Rounded Rectangle.86</title>
			<desc>pointer</desc>
			<path d="M5.67 277.44 L51.02 277.44 A5.6692 5.6692 -180 0 0 56.69 271.78 L56.69 254.77 A5.6692 5.6692 -180 0 0 51.02
						 249.1 L5.67 249.1 A5.6692 5.6692 -180 0 0 -0 254.77 L0 271.78 A5.6692 5.6692 -180 0 0 5.67 277.44 Z"
					class="st3"/>
			<text x="8.52" y="267.47" class="st4">pointer</text>		</g>
		<g id="shape4-9" transform="translate(117.463,-74.9429)">
			<title>Rounded Rectangle.87</title>
			<desc>size</desc>
			<path d="M4.25 277.44 L38.27 277.44 A4.2519 4.2519 -180 0 0 42.52 273.19 L42.52 253.35 A4.2519 4.2519 -180 0 0 38.27
						 249.1 L4.25 249.1 A4.2519 4.2519 -180 0 0 0 253.35 L0 273.19 A4.2519 4.2519 -180 0 0 4.25 277.44 Z"
					class="st3"/>
			<text x="10.38" y="267.47" class="st4">size</text>		</g>
		<g id="shape5-12" transform="translate(273.368,-117.463)">
			<title>Rounded Rectangle.89</title>
			<desc>pseudo head</desc>
			<path d="M5.67 277.44 L51.02 277.44 A5.6692 5.6692 -180 0 0 56.69 271.78 L56.69 254.77 A5.6692 5.6692 -180 0 0 51.02
						 249.1 L5.67 249.1 A5.6692 5.6692 -180 0 0 -0 254.77 L0 271.78 A5.6692 5.6692 -180 0 0 5.67 277.44 Z"
					class="st5"/>
			<text x="11.35" y="259.67" class="st6">pseudo <tspan x="17.02" dy="1.2em" class="st7">head</tspan></text>		</g>
		<g id="shape6-16" transform="translate(330.061,-117.463)">
			<title>Rounded Rectangle.90</title>
			<desc>next</desc>
			<path d="M2.83 277.44 L25.51 277.44 A2.8346 2.8346 -180 0 0 28.35 274.61 L28.35 251.93 A2.8346 2.8346 -180 0 0 25.51
						 249.1 L2.83 249.1 A2.8346 2.8346 -180 0 0 0 251.93 L0 274.61 A2.8346 2.8346 -180 0 0 2.83 277.44 Z"
					class="st5"/>
			<text x="7.29" y="265.67" class="st8">next</text>		</g>
		<g id="shape7-19" transform="translate(245.022,-117.463)">
			<title>Rounded Rectangle.91</title>
			<desc>prev</desc>
			<path d="M2.83 277.44 L25.51 277.44 A2.8346 2.8346 -180 0 0 28.35 274.61 L28.35 251.93 A2.8346 2.8346 -180 0 0 25.51
						 249.1 L2.83 249.1 A2.8346 2.8346 -180 0 0 0 251.93 L0 274.61 A2.8346 2.8346 -180 0 0 2.83 277.44 Z"
					class="st5"/>
			<text x="7.07" y="265.67" class="st8">prev</text>		</g>
		<g id="shape8-22" transform="translate(400.927,-46.5965)">
			<title>Sheet.8</title>
			<path d="M0 277.44 L510.24 277.44 L510.24 107.37 L0 107.37 L0 277.44 Z" class="st9"/>
		</g>
		<g id="shape9-24" transform="translate(230.848,-46.5965)">
			<title>Sheet.9</title>
			<path d="M0 277.44 L141.73 277.44 L141.73 107.37 L0 107.37 L0 277.44 Z" class="st9"/>
		</g>
		<g id="shape10-26" transform="translate(443.447,-117.463)">
			<title>Rounded Rectangle.94</title>
			<path d="M5.67 277.44 L51.02 277.44 A5.6692 5.6692 -180 0 0 56.69 271.78 L56.69 254.77 A5.6692 5.6692 -180 0 0 51.02
						 249.1 L5.67 249.1 A5.6692 5.6692 -180 0 0 -0 254.77 L0 271.78 A5.6692 5.6692 -180 0 0 5.67 277.44 Z"
					class="st3"/>
		</g>
		<g id="shape11-28" transform="translate(500.14,-117.708)">
			<title>Rounded Rectangle.95</title>
			<path d="M2.83 277.44 L25.51 277.44 A2.8346 2.8346 -180 0 0 28.35 274.61 L28.35 251.93 A2.8346 2.8346 -180 0 0 25.51
						 249.1 L2.83 249.1 A2.8346 2.8346 -180 0 0 0 251.93 L0 274.61 A2.8346 2.8346 -180 0 0 2.83 277.44 Z"
					class="st3"/>
		</g>
		<g id="shape12-30" transform="translate(415.1,-117.708)">
			<title>Rounded Rectangle.96</title>
			<path d="M2.83 277.44 L25.51 277.44 A2.8346 2.8346 -180 0 0 28.35 274.61 L28.35 251.93 A2.8346 2.8346 -180 0 0 25.51
						 249.1 L2.83 249.1 A2.8346 2.8346 -180 0 0 0 251.93 L0 274.61 A2.8346 2.8346 -180 0 0 2.83 277.44 Z"
					class="st3"/>
		</g>
		<g id="shape13-32" transform="translate(585.179,-117.463)">
			<title>Rounded Rectangle.97</title>
			<path d="M5.67 277.44 L51.02 277.44 A5.6692 5.6692 -180 0 0 56.69 271.78 L56.69 254.77 A5.6692 5.6692 -180 0 0 51.02
						 249.1 L5.67 249.1 A5.6692 5.6692 -180 0 0 -0 254.77 L0 271.78 A5.6692 5.6692 -180 0 0 5.67 277.44 Z"
					class="st3"/>
		</g>
		<g id="shape14-34" transform="translate(641.872,-117.463)">
			<title>Rounded Rectangle.98</title>
			<path d="M2.83 277.44 L25.51 277.44 A2.8346 2.8346 -180 0 0 28.35 274.61 L28.35 251.93 A2.8346 2.8346 -180 0 0 25.51
						 249.1 L2.83 249.1 A2.8346 2.8346 -180 0 0 0 251.93 L0 274.61 A2.8346 2.8346 -180 0 0 2.83 277.44 Z"
					class="st3"/>
		</g>
		<g id="shape15-36" transform="translate(556.833,-117.463)">
			<title>Rounded Rectangle.99</title>
			<path d="M2.83 277.44 L25.51 277.44 A2.8346 2.8346 -180 0 0 28.35 274.61 L28.35 251.93 A2.8346 2.8346 -180 0 0 25.51
						 249.1 L2.83 249.1 A2.8346 2.8346 -180 0 0 0 251.93 L0 274.61 A2.8346 2.8346 -180 0 0 2.83 277.44 Z"
					class="st3"/>
		</g>
		<g id="shape16-38" transform="translate(811.951,-117.463)">
			<title>Rounded Rectangle.100</title>
			<path d="M5.67 277.44 L51.02 277.44 A5.6692 5.6692 -180 0 0 56.69 271.78 L56.69 254.77 A5.6692 5.6692 -180 0 0 51.02
						 249.1 L5.67 249.1 A5.6692 5.6692 -180 0 0 -0 254.77 L0 271.78 A5.6692 5.6692 -180 0 0 5.67 277.44 Z"
					class="st3"/>
		</g>
		<g id="shape17-40" transform="translate(868.644,-117.463)">
			<title>Rounded Rectangle.101</title>
			<path d="M2.83 277.44 L25.51 277.44 A2.8346 2.8346 -180 0 0 28.35 274.61 L28.35 251.93 A2.8346 2.8346 -180 0 0 25.51
						 249.1 L2.83 249.1 A2.8346 2.8346 -180 0 0 -0 251.93 L0 274.61 A2.8346 2.8346 -180 0 0 2.83 277.44 Z"
					class="st3"/>
		</g>
		<g id="shape18-42" transform="translate(783.604,-117.463)">
			<title>Rounded Rectangle.102</title>
			<path d="M2.83 277.44 L25.51 277.44 A2.8346 2.8346 -180 0 0 28.35 274.61 L28.35 251.93 A2.8346 2.8346 -180 0 0 25.51
						 249.1 L2.83 249.1 A2.8346 2.8346 -180 0 0 -0 251.93 L0 274.61 A2.8346 2.8346 -180 0 0 2.83 277.44 Z"
					class="st3"/>
		</g>
		<g id="shape19-44" transform="translate(698.565,-117.463)">
			<title>Sheet.19</title>
			<desc>……</desc>
			<rect x="0" y="249.098" width="56.6929" height="28.3465" class="st10"/>
			<text x="12.35" y="268.07" class="st11">……</text>		</g>
		<g id="shape20-47" transform="translate(344.234,-138.722)">
			<title>Sheet.20</title>
			<path d="M0 277.44 L64.71 277.44" class="st12"/>
		</g>
		<g id="shape21-53" transform="translate(514.313,-138.722)">
			<title>Sheet.21</title>
			<path d="M0 277.44 L36.36 277.44" class="st12"/>
		</g>
		<g id="shape22-58" transform="translate(358.407,-124.549)">
			<title>Sheet.22</title>
			<path d="M5.8 277.44 L6.16 277.44 L70.87 277.44" class="st14"/>
		</g>
		<g id="shape23-64" transform="translate(656.045,-138.722)">
			<title>Sheet.23</title>
			<path d="M0 277.44 L22.19 277.44" class="st12"/>
		</g>
		<g id="shape24-69" transform="translate(755.258,-138.722)">
			<title>Sheet.24</title>
			<path d="M0 277.44 L22.19 277.44" class="st12"/>
		</g>
		<g id="shape25-74" transform="translate(528.486,-124.549)">
			<title>Sheet.25</title>
			<path d="M5.8 277.44 L6.16 277.44 L42.52 277.44" class="st14"/>
		</g>
		<g id="shape26-79" transform="translate(670.219,-124.549)">
			<title>Sheet.26</title>
			<path d="M5.8 277.44 L6.16 277.44 L28.35 277.44" class="st14"/>
		</g>
		<g id="shape27-84" transform="translate(769.431,-124.549)">
			<title>Sheet.27</title>
			<path d="M5.8 277.44 L6.16 277.44 L28.35 277.44" class="st14"/>
		</g>
		<g id="shape28-89" transform="translate(259.195,-103.289)">
			<title>Sheet.28</title>
			<path d="M0 256.19 L0 277.44 L538.58 277.44 L538.58 269.43" class="st15"/>
		</g>
		<g id="shape29-94" transform="translate(259.195,-136.738)">
			<title>Sheet.29</title>
			<path d="M623.62 277.44 L623.62 254.2 L0 254.2 L0 262.21" class="st15"/>
		</g>
		<g id="shape30-99" transform="translate(443.447,-60.7697)">
			<title>Sheet.30</title>
			<desc>front ( )</desc>
			<rect x="0" y="249.098" width="56.6929" height="28.3465" class="st1"/>
			<text x="6.58" y="267.47" class="st4">front ( )</text>		</g>
		<g id="shape31-102" transform="translate(811.951,-60.7697)">
			<title>Sheet.31</title>
			<desc>back ( )</desc>
			<rect x="0" y="249.098" width="56.6929" height="28.3465" class="st1"/>
			<text x="6.97" y="267.47" class="st4">back ( )</text>		</g>
		<g id="shape32-105" transform="translate(749.238,145.809) rotate(90)">
			<title>Sheet.32</title>
			<path d="M0 277.44 L49.98 277.44" class="st16"/>
		</g>
		<g id="shape33-108" transform="translate(1117.74,145.809) rotate(90)">
			<title>Sheet.33</title>
			<path d="M0 277.44 L49.98 277.44" class="st16"/>
		</g>
		<g id="shape34-111" transform="translate(471.793,380.734) scale(1,-1)">
			<title>Side brace.129</title>
			<desc>size ( )</desc>
			<path d="M0 268.94 L0 270.36 A7.0865 7.0865 -180 0 0 7.09 277.44 L177.17 277.44 A7.0865 7.0865 0 0 1 184.25 284.53 A7.0865
						 7.0865 0 0 1 191.34 277.44 L361.42 277.44 A7.0865 7.0865 -180 0 0 368.5 270.36 L368.5 268.94" class="st17"/>
			<text x="167.21" y="-288.73" transform="scale(1,-1)" class="st4">size ( )</text>		</g>
		<g id="shape35-115" transform="translate(167.069,-131.636) rotate(1.04217E-06)">
			<title>Sheet.35</title>
			<path d="M0 277.44 L70.53 277.44" class="st18"/>
		</g>
		<g id="shape36-121" transform="translate(627.699,-18.25)">
			<title>Sheet.36</title>
			<desc>on the heap / free store / dynamic memory allocation</desc>
			<rect x="0" y="249.098" width="283.465" height="28.3465" class="st1"/>
			<text x="14.94" y="266.87" class="st6">on the heap / free store / dynamic memory allocation</text>		</g>
		<g id="shape37-124" transform="translate(89.1161,-216.675)">
			<title>Sheet.37</title>
			<desc>(Doubly-Linked List)</desc>
			<rect x="0" y="234.925" width="141.732" height="42.5197" class="st1"/>
			<text x="10.41" y="260.39" class="st20">(Doubly-Linked List)</text>		</g>
		<g id="shape38-127" transform="translate(18.25,-89.1161)">
			<title>Sheet.38</title>
			<desc>list object</desc>
			<rect x="0" y="234.925" width="70.8661" height="42.5197" class="st1"/>
			<text x="8.02" y="260.39" class="st20">list object</text>		</g>
	</g>
</svg>
