<?xml version="1.0" encoding="UTF-8" standalone="no"?>
<!DOCTYPE svg PUBLIC "-//W3C//DTD SVG 1.1//EN" "http://www.w3.org/Graphics/SVG/1.1/DTD/svg11.dtd">
<!-- Illustrator: Larry Huang -->
<svg xmlns="http://www.w3.org/2000/svg" xmlns:xlink="http://www.w3.org/1999/xlink" xmlns:ev="http://www.w3.org/2001/xml-events"
		width="11.1542in" height="9.98877in" viewBox="0 0 803.104 719.192" xml:space="preserve" color-interpolation-filters="sRGB"
		class="st21">
	<style type="text/css">
	<![CDATA[
		.st1 {fill:none;stroke:none;stroke-width:0.25}
		.st2 {fill:#0000ff;font-family:Times New Roman;font-size:2.33334em}
		.st3 {fill:none;stroke:#000000;stroke-width:1.5}
		.st4 {fill:#000000;font-family:Times New Roman;font-size:1.33333em}
		.st5 {stroke:#000000;stroke-linecap:round;stroke-linejoin:round;stroke-width:1}
		.st6 {fill:#7f7f7f;font-family:Times New Roman;font-size:1.33333em}
		.st7 {stroke:#7f7f7f;stroke-dasharray:1.5,3;stroke-linecap:round;stroke-linejoin:round;stroke-width:1.5}
		.st8 {fill:none;stroke:#7f7f7f;stroke-dasharray:1.75,1.25;stroke-width:0.25}
		.st9 {fill:none;stroke:#000000;stroke-width:1}
		.st10 {fill:#000000;font-family:Times New Roman;font-size:1.16666em}
		.st11 {marker-end:url(#mrkr5-70);stroke:#000000;stroke-linecap:round;stroke-linejoin:round;stroke-width:1}
		.st12 {fill:#000000;fill-opacity:1;stroke:#000000;stroke-opacity:1;stroke-width:0.23584905660377}
		.st13 {fill:#7f7f7f;font-family:Times New Roman;font-size:1.00001em}
		.st14 {fill:#000000;font-family:Times New Roman;font-size:1.00001em}
		.st15 {font-size:1em}
		.st16 {marker-end:url(#mrkr5-86);stroke:#000000;stroke-linecap:round;stroke-linejoin:round;stroke-width:1}
		.st17 {fill:#000000;fill-opacity:1;stroke:#000000;stroke-opacity:1;stroke-width:0.28409090909091}
		.st18 {marker-start:url(#mrkr5-166);stroke:#7f7f7f;stroke-dasharray:1,2;stroke-linecap:round;stroke-linejoin:round;stroke-width:1}
		.st19 {fill:#7f7f7f;fill-opacity:1;stroke:#7f7f7f;stroke-opacity:1;stroke-width:0.28409090909091}
		.st20 {fill:#7f7f7f;font-family:Times New Roman;font-size:1.16666em}
		.st21 {fill:none;fill-rule:evenodd;font-size:12px;overflow:visible;stroke-linecap:square;stroke-miterlimit:3}
	]]>
	</style>

	<defs id="Markers">
		<g id="lend5">
			<path d="M 2 1 L 0 0 L 1.98117 -0.993387 C 1.67173 -0.364515 1.67301 0.372641 1.98465 1.00043 " style="stroke:none"/>
		</g>
		<marker id="mrkr5-70" class="st12" refX="-7.42" orient="auto" markerUnits="strokeWidth" overflow="visible">
			<use xlink:href="#lend5" transform="scale(-4.24,-4.24) "/>
		</marker>
		<marker id="mrkr5-86" class="st17" refX="-6.16" orient="auto" markerUnits="strokeWidth" overflow="visible">
			<use xlink:href="#lend5" transform="scale(-3.52,-3.52) "/>
		</marker>
		<marker id="mrkr5-166" class="st19" refX="5.8" orient="auto" markerUnits="strokeWidth" overflow="visible">
			<use xlink:href="#lend5" transform="scale(3.52) "/>
		</marker>
	</defs>
	<g>
		<title>Page-1</title>
		<g id="shape1-1" transform="translate(18.25,-670.219)">
			<title>Sheet.1</title>
			<desc>AVL tree</desc>
			<rect x="0" y="690.845" width="127.559" height="28.3465" class="st1"/>
			<text x="10.53" y="713.42" class="st2">AVL tree</text>		</g>
		<g id="shape3-4" transform="translate(174.156,-613.526)">
			<title>Circle</title>
			<desc>h</desc>
			<path d="M0 697.93 A21.2598 21.2598 0 0 1 42.52 697.93 A21.2598 21.2598 0 1 1 0 697.93 Z" class="st3"/>
			<text x="17.26" y="702.73" class="st4">h</text>		</g>
		<g id="shape4-7" transform="translate(92.6595,-500.14)">
			<title>Triangle</title>
			<desc>h - 1</desc>
			<path d="M81.5 719.19 L40.75 646.75 L0 719.19 L81.5 719.19 Z" class="st3"/>
			<text x="26.08" y="699.84" class="st4">h - 1</text>		</g>
		<g id="shape5-10" transform="translate(216.675,-500.14)">
			<title>Triangle.5</title>
			<desc>h - 1</desc>
			<path d="M81.5 719.19 L40.75 646.75 L0 719.19 L81.5 719.19 Z" class="st3"/>
			<text x="26.08" y="699.84" class="st4">h - 1</text>		</g>
		<g id="shape6-13" transform="translate(591.709,705.822) rotate(146.563)">
			<title>Sheet.6</title>
			<path d="M0 719.19 L74.31 719.19" class="st5"/>
		</g>
		<g id="shape7-16" transform="translate(591.709,-494.49) rotate(33.4375)">
			<title>Sheet.7</title>
			<path d="M0 719.19 L74.31 719.19" class="st5"/>
		</g>
		<g id="shape8-19" transform="translate(418.644,-613.526)">
			<title>Circle.8</title>
			<desc>h</desc>
			<path d="M0 697.93 A21.2598 21.2598 0 0 1 42.52 697.93 A21.2598 21.2598 0 1 1 0 697.93 Z" class="st3"/>
			<text x="17.26" y="702.73" class="st4">h</text>		</g>
		<g id="shape9-22" transform="translate(337.148,-500.14)">
			<title>Triangle.9</title>
			<desc>h - 2</desc>
			<path d="M81.5 719.19 L40.75 646.75 L0 719.19 L81.5 719.19 Z" class="st3"/>
			<text x="26.08" y="699.84" class="st4">h - 2</text>		</g>
		<g id="shape11-25" transform="translate(836.197,705.822) rotate(146.563)">
			<title>Sheet.11</title>
			<path d="M0 719.19 L74.31 719.19" class="st5"/>
		</g>
		<g id="shape12-28" transform="translate(836.197,-494.49) rotate(33.4375)">
			<title>Sheet.12</title>
			<path d="M0 719.19 L74.31 719.19" class="st5"/>
		</g>
		<g id="shape13-31" transform="translate(461.163,-471.793)">
			<title>Triangle.13</title>
			<desc>h - 1</desc>
			<path d="M81.5 719.19 L40.75 618.4 L0 719.19 L81.5 719.19 Z" class="st3"/>
			<text x="26.08" y="690.4" class="st4">h - 1</text>		</g>
		<g id="shape16-34" transform="translate(273.368,-613.526)">
			<title>Sheet.16</title>
			<desc>height</desc>
			<rect x="0" y="676.672" width="56.6929" height="42.5197" class="st1"/>
			<text x="8.35" y="702.73" class="st6">height</text>		</g>
		<g id="shape17-37" transform="translate(202.502,-634.785)">
			<title>Sheet.17</title>
			<path d="M0 719.19 L70.87 719.19" class="st7"/>
		</g>
		<g id="shape20-40" transform="translate(659.589,-613.526)">
			<title>Circle.20</title>
			<desc>h</desc>
			<path d="M0 697.93 A21.2598 21.2598 0 0 1 42.52 697.93 A21.2598 21.2598 0 1 1 0 697.93 Z" class="st3"/>
			<text x="17.26" y="702.73" class="st4">h</text>		</g>
		<g id="shape22-43" transform="translate(702.108,-500.14)">
			<title>Triangle.22</title>
			<desc>h - 2</desc>
			<path d="M81.5 719.19 L40.75 646.75 L0 719.19 L81.5 719.19 Z" class="st3"/>
			<text x="26.08" y="699.84" class="st4">h - 2</text>		</g>
		<g id="shape23-46" transform="translate(1077.14,705.822) rotate(146.563)">
			<title>Sheet.23</title>
			<path d="M0 719.19 L74.31 719.19" class="st5"/>
		</g>
		<g id="shape24-49" transform="translate(1077.14,-494.49) rotate(33.4375)">
			<title>Sheet.24</title>
			<path d="M0 719.19 L74.31 719.19" class="st5"/>
		</g>
		<g id="shape26-52" transform="translate(578.093,-471.793)">
			<title>Triangle.26</title>
			<desc>h - 1</desc>
			<path d="M81.5 719.19 L40.75 618.4 L0 719.19 L81.5 719.19 Z" class="st3"/>
			<text x="26.08" y="690.4" class="st4">h - 1</text>		</g>
		<g id="shape27-55" transform="translate(216.675,-46.5965)">
			<title>Sheet.27</title>
			<path d="M0 719.19 L538.58 719.19 L538.58 350.69 L0 350.69 L0 719.19 Z" class="st8"/>
		</g>
		<g id="shape28-57" transform="translate(89.1161,-287.541)">
			<title>Circle.249</title>
			<path d="M0 669.59 A49.6063 49.6063 0 1 1 99.21 669.59 A49.6063 49.6063 0 1 1 0 669.59 Z" class="st9"/>
		</g>
		<g id="shape29-59" transform="translate(117.463,-344.234)">
			<title>Rounded Rectangle.250</title>
			<desc>root</desc>
			<path d="M4.25 719.19 L38.27 719.19 A4.2519 4.2519 -180 0 0 42.52 714.94 L42.52 695.1 A4.2519 4.2519 -180 0 0 38.27 690.85
						 L4.25 690.85 A4.2519 4.2519 -180 0 0 0 695.1 L0 714.94 A4.2519 4.2519 -180 0 0 4.25 719.19 Z" class="st9"/>
			<text x="9.98" y="709.22" class="st10">root</text>		</g>
		<g id="shape30-62" transform="translate(117.463,-301.715)">
			<title>Rounded Rectangle.251</title>
			<desc>size</desc>
			<path d="M4.25 719.19 L38.27 719.19 A4.2519 4.2519 -180 0 0 42.52 714.94 L42.52 695.1 A4.2519 4.2519 -180 0 0 38.27 690.85
						 L4.25 690.85 A4.2519 4.2519 -180 0 0 0 695.1 L0 714.94 A4.2519 4.2519 -180 0 0 4.25 719.19 Z" class="st9"/>
			<text x="10.38" y="709.22" class="st10">size</text>		</g>
		<g id="shape31-65" transform="translate(170.362,-358.333) rotate(0.826929)">
			<title>Sheet.31</title>
			<path d="M0 719.19 L78.87 719.19" class="st11"/>
		</g>
		<g id="shape32-71" transform="translate(485.967,-18.25)">
			<title>Sheet.32</title>
			<desc>on the heap / free store / dynamic memory allocation</desc>
			<rect x="0" y="690.845" width="269.291" height="28.3465" class="st1"/>
			<text x="7.86" y="708.62" class="st13">on the heap / free store / dynamic memory allocation</text>		</g>
		<g id="shape33-74" transform="translate(245.022,-216.675)">
			<title>Rounded Rectangle.256</title>
			<desc>data value</desc>
			<path d="M4.25 719.19 L38.27 719.19 A4.2519 4.2519 -180 0 0 42.52 714.94 L42.52 652.58 A4.2519 4.2519 -180 0 0 38.27
						 648.33 L4.25 648.33 A4.2519 4.2519 -180 0 0 0 652.58 L0 714.94 A4.2519 4.2519 -180 0 0 4.25 719.19 Z"
					class="st9"/>
			<text x="11.27" y="680.16" class="st14">data <tspan x="8.27" dy="1.2em" class="st15">value</tspan></text>		</g>
		<g id="shape34-78" transform="translate(245.022,-315.888)">
			<title>Rounded Rectangle.257</title>
			<desc>left</desc>
			<path d="M4.25 719.19 L38.27 719.19 A4.2519 4.2519 -180 0 0 42.52 714.94 L42.52 709.27 A4.2519 4.2519 -180 0 0 38.27
						 705.02 L4.25 705.02 A4.2519 4.2519 -180 0 0 0 709.27 L0 714.94 A4.2519 4.2519 -180 0 0 4.25 719.19 Z"
					class="st9"/>
			<text x="13.26" y="715.7" class="st14">left</text>		</g>
		<g id="shape35-81" transform="translate(541.054,-357.833) rotate(8.37041)">
			<title>Sheet.35</title>
			<path d="M0 719.19 L245.8 719.19" class="st16"/>
		</g>
		<g id="shape36-87" transform="translate(245.022,-344.234)">
			<title>Rounded Rectangle.260</title>
			<desc>parent</desc>
			<path d="M4.25 719.19 L38.27 719.19 A4.2519 4.2519 -180 0 0 42.52 714.94 L42.52 709.27 A4.2519 4.2519 -180 0 0 38.27
						 705.02 L4.25 705.02 A4.2519 4.2519 -180 0 0 0 709.27 L0 714.94 A4.2519 4.2519 -180 0 0 4.25 719.19 Z"
					class="st9"/>
			<text x="6.27" y="715.7" class="st14">parent</text>		</g>
		<g id="shape37-90" transform="translate(245.022,-330.061)">
			<title>Rounded Rectangle.261</title>
			<desc>right</desc>
			<path d="M4.25 719.19 L38.27 719.19 A4.2519 4.2519 -180 0 0 42.52 714.94 L42.52 709.27 A4.2519 4.2519 -180 0 0 38.27
						 705.02 L4.25 705.02 A4.2519 4.2519 -180 0 0 0 709.27 L0 714.94 A4.2519 4.2519 -180 0 0 4.25 719.19 Z"
					class="st9"/>
			<text x="9.93" y="715.7" class="st14">right</text>		</g>
		<g id="shape38-93" transform="translate(245.022,-287.541)">
			<title>Rounded Rectangle.262</title>
			<desc>height</desc>
			<path d="M4.25 719.19 L38.27 719.19 A4.2519 4.2519 -180 0 0 42.52 714.94 L42.52 695.1 A4.2519 4.2519 -180 0 0 38.27 690.85
						 L4.25 690.85 A4.2519 4.2519 -180 0 0 -0 695.1 L0 714.94 A4.2519 4.2519 -180 0 0 4.25 719.19 Z" class="st9"/>
			<text x="6.26" y="708.62" class="st14">height</text>		</g>
		<g id="shape39-96" transform="translate(684.392,-188.329)">
			<title>Rounded Rectangle.268</title>
			<path d="M4.25 719.19 L38.27 719.19 A4.2519 4.2519 -180 0 0 42.52 714.94 L42.52 652.58 A4.2519 4.2519 -180 0 0 38.27
						 648.33 L4.25 648.33 A4.2519 4.2519 -180 0 0 0 652.58 L0 714.94 A4.2519 4.2519 -180 0 0 4.25 719.19 Z"
					class="st9"/>
		</g>
		<g id="shape40-98" transform="translate(684.392,-287.541)">
			<title>Rounded Rectangle.269</title>
			<path d="M4.25 719.19 L38.27 719.19 A4.2519 4.2519 -180 0 0 42.52 714.94 L42.52 709.27 A4.2519 4.2519 -180 0 0 38.27
						 705.02 L4.25 705.02 A4.2519 4.2519 -180 0 0 0 709.27 L0 714.94 A4.2519 4.2519 -180 0 0 4.25 719.19 Z"
					class="st9"/>
		</g>
		<g id="shape41-100" transform="translate(684.392,-315.888)">
			<title>Rounded Rectangle.270</title>
			<path d="M4.25 719.19 L38.27 719.19 A4.2519 4.2519 -180 0 0 42.52 714.94 L42.52 709.27 A4.2519 4.2519 -180 0 0 38.27
						 705.02 L4.25 705.02 A4.2519 4.2519 -180 0 0 0 709.27 L0 714.94 A4.2519 4.2519 -180 0 0 4.25 719.19 Z"
					class="st9"/>
		</g>
		<g id="shape42-102" transform="translate(684.392,-301.715)">
			<title>Rounded Rectangle.271</title>
			<path d="M4.25 719.19 L38.27 719.19 A4.2519 4.2519 -180 0 0 42.52 714.94 L42.52 709.27 A4.2519 4.2519 -180 0 0 38.27
						 705.02 L4.25 705.02 A4.2519 4.2519 -180 0 0 0 709.27 L0 714.94 A4.2519 4.2519 -180 0 0 4.25 719.19 Z"
					class="st9"/>
		</g>
		<g id="shape43-104" transform="translate(684.392,-259.195)">
			<title>Rounded Rectangle.272</title>
			<path d="M4.25 719.19 L38.27 719.19 A4.2519 4.2519 -180 0 0 42.52 714.94 L42.52 695.1 A4.2519 4.2519 -180 0 0 38.27 690.85
						 L4.25 690.85 A4.2519 4.2519 -180 0 0 -0 695.1 L0 714.94 A4.2519 4.2519 -180 0 0 4.25 719.19 Z" class="st9"/>
		</g>
		<g id="shape44-106" transform="translate(330.061,-103.289)">
			<title>Rounded Rectangle.273</title>
			<path d="M4.25 719.19 L38.27 719.19 A4.2519 4.2519 -180 0 0 42.52 714.94 L42.52 652.58 A4.2519 4.2519 -180 0 0 38.27
						 648.33 L4.25 648.33 A4.2519 4.2519 -180 0 0 0 652.58 L0 714.94 A4.2519 4.2519 -180 0 0 4.25 719.19 Z"
					class="st9"/>
		</g>
		<g id="shape45-108" transform="translate(330.061,-202.502)">
			<title>Rounded Rectangle.274</title>
			<path d="M4.25 719.19 L38.27 719.19 A4.2519 4.2519 -180 0 0 42.52 714.94 L42.52 709.27 A4.2519 4.2519 -180 0 0 38.27
						 705.02 L4.25 705.02 A4.2519 4.2519 -180 0 0 0 709.27 L0 714.94 A4.2519 4.2519 -180 0 0 4.25 719.19 Z"
					class="st9"/>
		</g>
		<g id="shape46-110" transform="translate(330.061,-230.848)">
			<title>Rounded Rectangle.275</title>
			<path d="M4.25 719.19 L38.27 719.19 A4.2519 4.2519 -180 0 0 42.52 714.94 L42.52 709.27 A4.2519 4.2519 -180 0 0 38.27
						 705.02 L4.25 705.02 A4.2519 4.2519 -180 0 0 0 709.27 L0 714.94 A4.2519 4.2519 -180 0 0 4.25 719.19 Z"
					class="st9"/>
		</g>
		<g id="shape47-112" transform="translate(330.061,-216.675)">
			<title>Rounded Rectangle.276</title>
			<path d="M4.25 719.19 L38.27 719.19 A4.2519 4.2519 -180 0 0 42.52 714.94 L42.52 709.27 A4.2519 4.2519 -180 0 0 38.27
						 705.02 L4.25 705.02 A4.2519 4.2519 -180 0 0 0 709.27 L0 714.94 A4.2519 4.2519 -180 0 0 4.25 719.19 Z"
					class="st9"/>
		</g>
		<g id="shape48-114" transform="translate(330.061,-174.156)">
			<title>Rounded Rectangle.277</title>
			<path d="M4.25 719.19 L38.27 719.19 A4.2519 4.2519 -180 0 0 42.52 714.94 L42.52 695.1 A4.2519 4.2519 -180 0 0 38.27 690.85
						 L4.25 690.85 A4.2519 4.2519 -180 0 0 -0 695.1 L0 714.94 A4.2519 4.2519 -180 0 0 4.25 719.19 Z" class="st9"/>
		</g>
		<g id="shape49-116" transform="translate(415.1,-259.195)">
			<title>Rounded Rectangle.278</title>
			<path d="M4.25 719.19 L38.27 719.19 A4.2519 4.2519 -180 0 0 42.52 714.94 L42.52 652.58 A4.2519 4.2519 -180 0 0 38.27
						 648.33 L4.25 648.33 A4.2519 4.2519 -180 0 0 0 652.58 L0 714.94 A4.2519 4.2519 -180 0 0 4.25 719.19 Z"
					class="st9"/>
		</g>
		<g id="shape50-118" transform="translate(415.1,-358.408)">
			<title>Rounded Rectangle.279</title>
			<path d="M4.25 719.19 L38.27 719.19 A4.2519 4.2519 -180 0 0 42.52 714.94 L42.52 709.27 A4.2519 4.2519 -180 0 0 38.27
						 705.02 L4.25 705.02 A4.2519 4.2519 -180 0 0 0 709.27 L0 714.94 A4.2519 4.2519 -180 0 0 4.25 719.19 Z"
					class="st9"/>
		</g>
		<g id="shape51-120" transform="translate(415.1,-386.754)">
			<title>Rounded Rectangle.280</title>
			<path d="M4.25 719.19 L38.27 719.19 A4.2519 4.2519 -180 0 0 42.52 714.94 L42.52 709.27 A4.2519 4.2519 -180 0 0 38.27
						 705.02 L4.25 705.02 A4.2519 4.2519 -180 0 0 0 709.27 L0 714.94 A4.2519 4.2519 -180 0 0 4.25 719.19 Z"
					class="st9"/>
		</g>
		<g id="shape52-122" transform="translate(415.1,-372.581)">
			<title>Rounded Rectangle.281</title>
			<path d="M4.25 719.19 L38.27 719.19 A4.2519 4.2519 -180 0 0 42.52 714.94 L42.52 709.27 A4.2519 4.2519 -180 0 0 38.27
						 705.02 L4.25 705.02 A4.2519 4.2519 -180 0 0 0 709.27 L0 714.94 A4.2519 4.2519 -180 0 0 4.25 719.19 Z"
					class="st9"/>
		</g>
		<g id="shape53-124" transform="translate(415.1,-330.061)">
			<title>Rounded Rectangle.282</title>
			<path d="M4.25 719.19 L38.27 719.19 A4.2519 4.2519 -180 0 0 42.52 714.94 L42.52 695.1 A4.2519 4.2519 -180 0 0 38.27 690.85
						 L4.25 690.85 A4.2519 4.2519 -180 0 0 -0 695.1 L0 714.94 A4.2519 4.2519 -180 0 0 4.25 719.19 Z" class="st9"/>
		</g>
		<g id="shape54-126" transform="translate(599.352,-145.809)">
			<title>Rounded Rectangle.283</title>
			<path d="M4.25 719.19 L38.27 719.19 A4.2519 4.2519 -180 0 0 42.52 714.94 L42.52 652.58 A4.2519 4.2519 -180 0 0 38.27
						 648.33 L4.25 648.33 A4.2519 4.2519 -180 0 0 0 652.58 L0 714.94 A4.2519 4.2519 -180 0 0 4.25 719.19 Z"
					class="st9"/>
		</g>
		<g id="shape55-128" transform="translate(599.352,-245.022)">
			<title>Rounded Rectangle.284</title>
			<path d="M4.25 719.19 L38.27 719.19 A4.2519 4.2519 -180 0 0 42.52 714.94 L42.52 709.27 A4.2519 4.2519 -180 0 0 38.27
						 705.02 L4.25 705.02 A4.2519 4.2519 -180 0 0 0 709.27 L0 714.94 A4.2519 4.2519 -180 0 0 4.25 719.19 Z"
					class="st9"/>
		</g>
		<g id="shape56-130" transform="translate(599.352,-273.368)">
			<title>Rounded Rectangle.285</title>
			<path d="M4.25 719.19 L38.27 719.19 A4.2519 4.2519 -180 0 0 42.52 714.94 L42.52 709.27 A4.2519 4.2519 -180 0 0 38.27
						 705.02 L4.25 705.02 A4.2519 4.2519 -180 0 0 0 709.27 L0 714.94 A4.2519 4.2519 -180 0 0 4.25 719.19 Z"
					class="st9"/>
		</g>
		<g id="shape57-132" transform="translate(599.352,-259.195)">
			<title>Rounded Rectangle.286</title>
			<path d="M4.25 719.19 L38.27 719.19 A4.2519 4.2519 -180 0 0 42.52 714.94 L42.52 709.27 A4.2519 4.2519 -180 0 0 38.27
						 705.02 L4.25 705.02 A4.2519 4.2519 -180 0 0 0 709.27 L0 714.94 A4.2519 4.2519 -180 0 0 4.25 719.19 Z"
					class="st9"/>
		</g>
		<g id="shape58-134" transform="translate(599.352,-216.675)">
			<title>Rounded Rectangle.287</title>
			<path d="M4.25 719.19 L38.27 719.19 A4.2519 4.2519 -180 0 0 42.52 714.94 L42.52 695.1 A4.2519 4.2519 -180 0 0 38.27 690.85
						 L4.25 690.85 A4.2519 4.2519 -180 0 0 -0 695.1 L0 714.94 A4.2519 4.2519 -180 0 0 4.25 719.19 Z" class="st9"/>
		</g>
		<g id="shape59-136" transform="translate(485.967,-60.7697)">
			<title>Rounded Rectangle.288</title>
			<path d="M4.25 719.19 L38.27 719.19 A4.2519 4.2519 -180 0 0 42.52 714.94 L42.52 652.58 A4.2519 4.2519 -180 0 0 38.27
						 648.33 L4.25 648.33 A4.2519 4.2519 -180 0 0 0 652.58 L0 714.94 A4.2519 4.2519 -180 0 0 4.25 719.19 Z"
					class="st9"/>
		</g>
		<g id="shape60-138" transform="translate(485.967,-159.982)">
			<title>Rounded Rectangle.289</title>
			<path d="M4.25 719.19 L38.27 719.19 A4.2519 4.2519 -180 0 0 42.52 714.94 L42.52 709.27 A4.2519 4.2519 -180 0 0 38.27
						 705.02 L4.25 705.02 A4.2519 4.2519 -180 0 0 0 709.27 L0 714.94 A4.2519 4.2519 -180 0 0 4.25 719.19 Z"
					class="st9"/>
		</g>
		<g id="shape61-140" transform="translate(485.967,-188.329)">
			<title>Rounded Rectangle.290</title>
			<path d="M4.25 719.19 L38.27 719.19 A4.2519 4.2519 -180 0 0 42.52 714.94 L42.52 709.27 A4.2519 4.2519 -180 0 0 38.27
						 705.02 L4.25 705.02 A4.2519 4.2519 -180 0 0 0 709.27 L0 714.94 A4.2519 4.2519 -180 0 0 4.25 719.19 Z"
					class="st9"/>
		</g>
		<g id="shape62-142" transform="translate(485.967,-174.156)">
			<title>Rounded Rectangle.291</title>
			<path d="M4.25 719.19 L38.27 719.19 A4.2519 4.2519 -180 0 0 42.52 714.94 L42.52 709.27 A4.2519 4.2519 -180 0 0 38.27
						 705.02 L4.25 705.02 A4.2519 4.2519 -180 0 0 0 709.27 L0 714.94 A4.2519 4.2519 -180 0 0 4.25 719.19 Z"
					class="st9"/>
		</g>
		<g id="shape63-144" transform="translate(485.967,-131.636)">
			<title>Rounded Rectangle.292</title>
			<path d="M4.25 719.19 L38.27 719.19 A4.2519 4.2519 -180 0 0 42.52 714.94 L42.52 695.1 A4.2519 4.2519 -180 0 0 38.27 690.85
						 L4.25 690.85 A4.2519 4.2519 -180 0 0 -0 695.1 L0 714.94 A4.2519 4.2519 -180 0 0 4.25 719.19 Z" class="st9"/>
		</g>
		<g id="shape64-146" transform="translate(-26.5625,-264.93) rotate(-25.8964)">
			<title>Sheet.64</title>
			<path d="M0 719.19 L137.02 719.19" class="st16"/>
		</g>
		<g id="shape65-151" transform="translate(917.015,48.3682) rotate(61.0749)">
			<title>Sheet.65</title>
			<path d="M0 719.19 L84.33 719.19" class="st16"/>
		</g>
		<g id="shape66-156" transform="translate(176.325,-202.147) rotate(-14.0827)">
			<title>Sheet.66</title>
			<path d="M0 719.19 L250.84 719.19" class="st16"/>
		</g>
		<g id="shape67-161" transform="translate(115.539,-336.597) rotate(-13.7349)">
			<title>Sheet.67</title>
			<path d="M5.8 719.19 L6.16 719.19 L154.48 719.19" class="st18"/>
		</g>
		<g id="shape68-167" transform="translate(917.689,17.6756) rotate(61.3925)">
			<title>Sheet.68</title>
			<path d="M5.8 719.19 L6.16 719.19 L135.81 719.19" class="st18"/>
		</g>
		<g id="shape69-172" transform="translate(395.335,-208.241) rotate(3.50864)">
			<title>Sheet.69</title>
			<path d="M0 719.19 L129.99 719.19" class="st16"/>
		</g>
		<g id="shape70-177" transform="translate(667.896,-367.873) rotate(17.1041)">
			<title>Sheet.70</title>
			<path d="M5.8 719.19 L6.16 719.19 L260.81 719.19" class="st18"/>
		</g>
		<g id="shape71-182" transform="translate(266.641,-236.115) rotate(-8.37041)">
			<title>Sheet.71</title>
			<path d="M5.8 719.19 L6.16 719.19 L251.96 719.19" class="st18"/>
		</g>
		<g id="shape72-187" transform="translate(612.466,-202.148) rotate(19.5896)">
			<title>Sheet.72</title>
			<path d="M5.8 719.19 L6.16 719.19 L144.24 719.19" class="st18"/>
		</g>
		<g id="shape73-192" transform="translate(18.25,-315.888)">
			<title>Sheet.73</title>
			<desc>tree object</desc>
			<rect x="0" y="676.672" width="70.8661" height="42.5197" class="st1"/>
			<text x="6.09" y="702.13" class="st20">tree object</text>		</g>
	</g>
</svg>
