<?xml version="1.0" encoding="UTF-8" standalone="no"?>
<!DOCTYPE svg PUBLIC "-//W3C//DTD SVG 1.1//EN" "http://www.w3.org/Graphics/SVG/1.1/DTD/svg11.dtd">
<!-- Illustrator: Larry Huang -->
<svg xmlns="http://www.w3.org/2000/svg" xmlns:xlink="http://www.w3.org/1999/xlink" xmlns:ev="http://www.w3.org/2001/xml-events"
		width="11.1542in" height="3.67391in" viewBox="0 0 803.104 264.522" xml:space="preserve" color-interpolation-filters="sRGB"
		class="st8">
	<style type="text/css">
	<![CDATA[
		.st1 {fill:none;stroke:none;stroke-width:0.25}
		.st2 {fill:#0000ff;font-family:Times New Roman;font-size:1.99999em}
		.st3 {fill:none;stroke:#000000;stroke-width:1.5}
		.st4 {fill:#000000;font-family:Times New Roman;font-size:1.33333em}
		.st5 {stroke:#000000;stroke-linecap:round;stroke-linejoin:round;stroke-width:1}
		.st6 {fill:#7f7f7f;font-family:Times New Roman;font-size:1.33333em}
		.st7 {stroke:#7f7f7f;stroke-dasharray:1.5,3;stroke-linecap:round;stroke-linejoin:round;stroke-width:1.5}
		.st8 {fill:none;fill-rule:evenodd;font-size:12px;overflow:visible;stroke-linecap:square;stroke-miterlimit:3}
	]]>
	</style>

	<g>
		<title>Page-1</title>
		<g id="shape1-1" transform="translate(18.25,-217.925)">
			<title>Sheet.1</title>
			<desc>AVL tree</desc>
			<rect x="0" y="236.175" width="113.386" height="28.3465" class="st1"/>
			<text x="11.05" y="257.55" class="st2">AVL tree</text>		</g>
		<g id="shape3-4" transform="translate(174.156,-161.232)">
			<title>Circle</title>
			<desc>h</desc>
			<path d="M0 243.26 A21.2598 21.2598 0 0 1 42.52 243.26 A21.2598 21.2598 0 1 1 0 243.26 Z" class="st3"/>
			<text x="17.26" y="248.06" class="st4">h</text>		</g>
		<g id="shape4-7" transform="translate(92.6595,-47.8465)">
			<title>Triangle</title>
			<desc>h - 1</desc>
			<path d="M81.5 264.52 L40.75 192.08 L0 264.52 L81.5 264.52 Z" class="st3"/>
			<text x="26.08" y="245.18" class="st4">h - 1</text>		</g>
		<g id="shape5-10" transform="translate(216.675,-47.8465)">
			<title>Triangle.5</title>
			<desc>h - 1</desc>
			<path d="M81.5 264.52 L40.75 192.08 L0 264.52 L81.5 264.52 Z" class="st3"/>
			<text x="26.08" y="245.24" class="st4">h - 1</text>		</g>
		<g id="shape6-13" transform="translate(341.174,324.029) rotate(146.563)">
			<title>Sheet.6</title>
			<path d="M0 264.52 L74.31 264.52" class="st5"/>
		</g>
		<g id="shape7-16" transform="translate(341.174,-117.451) rotate(33.4375)">
			<title>Sheet.7</title>
			<path d="M0 264.52 L74.31 264.52" class="st5"/>
		</g>
		<g id="shape8-19" transform="translate(418.644,-161.232)">
			<title>Circle.8</title>
			<desc>h</desc>
			<path d="M0 243.26 A21.2598 21.2598 0 0 1 42.52 243.26 A21.2598 21.2598 0 1 1 0 243.26 Z" class="st3"/>
			<text x="17.26" y="248.06" class="st4">h</text>		</g>
		<g id="shape9-22" transform="translate(337.148,-47.8465)">
			<title>Triangle.9</title>
			<desc>h - 2</desc>
			<path d="M81.5 264.52 L40.75 192.08 L0 264.52 L81.5 264.52 Z" class="st3"/>
			<text x="26.08" y="245.18" class="st4">h - 2</text>		</g>
		<g id="shape11-25" transform="translate(585.662,324.029) rotate(146.563)">
			<title>Sheet.11</title>
			<path d="M0 264.52 L74.31 264.52" class="st5"/>
		</g>
		<g id="shape12-28" transform="translate(585.662,-117.451) rotate(33.4375)">
			<title>Sheet.12</title>
			<path d="M0 264.52 L74.31 264.52" class="st5"/>
		</g>
		<g id="shape13-31" transform="translate(461.163,-19.5)">
			<title>Triangle.13</title>
			<desc>h - 1</desc>
			<path d="M81.5 264.52 L40.75 163.73 L0 264.52 L81.5 264.52 Z" class="st3"/>
			<text x="26.08" y="235.73" class="st4">h - 1</text>		</g>
		<g id="shape16-34" transform="translate(273.368,-161.232)">
			<title>Sheet.16</title>
			<desc>height</desc>
			<rect x="0" y="222.002" width="56.6929" height="42.5197" class="st1"/>
			<text x="8.35" y="248.06" class="st6">height</text>		</g>
		<g id="shape17-37" transform="translate(202.502,-182.492)">
			<title>Sheet.17</title>
			<path d="M0 264.52 L70.87 264.52" class="st7"/>
		</g>
		<g id="shape20-40" transform="translate(659.589,-161.232)">
			<title>Circle.20</title>
			<desc>h</desc>
			<path d="M0 243.26 A21.2598 21.2598 0 0 1 42.52 243.26 A21.2598 21.2598 0 1 1 0 243.26 Z" class="st3"/>
			<text x="17.26" y="248.06" class="st4">h</text>		</g>
		<g id="shape22-43" transform="translate(702.108,-47.8465)">
			<title>Triangle.22</title>
			<desc>h - 2</desc>
			<path d="M81.5 264.52 L40.75 192.08 L0 264.52 L81.5 264.52 Z" class="st3"/>
			<text x="26.08" y="245.24" class="st4">h - 2</text>		</g>
		<g id="shape23-46" transform="translate(826.607,324.029) rotate(146.563)">
			<title>Sheet.23</title>
			<path d="M0 264.52 L74.31 264.52" class="st5"/>
		</g>
		<g id="shape24-49" transform="translate(826.607,-117.451) rotate(33.4375)">
			<title>Sheet.24</title>
			<path d="M0 264.52 L74.31 264.52" class="st5"/>
		</g>
		<g id="shape26-52" transform="translate(578.093,-19.5)">
			<title>Triangle.26</title>
			<desc>h - 1</desc>
			<path d="M81.5 264.52 L40.75 163.73 L0 264.52 L81.5 264.52 Z" class="st3"/>
			<text x="26.08" y="235.73" class="st4">h - 1</text>		</g>
	</g>
</svg>
