<?xml version="1.0" encoding="UTF-8" standalone="no"?>
<!DOCTYPE svg PUBLIC "-//W3C//DTD SVG 1.1//EN" "http://www.w3.org/Graphics/SVG/1.1/DTD/svg11.dtd">
<!-- Illustrator: Larry Huang -->
<svg xmlns="http://www.w3.org/2000/svg" xmlns:xlink="http://www.w3.org/1999/xlink" xmlns:ev="http://www.w3.org/2001/xml-events"
		width="10.94in" height="6.80616in" viewBox="0 0 787.681 490.043" xml:space="preserve" color-interpolation-filters="sRGB"
		class="st18">
	<style type="text/css">
	<![CDATA[
		.st1 {fill:none;stroke:#7f7f7f;stroke-dasharray:1.75,1.25;stroke-width:0.25}
		.st2 {fill:none;stroke:none;stroke-width:0.25}
		.st3 {fill:#0000ff;font-family:Times New Roman;font-size:1.99999em}
		.st4 {fill:none;stroke:#000000;stroke-width:1}
		.st5 {fill:#000000;font-family:Times New Roman;font-size:1.16666em}
		.st6 {marker-end:url(#mrkr5-19);stroke:#000000;stroke-linecap:round;stroke-linejoin:round;stroke-width:1}
		.st7 {fill:#000000;fill-opacity:1;stroke:#000000;stroke-opacity:1;stroke-width:0.23584905660377}
		.st8 {fill:#7f7f7f;font-family:Times New Roman;font-size:1.33333em}
		.st9 {fill:#7f7f7f;font-family:Times New Roman;font-size:1.00001em}
		.st10 {fill:#000000;font-family:Times New Roman;font-size:1.00001em}
		.st11 {font-size:1em}
		.st12 {fill:#000000;font-family:Times New Roman;font-size:0.833336em}
		.st13 {marker-end:url(#mrkr5-40);stroke:#000000;stroke-linecap:round;stroke-linejoin:round;stroke-width:1}
		.st14 {fill:#000000;fill-opacity:1;stroke:#000000;stroke-opacity:1;stroke-width:0.28409090909091}
		.st15 {marker-start:url(#mrkr5-121);stroke:#7f7f7f;stroke-dasharray:1,2;stroke-linecap:round;stroke-linejoin:round;stroke-width:1}
		.st16 {fill:#7f7f7f;fill-opacity:1;stroke:#7f7f7f;stroke-opacity:1;stroke-width:0.28409090909091}
		.st17 {fill:#7f7f7f;font-family:Times New Roman;font-size:1.16666em}
		.st18 {fill:none;fill-rule:evenodd;font-size:12px;overflow:visible;stroke-linecap:square;stroke-miterlimit:3}
	]]>
	</style>

	<defs id="Markers">
		<g id="lend5">
			<path d="M 2 1 L 0 0 L 1.98117 -0.993387 C 1.67173 -0.364515 1.67301 0.372641 1.98465 1.00043 " style="stroke:none"/>
		</g>
		<marker id="mrkr5-19" class="st7" refX="-7.42" orient="auto" markerUnits="strokeWidth" overflow="visible">
			<use xlink:href="#lend5" transform="scale(-4.24,-4.24) "/>
		</marker>
		<marker id="mrkr5-40" class="st14" refX="-6.16" orient="auto" markerUnits="strokeWidth" overflow="visible">
			<use xlink:href="#lend5" transform="scale(-3.52,-3.52) "/>
		</marker>
		<marker id="mrkr5-121" class="st16" refX="5.8" orient="auto" markerUnits="strokeWidth" overflow="visible">
			<use xlink:href="#lend5" transform="scale(3.52) "/>
		</marker>
	</defs>
	<g>
		<title>Page-1</title>
		<g id="shape1-1" transform="translate(230.848,-46.5965)">
			<title>Sheet.1</title>
			<path d="M0 490.04 L538.58 490.04 L538.58 121.54 L0 121.54 L0 490.04 Z" class="st1"/>
		</g>
		<g id="shape2-3" transform="translate(18.25,-429.274)">
			<title>Sheet.2</title>
			<desc>Balanced Binary Search Tree</desc>
			<rect x="0" y="447.524" width="297.638" height="42.5197" class="st2"/>
			<text x="7.89" y="475.98" class="st3">Balanced Binary Search Tree</text>		</g>
		<g id="shape3-6" transform="translate(103.289,-287.748)">
			<title>Circle.249</title>
			<path d="M0 440.44 A49.6063 49.6063 0 1 1 99.21 440.44 A49.6063 49.6063 0 1 1 0 440.44 Z" class="st4"/>
		</g>
		<g id="shape4-8" transform="translate(131.636,-344.441)">
			<title>Rounded Rectangle.250</title>
			<desc>head</desc>
			<path d="M4.25 490.04 L38.27 490.04 A4.2519 4.2519 -180 0 0 42.52 485.79 L42.52 465.95 A4.2519 4.2519 -180 0 0 38.27
						 461.7 L4.25 461.7 A4.2519 4.2519 -180 0 0 0 465.95 L0 485.79 A4.2519 4.2519 -180 0 0 4.25 490.04 Z"
					class="st4"/>
			<text x="8.05" y="480.07" class="st5">head</text>		</g>
		<g id="shape5-11" transform="translate(131.636,-301.921)">
			<title>Rounded Rectangle.251</title>
			<desc>size</desc>
			<path d="M4.25 490.04 L38.27 490.04 A4.2519 4.2519 -180 0 0 42.52 485.79 L42.52 465.95 A4.2519 4.2519 -180 0 0 38.27
						 461.7 L4.25 461.7 A4.2519 4.2519 -180 0 0 0 465.95 L0 485.79 A4.2519 4.2519 -180 0 0 4.25 490.04 Z"
					class="st4"/>
			<text x="10.38" y="480.07" class="st5">size</text>		</g>
		<g id="shape6-14" transform="translate(182.403,-358.545) rotate(0.964288)">
			<title>Sheet.6</title>
			<path d="M0 490.04 L78.88 490.04" class="st6"/>
		</g>
		<g id="shape7-20" transform="translate(330.061,-429.274)">
			<title>Sheet.7</title>
			<desc>(AVL tree or Red-Black tree)</desc>
			<rect x="0" y="447.524" width="198.425" height="42.5197" class="st2"/>
			<text x="4.59" y="473.58" class="st8">(AVL tree or Red-Black tree)</text>		</g>
		<g id="shape8-23" transform="translate(500.14,-18.25)">
			<title>Sheet.8</title>
			<desc>on the heap / free store / dynamic memory allocation</desc>
			<rect x="0" y="461.697" width="269.291" height="28.3465" class="st2"/>
			<text x="7.86" y="479.47" class="st9">on the heap / free store / dynamic memory allocation</text>		</g>
		<g id="shape9-26" transform="translate(259.195,-216.675)">
			<title>Rounded Rectangle.256</title>
			<desc>data or key value pair</desc>
			<path d="M4.25 490.04 L38.27 490.04 A4.2519 4.2519 -180 0 0 42.52 485.79 L42.52 423.43 A4.2519 4.2519 -180 0 0 38.27
						 419.18 L4.25 419.18 A4.2519 4.2519 -180 0 0 0 423.43 L0 485.79 A4.2519 4.2519 -180 0 0 4.25 490.04 Z"
					class="st4"/>
			<text x="4.77" y="436.61" class="st10">data or  <tspan x="12.6" dy="1.2em" class="st11">key </tspan><tspan x="8.27"
						dy="1.2em" class="st11">value </tspan><tspan x="11.93" dy="1.2em" class="st11">pair</tspan></text>		</g>
		<g id="shape10-32" transform="translate(259.195,-315.888)">
			<title>Rounded Rectangle.257</title>
			<desc>left</desc>
			<path d="M4.25 490.04 L38.27 490.04 A4.2519 4.2519 -180 0 0 42.52 485.79 L42.52 480.12 A4.2519 4.2519 -180 0 0 38.27
						 475.87 L4.25 475.87 A4.2519 4.2519 -180 0 0 0 480.12 L0 485.79 A4.2519 4.2519 -180 0 0 4.25 490.04 Z"
					class="st4"/>
			<text x="14.6" y="485.96" class="st12">left</text>		</g>
		<g id="shape11-35" transform="translate(521.87,-360.274) rotate(8.37041)">
			<title>Sheet.11</title>
			<path d="M0 490.04 L245.8 490.04" class="st13"/>
		</g>
		<g id="shape12-41" transform="translate(259.195,-344.234)">
			<title>Rounded Rectangle.260</title>
			<desc>parent</desc>
			<path d="M4.25 490.04 L38.27 490.04 A4.2519 4.2519 -180 0 0 42.52 485.79 L42.52 480.12 A4.2519 4.2519 -180 0 0 38.27
						 475.87 L4.25 475.87 A4.2519 4.2519 -180 0 0 0 480.12 L0 485.79 A4.2519 4.2519 -180 0 0 4.25 490.04 Z"
					class="st4"/>
			<text x="8.77" y="485.96" class="st12">parent</text>		</g>
		<g id="shape13-44" transform="translate(259.195,-330.061)">
			<title>Rounded Rectangle.261</title>
			<desc>right</desc>
			<path d="M4.25 490.04 L38.27 490.04 A4.2519 4.2519 -180 0 0 42.52 485.79 L42.52 480.12 A4.2519 4.2519 -180 0 0 38.27
						 475.87 L4.25 475.87 A4.2519 4.2519 -180 0 0 0 480.12 L0 485.79 A4.2519 4.2519 -180 0 0 4.25 490.04 Z"
					class="st4"/>
			<text x="11.82" y="485.96" class="st12">right</text>		</g>
		<g id="shape14-47" transform="translate(259.195,-287.541)">
			<title>Rounded Rectangle.262</title>
			<desc>height or color</desc>
			<path d="M4.25 490.04 L38.27 490.04 A4.2519 4.2519 -180 0 0 42.52 485.79 L42.52 465.95 A4.2519 4.2519 -180 0 0 38.27
						 461.7 L4.25 461.7 A4.2519 4.2519 -180 0 0 -0 465.95 L0 485.79 A4.2519 4.2519 -180 0 0 4.25 490.04 Z"
					class="st4"/>
			<text x="8.76" y="472.87" class="st12">height <tspan x="5.57" dy="1.2em" class="st11">or color</tspan></text>		</g>
		<g id="shape15-51" transform="translate(698.565,-188.329)">
			<title>Rounded Rectangle.268</title>
			<path d="M4.25 490.04 L38.27 490.04 A4.2519 4.2519 -180 0 0 42.52 485.79 L42.52 423.43 A4.2519 4.2519 -180 0 0 38.27
						 419.18 L4.25 419.18 A4.2519 4.2519 -180 0 0 0 423.43 L0 485.79 A4.2519 4.2519 -180 0 0 4.25 490.04 Z"
					class="st4"/>
		</g>
		<g id="shape16-53" transform="translate(698.565,-287.541)">
			<title>Rounded Rectangle.269</title>
			<path d="M4.25 490.04 L38.27 490.04 A4.2519 4.2519 -180 0 0 42.52 485.79 L42.52 480.12 A4.2519 4.2519 -180 0 0 38.27
						 475.87 L4.25 475.87 A4.2519 4.2519 -180 0 0 0 480.12 L0 485.79 A4.2519 4.2519 -180 0 0 4.25 490.04 Z"
					class="st4"/>
		</g>
		<g id="shape17-55" transform="translate(698.565,-315.888)">
			<title>Rounded Rectangle.270</title>
			<path d="M4.25 490.04 L38.27 490.04 A4.2519 4.2519 -180 0 0 42.52 485.79 L42.52 480.12 A4.2519 4.2519 -180 0 0 38.27
						 475.87 L4.25 475.87 A4.2519 4.2519 -180 0 0 0 480.12 L0 485.79 A4.2519 4.2519 -180 0 0 4.25 490.04 Z"
					class="st4"/>
		</g>
		<g id="shape18-57" transform="translate(698.565,-301.715)">
			<title>Rounded Rectangle.271</title>
			<path d="M4.25 490.04 L38.27 490.04 A4.2519 4.2519 -180 0 0 42.52 485.79 L42.52 480.12 A4.2519 4.2519 -180 0 0 38.27
						 475.87 L4.25 475.87 A4.2519 4.2519 -180 0 0 0 480.12 L0 485.79 A4.2519 4.2519 -180 0 0 4.25 490.04 Z"
					class="st4"/>
		</g>
		<g id="shape19-59" transform="translate(698.565,-259.195)">
			<title>Rounded Rectangle.272</title>
			<path d="M4.25 490.04 L38.27 490.04 A4.2519 4.2519 -180 0 0 42.52 485.79 L42.52 465.95 A4.2519 4.2519 -180 0 0 38.27
						 461.7 L4.25 461.7 A4.2519 4.2519 -180 0 0 -0 465.95 L0 485.79 A4.2519 4.2519 -180 0 0 4.25 490.04 Z"
					class="st4"/>
		</g>
		<g id="shape20-61" transform="translate(344.234,-103.289)">
			<title>Rounded Rectangle.273</title>
			<path d="M4.25 490.04 L38.27 490.04 A4.2519 4.2519 -180 0 0 42.52 485.79 L42.52 423.43 A4.2519 4.2519 -180 0 0 38.27
						 419.18 L4.25 419.18 A4.2519 4.2519 -180 0 0 0 423.43 L0 485.79 A4.2519 4.2519 -180 0 0 4.25 490.04 Z"
					class="st4"/>
		</g>
		<g id="shape21-63" transform="translate(344.234,-202.502)">
			<title>Rounded Rectangle.274</title>
			<path d="M4.25 490.04 L38.27 490.04 A4.2519 4.2519 -180 0 0 42.52 485.79 L42.52 480.12 A4.2519 4.2519 -180 0 0 38.27
						 475.87 L4.25 475.87 A4.2519 4.2519 -180 0 0 0 480.12 L0 485.79 A4.2519 4.2519 -180 0 0 4.25 490.04 Z"
					class="st4"/>
		</g>
		<g id="shape22-65" transform="translate(344.234,-230.848)">
			<title>Rounded Rectangle.275</title>
			<path d="M4.25 490.04 L38.27 490.04 A4.2519 4.2519 -180 0 0 42.52 485.79 L42.52 480.12 A4.2519 4.2519 -180 0 0 38.27
						 475.87 L4.25 475.87 A4.2519 4.2519 -180 0 0 0 480.12 L0 485.79 A4.2519 4.2519 -180 0 0 4.25 490.04 Z"
					class="st4"/>
		</g>
		<g id="shape23-67" transform="translate(344.234,-216.675)">
			<title>Rounded Rectangle.276</title>
			<path d="M4.25 490.04 L38.27 490.04 A4.2519 4.2519 -180 0 0 42.52 485.79 L42.52 480.12 A4.2519 4.2519 -180 0 0 38.27
						 475.87 L4.25 475.87 A4.2519 4.2519 -180 0 0 0 480.12 L0 485.79 A4.2519 4.2519 -180 0 0 4.25 490.04 Z"
					class="st4"/>
		</g>
		<g id="shape24-69" transform="translate(344.234,-174.156)">
			<title>Rounded Rectangle.277</title>
			<path d="M4.25 490.04 L38.27 490.04 A4.2519 4.2519 -180 0 0 42.52 485.79 L42.52 465.95 A4.2519 4.2519 -180 0 0 38.27
						 461.7 L4.25 461.7 A4.2519 4.2519 -180 0 0 -0 465.95 L0 485.79 A4.2519 4.2519 -180 0 0 4.25 490.04 Z"
					class="st4"/>
		</g>
		<g id="shape25-71" transform="translate(429.274,-259.195)">
			<title>Rounded Rectangle.278</title>
			<path d="M4.25 490.04 L38.27 490.04 A4.2519 4.2519 -180 0 0 42.52 485.79 L42.52 423.43 A4.2519 4.2519 -180 0 0 38.27
						 419.18 L4.25 419.18 A4.2519 4.2519 -180 0 0 0 423.43 L0 485.79 A4.2519 4.2519 -180 0 0 4.25 490.04 Z"
					class="st4"/>
		</g>
		<g id="shape26-73" transform="translate(429.274,-358.408)">
			<title>Rounded Rectangle.279</title>
			<path d="M4.25 490.04 L38.27 490.04 A4.2519 4.2519 -180 0 0 42.52 485.79 L42.52 480.12 A4.2519 4.2519 -180 0 0 38.27
						 475.87 L4.25 475.87 A4.2519 4.2519 -180 0 0 0 480.12 L0 485.79 A4.2519 4.2519 -180 0 0 4.25 490.04 Z"
					class="st4"/>
		</g>
		<g id="shape27-75" transform="translate(429.274,-386.754)">
			<title>Rounded Rectangle.280</title>
			<path d="M4.25 490.04 L38.27 490.04 A4.2519 4.2519 -180 0 0 42.52 485.79 L42.52 480.12 A4.2519 4.2519 -180 0 0 38.27
						 475.87 L4.25 475.87 A4.2519 4.2519 -180 0 0 0 480.12 L0 485.79 A4.2519 4.2519 -180 0 0 4.25 490.04 Z"
					class="st4"/>
		</g>
		<g id="shape28-77" transform="translate(429.274,-372.581)">
			<title>Rounded Rectangle.281</title>
			<path d="M4.25 490.04 L38.27 490.04 A4.2519 4.2519 -180 0 0 42.52 485.79 L42.52 480.12 A4.2519 4.2519 -180 0 0 38.27
						 475.87 L4.25 475.87 A4.2519 4.2519 -180 0 0 0 480.12 L0 485.79 A4.2519 4.2519 -180 0 0 4.25 490.04 Z"
					class="st4"/>
		</g>
		<g id="shape29-79" transform="translate(429.274,-330.061)">
			<title>Rounded Rectangle.282</title>
			<path d="M4.25 490.04 L38.27 490.04 A4.2519 4.2519 -180 0 0 42.52 485.79 L42.52 465.95 A4.2519 4.2519 -180 0 0 38.27
						 461.7 L4.25 461.7 A4.2519 4.2519 -180 0 0 -0 465.95 L0 485.79 A4.2519 4.2519 -180 0 0 4.25 490.04 Z"
					class="st4"/>
		</g>
		<g id="shape30-81" transform="translate(613.526,-145.809)">
			<title>Rounded Rectangle.283</title>
			<path d="M4.25 490.04 L38.27 490.04 A4.2519 4.2519 -180 0 0 42.52 485.79 L42.52 423.43 A4.2519 4.2519 -180 0 0 38.27
						 419.18 L4.25 419.18 A4.2519 4.2519 -180 0 0 0 423.43 L0 485.79 A4.2519 4.2519 -180 0 0 4.25 490.04 Z"
					class="st4"/>
		</g>
		<g id="shape31-83" transform="translate(613.526,-245.022)">
			<title>Rounded Rectangle.284</title>
			<path d="M4.25 490.04 L38.27 490.04 A4.2519 4.2519 -180 0 0 42.52 485.79 L42.52 480.12 A4.2519 4.2519 -180 0 0 38.27
						 475.87 L4.25 475.87 A4.2519 4.2519 -180 0 0 0 480.12 L0 485.79 A4.2519 4.2519 -180 0 0 4.25 490.04 Z"
					class="st4"/>
		</g>
		<g id="shape32-85" transform="translate(613.526,-273.368)">
			<title>Rounded Rectangle.285</title>
			<path d="M4.25 490.04 L38.27 490.04 A4.2519 4.2519 -180 0 0 42.52 485.79 L42.52 480.12 A4.2519 4.2519 -180 0 0 38.27
						 475.87 L4.25 475.87 A4.2519 4.2519 -180 0 0 0 480.12 L0 485.79 A4.2519 4.2519 -180 0 0 4.25 490.04 Z"
					class="st4"/>
		</g>
		<g id="shape33-87" transform="translate(613.526,-259.195)">
			<title>Rounded Rectangle.286</title>
			<path d="M4.25 490.04 L38.27 490.04 A4.2519 4.2519 -180 0 0 42.52 485.79 L42.52 480.12 A4.2519 4.2519 -180 0 0 38.27
						 475.87 L4.25 475.87 A4.2519 4.2519 -180 0 0 0 480.12 L0 485.79 A4.2519 4.2519 -180 0 0 4.25 490.04 Z"
					class="st4"/>
		</g>
		<g id="shape34-89" transform="translate(613.526,-216.675)">
			<title>Rounded Rectangle.287</title>
			<path d="M4.25 490.04 L38.27 490.04 A4.2519 4.2519 -180 0 0 42.52 485.79 L42.52 465.95 A4.2519 4.2519 -180 0 0 38.27
						 461.7 L4.25 461.7 A4.2519 4.2519 -180 0 0 -0 465.95 L0 485.79 A4.2519 4.2519 -180 0 0 4.25 490.04 Z"
					class="st4"/>
		</g>
		<g id="shape35-91" transform="translate(500.14,-60.7697)">
			<title>Rounded Rectangle.288</title>
			<path d="M4.25 490.04 L38.27 490.04 A4.2519 4.2519 -180 0 0 42.52 485.79 L42.52 423.43 A4.2519 4.2519 -180 0 0 38.27
						 419.18 L4.25 419.18 A4.2519 4.2519 -180 0 0 0 423.43 L0 485.79 A4.2519 4.2519 -180 0 0 4.25 490.04 Z"
					class="st4"/>
		</g>
		<g id="shape36-93" transform="translate(500.14,-159.982)">
			<title>Rounded Rectangle.289</title>
			<path d="M4.25 490.04 L38.27 490.04 A4.2519 4.2519 -180 0 0 42.52 485.79 L42.52 480.12 A4.2519 4.2519 -180 0 0 38.27
						 475.87 L4.25 475.87 A4.2519 4.2519 -180 0 0 0 480.12 L0 485.79 A4.2519 4.2519 -180 0 0 4.25 490.04 Z"
					class="st4"/>
		</g>
		<g id="shape37-95" transform="translate(500.14,-188.329)">
			<title>Rounded Rectangle.290</title>
			<path d="M4.25 490.04 L38.27 490.04 A4.2519 4.2519 -180 0 0 42.52 485.79 L42.52 480.12 A4.2519 4.2519 -180 0 0 38.27
						 475.87 L4.25 475.87 A4.2519 4.2519 -180 0 0 0 480.12 L0 485.79 A4.2519 4.2519 -180 0 0 4.25 490.04 Z"
					class="st4"/>
		</g>
		<g id="shape38-97" transform="translate(500.14,-174.156)">
			<title>Rounded Rectangle.291</title>
			<path d="M4.25 490.04 L38.27 490.04 A4.2519 4.2519 -180 0 0 42.52 485.79 L42.52 480.12 A4.2519 4.2519 -180 0 0 38.27
						 475.87 L4.25 475.87 A4.2519 4.2519 -180 0 0 0 480.12 L0 485.79 A4.2519 4.2519 -180 0 0 4.25 490.04 Z"
					class="st4"/>
		</g>
		<g id="shape39-99" transform="translate(500.14,-131.636)">
			<title>Rounded Rectangle.292</title>
			<path d="M4.25 490.04 L38.27 490.04 A4.2519 4.2519 -180 0 0 42.52 485.79 L42.52 465.95 A4.2519 4.2519 -180 0 0 38.27
						 461.7 L4.25 461.7 A4.2519 4.2519 -180 0 0 -0 465.95 L0 485.79 A4.2519 4.2519 -180 0 0 4.25 490.04 Z"
					class="st4"/>
		</g>
		<g id="shape40-101" transform="translate(87.6903,-287.94) rotate(-25.8964)">
			<title>Sheet.40</title>
			<path d="M0 490.04 L137.02 490.04" class="st13"/>
		</g>
		<g id="shape41-106" transform="translate(730.626,-69.9487) rotate(61.0749)">
			<title>Sheet.41</title>
			<path d="M0 490.04 L84.33 490.04" class="st13"/>
		</g>
		<g id="shape42-111" transform="translate(246.256,-209.034) rotate(-14.0827)">
			<title>Sheet.42</title>
			<path d="M0 490.04 L250.84 490.04" class="st13"/>
		</g>
		<g id="shape43-116" transform="translate(184.118,-343.149) rotate(-13.7349)">
			<title>Sheet.43</title>
			<path d="M5.8 490.04 L6.16 490.04 L154.48 490.04" class="st15"/>
		</g>
		<g id="shape44-122" transform="translate(730.688,-101.755) rotate(61.3925)">
			<title>Sheet.44</title>
			<path d="M5.8 490.04 L6.16 490.04 L135.81 490.04" class="st15"/>
		</g>
		<g id="shape45-127" transform="translate(395.484,-208.67) rotate(3.50864)">
			<title>Sheet.45</title>
			<path d="M0 490.04 L129.99 490.04" class="st13"/>
		</g>
		<g id="shape46-132" transform="translate(614.674,-378.008) rotate(17.1041)">
			<title>Sheet.46</title>
			<path d="M5.8 490.04 L6.16 490.04 L260.81 490.04" class="st15"/>
		</g>
		<g id="shape47-137" transform="translate(314.172,-238.556) rotate(-8.37041)">
			<title>Sheet.47</title>
			<path d="M5.8 490.04 L6.16 490.04 L251.96 490.04" class="st15"/>
		</g>
		<g id="shape48-142" transform="translate(549.811,-215.412) rotate(19.5896)">
			<title>Sheet.48</title>
			<path d="M5.8 490.04 L6.16 490.04 L144.24 490.04" class="st15"/>
		</g>
		<g id="shape49-147" transform="translate(32.4232,-315.888)">
			<title>Sheet.49</title>
			<desc>tree object</desc>
			<rect x="0" y="447.524" width="70.8661" height="42.5197" class="st2"/>
			<text x="6.09" y="472.98" class="st17">tree object</text>		</g>
	</g>
</svg>
