<?xml version="1.0" encoding="UTF-8" standalone="no"?>
<!DOCTYPE svg PUBLIC "-//W3C//DTD SVG 1.1//EN" "http://www.w3.org/Graphics/SVG/1.1/DTD/svg11.dtd">
<!-- Illustrator: Larry Huang -->
<svg xmlns="http://www.w3.org/2000/svg" xmlns:xlink="http://www.w3.org/1999/xlink" xmlns:ev="http://www.w3.org/2001/xml-events"
		width="11.5306in" height="12.1211in" viewBox="0 0 830.201 872.721" xml:space="preserve" color-interpolation-filters="sRGB"
		class="st31">
	<style type="text/css">
	<![CDATA[
		.st1 {fill:none;stroke:none;stroke-width:0.25}
		.st2 {fill:#0000ff;font-family:Times New Roman;font-size:1.99999em}
		.st3 {fill:none;stroke:#000000;stroke-width:1.5}
		.st4 {fill:#000000;font-family:Times New Roman;font-size:1.33333em}
		.st5 {font-size:1em}
		.st6 {stroke:#000000;stroke-width:1}
		.st7 {fill:#0070c0;font-family:Wingdings;font-size:1.16666em}
		.st8 {font-family:Times New Roman;font-size:1em}
		.st9 {fill:none;stroke:#000000;stroke-width:0.25}
		.st10 {fill:#000000;font-family:Times New Roman;font-size:1.16666em}
		.st11 {stroke:#000000;stroke-width:0.75}
		.st12 {stroke:#000000;stroke-linecap:round;stroke-linejoin:round;stroke-width:1}
		.st13 {fill:#ff0000;stroke:#ff0000;stroke-linecap:butt;stroke-width:0.75}
		.st14 {fill:#ff0000;font-family:Times New Roman;font-size:1.16666em}
		.st15 {fill:none;stroke:#0070c0;stroke-width:0.25}
		.st16 {fill:#0070c0;font-family:Times New Roman;font-size:1.16666em}
		.st17 {marker-end:url(#mrkr5-116);stroke:#0070c0;stroke-dasharray:0.25,0.5;stroke-linecap:round;stroke-linejoin:round;stroke-width:0.25}
		.st18 {fill:#0070c0;fill-opacity:1;stroke:#0070c0;stroke-opacity:1;stroke-width:0.090252707581227}
		.st19 {fill:none;stroke:#7f7f7f;stroke-dasharray:1.75,1.25;stroke-width:0.25}
		.st20 {fill:none;stroke:#000000;stroke-width:1}
		.st21 {marker-end:url(#mrkr5-191);stroke:#000000;stroke-linecap:round;stroke-linejoin:round;stroke-width:1}
		.st22 {fill:#000000;fill-opacity:1;stroke:#000000;stroke-opacity:1;stroke-width:0.23584905660377}
		.st23 {fill:#7f7f7f;font-family:Times New Roman;font-size:1.00001em}
		.st24 {fill:#000000;font-family:Times New Roman;font-size:1.00001em}
		.st25 {fill:#000000;font-family:Times New Roman;font-size:0.833336em}
		.st26 {marker-end:url(#mrkr5-207);stroke:#000000;stroke-linecap:round;stroke-linejoin:round;stroke-width:1}
		.st27 {fill:#000000;fill-opacity:1;stroke:#000000;stroke-opacity:1;stroke-width:0.28409090909091}
		.st28 {marker-start:url(#mrkr5-274);stroke:#7f7f7f;stroke-dasharray:1,2;stroke-linecap:round;stroke-linejoin:round;stroke-width:1}
		.st29 {fill:#7f7f7f;fill-opacity:1;stroke:#7f7f7f;stroke-opacity:1;stroke-width:0.28409090909091}
		.st30 {fill:#7f7f7f;font-family:Times New Roman;font-size:1.16666em}
		.st31 {fill:none;fill-rule:evenodd;font-size:12px;overflow:visible;stroke-linecap:square;stroke-miterlimit:3}
	]]>
	</style>

	<defs id="Markers">
		<g id="lend5">
			<path d="M 2 1 L 0 0 L 1.98117 -0.993387 C 1.67173 -0.364515 1.67301 0.372641 1.98465 1.00043 " style="stroke:none"/>
		</g>
		<marker id="mrkr5-116" class="st18" refX="-19.39" orient="auto" markerUnits="strokeWidth" overflow="visible">
			<use xlink:href="#lend5" transform="scale(-11.08,-11.08) "/>
		</marker>
		<marker id="mrkr5-191" class="st22" refX="-7.42" orient="auto" markerUnits="strokeWidth" overflow="visible">
			<use xlink:href="#lend5" transform="scale(-4.24,-4.24) "/>
		</marker>
		<marker id="mrkr5-207" class="st27" refX="-6.16" orient="auto" markerUnits="strokeWidth" overflow="visible">
			<use xlink:href="#lend5" transform="scale(-3.52,-3.52) "/>
		</marker>
		<marker id="mrkr5-274" class="st29" refX="5.8" orient="auto" markerUnits="strokeWidth" overflow="visible">
			<use xlink:href="#lend5" transform="scale(3.52) "/>
		</marker>
	</defs>
	<g>
		<title>Page-1</title>
		<g id="shape1-1" transform="translate(32.4232,-826.124)">
			<title>Sheet.1</title>
			<desc>Binary Search Tree</desc>
			<rect x="0" y="844.374" width="198.425" height="28.3465" class="st1"/>
			<text x="5.93" y="865.75" class="st2">Binary Search Tree</text>		</g>
		<g id="shape2-4" transform="translate(145.809,-712.738)">
			<title>Circle.73</title>
			<desc>Parent node</desc>
			<path d="M0 837.29 A35.4331 35.4331 0 0 1 70.87 837.29 A35.4331 35.4331 0 1 1 0 837.29 Z" class="st3"/>
			<text x="15" y="832.49" class="st4">Parent <tspan x="19.88" dy="1.2em" class="st5">node</tspan></text>		</g>
		<g id="shape3-8" transform="translate(60.7697,-585.179)">
			<title>Triangle</title>
			<desc>Left subtree</desc>
			<path d="M99.21 872.72 L49.61 787.68 L0 872.72 L99.21 872.72 Z" class="st3"/>
			<text x="36.28" y="839.57" class="st4">Left  <tspan x="26.5" dy="1.2em" class="st5">subtree</tspan></text>		</g>
		<g id="shape4-12" transform="translate(202.502,-585.179)">
			<title>Triangle.123</title>
			<desc>Right subtree</desc>
			<path d="M99.21 872.72 L49.61 787.68 L0 872.72 L99.21 872.72 Z" class="st3"/>
			<text x="31.83" y="839.57" class="st4">Right  <tspan x="26.5" dy="1.2em" class="st5">subtree</tspan></text>		</g>
		<g id="shape5-16" transform="translate(110.376,-670.219)">
			<title>Sheet.5</title>
			<path d="M141.73 872.72 L70.87 830.2 L0 872.72" class="st6"/>
		</g>
		<g id="shape6-19" transform="translate(18.25,-500.14)">
			<title>Sheet.6</title>
			<desc>each element / value of the tree is unique values of nodes in...</desc>
			<rect x="0" y="816.028" width="467.717" height="56.6929" class="st1"/>
			<text x="4" y="831.43" class="st7"><tspan class="st5">Ø</tspan> <tspan class="st8">each element / value of the tree is unique </tspan><tspan
						x="4" dy="1.233em" class="st5">Ø</tspan> <tspan class="st8">values of nodes in left subtree are LESS than the value of parent node </tspan><tspan
						x="4" dy="1.233em" class="st5">Ø</tspan> <tspan class="st8">values of nodes in right subtree are GREATER than the value of parent node</tspan></text>		</g>
		<g id="shape9-28" transform="translate(641.872,-769.431)">
			<title>Circle.80</title>
			<desc>6</desc>
			<path d="M0 858.55 A14.1732 14.1732 0 1 1 28.35 858.55 A14.1732 14.1732 0 0 1 0 858.55 Z" class="st9"/>
			<text x="10.67" y="862.75" class="st10">6</text>		</g>
		<g id="shape10-31" transform="translate(556.833,-712.738)">
			<title>Circle.81</title>
			<desc>3</desc>
			<path d="M0 858.55 A14.1732 14.1732 0 1 1 28.35 858.55 A14.1732 14.1732 0 0 1 0 858.55 Z" class="st9"/>
			<text x="10.67" y="862.75" class="st10">3</text>		</g>
		<g id="shape11-34" transform="translate(726.911,-712.738)">
			<title>Circle.82</title>
			<desc>9</desc>
			<path d="M0 858.55 A14.1732 14.1732 0 1 1 28.35 858.55 A14.1732 14.1732 0 0 1 0 858.55 Z" class="st9"/>
			<text x="10.67" y="862.75" class="st10">9</text>		</g>
		<g id="shape12-37" transform="translate(613.526,-656.045)">
			<title>Circle.83</title>
			<desc>5</desc>
			<path d="M0 858.55 A14.1732 14.1732 0 1 1 28.35 858.55 A14.1732 14.1732 0 0 1 0 858.55 Z" class="st9"/>
			<text x="10.67" y="862.75" class="st10">5</text>		</g>
		<g id="shape13-40" transform="translate(500.14,-656.045)">
			<title>Circle.84</title>
			<desc>1</desc>
			<path d="M0 858.55 A14.1732 14.1732 0 1 1 28.35 858.55 A14.1732 14.1732 0 0 1 0 858.55 Z" class="st9"/>
			<text x="10.67" y="862.75" class="st10">1</text>		</g>
		<g id="shape14-43" transform="translate(670.219,-656.045)">
			<title>Circle.85</title>
			<desc>7</desc>
			<path d="M0 858.55 A14.1732 14.1732 0 1 1 28.35 858.55 A14.1732 14.1732 0 0 1 0 858.55 Z" class="st9"/>
			<text x="10.67" y="862.75" class="st10">7</text>		</g>
		<g id="shape15-46" transform="translate(783.604,-656.045)">
			<title>Circle.86</title>
			<desc>11</desc>
			<path d="M0 858.55 A14.1732 14.1732 0 1 1 28.35 858.55 A14.1732 14.1732 0 0 1 0 858.55 Z" class="st9"/>
			<text x="7.17" y="862.75" class="st10">11</text>		</g>
		<g id="shape16-49" transform="translate(571.006,-741.085)">
			<title>Sheet.16</title>
			<path d="M170.08 872.72 L85.04 844.37 L0 872.72" class="st11"/>
		</g>
		<g id="shape17-52" transform="translate(514.313,-684.392)">
			<title>Sheet.17</title>
			<path d="M113.39 872.72 L56.69 844.37 L0 872.72" class="st11"/>
		</g>
		<g id="shape18-55" transform="translate(684.392,-684.392)">
			<title>Sheet.18</title>
			<path d="M113.39 872.72 L56.69 844.37 L0 872.72" class="st11"/>
		</g>
		<g id="shape19-58" transform="translate(585.179,-599.352)">
			<title>Circle.90</title>
			<desc>4</desc>
			<path d="M0 858.55 A14.1732 14.1732 0 1 1 28.35 858.55 A14.1732 14.1732 0 0 1 0 858.55 Z" class="st9"/>
			<text x="10.67" y="862.75" class="st10">4</text>		</g>
		<g id="shape20-61" transform="translate(1244.81,833.782) rotate(135)">
			<title>Sheet.20</title>
			<path d="M0 872.72 L40.09 872.72" class="st12"/>
		</g>
		<g id="shape21-64" transform="translate(528.486,-599.352)">
			<title>Circle.92</title>
			<desc>2</desc>
			<path d="M0 858.55 A14.1732 14.1732 0 1 1 28.35 858.55 A14.1732 14.1732 0 0 1 0 858.55 Z" class="st9"/>
			<text x="10.67" y="862.75" class="st10">2</text>		</g>
		<g id="shape22-67" transform="translate(1131.42,-400.431) rotate(45)">
			<title>Sheet.22</title>
			<path d="M0 872.72 L40.09 872.72" class="st12"/>
		</g>
		<g id="shape23-70" transform="translate(755.258,-599.352)">
			<title>Circle.94</title>
			<desc>10</desc>
			<path d="M0 858.55 A14.1732 14.1732 0 1 1 28.35 858.55 A14.1732 14.1732 0 0 1 0 858.55 Z" class="st9"/>
			<text x="7.17" y="862.75" class="st10">10</text>		</g>
		<g id="shape24-73" transform="translate(1414.88,833.782) rotate(135)">
			<title>Sheet.24</title>
			<path d="M0 872.72 L40.09 872.72" class="st12"/>
		</g>
		<g id="shape25-76" transform="translate(1330.34,163.388) rotate(90)">
			<title>Cut</title>
			<path d="M20.26 862.99 L17.05 862.54 L14.67 859.37 C15.53 858.47 16.32 857.58 16.92 856.78 C18.85 854.22 22.27 847.92
						 22.27 847.03 C22.27 846.15 21.53 844.38 21.53 844.38 L12.47 856.44 L3.41 844.37 C3.41 844.37 2.67 846.15
						 2.67 847.03 C2.67 847.92 6.09 854.22 8.02 856.78 C8.62 857.58 9.41 858.47 10.27 859.37 L7.89 862.54 L4.68
						 862.99 C2.08 863.1 0 865.23 0 867.85 C0 870.54 2.19 872.72 4.9 872.72 C7.6 872.72 9.8 870.54 9.8 867.85
						 C9.8 867.75 9.79 867.65 9.78 867.56 L9.78 867.56 L9.79 864.07 C10.56 863.38 11.5 862.52 12.47 861.58 C13.44
						 862.52 14.38 863.38 15.15 864.07 L15.16 867.56 C15.15 867.65 15.14 867.75 15.14 867.85 C15.14 870.54 17.33
						 872.72 20.04 872.72 C22.75 872.72 24.94 870.54 24.94 867.85 C24.94 865.23 22.86 863.1 20.26 862.99 ZM4.9
						 870.95 C3.18 870.95 1.78 869.56 1.78 867.85 C1.78 866.14 3.18 864.75 4.9 864.75 C6.62 864.75 8.02 866.14
						 8.02 867.85 C8.02 869.56 6.62 870.95 4.9 870.95 ZM20.04 870.95 C18.32 870.95 16.92 869.56 16.92 867.85 C16.92
						 866.14 18.32 864.75 20.04 864.75 C21.76 864.75 23.16 866.14 23.16 867.85 C23.16 869.56 21.76 870.95 20.04
						 870.95 Z" class="st13"/>
		</g>
		<g id="shape26-78" transform="translate(358.407,-712.738)">
			<title>Sheet.26</title>
			<desc>if cuts all links between nodes</desc>
			<rect x="0" y="844.374" width="198.425" height="28.3465" class="st1"/>
			<text x="14.65" y="862.75" class="st14">if cuts all links between nodes</text>		</g>
		<g id="shape27-81" transform="translate(500.14,-514.313)">
			<title>Square</title>
			<desc>1</desc>
			<rect x="0" y="844.374" width="28.3465" height="28.3465" class="st15"/>
			<text x="10.67" y="862.75" class="st16">1</text>		</g>
		<g id="shape28-84" transform="translate(585.179,-514.313)">
			<title>Square.198</title>
			<desc>4</desc>
			<rect x="0" y="844.374" width="28.3465" height="28.3465" class="st15"/>
			<text x="10.67" y="862.75" class="st16">4</text>		</g>
		<g id="shape29-87" transform="translate(528.486,-514.313)">
			<title>Square.199</title>
			<desc>2</desc>
			<rect x="0" y="844.374" width="28.3465" height="28.3465" class="st15"/>
			<text x="10.67" y="862.75" class="st16">2</text>		</g>
		<g id="shape30-90" transform="translate(556.833,-514.313)">
			<title>Square.200</title>
			<desc>3</desc>
			<rect x="0" y="844.374" width="28.3465" height="28.3465" class="st15"/>
			<text x="10.67" y="862.75" class="st16">3</text>		</g>
		<g id="shape31-93" transform="translate(613.526,-514.313)">
			<title>Square.201</title>
			<desc>5</desc>
			<rect x="0" y="844.374" width="28.3465" height="28.3465" class="st15"/>
			<text x="10.67" y="862.75" class="st16">5</text>		</g>
		<g id="shape32-96" transform="translate(641.872,-514.313)">
			<title>Square.202</title>
			<desc>6</desc>
			<rect x="0" y="844.374" width="28.3465" height="28.3465" class="st15"/>
			<text x="10.67" y="862.75" class="st16">6</text>		</g>
		<g id="shape33-99" transform="translate(670.219,-514.313)">
			<title>Square.203</title>
			<desc>7</desc>
			<rect x="0" y="844.374" width="28.3465" height="28.3465" class="st15"/>
			<text x="10.67" y="862.75" class="st16">7</text>		</g>
		<g id="shape34-102" transform="translate(698.565,-514.313)">
			<title>Square.204</title>
			<desc>8</desc>
			<rect x="0" y="844.374" width="28.3465" height="28.3465" class="st15"/>
			<text x="10.67" y="862.75" class="st16">8</text>		</g>
		<g id="shape35-105" transform="translate(726.911,-514.313)">
			<title>Square.205</title>
			<desc>9</desc>
			<rect x="0" y="844.374" width="28.3465" height="28.3465" class="st15"/>
			<text x="10.67" y="862.75" class="st16">9</text>		</g>
		<g id="shape36-108" transform="translate(755.258,-514.313)">
			<title>Square.206</title>
			<desc>10</desc>
			<rect x="0" y="844.374" width="28.3465" height="28.3465" class="st15"/>
			<text x="7.17" y="862.75" class="st16">10</text>		</g>
		<g id="shape37-111" transform="translate(1387.03,230.848) rotate(90)">
			<title>Sheet.37</title>
			<path d="M0 872.72 L80.19 872.72" class="st17"/>
		</g>
		<g id="shape38-117" transform="translate(1500.42,230.848) rotate(90)">
			<title>Sheet.38</title>
			<path d="M0 872.72 L80.19 872.72" class="st17"/>
		</g>
		<g id="shape39-122" transform="translate(1443.73,174.156) rotate(90)">
			<title>Sheet.39</title>
			<path d="M0 872.72 L136.88 872.72" class="st17"/>
		</g>
		<g id="shape40-127" transform="translate(1557.11,230.848) rotate(90)">
			<title>Sheet.40</title>
			<path d="M0 872.72 L80.19 872.72" class="st17"/>
		</g>
		<g id="shape41-132" transform="translate(1670.5,230.848) rotate(90)">
			<title>Sheet.41</title>
			<path d="M0 872.72 L80.19 872.72" class="st17"/>
		</g>
		<g id="shape42-137" transform="translate(1613.81,174.156) rotate(90)">
			<title>Sheet.42</title>
			<path d="M0 872.72 L136.88 872.72" class="st17"/>
		</g>
		<g id="shape43-142" transform="translate(1415.38,287.541) rotate(90)">
			<title>Sheet.43</title>
			<path d="M0 872.72 L23.5 872.72" class="st17"/>
		</g>
		<g id="shape44-147" transform="translate(1472.07,287.541) rotate(90)">
			<title>Sheet.44</title>
			<path d="M0 872.72 L23.5 872.72" class="st17"/>
		</g>
		<g id="shape45-152" transform="translate(1642.15,287.541) rotate(90)">
			<title>Sheet.45</title>
			<path d="M0 872.72 L23.5 872.72" class="st17"/>
		</g>
		<g id="shape46-157" transform="translate(1528.77,117.463) rotate(90)">
			<title>Sheet.46</title>
			<path d="M0 872.72 L193.58 872.72" class="st17"/>
		</g>
		<g id="shape47-162" transform="translate(783.604,-514.313)">
			<title>Square.303</title>
			<desc>11</desc>
			<rect x="0" y="844.374" width="28.3465" height="28.3465" class="st15"/>
			<text x="7.17" y="862.75" class="st16">11</text>		</g>
		<g id="shape48-165" transform="translate(698.565,-599.352)">
			<title>Circle.304</title>
			<desc>8</desc>
			<path d="M0 858.55 A14.1732 14.1732 0 1 1 28.35 858.55 A14.1732 14.1732 0 0 1 0 858.55 Z" class="st9"/>
			<text x="10.67" y="862.75" class="st10">8</text>		</g>
		<g id="shape49-168" transform="translate(1301.5,-400.431) rotate(45)">
			<title>Sheet.49</title>
			<path d="M0 872.72 L40.09 872.72" class="st12"/>
		</g>
		<g id="shape50-171" transform="translate(1585.46,287.541) rotate(90)">
			<title>Sheet.50</title>
			<path d="M0 872.72 L23.5 872.72" class="st17"/>
		</g>
		<g id="shape51-176" transform="translate(230.848,-46.5965)">
			<title>Sheet.51</title>
			<path d="M0 872.72 L538.58 872.72 L538.58 504.22 L0 504.22 L0 872.72 Z" class="st19"/>
		</g>
		<g id="shape52-178" transform="translate(103.289,-287.541)">
			<title>Circle.249</title>
			<path d="M0 823.11 A49.6063 49.6063 0 1 1 99.21 823.11 A49.6063 49.6063 0 1 1 0 823.11 Z" class="st20"/>
		</g>
		<g id="shape53-180" transform="translate(131.636,-344.234)">
			<title>Rounded Rectangle.250</title>
			<desc>root</desc>
			<path d="M4.25 872.72 L38.27 872.72 A4.2519 4.2519 -180 0 0 42.52 868.47 L42.52 848.63 A4.2519 4.2519 -180 0 0 38.27
						 844.37 L4.25 844.37 A4.2519 4.2519 -180 0 0 0 848.63 L0 868.47 A4.2519 4.2519 -180 0 0 4.25 872.72 Z"
					class="st20"/>
			<text x="9.98" y="862.75" class="st10">root</text>		</g>
		<g id="shape54-183" transform="translate(131.636,-301.715)">
			<title>Rounded Rectangle.251</title>
			<desc>size</desc>
			<path d="M4.25 872.72 L38.27 872.72 A4.2519 4.2519 -180 0 0 42.52 868.47 L42.52 848.63 A4.2519 4.2519 -180 0 0 38.27
						 844.37 L4.25 844.37 A4.2519 4.2519 -180 0 0 0 848.63 L0 868.47 A4.2519 4.2519 -180 0 0 4.25 872.72 Z"
					class="st20"/>
			<text x="10.38" y="862.75" class="st10">size</text>		</g>
		<g id="shape55-186" transform="translate(186.751,-358.317) rotate(0.826928)">
			<title>Sheet.55</title>
			<path d="M0 872.72 L78.87 872.72" class="st21"/>
		</g>
		<g id="shape56-192" transform="translate(500.14,-18.25)">
			<title>Sheet.56</title>
			<desc>on the heap / free store / dynamic memory allocation</desc>
			<rect x="0" y="844.374" width="269.291" height="28.3465" class="st1"/>
			<text x="7.86" y="862.15" class="st23">on the heap / free store / dynamic memory allocation</text>		</g>
		<g id="shape57-195" transform="translate(259.195,-245.022)">
			<title>Rounded Rectangle.256</title>
			<desc>data value</desc>
			<path d="M4.25 872.72 L38.27 872.72 A4.2519 4.2519 -180 0 0 42.52 868.47 L42.52 806.11 A4.2519 4.2519 -180 0 0 38.27
						 801.85 L4.25 801.85 A4.2519 4.2519 -180 0 0 0 806.11 L0 868.47 A4.2519 4.2519 -180 0 0 4.25 872.72 Z"
					class="st20"/>
			<text x="11.27" y="833.69" class="st24">data <tspan x="8.27" dy="1.2em" class="st5">value</tspan></text>		</g>
		<g id="shape58-199" transform="translate(259.195,-315.888)">
			<title>Rounded Rectangle.257</title>
			<desc>left</desc>
			<path d="M4.25 872.72 L38.27 872.72 A4.2519 4.2519 -180 0 0 42.52 868.47 L42.52 862.8 A4.2519 4.2519 -180 0 0 38.27 858.55
						 L4.25 858.55 A4.2519 4.2519 -180 0 0 0 862.8 L0 868.47 A4.2519 4.2519 -180 0 0 4.25 872.72 Z" class="st20"/>
			<text x="14.6" y="868.63" class="st25">left</text>		</g>
		<g id="shape59-202" transform="translate(577.577,-356.198) rotate(8.37041)">
			<title>Sheet.59</title>
			<path d="M0 872.72 L245.8 872.72" class="st26"/>
		</g>
		<g id="shape60-208" transform="translate(259.195,-344.234)">
			<title>Rounded Rectangle.260</title>
			<desc>parent</desc>
			<path d="M4.25 872.72 L38.27 872.72 A4.2519 4.2519 -180 0 0 42.52 868.47 L42.52 862.8 A4.2519 4.2519 -180 0 0 38.27 858.55
						 L4.25 858.55 A4.2519 4.2519 -180 0 0 0 862.8 L0 868.47 A4.2519 4.2519 -180 0 0 4.25 872.72 Z" class="st20"/>
			<text x="8.77" y="868.63" class="st25">parent</text>		</g>
		<g id="shape61-211" transform="translate(259.195,-330.061)">
			<title>Rounded Rectangle.261</title>
			<desc>right</desc>
			<path d="M4.25 872.72 L38.27 872.72 A4.2519 4.2519 -180 0 0 42.52 868.47 L42.52 862.8 A4.2519 4.2519 -180 0 0 38.27 858.55
						 L4.25 858.55 A4.2519 4.2519 -180 0 0 0 862.8 L0 868.47 A4.2519 4.2519 -180 0 0 4.25 872.72 Z" class="st20"/>
			<text x="11.82" y="868.63" class="st25">right</text>		</g>
		<g id="shape63-214" transform="translate(698.565,-216.675)">
			<title>Rounded Rectangle.268</title>
			<path d="M4.25 872.72 L38.27 872.72 A4.2519 4.2519 -180 0 0 42.52 868.47 L42.52 806.11 A4.2519 4.2519 -180 0 0 38.27
						 801.85 L4.25 801.85 A4.2519 4.2519 -180 0 0 0 806.11 L0 868.47 A4.2519 4.2519 -180 0 0 4.25 872.72 Z"
					class="st20"/>
		</g>
		<g id="shape64-216" transform="translate(698.565,-287.541)">
			<title>Rounded Rectangle.269</title>
			<path d="M4.25 872.72 L38.27 872.72 A4.2519 4.2519 -180 0 0 42.52 868.47 L42.52 862.8 A4.2519 4.2519 -180 0 0 38.27 858.55
						 L4.25 858.55 A4.2519 4.2519 -180 0 0 0 862.8 L0 868.47 A4.2519 4.2519 -180 0 0 4.25 872.72 Z" class="st20"/>
		</g>
		<g id="shape65-218" transform="translate(698.565,-315.888)">
			<title>Rounded Rectangle.270</title>
			<path d="M4.25 872.72 L38.27 872.72 A4.2519 4.2519 -180 0 0 42.52 868.47 L42.52 862.8 A4.2519 4.2519 -180 0 0 38.27 858.55
						 L4.25 858.55 A4.2519 4.2519 -180 0 0 0 862.8 L0 868.47 A4.2519 4.2519 -180 0 0 4.25 872.72 Z" class="st20"/>
		</g>
		<g id="shape66-220" transform="translate(698.565,-301.715)">
			<title>Rounded Rectangle.271</title>
			<path d="M4.25 872.72 L38.27 872.72 A4.2519 4.2519 -180 0 0 42.52 868.47 L42.52 862.8 A4.2519 4.2519 -180 0 0 38.27 858.55
						 L4.25 858.55 A4.2519 4.2519 -180 0 0 0 862.8 L0 868.47 A4.2519 4.2519 -180 0 0 4.25 872.72 Z" class="st20"/>
		</g>
		<g id="shape68-222" transform="translate(344.234,-131.636)">
			<title>Rounded Rectangle.273</title>
			<path d="M4.25 872.72 L38.27 872.72 A4.2519 4.2519 -180 0 0 42.52 868.47 L42.52 806.11 A4.2519 4.2519 -180 0 0 38.27
						 801.85 L4.25 801.85 A4.2519 4.2519 -180 0 0 0 806.11 L0 868.47 A4.2519 4.2519 -180 0 0 4.25 872.72 Z"
					class="st20"/>
		</g>
		<g id="shape69-224" transform="translate(344.234,-202.502)">
			<title>Rounded Rectangle.274</title>
			<path d="M4.25 872.72 L38.27 872.72 A4.2519 4.2519 -180 0 0 42.52 868.47 L42.52 862.8 A4.2519 4.2519 -180 0 0 38.27 858.55
						 L4.25 858.55 A4.2519 4.2519 -180 0 0 0 862.8 L0 868.47 A4.2519 4.2519 -180 0 0 4.25 872.72 Z" class="st20"/>
		</g>
		<g id="shape70-226" transform="translate(344.234,-230.848)">
			<title>Rounded Rectangle.275</title>
			<path d="M4.25 872.72 L38.27 872.72 A4.2519 4.2519 -180 0 0 42.52 868.47 L42.52 862.8 A4.2519 4.2519 -180 0 0 38.27 858.55
						 L4.25 858.55 A4.2519 4.2519 -180 0 0 0 862.8 L0 868.47 A4.2519 4.2519 -180 0 0 4.25 872.72 Z" class="st20"/>
		</g>
		<g id="shape71-228" transform="translate(344.234,-216.675)">
			<title>Rounded Rectangle.276</title>
			<path d="M4.25 872.72 L38.27 872.72 A4.2519 4.2519 -180 0 0 42.52 868.47 L42.52 862.8 A4.2519 4.2519 -180 0 0 38.27 858.55
						 L4.25 858.55 A4.2519 4.2519 -180 0 0 0 862.8 L0 868.47 A4.2519 4.2519 -180 0 0 4.25 872.72 Z" class="st20"/>
		</g>
		<g id="shape73-230" transform="translate(429.274,-287.541)">
			<title>Rounded Rectangle.278</title>
			<path d="M4.25 872.72 L38.27 872.72 A4.2519 4.2519 -180 0 0 42.52 868.47 L42.52 806.11 A4.2519 4.2519 -180 0 0 38.27
						 801.85 L4.25 801.85 A4.2519 4.2519 -180 0 0 0 806.11 L0 868.47 A4.2519 4.2519 -180 0 0 4.25 872.72 Z"
					class="st20"/>
		</g>
		<g id="shape74-232" transform="translate(429.274,-358.408)">
			<title>Rounded Rectangle.279</title>
			<path d="M4.25 872.72 L38.27 872.72 A4.2519 4.2519 -180 0 0 42.52 868.47 L42.52 862.8 A4.2519 4.2519 -180 0 0 38.27 858.55
						 L4.25 858.55 A4.2519 4.2519 -180 0 0 0 862.8 L0 868.47 A4.2519 4.2519 -180 0 0 4.25 872.72 Z" class="st20"/>
		</g>
		<g id="shape75-234" transform="translate(429.274,-386.754)">
			<title>Rounded Rectangle.280</title>
			<path d="M4.25 872.72 L38.27 872.72 A4.2519 4.2519 -180 0 0 42.52 868.47 L42.52 862.8 A4.2519 4.2519 -180 0 0 38.27 858.55
						 L4.25 858.55 A4.2519 4.2519 -180 0 0 0 862.8 L0 868.47 A4.2519 4.2519 -180 0 0 4.25 872.72 Z" class="st20"/>
		</g>
		<g id="shape76-236" transform="translate(429.274,-372.581)">
			<title>Rounded Rectangle.281</title>
			<path d="M4.25 872.72 L38.27 872.72 A4.2519 4.2519 -180 0 0 42.52 868.47 L42.52 862.8 A4.2519 4.2519 -180 0 0 38.27 858.55
						 L4.25 858.55 A4.2519 4.2519 -180 0 0 0 862.8 L0 868.47 A4.2519 4.2519 -180 0 0 4.25 872.72 Z" class="st20"/>
		</g>
		<g id="shape78-238" transform="translate(613.526,-174.156)">
			<title>Rounded Rectangle.283</title>
			<path d="M4.25 872.72 L38.27 872.72 A4.2519 4.2519 -180 0 0 42.52 868.47 L42.52 806.11 A4.2519 4.2519 -180 0 0 38.27
						 801.85 L4.25 801.85 A4.2519 4.2519 -180 0 0 0 806.11 L0 868.47 A4.2519 4.2519 -180 0 0 4.25 872.72 Z"
					class="st20"/>
		</g>
		<g id="shape79-240" transform="translate(613.526,-245.022)">
			<title>Rounded Rectangle.284</title>
			<path d="M4.25 872.72 L38.27 872.72 A4.2519 4.2519 -180 0 0 42.52 868.47 L42.52 862.8 A4.2519 4.2519 -180 0 0 38.27 858.55
						 L4.25 858.55 A4.2519 4.2519 -180 0 0 0 862.8 L0 868.47 A4.2519 4.2519 -180 0 0 4.25 872.72 Z" class="st20"/>
		</g>
		<g id="shape80-242" transform="translate(613.526,-273.368)">
			<title>Rounded Rectangle.285</title>
			<path d="M4.25 872.72 L38.27 872.72 A4.2519 4.2519 -180 0 0 42.52 868.47 L42.52 862.8 A4.2519 4.2519 -180 0 0 38.27 858.55
						 L4.25 858.55 A4.2519 4.2519 -180 0 0 0 862.8 L0 868.47 A4.2519 4.2519 -180 0 0 4.25 872.72 Z" class="st20"/>
		</g>
		<g id="shape81-244" transform="translate(613.526,-259.195)">
			<title>Rounded Rectangle.286</title>
			<path d="M4.25 872.72 L38.27 872.72 A4.2519 4.2519 -180 0 0 42.52 868.47 L42.52 862.8 A4.2519 4.2519 -180 0 0 38.27 858.55
						 L4.25 858.55 A4.2519 4.2519 -180 0 0 0 862.8 L0 868.47 A4.2519 4.2519 -180 0 0 4.25 872.72 Z" class="st20"/>
		</g>
		<g id="shape83-246" transform="translate(500.14,-89.1161)">
			<title>Rounded Rectangle.288</title>
			<path d="M4.25 872.72 L38.27 872.72 A4.2519 4.2519 -180 0 0 42.52 868.47 L42.52 806.11 A4.2519 4.2519 -180 0 0 38.27
						 801.85 L4.25 801.85 A4.2519 4.2519 -180 0 0 0 806.11 L0 868.47 A4.2519 4.2519 -180 0 0 4.25 872.72 Z"
					class="st20"/>
		</g>
		<g id="shape84-248" transform="translate(500.14,-159.982)">
			<title>Rounded Rectangle.289</title>
			<path d="M4.25 872.72 L38.27 872.72 A4.2519 4.2519 -180 0 0 42.52 868.47 L42.52 862.8 A4.2519 4.2519 -180 0 0 38.27 858.55
						 L4.25 858.55 A4.2519 4.2519 -180 0 0 0 862.8 L0 868.47 A4.2519 4.2519 -180 0 0 4.25 872.72 Z" class="st20"/>
		</g>
		<g id="shape85-250" transform="translate(500.14,-188.329)">
			<title>Rounded Rectangle.290</title>
			<path d="M4.25 872.72 L38.27 872.72 A4.2519 4.2519 -180 0 0 42.52 868.47 L42.52 862.8 A4.2519 4.2519 -180 0 0 38.27 858.55
						 L4.25 858.55 A4.2519 4.2519 -180 0 0 0 862.8 L0 868.47 A4.2519 4.2519 -180 0 0 4.25 872.72 Z" class="st20"/>
		</g>
		<g id="shape86-252" transform="translate(500.14,-174.156)">
			<title>Rounded Rectangle.291</title>
			<path d="M4.25 872.72 L38.27 872.72 A4.2519 4.2519 -180 0 0 42.52 868.47 L42.52 862.8 A4.2519 4.2519 -180 0 0 38.27 858.55
						 L4.25 858.55 A4.2519 4.2519 -180 0 0 0 862.8 L0 868.47 A4.2519 4.2519 -180 0 0 4.25 872.72 Z" class="st20"/>
		</g>
		<g id="shape88-254" transform="translate(-79.4424,-249.513) rotate(-25.8964)">
			<title>Sheet.88</title>
			<path d="M0 872.72 L137.02 872.72" class="st26"/>
		</g>
		<g id="shape89-259" transform="translate(1065.57,127.64) rotate(61.0749)">
			<title>Sheet.89</title>
			<path d="M0 872.72 L84.33 872.72" class="st26"/>
		</g>
		<g id="shape90-264" transform="translate(153.142,-197.533) rotate(-14.0827)">
			<title>Sheet.90</title>
			<path d="M0 872.72 L250.84 872.72" class="st26"/>
		</g>
		<g id="shape91-269" transform="translate(93.2596,-332.206) rotate(-13.7349)">
			<title>Sheet.91</title>
			<path d="M5.8 872.72 L6.16 872.72 L154.48 872.72" class="st28"/>
		</g>
		<g id="shape92-275" transform="translate(1066.65,97.6938) rotate(61.3925)">
			<title>Sheet.92</title>
			<path d="M5.8 872.72 L6.16 872.72 L135.81 872.72" class="st28"/>
		</g>
		<g id="shape93-280" transform="translate(418.904,-207.953) rotate(3.50864)">
			<title>Sheet.93</title>
			<path d="M0 872.72 L129.99 872.72" class="st26"/>
		</g>
		<g id="shape94-285" transform="translate(727.223,-361.083) rotate(17.1041)">
			<title>Sheet.94</title>
			<path d="M5.8 872.72 L6.16 872.72 L260.81 872.72" class="st28"/>
		</g>
		<g id="shape95-290" transform="translate(258.465,-234.48) rotate(-8.37041)">
			<title>Sheet.95</title>
			<path d="M5.8 872.72 L6.16 872.72 L251.96 872.72" class="st28"/>
		</g>
		<g id="shape96-295" transform="translate(678.115,-193.262) rotate(19.5896)">
			<title>Sheet.96</title>
			<path d="M5.8 872.72 L6.16 872.72 L144.24 872.72" class="st28"/>
		</g>
		<g id="shape97-300" transform="translate(32.4232,-315.888)">
			<title>Sheet.97</title>
			<desc>tree object</desc>
			<rect x="0" y="830.201" width="70.8661" height="42.5197" class="st1"/>
			<text x="6.09" y="855.66" class="st30">tree object</text>		</g>
	</g>
</svg>
