<?xml version="1.0" encoding="UTF-8" standalone="no"?>
<!DOCTYPE svg PUBLIC "-//W3C//DTD SVG 1.1//EN" "http://www.w3.org/Graphics/SVG/1.1/DTD/svg11.dtd">
<!-- Illustrator: Larry Huang -->
<svg xmlns="http://www.w3.org/2000/svg" xmlns:xlink="http://www.w3.org/1999/xlink" xmlns:ev="http://www.w3.org/2001/xml-events"
		width="11.5306in" height="5.4282in" viewBox="0 0 830.201 390.831" xml:space="preserve" color-interpolation-filters="sRGB"
		class="st19">
	<style type="text/css">
	<![CDATA[
		.st1 {fill:none;stroke:none;stroke-width:0.25}
		.st2 {fill:#0000ff;font-family:Times New Roman;font-size:1.99999em}
		.st3 {fill:none;stroke:#000000;stroke-width:1.5}
		.st4 {fill:#000000;font-family:Times New Roman;font-size:1.33333em}
		.st5 {font-size:1em}
		.st6 {stroke:#000000;stroke-width:1}
		.st7 {fill:#0070c0;font-family:Wingdings;font-size:1.16666em}
		.st8 {font-family:Times New Roman;font-size:1em}
		.st9 {fill:none;stroke:#000000;stroke-width:0.25}
		.st10 {fill:#000000;font-family:Times New Roman;font-size:1.16666em}
		.st11 {stroke:#000000;stroke-width:0.75}
		.st12 {stroke:#000000;stroke-linecap:round;stroke-linejoin:round;stroke-width:1}
		.st13 {fill:#ff0000;stroke:#ff0000;stroke-linecap:butt;stroke-width:0.75}
		.st14 {fill:#ff0000;font-family:Times New Roman;font-size:1.16666em}
		.st15 {fill:none;stroke:#0070c0;stroke-width:0.25}
		.st16 {fill:#0070c0;font-family:Times New Roman;font-size:1.16666em}
		.st17 {marker-end:url(#mrkr5-116);stroke:#0070c0;stroke-dasharray:0.25,0.5;stroke-linecap:round;stroke-linejoin:round;stroke-width:0.25}
		.st18 {fill:#0070c0;fill-opacity:1;stroke:#0070c0;stroke-opacity:1;stroke-width:0.090252707581227}
		.st19 {fill:none;fill-rule:evenodd;font-size:12px;overflow:visible;stroke-linecap:square;stroke-miterlimit:3}
	]]>
	</style>

	<defs id="Markers">
		<g id="lend5">
			<path d="M 2 1 L 0 0 L 1.98117 -0.993387 C 1.67173 -0.364515 1.67301 0.372641 1.98465 1.00043 " style="stroke:none"/>
		</g>
		<marker id="mrkr5-116" class="st18" refX="-19.39" orient="auto" markerUnits="strokeWidth" overflow="visible">
			<use xlink:href="#lend5" transform="scale(-11.08,-11.08) "/>
		</marker>
	</defs>
	<g>
		<title>Page-1</title>
		<g id="shape1-1" transform="translate(32.4232,-344.234)">
			<title>Sheet.1</title>
			<desc>Binary Search Tree</desc>
			<rect x="0" y="362.484" width="198.425" height="28.3465" class="st1"/>
			<text x="5.93" y="383.86" class="st2">Binary Search Tree</text>		</g>
		<g id="shape2-4" transform="translate(145.809,-230.848)">
			<title>Circle.73</title>
			<desc>Parent node</desc>
			<path d="M0 355.4 A35.4331 35.4331 0 0 1 70.87 355.4 A35.4331 35.4331 0 1 1 0 355.4 Z" class="st3"/>
			<text x="15" y="350.6" class="st4">Parent <tspan x="19.88" dy="1.2em" class="st5">node</tspan></text>		</g>
		<g id="shape3-8" transform="translate(60.7697,-103.289)">
			<title>Triangle</title>
			<desc>Left subtree</desc>
			<path d="M99.21 390.83 L49.61 305.79 L0 390.83 L99.21 390.83 Z" class="st3"/>
			<text x="36.28" y="357.68" class="st4">Left  <tspan x="26.5" dy="1.2em" class="st5">subtree</tspan></text>		</g>
		<g id="shape4-12" transform="translate(202.502,-103.289)">
			<title>Triangle.123</title>
			<desc>Right subtree</desc>
			<path d="M99.21 390.83 L49.61 305.79 L0 390.83 L99.21 390.83 Z" class="st3"/>
			<text x="31.83" y="357.68" class="st4">Right  <tspan x="26.5" dy="1.2em" class="st5">subtree</tspan></text>		</g>
		<g id="shape5-16" transform="translate(110.376,-188.329)">
			<title>Sheet.5</title>
			<path d="M141.73 390.83 L70.87 348.31 L0 390.83" class="st6"/>
		</g>
		<g id="shape6-19" transform="translate(18.25,-18.25)">
			<title>Sheet.6</title>
			<desc>each value in the tree is unique values of nodes in left subt...</desc>
			<rect x="0" y="334.138" width="467.717" height="56.6929" class="st1"/>
			<text x="4" y="349.54" class="st7"><tspan class="st5">Ø</tspan> <tspan class="st8">each value in the tree is unique </tspan><tspan
						x="4" dy="1.233em" class="st5">Ø</tspan> <tspan class="st8">values of nodes in left subtree are LESS than the value of parent node </tspan><tspan
						x="4" dy="1.233em" class="st5">Ø</tspan> <tspan class="st8">values of nodes in right subtree are GREATER than the value of parent node</tspan></text>		</g>
		<g id="shape9-28" transform="translate(641.872,-287.541)">
			<title>Circle.80</title>
			<desc>6</desc>
			<path d="M0 376.66 A14.1732 14.1732 0 1 1 28.35 376.66 A14.1732 14.1732 0 0 1 0 376.66 Z" class="st9"/>
			<text x="10.67" y="380.86" class="st10">6</text>		</g>
		<g id="shape10-31" transform="translate(556.833,-230.848)">
			<title>Circle.81</title>
			<desc>3</desc>
			<path d="M0 376.66 A14.1732 14.1732 0 1 1 28.35 376.66 A14.1732 14.1732 0 0 1 0 376.66 Z" class="st9"/>
			<text x="10.67" y="380.86" class="st10">3</text>		</g>
		<g id="shape11-34" transform="translate(726.911,-230.848)">
			<title>Circle.82</title>
			<desc>9</desc>
			<path d="M0 376.66 A14.1732 14.1732 0 1 1 28.35 376.66 A14.1732 14.1732 0 0 1 0 376.66 Z" class="st9"/>
			<text x="10.67" y="380.86" class="st10">9</text>		</g>
		<g id="shape12-37" transform="translate(613.526,-174.156)">
			<title>Circle.83</title>
			<desc>5</desc>
			<path d="M0 376.66 A14.1732 14.1732 0 1 1 28.35 376.66 A14.1732 14.1732 0 0 1 0 376.66 Z" class="st9"/>
			<text x="10.67" y="380.86" class="st10">5</text>		</g>
		<g id="shape13-40" transform="translate(500.14,-174.156)">
			<title>Circle.84</title>
			<desc>1</desc>
			<path d="M0 376.66 A14.1732 14.1732 0 1 1 28.35 376.66 A14.1732 14.1732 0 0 1 0 376.66 Z" class="st9"/>
			<text x="10.67" y="380.86" class="st10">1</text>		</g>
		<g id="shape14-43" transform="translate(670.219,-174.156)">
			<title>Circle.85</title>
			<desc>7</desc>
			<path d="M0 376.66 A14.1732 14.1732 0 1 1 28.35 376.66 A14.1732 14.1732 0 0 1 0 376.66 Z" class="st9"/>
			<text x="10.67" y="380.86" class="st10">7</text>		</g>
		<g id="shape15-46" transform="translate(783.604,-174.156)">
			<title>Circle.86</title>
			<desc>11</desc>
			<path d="M0 376.66 A14.1732 14.1732 0 1 1 28.35 376.66 A14.1732 14.1732 0 0 1 0 376.66 Z" class="st9"/>
			<text x="7.17" y="380.86" class="st10">11</text>		</g>
		<g id="shape16-49" transform="translate(571.006,-259.195)">
			<title>Sheet.16</title>
			<path d="M170.08 390.83 L85.04 362.48 L0 390.83" class="st11"/>
		</g>
		<g id="shape17-52" transform="translate(514.313,-202.502)">
			<title>Sheet.17</title>
			<path d="M113.39 390.83 L56.69 362.48 L0 390.83" class="st11"/>
		</g>
		<g id="shape18-55" transform="translate(684.392,-202.502)">
			<title>Sheet.18</title>
			<path d="M113.39 390.83 L56.69 362.48 L0 390.83" class="st11"/>
		</g>
		<g id="shape19-58" transform="translate(585.179,-117.463)">
			<title>Circle.90</title>
			<desc>4</desc>
			<path d="M0 376.66 A14.1732 14.1732 0 1 1 28.35 376.66 A14.1732 14.1732 0 0 1 0 376.66 Z" class="st9"/>
			<text x="10.67" y="380.86" class="st10">4</text>		</g>
		<g id="shape20-61" transform="translate(904.058,493.034) rotate(135)">
			<title>Sheet.20</title>
			<path d="M0 390.83 L40.09 390.83" class="st12"/>
		</g>
		<g id="shape21-64" transform="translate(528.486,-117.463)">
			<title>Circle.92</title>
			<desc>2</desc>
			<path d="M0 376.66 A14.1732 14.1732 0 1 1 28.35 376.66 A14.1732 14.1732 0 0 1 0 376.66 Z" class="st9"/>
			<text x="10.67" y="380.86" class="st10">2</text>		</g>
		<g id="shape22-67" transform="translate(790.672,-59.6839) rotate(45)">
			<title>Sheet.22</title>
			<path d="M0 390.83 L40.09 390.83" class="st12"/>
		</g>
		<g id="shape23-70" transform="translate(755.258,-117.463)">
			<title>Circle.94</title>
			<desc>10</desc>
			<path d="M0 376.66 A14.1732 14.1732 0 1 1 28.35 376.66 A14.1732 14.1732 0 0 1 0 376.66 Z" class="st9"/>
			<text x="7.17" y="380.86" class="st10">10</text>		</g>
		<g id="shape24-73" transform="translate(1074.14,493.034) rotate(135)">
			<title>Sheet.24</title>
			<path d="M0 390.83 L40.09 390.83" class="st12"/>
		</g>
		<g id="shape25-76" transform="translate(848.451,163.388) rotate(90)">
			<title>Cut</title>
			<path d="M20.26 381.1 L17.05 380.65 L14.67 377.48 C15.53 376.58 16.32 375.69 16.92 374.89 C18.85 372.33 22.27 366.03
						 22.27 365.14 C22.27 364.26 21.53 362.49 21.53 362.49 L12.47 374.55 L3.41 362.48 C3.41 362.48 2.67 364.26
						 2.67 365.14 C2.67 366.03 6.09 372.33 8.02 374.89 C8.62 375.69 9.41 376.58 10.27 377.48 L7.89 380.65 L4.68
						 381.1 C2.08 381.21 0 383.34 0 385.96 C0 388.65 2.19 390.83 4.9 390.83 C7.6 390.83 9.8 388.65 9.8 385.96
						 C9.8 385.86 9.79 385.76 9.78 385.67 L9.78 385.67 L9.79 382.18 C10.56 381.49 11.5 380.63 12.47 379.69 C13.44
						 380.63 14.38 381.49 15.15 382.18 L15.16 385.67 C15.15 385.76 15.14 385.86 15.14 385.96 C15.14 388.65 17.33
						 390.83 20.04 390.83 C22.75 390.83 24.94 388.65 24.94 385.96 C24.94 383.34 22.86 381.21 20.26 381.1 ZM4.9
						 389.06 C3.18 389.06 1.78 387.67 1.78 385.96 C1.78 384.25 3.18 382.86 4.9 382.86 C6.62 382.86 8.02 384.25
						 8.02 385.96 C8.02 387.67 6.62 389.06 4.9 389.06 ZM20.04 389.06 C18.32 389.06 16.92 387.67 16.92 385.96 C16.92
						 384.25 18.32 382.86 20.04 382.86 C21.76 382.86 23.16 384.25 23.16 385.96 C23.16 387.67 21.76 389.06 20.04
						 389.06 Z" class="st13"/>
		</g>
		<g id="shape26-78" transform="translate(358.407,-230.848)">
			<title>Sheet.26</title>
			<desc>if cutting all links between nodes</desc>
			<rect x="0" y="362.484" width="198.425" height="28.3465" class="st1"/>
			<text x="6.48" y="380.86" class="st14">if cutting all links between nodes</text>		</g>
		<g id="shape27-81" transform="translate(500.14,-32.4232)">
			<title>Square</title>
			<desc>1</desc>
			<rect x="0" y="362.484" width="28.3465" height="28.3465" class="st15"/>
			<text x="10.67" y="380.86" class="st16">1</text>		</g>
		<g id="shape28-84" transform="translate(585.179,-32.4232)">
			<title>Square.198</title>
			<desc>4</desc>
			<rect x="0" y="362.484" width="28.3465" height="28.3465" class="st15"/>
			<text x="10.67" y="380.86" class="st16">4</text>		</g>
		<g id="shape29-87" transform="translate(528.486,-32.4232)">
			<title>Square.199</title>
			<desc>2</desc>
			<rect x="0" y="362.484" width="28.3465" height="28.3465" class="st15"/>
			<text x="10.67" y="380.86" class="st16">2</text>		</g>
		<g id="shape30-90" transform="translate(556.833,-32.4232)">
			<title>Square.200</title>
			<desc>3</desc>
			<rect x="0" y="362.484" width="28.3465" height="28.3465" class="st15"/>
			<text x="10.67" y="380.86" class="st16">3</text>		</g>
		<g id="shape31-93" transform="translate(613.526,-32.4232)">
			<title>Square.201</title>
			<desc>5</desc>
			<rect x="0" y="362.484" width="28.3465" height="28.3465" class="st15"/>
			<text x="10.67" y="380.86" class="st16">5</text>		</g>
		<g id="shape32-96" transform="translate(641.872,-32.4232)">
			<title>Square.202</title>
			<desc>6</desc>
			<rect x="0" y="362.484" width="28.3465" height="28.3465" class="st15"/>
			<text x="10.67" y="380.86" class="st16">6</text>		</g>
		<g id="shape33-99" transform="translate(670.219,-32.4232)">
			<title>Square.203</title>
			<desc>7</desc>
			<rect x="0" y="362.484" width="28.3465" height="28.3465" class="st15"/>
			<text x="10.67" y="380.86" class="st16">7</text>		</g>
		<g id="shape34-102" transform="translate(698.565,-32.4232)">
			<title>Square.204</title>
			<desc>8</desc>
			<rect x="0" y="362.484" width="28.3465" height="28.3465" class="st15"/>
			<text x="10.67" y="380.86" class="st16">8</text>		</g>
		<g id="shape35-105" transform="translate(726.911,-32.4232)">
			<title>Square.205</title>
			<desc>9</desc>
			<rect x="0" y="362.484" width="28.3465" height="28.3465" class="st15"/>
			<text x="10.67" y="380.86" class="st16">9</text>		</g>
		<g id="shape36-108" transform="translate(755.258,-32.4232)">
			<title>Square.206</title>
			<desc>10</desc>
			<rect x="0" y="362.484" width="28.3465" height="28.3465" class="st15"/>
			<text x="7.17" y="380.86" class="st16">10</text>		</g>
		<g id="shape37-111" transform="translate(905.144,230.848) rotate(90)">
			<title>Sheet.37</title>
			<path d="M0 390.83 L80.19 390.83" class="st17"/>
		</g>
		<g id="shape38-117" transform="translate(1018.53,230.848) rotate(90)">
			<title>Sheet.38</title>
			<path d="M0 390.83 L80.19 390.83" class="st17"/>
		</g>
		<g id="shape39-122" transform="translate(961.837,174.156) rotate(90)">
			<title>Sheet.39</title>
			<path d="M0 390.83 L136.88 390.83" class="st17"/>
		</g>
		<g id="shape40-127" transform="translate(1075.22,230.848) rotate(90)">
			<title>Sheet.40</title>
			<path d="M0 390.83 L80.19 390.83" class="st17"/>
		</g>
		<g id="shape41-132" transform="translate(1188.61,230.848) rotate(90)">
			<title>Sheet.41</title>
			<path d="M0 390.83 L80.19 390.83" class="st17"/>
		</g>
		<g id="shape42-137" transform="translate(1131.92,174.156) rotate(90)">
			<title>Sheet.42</title>
			<path d="M0 390.83 L136.88 390.83" class="st17"/>
		</g>
		<g id="shape43-142" transform="translate(933.49,287.541) rotate(90)">
			<title>Sheet.43</title>
			<path d="M0 390.83 L23.5 390.83" class="st17"/>
		</g>
		<g id="shape44-147" transform="translate(990.183,287.541) rotate(90)">
			<title>Sheet.44</title>
			<path d="M0 390.83 L23.5 390.83" class="st17"/>
		</g>
		<g id="shape45-152" transform="translate(1160.26,287.541) rotate(90)">
			<title>Sheet.45</title>
			<path d="M0 390.83 L23.5 390.83" class="st17"/>
		</g>
		<g id="shape46-157" transform="translate(1046.88,117.463) rotate(90)">
			<title>Sheet.46</title>
			<path d="M0 390.83 L193.58 390.83" class="st17"/>
		</g>
		<g id="shape47-162" transform="translate(783.604,-32.4232)">
			<title>Square.303</title>
			<desc>11</desc>
			<rect x="0" y="362.484" width="28.3465" height="28.3465" class="st15"/>
			<text x="7.17" y="380.86" class="st16">11</text>		</g>
		<g id="shape48-165" transform="translate(698.565,-117.463)">
			<title>Circle.304</title>
			<desc>8</desc>
			<path d="M0 376.66 A14.1732 14.1732 0 1 1 28.35 376.66 A14.1732 14.1732 0 0 1 0 376.66 Z" class="st9"/>
			<text x="10.67" y="380.86" class="st10">8</text>		</g>
		<g id="shape49-168" transform="translate(960.751,-59.6839) rotate(45)">
			<title>Sheet.49</title>
			<path d="M0 390.83 L40.09 390.83" class="st12"/>
		</g>
		<g id="shape50-171" transform="translate(1103.57,287.541) rotate(90)">
			<title>Sheet.50</title>
			<path d="M0 390.83 L23.5 390.83" class="st17"/>
		</g>
	</g>
</svg>
