<?xml version="1.0" encoding="UTF-8" standalone="no"?>
<!DOCTYPE svg PUBLIC "-//W3C//DTD SVG 1.1//EN" "http://www.w3.org/Graphics/SVG/1.1/DTD/svg11.dtd">
<!-- Illustrator: Larry Huang -->
<svg xmlns="http://www.w3.org/2000/svg" xmlns:xlink="http://www.w3.org/1999/xlink" xmlns:ev="http://www.w3.org/2001/xml-events"
		width="11.1369in" height="10.5463in" viewBox="0 0 801.854 759.335" xml:space="preserve" color-interpolation-filters="sRGB"
		class="st13">
	<style type="text/css">
	<![CDATA[
		.st1 {fill:none;stroke:none;stroke-width:0.25}
		.st2 {fill:#000000;font-family:Times New Roman;font-size:1.33333em}
		.st3 {fill:#ff0000;font-size:1em}
		.st4 {font-size:1.25001em;font-style:italic}
		.st5 {fill:none;stroke:#000000;stroke-width:0.25}
		.st6 {stroke:#000000;stroke-linecap:round;stroke-linejoin:round;stroke-width:1}
		.st7 {fill:none;stroke:#ff0000;stroke-width:0.25}
		.st8 {fill:#ff0000;font-family:Times New Roman;font-size:1.33333em}
		.st9 {fill:#7f7f7f;font-family:Times New Roman;font-size:1.16666em}
		.st10 {fill:#0000ff;font-size:1em}
		.st11 {fill:none;stroke:#0000ff;stroke-width:0.25}
		.st12 {fill:#0000ff;font-family:Times New Roman;font-size:1.33333em}
		.st13 {fill:none;fill-rule:evenodd;font-size:12px;overflow:visible;stroke-linecap:square;stroke-miterlimit:3}
	]]>
	</style>

	<g>
		<title>Page-1</title>
		<g id="shape1-1" transform="translate(18.25,-712.738)">
			<title>Sheet.1</title>
			<desc>node y is the Successor of node x</desc>
			<rect x="0" y="730.988" width="240.945" height="28.3465" class="st1"/>
			<text x="5.11" y="751.16" class="st2">node <tspan class="st3">y</tspan> is the <tspan class="st4">Successor </tspan>of node x</text>		</g>
		<g id="shape2-6" transform="translate(131.636,-641.872)">
			<title>Circle.218</title>
			<desc>x</desc>
			<path d="M0 745.16 A14.1732 14.1732 0 1 1 28.35 745.16 A14.1732 14.1732 0 0 1 0 745.16 Z" class="st5"/>
			<text x="10.17" y="749.96" class="st2">x</text>		</g>
		<g id="shape3-9" transform="translate(216.675,-585.179)">
			<title>Circle.219</title>
			<path d="M0 745.16 A14.1732 14.1732 0 1 1 28.35 745.16 A14.1732 14.1732 0 0 1 0 745.16 Z" class="st5"/>
		</g>
		<g id="shape4-11" transform="translate(188.329,-528.486)">
			<title>Circle.220</title>
			<path d="M0 745.16 A14.1732 14.1732 0 1 1 28.35 745.16 A14.1732 14.1732 0 0 1 0 745.16 Z" class="st5"/>
		</g>
		<g id="shape5-13" transform="translate(385.932,-602.906) rotate(18.4349)">
			<title>Sheet.5</title>
			<path d="M0 759.33 L89.64 759.33" class="st6"/>
		</g>
		<g id="shape6-16" transform="translate(767.779,711.086) rotate(135)">
			<title>Sheet.6</title>
			<path d="M0 759.33 L40.09 759.33" class="st6"/>
		</g>
		<g id="shape7-19" transform="translate(159.982,-471.793)">
			<title>Circle.223</title>
			<desc>y</desc>
			<path d="M0 745.16 A14.1732 14.1732 0 1 1 28.35 745.16 A14.1732 14.1732 0 0 1 0 745.16 Z" class="st7"/>
			<text x="10.17" y="749.96" class="st8">y</text>		</g>
		<g id="shape8-22" transform="translate(739.433,767.779) rotate(135)">
			<title>Sheet.8</title>
			<path d="M0 759.33 L40.09 759.33" class="st6"/>
		</g>
		<g id="shape9-25" transform="translate(372.581,-585.179)">
			<title>Circle.225</title>
			<desc>x</desc>
			<path d="M0 745.16 A14.1732 14.1732 0 1 1 28.35 745.16 A14.1732 14.1732 0 0 1 0 745.16 Z" class="st5"/>
			<text x="10.17" y="749.96" class="st2">x</text>		</g>
		<g id="shape10-28" transform="translate(400.927,-641.872)">
			<title>Circle.226</title>
			<desc>y</desc>
			<path d="M0 745.16 A14.1732 14.1732 0 1 1 28.35 745.16 A14.1732 14.1732 0 0 1 0 745.16 Z" class="st7"/>
			<text x="10.17" y="749.96" class="st8">y</text>		</g>
		<g id="shape11-31" transform="translate(952.031,654.393) rotate(135)">
			<title>Sheet.11</title>
			<path d="M0 759.33 L40.09 759.33" class="st6"/>
		</g>
		<g id="shape12-34" transform="translate(923.685,711.086) rotate(135)">
			<title>Sheet.12</title>
			<path d="M0 759.33 L40.09 759.33" class="st6"/>
		</g>
		<g id="shape13-37" transform="translate(952.031,-419.468) rotate(45)">
			<title>Sheet.13</title>
			<path d="M0 759.33 L40.09 759.33" class="st6"/>
		</g>
		<g id="shape14-40" transform="translate(344.234,-514.313)">
			<title>Triangle.231</title>
			<path d="M28.35 759.33 L14.17 716.81 L0 759.33 L28.35 759.33 Z" class="st5"/>
		</g>
		<g id="shape15-42" transform="translate(415.1,-542.659)">
			<title>Triangle.233</title>
			<path d="M56.69 759.33 L28.35 688.47 L0 759.33 L56.69 759.33 Z" class="st5"/>
		</g>
		<g id="shape16-44" transform="translate(656.045,-641.872)">
			<title>Circle.234</title>
			<desc>y</desc>
			<path d="M0 745.16 A14.1732 14.1732 0 1 1 28.35 745.16 A14.1732 14.1732 0 0 1 0 745.16 Z" class="st7"/>
			<text x="10.17" y="749.96" class="st8">y</text>		</g>
		<g id="shape17-47" transform="translate(571.006,-585.179)">
			<title>Circle.235</title>
			<path d="M0 745.16 A14.1732 14.1732 0 1 1 28.35 745.16 A14.1732 14.1732 0 0 1 0 745.16 Z" class="st5"/>
		</g>
		<g id="shape18-49" transform="translate(599.352,-528.486)">
			<title>Circle.236</title>
			<path d="M0 745.16 A14.1732 14.1732 0 1 1 28.35 745.16 A14.1732 14.1732 0 0 1 0 745.16 Z" class="st5"/>
		</g>
		<g id="shape19-51" transform="translate(910.341,837.831) rotate(161.565)">
			<title>Sheet.19</title>
			<path d="M0 759.33 L89.64 759.33" class="st6"/>
		</g>
		<g id="shape20-54" transform="translate(1122.11,-362.775) rotate(45)">
			<title>Sheet.20</title>
			<path d="M0 759.33 L40.09 759.33" class="st6"/>
		</g>
		<g id="shape21-57" transform="translate(627.699,-471.793)">
			<title>Circle.239</title>
			<desc>x</desc>
			<path d="M0 745.16 A14.1732 14.1732 0 1 1 28.35 745.16 A14.1732 14.1732 0 0 1 0 745.16 Z" class="st5"/>
			<text x="10.17" y="749.96" class="st2">x</text>		</g>
		<g id="shape22-60" transform="translate(1150.46,-306.082) rotate(45)">
			<title>Sheet.22</title>
			<path d="M0 759.33 L40.09 759.33" class="st6"/>
		</g>
		<g id="shape23-63" transform="translate(726.911,-542.659)">
			<title>Triangle.242</title>
			<path d="M56.69 759.33 L28.35 688.47 L0 759.33 L56.69 759.33 Z" class="st5"/>
		</g>
		<g id="shape24-65" transform="translate(1178.8,824.472) rotate(135)">
			<title>Sheet.24</title>
			<path d="M0 759.33 L40.09 759.33" class="st6"/>
		</g>
		<g id="shape25-68" transform="translate(599.352,-400.927)">
			<title>Triangle.244</title>
			<path d="M28.35 759.33 L14.17 716.81 L0 759.33 L28.35 759.33 Z" class="st5"/>
		</g>
		<g id="shape26-70" transform="translate(910.341,-602.906) rotate(18.4349)">
			<title>Sheet.26</title>
			<path d="M0 759.33 L89.64 759.33" class="st6"/>
		</g>
		<g id="shape27-73" transform="translate(60.7697,-670.219)">
			<title>Sheet.27</title>
			<desc>case 1 :</desc>
			<rect x="0" y="730.988" width="56.6929" height="28.3465" class="st1"/>
			<text x="7.36" y="749.36" class="st9">case 1 :</text>		</g>
		<g id="shape28-76" transform="translate(330.061,-670.219)">
			<title>Sheet.28</title>
			<desc>case 2 :</desc>
			<rect x="0" y="730.988" width="56.6929" height="28.3465" class="st1"/>
			<text x="7.36" y="749.36" class="st9">case 2 :</text>		</g>
		<g id="shape29-79" transform="translate(571.006,-670.219)">
			<title>Sheet.29</title>
			<desc>case 3 :</desc>
			<rect x="0" y="730.988" width="56.6929" height="28.3465" class="st1"/>
			<text x="7.36" y="749.36" class="st9">case 3 :</text>		</g>
		<g id="shape30-82" transform="translate(767.779,-362.775) rotate(45)">
			<title>Sheet.30</title>
			<path d="M0 759.33 L40.09 759.33" class="st6"/>
		</g>
		<g id="shape31-85" transform="translate(245.022,-514.313)">
			<title>Triangle.250</title>
			<path d="M28.35 759.33 L14.17 716.81 L0 759.33 L28.35 759.33 Z" class="st5"/>
		</g>
		<g id="shape32-87" transform="translate(18.25,-330.061)">
			<title>Sheet.32</title>
			<desc>node x is Predecessor of node y</desc>
			<rect x="0" y="730.988" width="240.945" height="28.3465" class="st1"/>
			<text x="7.94" y="751.16" class="st2">node <tspan class="st10">x</tspan> is <tspan class="st4">Predecessor</tspan> of node y</text>		</g>
		<g id="shape33-92" transform="translate(385.932,837.831) rotate(161.565)">
			<title>Sheet.33</title>
			<path d="M0 759.33 L89.64 759.33" class="st6"/>
		</g>
		<g id="shape34-95" transform="translate(32.4232,-542.659)">
			<title>Triangle.253</title>
			<path d="M56.69 759.33 L28.35 688.47 L0 759.33 L56.69 759.33 Z" class="st5"/>
		</g>
		<g id="shape35-97" transform="translate(145.809,-259.195)">
			<title>Circle.254</title>
			<desc>y</desc>
			<path d="M0 745.16 A14.1732 14.1732 0 1 1 28.35 745.16 A14.1732 14.1732 0 0 1 0 745.16 Z" class="st5"/>
			<text x="10.17" y="749.96" class="st2">y</text>		</g>
		<g id="shape36-100" transform="translate(60.7697,-202.502)">
			<title>Circle.255</title>
			<path d="M0 745.16 A14.1732 14.1732 0 1 1 28.35 745.16 A14.1732 14.1732 0 0 1 0 745.16 Z" class="st5"/>
		</g>
		<g id="shape37-102" transform="translate(89.1161,-145.809)">
			<title>Circle.256</title>
			<path d="M0 745.16 A14.1732 14.1732 0 1 1 28.35 745.16 A14.1732 14.1732 0 0 1 0 745.16 Z" class="st5"/>
		</g>
		<g id="shape38-104" transform="translate(400.105,1220.51) rotate(161.565)">
			<title>Sheet.38</title>
			<path d="M0 759.33 L89.64 759.33" class="st6"/>
		</g>
		<g id="shape39-107" transform="translate(611.874,19.902) rotate(45)">
			<title>Sheet.39</title>
			<path d="M0 759.33 L40.09 759.33" class="st6"/>
		</g>
		<g id="shape40-110" transform="translate(117.463,-89.1161)">
			<title>Circle.259</title>
			<desc>x</desc>
			<path d="M0 745.16 A14.1732 14.1732 0 1 1 28.35 745.16 A14.1732 14.1732 0 0 1 0 745.16 Z" class="st11"/>
			<text x="10.17" y="749.96" class="st12">x</text>		</g>
		<g id="shape41-113" transform="translate(640.22,76.5949) rotate(45)">
			<title>Sheet.41</title>
			<path d="M0 759.33 L40.09 759.33" class="st6"/>
		</g>
		<g id="shape42-116" transform="translate(216.675,-159.982)">
			<title>Triangle.261</title>
			<path d="M56.69 759.33 L28.35 688.47 L0 759.33 L56.69 759.33 Z" class="st5"/>
		</g>
		<g id="shape43-118" transform="translate(668.567,1207.15) rotate(135)">
			<title>Sheet.43</title>
			<path d="M0 759.33 L40.09 759.33" class="st6"/>
		</g>
		<g id="shape44-121" transform="translate(89.1161,-18.25)">
			<title>Triangle.263</title>
			<path d="M28.35 759.33 L14.17 716.81 L0 759.33 L28.35 759.33 Z" class="st5"/>
		</g>
		<g id="shape45-123" transform="translate(400.105,-220.228) rotate(18.4349)">
			<title>Sheet.45</title>
			<path d="M0 759.33 L89.64 759.33" class="st6"/>
		</g>
		<g id="shape46-126" transform="translate(60.7697,-287.541)">
			<title>Sheet.46</title>
			<desc>case 1 :</desc>
			<rect x="0" y="730.988" width="56.6929" height="28.3465" class="st1"/>
			<text x="7.36" y="749.36" class="st9">case 1 :</text>		</g>
		<g id="shape47-129" transform="translate(1122.11,711.086) rotate(135)">
			<title>Sheet.47</title>
			<path d="M0 759.33 L40.09 759.33" class="st6"/>
		</g>
		<g id="shape48-132" transform="translate(542.659,-514.313)">
			<title>Triangle.267</title>
			<path d="M28.35 759.33 L14.17 716.81 L0 759.33 L28.35 759.33 Z" class="st5"/>
		</g>
		<g id="shape49-134" transform="translate(429.274,-202.502)">
			<title>Circle.268</title>
			<desc>y</desc>
			<path d="M0 745.16 A14.1732 14.1732 0 1 1 28.35 745.16 A14.1732 14.1732 0 0 1 0 745.16 Z" class="st5"/>
			<text x="10.17" y="749.96" class="st2">y</text>		</g>
		<g id="shape50-137" transform="translate(400.927,-259.195)">
			<title>Circle.269</title>
			<desc>x</desc>
			<path d="M0 745.16 A14.1732 14.1732 0 1 1 28.35 745.16 A14.1732 14.1732 0 0 1 0 745.16 Z" class="st11"/>
			<text x="10.17" y="749.96" class="st12">x</text>		</g>
		<g id="shape51-140" transform="translate(952.031,1037.07) rotate(135)">
			<title>Sheet.51</title>
			<path d="M0 759.33 L40.09 759.33" class="st6"/>
		</g>
		<g id="shape52-143" transform="translate(952.031,-36.7909) rotate(45)">
			<title>Sheet.52</title>
			<path d="M0 759.33 L40.09 759.33" class="st6"/>
		</g>
		<g id="shape53-146" transform="translate(457.62,-131.636)">
			<title>Triangle.273</title>
			<path d="M28.35 759.33 L14.17 716.81 L0 759.33 L28.35 759.33 Z" class="st5"/>
		</g>
		<g id="shape54-148" transform="translate(358.407,-159.982)">
			<title>Triangle.274</title>
			<path d="M56.69 759.33 L28.35 688.47 L0 759.33 L56.69 759.33 Z" class="st5"/>
		</g>
		<g id="shape55-150" transform="translate(330.061,-287.541)">
			<title>Sheet.55</title>
			<desc>case 2 :</desc>
			<rect x="0" y="730.988" width="56.6929" height="28.3465" class="st1"/>
			<text x="7.36" y="749.36" class="st9">case 2 :</text>		</g>
		<g id="shape56-153" transform="translate(980.378,19.902) rotate(45)">
			<title>Sheet.56</title>
			<path d="M0 759.33 L40.09 759.33" class="st6"/>
		</g>
		<g id="shape57-156" transform="translate(711.086,-249.389) rotate(45)">
			<title>Sheet.57</title>
			<path d="M0 759.33 L40.09 759.33" class="st6"/>
		</g>
		<g id="shape58-159" transform="translate(188.329,-400.927)">
			<title>Triangle.278</title>
			<path d="M28.35 759.33 L14.17 716.81 L0 759.33 L28.35 759.33 Z" class="st5"/>
		</g>
		<g id="shape59-161" transform="translate(641.872,-259.195)">
			<title>Circle.279</title>
			<desc>x</desc>
			<path d="M0 745.16 A14.1732 14.1732 0 1 1 28.35 745.16 A14.1732 14.1732 0 0 1 0 745.16 Z" class="st11"/>
			<text x="10.17" y="749.96" class="st12">x</text>		</g>
		<g id="shape60-164" transform="translate(726.911,-202.502)">
			<title>Circle.280</title>
			<path d="M0 745.16 A14.1732 14.1732 0 1 1 28.35 745.16 A14.1732 14.1732 0 0 1 0 745.16 Z" class="st5"/>
		</g>
		<g id="shape61-166" transform="translate(698.565,-145.809)">
			<title>Circle.281</title>
			<path d="M0 745.16 A14.1732 14.1732 0 1 1 28.35 745.16 A14.1732 14.1732 0 0 1 0 745.16 Z" class="st5"/>
		</g>
		<g id="shape62-168" transform="translate(896.168,-220.228) rotate(18.4349)">
			<title>Sheet.62</title>
			<path d="M0 759.33 L89.64 759.33" class="st6"/>
		</g>
		<g id="shape63-171" transform="translate(1278.02,1093.76) rotate(135)">
			<title>Sheet.63</title>
			<path d="M0 759.33 L40.09 759.33" class="st6"/>
		</g>
		<g id="shape64-174" transform="translate(670.219,-89.1161)">
			<title>Circle.284</title>
			<desc>y</desc>
			<path d="M0 745.16 A14.1732 14.1732 0 1 1 28.35 745.16 A14.1732 14.1732 0 0 1 0 745.16 Z" class="st5"/>
			<text x="10.17" y="749.96" class="st2">y</text>		</g>
		<g id="shape65-177" transform="translate(1249.67,1150.46) rotate(135)">
			<title>Sheet.65</title>
			<path d="M0 759.33 L40.09 759.33" class="st6"/>
		</g>
		<g id="shape66-180" transform="translate(571.006,-287.541)">
			<title>Sheet.66</title>
			<desc>case 3 :</desc>
			<rect x="0" y="730.988" width="56.6929" height="28.3465" class="st1"/>
			<text x="7.36" y="749.36" class="st9">case 3 :</text>		</g>
		<g id="shape67-183" transform="translate(1278.02,19.902) rotate(45)">
			<title>Sheet.67</title>
			<path d="M0 759.33 L40.09 759.33" class="st6"/>
		</g>
		<g id="shape68-186" transform="translate(755.258,-131.636)">
			<title>Triangle.288</title>
			<path d="M28.35 759.33 L14.17 716.81 L0 759.33 L28.35 759.33 Z" class="st5"/>
		</g>
		<g id="shape69-188" transform="translate(896.168,1220.51) rotate(161.565)">
			<title>Sheet.69</title>
			<path d="M0 759.33 L89.64 759.33" class="st6"/>
		</g>
		<g id="shape70-191" transform="translate(542.659,-159.982)">
			<title>Triangle.290</title>
			<path d="M56.69 759.33 L28.35 688.47 L0 759.33 L56.69 759.33 Z" class="st5"/>
		</g>
		<g id="shape71-193" transform="translate(1221.32,133.288) rotate(45)">
			<title>Sheet.71</title>
			<path d="M0 759.33 L40.09 759.33" class="st6"/>
		</g>
		<g id="shape72-196" transform="translate(698.565,-18.25)">
			<title>Triangle.292</title>
			<path d="M28.35 759.33 L14.17 716.81 L0 759.33 L28.35 759.33 Z" class="st5"/>
		</g>
		<g id="shape73-198" transform="translate(739.433,-306.082) rotate(45)">
			<title>Sheet.73</title>
			<path d="M0 759.33 L40.09 759.33" class="st6"/>
		</g>
		<g id="shape74-201" transform="translate(216.675,-457.62)">
			<title>Triangle.294</title>
			<path d="M28.35 759.33 L14.17 716.81 L0 759.33 L28.35 759.33 Z" class="st5"/>
		</g>
		<g id="shape75-203" transform="translate(611.874,1093.76) rotate(135)">
			<title>Sheet.75</title>
			<path d="M0 759.33 L40.09 759.33" class="st6"/>
		</g>
		<g id="shape76-206" transform="translate(32.4232,-131.636)">
			<title>Triangle.296</title>
			<path d="M28.35 759.33 L14.17 716.81 L0 759.33 L28.35 759.33 Z" class="st5"/>
		</g>
		<g id="shape77-208" transform="translate(640.22,1150.46) rotate(135)">
			<title>Sheet.77</title>
			<path d="M0 759.33 L40.09 759.33" class="st6"/>
		</g>
		<g id="shape78-211" transform="translate(60.7697,-74.9429)">
			<title>Triangle.298</title>
			<path d="M28.35 759.33 L14.17 716.81 L0 759.33 L28.35 759.33 Z" class="st5"/>
		</g>
		<g id="shape79-213" transform="translate(1249.67,76.5949) rotate(45)">
			<title>Sheet.79</title>
			<path d="M0 759.33 L40.09 759.33" class="st6"/>
		</g>
		<g id="shape80-216" transform="translate(726.911,-74.9429)">
			<title>Triangle.300</title>
			<path d="M28.35 759.33 L14.17 716.81 L0 759.33 L28.35 759.33 Z" class="st5"/>
		</g>
		<g id="shape81-218" transform="translate(1150.46,767.779) rotate(135)">
			<title>Sheet.81</title>
			<path d="M0 759.33 L40.09 759.33" class="st6"/>
		</g>
		<g id="shape82-221" transform="translate(571.006,-457.62)">
			<title>Triangle.302</title>
			<path d="M28.35 759.33 L14.17 716.81 L0 759.33 L28.35 759.33 Z" class="st5"/>
		</g>
	</g>
</svg>
