<?xml version="1.0" encoding="UTF-8" standalone="no"?>
<!DOCTYPE svg PUBLIC "-//W3C//DTD SVG 1.1//EN" "http://www.w3.org/Graphics/SVG/1.1/DTD/svg11.dtd">
<!-- Illustrator: Larry Huang -->
<svg xmlns="http://www.w3.org/2000/svg" xmlns:xlink="http://www.w3.org/1999/xlink" xmlns:ev="http://www.w3.org/2001/xml-events"
		width="6.80616in" height="4.83765in" viewBox="0 0 490.043 348.311" xml:space="preserve" color-interpolation-filters="sRGB"
		class="st5">
	<style type="text/css">
	<![CDATA[
		.st1 {fill:none;stroke:none;stroke-width:0.25}
		.st2 {fill:#000000;font-family:Times New Roman;font-size:1.66667em}
		.st3 {stroke:#000000;stroke-linecap:round;stroke-linejoin:round;stroke-width:1.5}
		.st4 {fill:#7f7f7f;font-family:Times New Roman;font-size:1.33333em}
		.st5 {fill:none;fill-rule:evenodd;font-size:12px;overflow:visible;stroke-linecap:square;stroke-miterlimit:3}
	]]>
	</style>

	<g>
		<title>Page-1</title>
		<g id="shape1-1" transform="translate(18.25,-301.715)">
			<title>Sheet.1</title>
			<desc>Tree</desc>
			<rect x="0" y="319.965" width="56.6929" height="28.3465" class="st1"/>
			<text x="10.03" y="340.14" class="st2">Tree</text>		</g>
		<g id="shape2-4" transform="translate(74.9429,-245.022)">
			<title>Sheet.2</title>
			<desc>Binary Tree</desc>
			<rect x="0" y="319.965" width="113.386" height="28.3465" class="st1"/>
			<text x="8.66" y="340.14" class="st2">Binary Tree</text>		</g>
		<g id="shape3-7" transform="translate(145.809,-188.329)">
			<title>Sheet.3</title>
			<desc>Binary Search Tree</desc>
			<rect x="0" y="319.965" width="170.079" height="28.3465" class="st1"/>
			<text x="7.3" y="340.14" class="st2">Binary Search Tree</text>		</g>
		<g id="shape4-10" transform="translate(216.675,-131.636)">
			<title>Sheet.4</title>
			<desc>Balanced Binary Search Tree</desc>
			<rect x="0" y="319.965" width="255.118" height="28.3465" class="st1"/>
			<text x="10.12" y="340.14" class="st2">Balanced Binary Search Tree</text>		</g>
		<g id="shape5-13" transform="translate(216.675,-46.5965)">
			<title>Sheet.5</title>
			<desc>Balanced Search Tree</desc>
			<rect x="0" y="319.965" width="198.425" height="28.3465" class="st1"/>
			<text x="11.49" y="340.14" class="st2">Balanced Search Tree</text>		</g>
		<g id="shape6-16" transform="translate(74.9429,-89.1161)">
			<title>Sheet.6</title>
			<desc>N-ary Tree</desc>
			<rect x="0" y="319.965" width="113.386" height="28.3465" class="st1"/>
			<text x="12.56" y="340.14" class="st2">N-ary Tree</text>		</g>
		<g id="shape7-19" transform="translate(394.907,46.5965) rotate(90)">
			<title>Sheet.7</title>
			<path d="M0 348.31 L198.43 348.31" class="st3"/>
		</g>
		<g id="shape8-22" transform="translate(465.774,103.289) rotate(90)">
			<title>Sheet.8</title>
			<path d="M0 348.31 L42.52 348.31" class="st3"/>
		</g>
		<g id="shape9-25" transform="translate(536.64,159.982) rotate(90)">
			<title>Sheet.9</title>
			<path d="M0 348.31 L42.52 348.31" class="st3"/>
		</g>
		<g id="shape10-28" transform="translate(465.774,259.195) rotate(90)">
			<title>Sheet.10</title>
			<path d="M0 348.31 L28.35 348.31" class="st3"/>
		</g>
		<g id="shape11-31" transform="translate(46.5965,-259.195)">
			<title>Sheet.11</title>
			<path d="M0 348.31 L28.35 348.31" class="st3"/>
		</g>
		<g id="shape12-34" transform="translate(46.5965,-103.289)">
			<title>Sheet.12</title>
			<path d="M0 348.31 L28.35 348.31" class="st3"/>
		</g>
		<g id="shape13-37" transform="translate(117.463,-202.502)">
			<title>Sheet.13</title>
			<path d="M0 348.31 L28.35 348.31" class="st3"/>
		</g>
		<g id="shape14-40" transform="translate(188.329,-145.809)">
			<title>Sheet.14</title>
			<path d="M0 348.31 L28.35 348.31" class="st3"/>
		</g>
		<g id="shape15-43" transform="translate(117.463,-60.7697)">
			<title>Sheet.15</title>
			<path d="M0 348.31 L99.21 348.31" class="st3"/>
		</g>
		<g id="shape16-46" transform="translate(273.368,-103.289)">
			<title>Sheet.16</title>
			<desc>AVL tree, Red-Black tree ...</desc>
			<rect x="0" y="319.965" width="198.425" height="28.3465" class="st1"/>
			<text x="8.58" y="338.94" class="st4">AVL tree, Red-Black tree ...</text>		</g>
		<g id="shape17-49" transform="translate(287.541,-18.25)">
			<title>Sheet.17</title>
			<desc>B tree, B+ tree ...</desc>
			<rect x="0" y="319.965" width="127.559" height="28.3465" class="st1"/>
			<text x="8.62" y="338.94" class="st4">B tree, B+ tree ...</text>		</g>
	</g>
</svg>
