<?xml version="1.0" encoding="UTF-8" standalone="no"?>
<!DOCTYPE svg PUBLIC "-//W3C//DTD SVG 1.1//EN" "http://www.w3.org/Graphics/SVG/1.1/DTD/svg11.dtd">
<!-- Illustrator: Larry Huang -->
<svg xmlns="http://www.w3.org/2000/svg" xmlns:xlink="http://www.w3.org/1999/xlink" xmlns:ev="http://www.w3.org/2001/xml-events"
		width="8.26772in" height="34.0787in" viewBox="0 0 595.276 2453.67" xml:space="preserve" color-interpolation-filters="sRGB"
		class="st14">
	<style type="text/css">
	<![CDATA[
		.st1 {fill:none;stroke:#000000;stroke-linecap:round;stroke-linejoin:round;stroke-width:0.24}
		.st2 {fill:#000000;font-family:Calibri;font-size:1.16666em}
		.st3 {stroke:#000000;stroke-linecap:round;stroke-linejoin:round;stroke-width:0.75}
		.st4 {fill:none;stroke:none;stroke-linecap:round;stroke-linejoin:round;stroke-width:0.75}
		.st5 {fill:#7f7f7f;font-family:Calibri;font-size:1.16666em}
		.st6 {font-size:1em}
		.st7 {fill:#ff0000;font-family:Calibri;font-size:1.16666em}
		.st8 {fill:#0000ff;font-size:1em}
		.st9 {fill:#000000;font-size:1em;font-weight:bold}
		.st10 {fill:#7f7f7f;font-size:1em}
		.st11 {fill:none;stroke:#000000;stroke-dasharray:1.68,1.2;stroke-linecap:round;stroke-linejoin:round;stroke-width:0.24}
		.st12 {font-family:Microsoft Sans Serif;font-size:1em}
		.st13 {fill:#0000ff;font-family:Calibri;font-size:1.16666em}
		.st14 {fill:none;fill-rule:evenodd;font-size:12px;overflow:visible;stroke-linecap:square;stroke-miterlimit:3}
	]]>
	</style>

	<g>
		<title>Page-1</title>
		<g id="shape1-1" transform="translate(127.559,-2377.13)">
			<title>Circle</title>
			<desc>A</desc>
			<path d="M0 2439.5 A14.1732 14.1732 0 1 1 28.35 2439.5 A14.1732 14.1732 0 0 1 0 2439.5 Z" class="st1"/>
			<text x="10.12" y="2443.7" class="st2">A</text>		</g>
		<g id="shape2-4" transform="translate(70.8661,-2320.44)">
			<title>Circle.2</title>
			<desc>B</desc>
			<path d="M0 2439.5 A14.1732 14.1732 0 1 1 28.35 2439.5 A14.1732 14.1732 0 0 1 0 2439.5 Z" class="st1"/>
			<text x="10.37" y="2443.7" class="st2">B</text>		</g>
		<g id="shape3-7" transform="translate(184.252,-2320.44)">
			<title>Circle.3</title>
			<desc>C</desc>
			<path d="M0 2439.5 A14.1732 14.1732 0 1 1 28.35 2439.5 A14.1732 14.1732 0 0 1 0 2439.5 Z" class="st1"/>
			<text x="10.44" y="2443.7" class="st2">C</text>		</g>
		<g id="shape4-10" transform="translate(99.2126,-2263.75)">
			<title>Circle.4</title>
			<desc>E</desc>
			<path d="M0 2439.5 A14.1732 14.1732 0 1 1 28.35 2439.5 A14.1732 14.1732 0 0 1 0 2439.5 Z" class="st1"/>
			<text x="10.76" y="2443.7" class="st2">E</text>		</g>
		<g id="shape5-13" transform="translate(42.5197,-2263.75)">
			<title>Circle.5</title>
			<desc>D</desc>
			<path d="M0 2439.5 A14.1732 14.1732 0 1 1 28.35 2439.5 A14.1732 14.1732 0 0 1 0 2439.5 Z" class="st1"/>
			<text x="9.87" y="2443.7" class="st2">D</text>		</g>
		<g id="shape6-16" transform="translate(155.906,-2263.75)">
			<title>Circle.6</title>
			<desc>F</desc>
			<path d="M0 2439.5 A14.1732 14.1732 0 1 1 28.35 2439.5 A14.1732 14.1732 0 0 1 0 2439.5 Z" class="st1"/>
			<text x="10.96" y="2443.7" class="st2">F</text>		</g>
		<g id="shape7-19" transform="translate(212.598,-2263.75)">
			<title>Circle.7</title>
			<desc>G</desc>
			<path d="M0 2439.5 A14.1732 14.1732 0 1 1 28.35 2439.5 A14.1732 14.1732 0 0 1 0 2439.5 Z" class="st1"/>
			<text x="9.76" y="2443.7" class="st2">G</text>		</g>
		<g id="shape8-22" transform="translate(127.559,-2178.71)">
			<title>Circle.8</title>
			<desc>A</desc>
			<path d="M0 2439.5 A14.1732 14.1732 0 1 1 28.35 2439.5 A14.1732 14.1732 0 0 1 0 2439.5 Z" class="st1"/>
			<text x="10.12" y="2443.7" class="st2">A</text>		</g>
		<g id="shape9-25" transform="translate(70.8661,-2122.02)">
			<title>Circle.9</title>
			<desc>B</desc>
			<path d="M0 2439.5 A14.1732 14.1732 0 1 1 28.35 2439.5 A14.1732 14.1732 0 0 1 0 2439.5 Z" class="st1"/>
			<text x="10.37" y="2443.7" class="st2">B</text>		</g>
		<g id="shape10-28" transform="translate(184.252,-2122.02)">
			<title>Circle.10</title>
			<desc>C</desc>
			<path d="M0 2439.5 A14.1732 14.1732 0 1 1 28.35 2439.5 A14.1732 14.1732 0 0 1 0 2439.5 Z" class="st1"/>
			<text x="10.44" y="2443.7" class="st2">C</text>		</g>
		<g id="shape12-31" transform="translate(42.5197,-2065.32)">
			<title>Circle.12</title>
			<desc>D</desc>
			<path d="M0 2439.5 A14.1732 14.1732 0 1 1 28.35 2439.5 A14.1732 14.1732 0 0 1 0 2439.5 Z" class="st1"/>
			<text x="9.87" y="2443.7" class="st2">D</text>		</g>
		<g id="shape14-34" transform="translate(212.598,-2065.32)">
			<title>Circle.14</title>
			<desc>E</desc>
			<path d="M0 2439.5 A14.1732 14.1732 0 1 1 28.35 2439.5 A14.1732 14.1732 0 0 1 0 2439.5 Z" class="st1"/>
			<text x="10.76" y="2443.7" class="st2">E</text>		</g>
		<g id="shape15-37" transform="translate(85.0394,-2348.79)">
			<title>Sheet.15</title>
			<path d="M113.39 2453.67 L56.69 2425.32 L0 2453.67" class="st3"/>
		</g>
		<g id="shape16-40" transform="translate(56.6929,-2292.09)">
			<title>Sheet.16</title>
			<path d="M56.69 2453.67 L28.35 2425.32 L0 2453.67" class="st3"/>
		</g>
		<g id="shape17-43" transform="translate(170.079,-2292.09)">
			<title>Sheet.17</title>
			<path d="M56.69 2453.67 L28.35 2425.32 L0 2453.67" class="st3"/>
		</g>
		<g id="shape18-46" transform="translate(311.811,-2263.75)">
			<title>Sheet.18</title>
			<desc>Preorder : Inorder : Postorder : Levelorder :</desc>
			<rect x="0" y="2311.94" width="85.0394" height="141.732" class="st4"/>
			<text x="17.25" y="2336.6" class="st5">Preorder   :   <tspan x="15.96" dy="2.4em" class="st6">Inorder      :   </tspan><tspan
						x="17.88" dy="2.4em" class="st6">Postorder :   </tspan><tspan x="13.31" dy="2.4em" class="st6">Levelorder : </tspan></text>		</g>
		<g id="shape21-52" transform="translate(396.85,-2263.75)">
			<title>Sheet.21</title>
			<desc>A B D E C F G D B E A F C G D E B F G C A A B C D E F G</desc>
			<rect x="0" y="2311.94" width="99.2126" height="141.732" class="st4"/>
			<text x="13.16" y="2336.6" class="st7">A B D E C F G  <tspan x="13.16" dy="2.4em" class="st8">D B E A F C G  </tspan><tspan
						x="12.74" dy="2.4em" class="st9">D E B F G C A  </tspan><tspan x="13.16" dy="2.4em" class="st10">A</tspan><tspan
						class="st10"> </tspan><tspan class="st10">B</tspan><tspan class="st10"> </tspan><tspan class="st10">C</tspan><tspan
						class="st10"> </tspan><tspan class="st10">D</tspan><tspan class="st10"> </tspan><tspan class="st10">E</tspan><tspan
						class="st10"> </tspan><tspan class="st10">F</tspan><tspan class="st10"> </tspan><tspan class="st10">G</tspan></text>		</g>
		<g id="shape25-70" transform="translate(28.3465,-2249.57)">
			<title>Rectangle</title>
			<path d="M0 2453.67 L538.58 2453.67 L538.58 2283.59 L0 2283.59 L0 2453.67 Z" class="st11"/>
		</g>
		<g id="shape26-72" transform="translate(28.3465,-2051.15)">
			<title>Rectangle.26</title>
			<path d="M0 2453.67 L538.58 2453.67 L538.58 2283.59 L0 2283.59 L0 2453.67 Z" class="st11"/>
		</g>
		<g id="shape27-74" transform="translate(1239.05,2469.59) rotate(153.435)">
			<title>Sheet.27</title>
			<path d="M0 2453.67 L63.38 2453.67" class="st3"/>
		</g>
		<g id="shape28-77" transform="translate(1820.05,2066.66) rotate(135)">
			<title>Sheet.28</title>
			<path d="M0 2453.67 L40.09 2453.67" class="st3"/>
		</g>
		<g id="shape29-80" transform="translate(1239.05,-1919.67) rotate(26.5651)">
			<title>Sheet.29</title>
			<path d="M0 2453.67 L63.38 2453.67" class="st3"/>
		</g>
		<g id="shape30-83" transform="translate(1933.43,-1403.35) rotate(45)">
			<title>Sheet.30</title>
			<path d="M0 2453.67 L40.09 2453.67" class="st3"/>
		</g>
		<g id="shape31-86" transform="translate(311.811,-2065.32)">
			<title>Sheet.31</title>
			<desc>Preorder : Inorder : Postorder : Levelorder :</desc>
			<rect x="0" y="2311.94" width="85.0394" height="141.732" class="st4"/>
			<text x="17.25" y="2336.17" class="st5">Preorder   :   <tspan x="15.96" dy="2.4em" class="st6">Inorder      :   </tspan><tspan
						x="17.88" dy="2.423em" class="st6">Postorder :   </tspan><tspan x="7.2" dy="2.431em" class="st12">Levelorder : </tspan></text>		</g>
		<g id="shape32-92" transform="translate(396.85,-2065.32)">
			<title>Sheet.32</title>
			<desc>A B D C E D B A C E D B E C A A B C D E</desc>
			<rect x="0" y="2311.94" width="85.0394" height="141.732" class="st4"/>
			<text x="16.88" y="2336.6" class="st7">A B D C E  <tspan x="16.88" dy="2.4em" class="st8">D B A C E  </tspan><tspan
						x="16.49" dy="2.4em" class="st9">D B E C A  </tspan><tspan x="16.88" dy="2.4em" class="st10">A</tspan><tspan
						class="st10"> </tspan><tspan class="st10">B</tspan><tspan class="st10"> </tspan><tspan class="st10">C</tspan><tspan
						class="st10"> </tspan><tspan class="st10">D</tspan><tspan class="st10"> </tspan><tspan class="st10">E</tspan></text>		</g>
		<g id="shape33-106" transform="translate(28.3465,-1739.34)">
			<title>Rectangle.33</title>
			<path d="M0 2453.67 L538.58 2453.67 L538.58 2170.2 L0 2170.2 L0 2453.67 Z" class="st11"/>
		</g>
		<g id="shape34-108" transform="translate(127.559,-1980.28)">
			<title>Circle.34</title>
			<desc>K</desc>
			<path d="M0 2439.5 A14.1732 14.1732 0 1 1 28.35 2439.5 A14.1732 14.1732 0 0 1 0 2439.5 Z" class="st1"/>
			<text x="10.54" y="2443.7" class="st2">K</text>		</g>
		<g id="shape35-111" transform="translate(70.8661,-1923.59)">
			<title>Circle.35</title>
			<desc>A</desc>
			<path d="M0 2439.5 A14.1732 14.1732 0 1 1 28.35 2439.5 A14.1732 14.1732 0 0 1 0 2439.5 Z" class="st1"/>
			<text x="10.12" y="2443.7" class="st2">A</text>		</g>
		<g id="shape36-114" transform="translate(184.252,-1923.59)">
			<title>Circle.36</title>
			<desc>D</desc>
			<path d="M0 2439.5 A14.1732 14.1732 0 1 1 28.35 2439.5 A14.1732 14.1732 0 0 1 0 2439.5 Z" class="st1"/>
			<text x="9.87" y="2443.7" class="st2">D</text>		</g>
		<g id="shape37-117" transform="translate(99.2126,-1866.9)">
			<title>Circle.37</title>
			<desc>C</desc>
			<path d="M0 2439.5 A14.1732 14.1732 0 1 1 28.35 2439.5 A14.1732 14.1732 0 0 1 0 2439.5 Z" class="st1"/>
			<text x="10.44" y="2443.7" class="st2">C</text>		</g>
		<g id="shape38-120" transform="translate(155.906,-1866.9)">
			<title>Circle.38</title>
			<desc>E</desc>
			<path d="M0 2439.5 A14.1732 14.1732 0 1 1 28.35 2439.5 A14.1732 14.1732 0 0 1 0 2439.5 Z" class="st1"/>
			<text x="10.76" y="2443.7" class="st2">E</text>		</g>
		<g id="shape39-123" transform="translate(1239.05,2668.01) rotate(153.435)">
			<title>Sheet.39</title>
			<path d="M0 2453.67 L63.38 2453.67" class="st3"/>
		</g>
		<g id="shape40-126" transform="translate(1820.05,-1204.93) rotate(45)">
			<title>Sheet.40</title>
			<path d="M0 2453.67 L40.09 2453.67" class="st3"/>
		</g>
		<g id="shape41-129" transform="translate(1239.05,-1721.24) rotate(26.5651)">
			<title>Sheet.41</title>
			<path d="M0 2453.67 L63.38 2453.67" class="st3"/>
		</g>
		<g id="shape42-132" transform="translate(1933.43,2265.08) rotate(135)">
			<title>Sheet.42</title>
			<path d="M0 2453.67 L40.09 2453.67" class="st3"/>
		</g>
		<g id="shape43-135" transform="translate(70.8661,-1810.2)">
			<title>Circle.43</title>
			<desc>B</desc>
			<path d="M0 2439.5 A14.1732 14.1732 0 1 1 28.35 2439.5 A14.1732 14.1732 0 0 1 0 2439.5 Z" class="st1"/>
			<text x="10.37" y="2443.7" class="st2">B</text>		</g>
		<g id="shape44-138" transform="translate(1848.39,2321.78) rotate(135)">
			<title>Sheet.44</title>
			<path d="M0 2453.67 L40.09 2453.67" class="st3"/>
		</g>
		<g id="shape45-141" transform="translate(127.559,-1810.2)">
			<title>Circle.45</title>
			<desc>F</desc>
			<path d="M0 2439.5 A14.1732 14.1732 0 1 1 28.35 2439.5 A14.1732 14.1732 0 0 1 0 2439.5 Z" class="st1"/>
			<text x="10.96" y="2443.7" class="st2">F</text>		</g>
		<g id="shape46-144" transform="translate(155.906,-1753.51)">
			<title>Circle.46</title>
			<desc>G</desc>
			<path d="M0 2439.5 A14.1732 14.1732 0 1 1 28.35 2439.5 A14.1732 14.1732 0 0 1 0 2439.5 Z" class="st1"/>
			<text x="9.76" y="2443.7" class="st2">G</text>		</g>
		<g id="shape47-147" transform="translate(1905.08,2321.78) rotate(135)">
			<title>Sheet.47</title>
			<path d="M0 2453.67 L40.09 2453.67" class="st3"/>
		</g>
		<g id="shape48-150" transform="translate(1876.74,-1091.54) rotate(45)">
			<title>Sheet.48</title>
			<path d="M0 2453.67 L40.09 2453.67" class="st3"/>
		</g>
		<g id="shape49-153" transform="translate(311.811,-1753.51)">
			<title>Sheet.49</title>
			<desc>Preorder : Inorder : Postorder : Levelorder :</desc>
			<rect x="0" y="2198.55" width="85.0394" height="255.118" class="st4"/>
			<text x="17.25" y="2254.49" class="st5">Preorder   :    <tspan x="15.96" dy="3.6em" class="st6">Inorder      :    </tspan><tspan
						x="17.88" dy="3.6em" class="st6">Postorder :    </tspan><tspan x="7.2" dy="3.623em" class="st12">Levelorder : </tspan></text>		</g>
		<g id="shape50-159" transform="translate(396.85,-1753.51)">
			<title>Sheet.50</title>
			<desc>K A C B D E F G A B C K F G E D B C A G F E D K K A D C E B F G</desc>
			<rect x="0" y="2198.55" width="113.386" height="255.118" class="st4"/>
			<text x="15.03" y="2254.71" class="st7">K A C B D E F G   <tspan x="15.03" dy="3.6em" class="st8">A B C K F G E D   </tspan><tspan
						x="14.42" dy="3.6em" class="st9">B C A G F E D K   </tspan><tspan x="15.03" dy="3.6em" class="st10">K</tspan><tspan
						class="st10"> </tspan><tspan class="st10">A</tspan><tspan class="st10"> </tspan><tspan class="st10">D</tspan><tspan
						class="st10"> </tspan><tspan class="st10">C</tspan><tspan class="st10"> </tspan><tspan class="st10">E</tspan><tspan
						class="st10"> </tspan><tspan class="st10">B</tspan><tspan class="st10"> </tspan><tspan class="st10">F</tspan><tspan
						class="st10"> </tspan><tspan class="st10">G</tspan></text>		</g>
		<g id="shape51-179" transform="translate(28.3465,-1370.83)">
			<title>Rectangle.51</title>
			<path d="M0 2453.67 L538.58 2453.67 L538.58 2113.51 L0 2113.51 L0 2453.67 Z" class="st11"/>
		</g>
		<g id="shape52-181" transform="translate(99.2126,-1611.78)">
			<title>Circle.52</title>
			<desc>B</desc>
			<path d="M0 2439.5 A14.1732 14.1732 0 1 1 28.35 2439.5 A14.1732 14.1732 0 0 1 0 2439.5 Z" class="st1"/>
			<text x="10.37" y="2443.7" class="st2">B</text>		</g>
		<g id="shape53-184" transform="translate(42.5197,-1555.09)">
			<title>Circle.53</title>
			<desc>A</desc>
			<path d="M0 2439.5 A14.1732 14.1732 0 1 1 28.35 2439.5 A14.1732 14.1732 0 0 1 0 2439.5 Z" class="st1"/>
			<text x="10.12" y="2443.7" class="st2">A</text>		</g>
		<g id="shape54-187" transform="translate(155.906,-1555.09)">
			<title>Circle.54</title>
			<desc>F</desc>
			<path d="M0 2439.5 A14.1732 14.1732 0 1 1 28.35 2439.5 A14.1732 14.1732 0 0 1 0 2439.5 Z" class="st1"/>
			<text x="10.96" y="2443.7" class="st2">F</text>		</g>
		<g id="shape55-190" transform="translate(70.8661,-1498.39)">
			<title>Circle.55</title>
			<desc>D</desc>
			<path d="M0 2439.5 A14.1732 14.1732 0 1 1 28.35 2439.5 A14.1732 14.1732 0 0 1 0 2439.5 Z" class="st1"/>
			<text x="9.87" y="2443.7" class="st2">D</text>		</g>
		<g id="shape56-193" transform="translate(184.252,-1498.39)">
			<title>Circle.56</title>
			<desc>G</desc>
			<path d="M0 2439.5 A14.1732 14.1732 0 1 1 28.35 2439.5 A14.1732 14.1732 0 0 1 0 2439.5 Z" class="st1"/>
			<text x="9.76" y="2443.7" class="st2">G</text>		</g>
		<g id="shape57-196" transform="translate(1210.7,3036.52) rotate(153.435)">
			<title>Sheet.57</title>
			<path d="M0 2453.67 L63.38 2453.67" class="st3"/>
		</g>
		<g id="shape58-199" transform="translate(1791.7,-836.424) rotate(45)">
			<title>Sheet.58</title>
			<path d="M0 2453.67 L40.09 2453.67" class="st3"/>
		</g>
		<g id="shape59-202" transform="translate(1210.7,-1352.74) rotate(26.5651)">
			<title>Sheet.59</title>
			<path d="M0 2453.67 L63.38 2453.67" class="st3"/>
		</g>
		<g id="shape60-205" transform="translate(1905.08,-836.424) rotate(45)">
			<title>Sheet.60</title>
			<path d="M0 2453.67 L40.09 2453.67" class="st3"/>
		</g>
		<g id="shape61-208" transform="translate(99.2126,-1441.7)">
			<title>Circle.61</title>
			<desc>E</desc>
			<path d="M0 2439.5 A14.1732 14.1732 0 1 1 28.35 2439.5 A14.1732 14.1732 0 0 1 0 2439.5 Z" class="st1"/>
			<text x="10.76" y="2443.7" class="st2">E</text>		</g>
		<g id="shape62-211" transform="translate(1820.05,-779.731) rotate(45)">
			<title>Sheet.62</title>
			<path d="M0 2453.67 L40.09 2453.67" class="st3"/>
		</g>
		<g id="shape63-214" transform="translate(155.906,-1441.7)">
			<title>Circle.63</title>
			<desc>H</desc>
			<path d="M0 2439.5 A14.1732 14.1732 0 1 1 28.35 2439.5 A14.1732 14.1732 0 0 1 0 2439.5 Z" class="st1"/>
			<text x="9.81" y="2443.7" class="st2">H</text>		</g>
		<g id="shape64-217" transform="translate(184.252,-1385.01)">
			<title>Circle.64</title>
			<desc>I</desc>
			<path d="M0 2439.5 A14.1732 14.1732 0 1 1 28.35 2439.5 A14.1732 14.1732 0 0 1 0 2439.5 Z" class="st1"/>
			<text x="12.41" y="2443.7" class="st2">I</text>		</g>
		<g id="shape65-220" transform="translate(1933.43,2690.28) rotate(135)">
			<title>Sheet.65</title>
			<path d="M0 2453.67 L40.09 2453.67" class="st3"/>
		</g>
		<g id="shape66-223" transform="translate(1905.08,-723.038) rotate(45)">
			<title>Sheet.66</title>
			<path d="M0 2453.67 L40.09 2453.67" class="st3"/>
		</g>
		<g id="shape67-226" transform="translate(311.811,-1385.01)">
			<title>Sheet.67</title>
			<desc>Preorder : Inorder : Postorder : Levelorder :</desc>
			<rect x="0" y="2141.86" width="85.0394" height="311.811" class="st4"/>
			<text x="17.25" y="2226.15" class="st5">Preorder   :    <tspan x="15.96" dy="3.6em" class="st6">Inorder      :    </tspan><tspan
						x="17.88" dy="3.6em" class="st6">Postorder :   </tspan><tspan x="7.2" dy="3.623em" class="st12">Levelorder : </tspan></text>		</g>
		<g id="shape68-232" transform="translate(396.85,-1385.01)">
			<title>Sheet.68</title>
			<desc>C B A D E F G H I A D E B F H I G C E D A I H G F B C C B A F...</desc>
			<rect x="0" y="2141.86" width="127.559" height="311.811" class="st4"/>
			<text x="18.05" y="2226.36" class="st7">C B A D E F G H I   <tspan x="18.05" dy="3.6em" class="st8">A D E B F H I G C   </tspan><tspan
						x="17.47" dy="3.6em" class="st9">E D A I H G F B C   </tspan><tspan x="18.05" dy="3.6em" class="st10">C</tspan><tspan
						class="st10"> </tspan><tspan class="st10">B</tspan><tspan class="st10"> </tspan><tspan class="st10">A</tspan><tspan
						class="st10"> </tspan><tspan class="st10">F</tspan><tspan class="st10"> </tspan><tspan class="st10">D</tspan><tspan
						class="st10"> </tspan><tspan class="st10">G</tspan><tspan class="st10"> </tspan><tspan class="st10">E</tspan><tspan
						class="st10"> </tspan><tspan class="st10">H</tspan><tspan class="st10"> </tspan><tspan class="st10">I</tspan></text>		</g>
		<g id="shape69-254" transform="translate(141.732,-1668.47)">
			<title>Circle.69</title>
			<desc>C</desc>
			<path d="M0 2439.5 A14.1732 14.1732 0 1 1 28.35 2439.5 A14.1732 14.1732 0 0 1 0 2439.5 Z" class="st1"/>
			<text x="10.44" y="2443.7" class="st2">C</text>		</g>
		<g id="shape70-257" transform="translate(1516.96,2826.77) rotate(146.31)">
			<title>Sheet.70</title>
			<path d="M0 2453.67 L51.1 2453.67" class="st3"/>
		</g>
		<g id="shape71-260" transform="translate(28.3465,-1059.02)">
			<title>Rectangle.71</title>
			<path d="M0 2453.67 L538.58 2453.67 L538.58 2170.2 L0 2170.2 L0 2453.67 Z" class="st11"/>
		</g>
		<g id="shape72-262" transform="translate(127.559,-1299.97)">
			<title>Circle.72</title>
			<desc>A</desc>
			<path d="M0 2439.5 A14.1732 14.1732 0 1 1 28.35 2439.5 A14.1732 14.1732 0 0 1 0 2439.5 Z" class="st1"/>
			<text x="10.12" y="2443.7" class="st2">A</text>		</g>
		<g id="shape73-265" transform="translate(70.8661,-1243.28)">
			<title>Circle.73</title>
			<desc>B</desc>
			<path d="M0 2439.5 A14.1732 14.1732 0 1 1 28.35 2439.5 A14.1732 14.1732 0 0 1 0 2439.5 Z" class="st1"/>
			<text x="10.37" y="2443.7" class="st2">B</text>		</g>
		<g id="shape74-268" transform="translate(184.252,-1243.28)">
			<title>Circle.74</title>
			<desc>D</desc>
			<path d="M0 2439.5 A14.1732 14.1732 0 1 1 28.35 2439.5 A14.1732 14.1732 0 0 1 0 2439.5 Z" class="st1"/>
			<text x="9.87" y="2443.7" class="st2">D</text>		</g>
		<g id="shape75-271" transform="translate(99.2126,-1186.58)">
			<title>Circle.75</title>
			<desc>C</desc>
			<path d="M0 2439.5 A14.1732 14.1732 0 1 1 28.35 2439.5 A14.1732 14.1732 0 0 1 0 2439.5 Z" class="st1"/>
			<text x="10.44" y="2443.7" class="st2">C</text>		</g>
		<g id="shape76-274" transform="translate(155.906,-1186.58)">
			<title>Circle.76</title>
			<desc>E</desc>
			<path d="M0 2439.5 A14.1732 14.1732 0 1 1 28.35 2439.5 A14.1732 14.1732 0 0 1 0 2439.5 Z" class="st1"/>
			<text x="10.76" y="2443.7" class="st2">E</text>		</g>
		<g id="shape77-277" transform="translate(1239.05,3348.33) rotate(153.435)">
			<title>Sheet.77</title>
			<path d="M0 2453.67 L63.38 2453.67" class="st3"/>
		</g>
		<g id="shape78-280" transform="translate(1820.05,-524.612) rotate(45)">
			<title>Sheet.78</title>
			<path d="M0 2453.67 L40.09 2453.67" class="st3"/>
		</g>
		<g id="shape79-283" transform="translate(1239.05,-1040.93) rotate(26.5651)">
			<title>Sheet.79</title>
			<path d="M0 2453.67 L63.38 2453.67" class="st3"/>
		</g>
		<g id="shape80-286" transform="translate(1933.43,2945.4) rotate(135)">
			<title>Sheet.80</title>
			<path d="M0 2453.67 L40.09 2453.67" class="st3"/>
		</g>
		<g id="shape81-289" transform="translate(212.598,-1073.2)">
			<title>Circle.81</title>
			<desc>H</desc>
			<path d="M0 2439.5 A14.1732 14.1732 0 1 1 28.35 2439.5 A14.1732 14.1732 0 0 1 0 2439.5 Z" class="st1"/>
			<text x="9.81" y="2443.7" class="st2">H</text>		</g>
		<g id="shape82-292" transform="translate(1961.78,3002.09) rotate(135)">
			<title>Sheet.82</title>
			<path d="M0 2453.67 L40.09 2453.67" class="st3"/>
		</g>
		<g id="shape83-295" transform="translate(212.598,-1186.58)">
			<title>Circle.83</title>
			<desc>F</desc>
			<path d="M0 2439.5 A14.1732 14.1732 0 1 1 28.35 2439.5 A14.1732 14.1732 0 0 1 0 2439.5 Z" class="st1"/>
			<text x="10.96" y="2443.7" class="st2">F</text>		</g>
		<g id="shape84-298" transform="translate(184.252,-1129.89)">
			<title>Circle.84</title>
			<desc>G</desc>
			<path d="M0 2439.5 A14.1732 14.1732 0 1 1 28.35 2439.5 A14.1732 14.1732 0 0 1 0 2439.5 Z" class="st1"/>
			<text x="9.76" y="2443.7" class="st2">G</text>		</g>
		<g id="shape85-301" transform="translate(1933.43,-411.227) rotate(45)">
			<title>Sheet.85</title>
			<path d="M0 2453.67 L40.09 2453.67" class="st3"/>
		</g>
		<g id="shape86-304" transform="translate(1933.43,-524.612) rotate(45)">
			<title>Sheet.86</title>
			<path d="M0 2453.67 L40.09 2453.67" class="st3"/>
		</g>
		<g id="shape87-307" transform="translate(311.811,-1073.2)">
			<title>Sheet.87</title>
			<desc>Preorder : Inorder : Postorder : Levelorder :</desc>
			<rect x="0" y="2198.55" width="85.0394" height="255.118" class="st4"/>
			<text x="17.25" y="2254.49" class="st5">Preorder   :    <tspan x="15.96" dy="3.6em" class="st6">Inorder      :    </tspan><tspan
						x="17.88" dy="3.6em" class="st6">Postorder :   </tspan><tspan x="7.2" dy="3.623em" class="st12">Levelorder : </tspan></text>		</g>
		<g id="shape88-313" transform="translate(396.85,-1073.2)">
			<title>Sheet.88</title>
			<desc>A B C D E F G H I B C A E D G H F I C B E H G I F D A A B D C...</desc>
			<rect x="0" y="2198.55" width="113.386" height="255.118" class="st4"/>
			<text x="10.96" y="2254.71" class="st7">A B C D E F G H I   <tspan x="10.96" dy="3.6em" class="st8">B C A E D G H F I   </tspan><tspan
						x="10.38" dy="3.6em" class="st9">C B E H G I F D A   </tspan><tspan x="10.96" dy="3.6em" class="st10">A</tspan><tspan
						class="st10"> </tspan><tspan class="st10">B</tspan><tspan class="st10"> </tspan><tspan class="st10">D</tspan><tspan
						class="st10"> </tspan><tspan class="st10">C</tspan><tspan class="st10"> </tspan><tspan class="st10">E</tspan><tspan
						class="st10"> </tspan><tspan class="st10">F</tspan><tspan class="st10"> </tspan><tspan class="st10">G</tspan><tspan
						class="st10"> </tspan><tspan class="st10">I</tspan><tspan class="st10"> </tspan><tspan class="st10">H</tspan></text>		</g>
		<g id="shape89-335" transform="translate(240.945,-1129.89)">
			<title>Circle.89</title>
			<desc>I</desc>
			<path d="M0 2439.5 A14.1732 14.1732 0 1 1 28.35 2439.5 A14.1732 14.1732 0 0 1 0 2439.5 Z" class="st1"/>
			<text x="12.41" y="2443.7" class="st2">I</text>		</g>
		<g id="shape90-338" transform="translate(1961.78,-467.92) rotate(45)">
			<title>Sheet.90</title>
			<path d="M0 2453.67 L40.09 2453.67" class="st3"/>
		</g>
		<g id="shape91-341" transform="translate(127.559,-988.157)">
			<title>Circle.91</title>
			<desc>A</desc>
			<path d="M0 2439.5 A14.1732 14.1732 0 1 1 28.35 2439.5 A14.1732 14.1732 0 0 1 0 2439.5 Z" class="st1"/>
			<text x="10.12" y="2443.7" class="st2">A</text>		</g>
		<g id="shape92-344" transform="translate(70.8661,-931.465)">
			<title>Circle.92</title>
			<desc>B</desc>
			<path d="M0 2439.5 A14.1732 14.1732 0 1 1 28.35 2439.5 A14.1732 14.1732 0 0 1 0 2439.5 Z" class="st1"/>
			<text x="10.37" y="2443.7" class="st2">B</text>		</g>
		<g id="shape93-347" transform="translate(184.252,-931.465)">
			<title>Circle.93</title>
			<desc>F</desc>
			<path d="M0 2439.5 A14.1732 14.1732 0 1 1 28.35 2439.5 A14.1732 14.1732 0 0 1 0 2439.5 Z" class="st1"/>
			<text x="10.96" y="2443.7" class="st2">F</text>		</g>
		<g id="shape94-350" transform="translate(99.2126,-874.772)">
			<title>Circle.94</title>
			<desc>C</desc>
			<path d="M0 2439.5 A14.1732 14.1732 0 1 1 28.35 2439.5 A14.1732 14.1732 0 0 1 0 2439.5 Z" class="st1"/>
			<text x="10.44" y="2443.7" class="st2">C</text>		</g>
		<g id="shape95-353" transform="translate(42.5197,-874.772)">
			<title>Circle.95</title>
			<desc>E</desc>
			<path d="M0 2439.5 A14.1732 14.1732 0 1 1 28.35 2439.5 A14.1732 14.1732 0 0 1 0 2439.5 Z" class="st1"/>
			<text x="10.76" y="2443.7" class="st2">E</text>		</g>
		<g id="shape96-356" transform="translate(155.906,-874.772)">
			<title>Circle.96</title>
			<desc>G</desc>
			<path d="M0 2439.5 A14.1732 14.1732 0 1 1 28.35 2439.5 A14.1732 14.1732 0 0 1 0 2439.5 Z" class="st1"/>
			<text x="9.76" y="2443.7" class="st2">G</text>		</g>
		<g id="shape97-359" transform="translate(212.598,-874.772)">
			<title>Circle.97</title>
			<desc>I</desc>
			<path d="M0 2439.5 A14.1732 14.1732 0 1 1 28.35 2439.5 A14.1732 14.1732 0 0 1 0 2439.5 Z" class="st1"/>
			<text x="12.41" y="2443.7" class="st2">I</text>		</g>
		<g id="shape98-362" transform="translate(85.0394,-959.811)">
			<title>Sheet.98</title>
			<path d="M113.39 2453.67 L56.69 2425.32 L0 2453.67" class="st3"/>
		</g>
		<g id="shape99-365" transform="translate(56.6929,-903.118)">
			<title>Sheet.99</title>
			<path d="M56.69 2453.67 L28.35 2425.32 L0 2453.67" class="st3"/>
		</g>
		<g id="shape100-368" transform="translate(170.079,-903.118)">
			<title>Sheet.100</title>
			<path d="M56.69 2453.67 L28.35 2425.32 L0 2453.67" class="st3"/>
		</g>
		<g id="shape101-371" transform="translate(297.638,-818.079)">
			<title>Sheet.101</title>
			<desc>Preorder : Inorder : Postorder : Levelorder :</desc>
			<rect x="0" y="2255.24" width="85.0394" height="198.425" class="st4"/>
			<text x="17.25" y="2282.84" class="st5">Preorder   :    <tspan x="15.96" dy="3.6em" class="st6">Inorder      :    </tspan><tspan
						x="17.88" dy="3.6em" class="st6">Postorder :   </tspan><tspan x="7.2" dy="3.623em" class="st12">Levelorder : </tspan></text>		</g>
		<g id="shape102-377" transform="translate(382.677,-818.079)">
			<title>Sheet.102</title>
			<desc>A B E C D F G H I E B C D A G H F I E D C B H G I F A A B F E...</desc>
			<rect x="0" y="2255.24" width="113.386" height="198.425" class="st4"/>
			<text x="10.96" y="2283.06" class="st7">A B E C D F G H I   <tspan x="10.96" dy="3.6em" class="st8">E B C D A G H F I   </tspan><tspan
						x="10.38" dy="3.6em" class="st9">E D C B H G I F A   </tspan><tspan x="10.96" dy="3.6em" class="st10">A</tspan><tspan
						class="st10"> </tspan><tspan class="st10">B</tspan><tspan class="st10"> </tspan><tspan class="st10">F</tspan><tspan
						class="st10"> </tspan><tspan class="st10">E</tspan><tspan class="st10"> </tspan><tspan class="st10">C</tspan><tspan
						class="st10"> </tspan><tspan class="st10">G</tspan><tspan class="st10"> </tspan><tspan class="st10">I</tspan><tspan
						class="st10"> </tspan><tspan class="st10">D</tspan><tspan class="st10"> </tspan><tspan class="st10">H</tspan></text>		</g>
		<g id="shape103-399" transform="translate(28.3465,-803.905)">
			<title>Rectangle.103</title>
			<path d="M0 2453.67 L538.58 2453.67 L538.58 2226.9 L0 2226.9 L0 2453.67 Z" class="st11"/>
		</g>
		<g id="shape104-401" transform="translate(127.559,-818.079)">
			<title>Circle.104</title>
			<desc>D</desc>
			<path d="M0 2439.5 A14.1732 14.1732 0 1 1 28.35 2439.5 A14.1732 14.1732 0 0 1 0 2439.5 Z" class="st1"/>
			<text x="9.87" y="2443.7" class="st2">D</text>		</g>
		<g id="shape106-404" transform="translate(184.252,-818.079)">
			<title>Circle.106</title>
			<desc>H</desc>
			<path d="M0 2439.5 A14.1732 14.1732 0 1 1 28.35 2439.5 A14.1732 14.1732 0 0 1 0 2439.5 Z" class="st1"/>
			<text x="9.81" y="2443.7" class="st2">H</text>		</g>
		<g id="shape107-407" transform="translate(1848.39,-156.109) rotate(45)">
			<title>Sheet.107</title>
			<path d="M0 2453.67 L40.09 2453.67" class="st3"/>
		</g>
		<g id="shape108-410" transform="translate(1905.08,-156.109) rotate(45)">
			<title>Sheet.108</title>
			<path d="M0 2453.67 L40.09 2453.67" class="st3"/>
		</g>
		<g id="shape109-413" transform="translate(28.3465,-492.094)">
			<title>Rectangle.109</title>
			<path d="M0 2453.67 L538.58 2453.67 L538.58 2170.2 L0 2170.2 L0 2453.67 Z" class="st11"/>
		</g>
		<g id="shape110-415" transform="translate(113.386,-733.039)">
			<title>Circle.110</title>
			<desc>A</desc>
			<path d="M0 2439.5 A14.1732 14.1732 0 1 1 28.35 2439.5 A14.1732 14.1732 0 0 1 0 2439.5 Z" class="st1"/>
			<text x="10.12" y="2443.7" class="st2">A</text>		</g>
		<g id="shape111-418" transform="translate(56.6929,-676.346)">
			<title>Circle.111</title>
			<desc>B</desc>
			<path d="M0 2439.5 A14.1732 14.1732 0 1 1 28.35 2439.5 A14.1732 14.1732 0 0 1 0 2439.5 Z" class="st1"/>
			<text x="10.37" y="2443.7" class="st2">B</text>		</g>
		<g id="shape112-421" transform="translate(170.079,-676.346)">
			<title>Circle.112</title>
			<desc>E</desc>
			<path d="M0 2439.5 A14.1732 14.1732 0 1 1 28.35 2439.5 A14.1732 14.1732 0 0 1 0 2439.5 Z" class="st1"/>
			<text x="10.76" y="2443.7" class="st2">E</text>		</g>
		<g id="shape113-424" transform="translate(85.0394,-619.654)">
			<title>Circle.113</title>
			<desc>C</desc>
			<path d="M0 2439.5 A14.1732 14.1732 0 1 1 28.35 2439.5 A14.1732 14.1732 0 0 1 0 2439.5 Z" class="st1"/>
			<text x="10.44" y="2443.7" class="st2">C</text>		</g>
		<g id="shape114-427" transform="translate(198.425,-619.654)">
			<title>Circle.114</title>
			<desc>G</desc>
			<path d="M0 2439.5 A14.1732 14.1732 0 1 1 28.35 2439.5 A14.1732 14.1732 0 0 1 0 2439.5 Z" class="st1"/>
			<text x="9.76" y="2443.7" class="st2">G</text>		</g>
		<g id="shape115-430" transform="translate(1224.87,3915.26) rotate(153.435)">
			<title>Sheet.115</title>
			<path d="M0 2453.67 L63.38 2453.67" class="st3"/>
		</g>
		<g id="shape116-433" transform="translate(1805.87,42.3167) rotate(45)">
			<title>Sheet.116</title>
			<path d="M0 2453.67 L40.09 2453.67" class="st3"/>
		</g>
		<g id="shape117-436" transform="translate(1224.87,-473.999) rotate(26.5651)">
			<title>Sheet.117</title>
			<path d="M0 2453.67 L63.38 2453.67" class="st3"/>
		</g>
		<g id="shape118-439" transform="translate(1919.26,42.3167) rotate(45)">
			<title>Sheet.118</title>
			<path d="M0 2453.67 L40.09 2453.67" class="st3"/>
		</g>
		<g id="shape119-442" transform="translate(113.386,-562.961)">
			<title>Circle.119</title>
			<desc>D</desc>
			<path d="M0 2439.5 A14.1732 14.1732 0 1 1 28.35 2439.5 A14.1732 14.1732 0 0 1 0 2439.5 Z" class="st1"/>
			<text x="9.87" y="2443.7" class="st2">D</text>		</g>
		<g id="shape120-445" transform="translate(1834.22,99.0096) rotate(45)">
			<title>Sheet.120</title>
			<path d="M0 2453.67 L40.09 2453.67" class="st3"/>
		</g>
		<g id="shape121-448" transform="translate(170.079,-562.961)">
			<title>Circle.121</title>
			<desc>H</desc>
			<path d="M0 2439.5 A14.1732 14.1732 0 1 1 28.35 2439.5 A14.1732 14.1732 0 0 1 0 2439.5 Z" class="st1"/>
			<text x="9.81" y="2443.7" class="st2">H</text>		</g>
		<g id="shape122-451" transform="translate(198.425,-506.268)">
			<title>Circle.122</title>
			<desc>I</desc>
			<path d="M0 2439.5 A14.1732 14.1732 0 1 1 28.35 2439.5 A14.1732 14.1732 0 0 1 0 2439.5 Z" class="st1"/>
			<text x="12.41" y="2443.7" class="st2">I</text>		</g>
		<g id="shape123-454" transform="translate(1947.6,3569.02) rotate(135)">
			<title>Sheet.123</title>
			<path d="M0 2453.67 L40.09 2453.67" class="st3"/>
		</g>
		<g id="shape124-457" transform="translate(1919.26,155.703) rotate(45)">
			<title>Sheet.124</title>
			<path d="M0 2453.67 L40.09 2453.67" class="st3"/>
		</g>
		<g id="shape125-460" transform="translate(311.811,-506.268)">
			<title>Sheet.125</title>
			<desc>Preorder : Inorder : Postorder : Levelorder :</desc>
			<rect x="0" y="2198.55" width="85.0394" height="255.118" class="st4"/>
			<text x="17.25" y="2254.49" class="st5">Preorder   :    <tspan x="15.96" dy="3.6em" class="st6">Inorder      :    </tspan><tspan
						x="17.88" dy="3.6em" class="st6">Postorder :    </tspan><tspan x="7.2" dy="3.623em" class="st12">Levelorder : </tspan></text>		</g>
		<g id="shape126-466" transform="translate(396.85,-506.268)">
			<title>Sheet.126</title>
			<desc>A B C D E F G H I B C D A F E H I G D C B F I H G E A A B E C...</desc>
			<rect x="0" y="2198.55" width="113.386" height="255.118" class="st4"/>
			<text x="10.96" y="2254.71" class="st7">A B C D E F G H I   <tspan x="10.96" dy="3.6em" class="st8">B C D A F E H I G   </tspan><tspan
						x="10.38" dy="3.6em" class="st9">D C B F I H G E A   </tspan><tspan x="10.96" dy="3.6em" class="st10">A</tspan><tspan
						class="st10"> </tspan><tspan class="st10">B</tspan><tspan class="st10"> </tspan><tspan class="st10">E</tspan><tspan
						class="st10"> </tspan><tspan class="st10">C</tspan><tspan class="st10"> </tspan><tspan class="st10">F</tspan><tspan
						class="st10"> </tspan><tspan class="st10">G</tspan><tspan class="st10"> </tspan><tspan class="st10">D</tspan><tspan
						class="st10"> </tspan><tspan class="st10">H</tspan><tspan class="st10"> </tspan><tspan class="st10">I</tspan></text>		</g>
		<g id="shape127-488" transform="translate(141.732,-619.654)">
			<title>Circle.127</title>
			<desc>F</desc>
			<path d="M0 2439.5 A14.1732 14.1732 0 1 1 28.35 2439.5 A14.1732 14.1732 0 0 1 0 2439.5 Z" class="st1"/>
			<text x="10.96" y="2443.7" class="st2">F</text>		</g>
		<g id="shape128-491" transform="translate(1919.26,3512.33) rotate(135)">
			<title>Sheet.128</title>
			<path d="M0 2453.67 L40.09 2453.67" class="st3"/>
		</g>
		<g id="shape129-494" transform="translate(28.3465,-123.59)">
			<title>Rectangle.129</title>
			<path d="M0 2453.67 L538.58 2453.67 L538.58 2113.51 L0 2113.51 L0 2453.67 Z" class="st11"/>
		</g>
		<g id="shape130-496" transform="translate(113.386,-336.189)">
			<title>Circle.130</title>
			<desc>A</desc>
			<path d="M0 2439.5 A14.1732 14.1732 0 1 1 28.35 2439.5 A14.1732 14.1732 0 0 1 0 2439.5 Z" class="st1"/>
			<text x="10.12" y="2443.7" class="st2">A</text>		</g>
		<g id="shape131-499" transform="translate(85.0394,-279.496)">
			<title>Circle.131</title>
			<desc>B</desc>
			<path d="M0 2439.5 A14.1732 14.1732 0 1 1 28.35 2439.5 A14.1732 14.1732 0 0 1 0 2439.5 Z" class="st1"/>
			<text x="10.37" y="2443.7" class="st2">B</text>		</g>
		<g id="shape132-502" transform="translate(56.6929,-222.803)">
			<title>Circle.132</title>
			<desc>C</desc>
			<path d="M0 2439.5 A14.1732 14.1732 0 1 1 28.35 2439.5 A14.1732 14.1732 0 0 1 0 2439.5 Z" class="st1"/>
			<text x="10.44" y="2443.7" class="st2">C</text>		</g>
		<g id="shape133-505" transform="translate(1862.57,3852.49) rotate(135)">
			<title>Sheet.133</title>
			<path d="M0 2453.67 L40.09 2453.67" class="st3"/>
		</g>
		<g id="shape134-508" transform="translate(1834.22,3909.18) rotate(135)">
			<title>Sheet.134</title>
			<path d="M0 2453.67 L40.09 2453.67" class="st3"/>
		</g>
		<g id="shape135-511" transform="translate(184.252,-336.189)">
			<title>Circle.135</title>
			<desc>A</desc>
			<path d="M0 2439.5 A14.1732 14.1732 0 1 1 28.35 2439.5 A14.1732 14.1732 0 0 1 0 2439.5 Z" class="st1"/>
			<text x="10.12" y="2443.7" class="st2">A</text>		</g>
		<g id="shape136-514" transform="translate(212.598,-279.496)">
			<title>Circle.136</title>
			<desc>B</desc>
			<path d="M0 2439.5 A14.1732 14.1732 0 1 1 28.35 2439.5 A14.1732 14.1732 0 0 1 0 2439.5 Z" class="st1"/>
			<text x="10.37" y="2443.7" class="st2">B</text>		</g>
		<g id="shape137-517" transform="translate(240.945,-222.803)">
			<title>Circle.137</title>
			<desc>C</desc>
			<path d="M0 2439.5 A14.1732 14.1732 0 1 1 28.35 2439.5 A14.1732 14.1732 0 0 1 0 2439.5 Z" class="st1"/>
			<text x="10.44" y="2443.7" class="st2">C</text>		</g>
		<g id="shape138-520" transform="translate(1933.43,382.474) rotate(45)">
			<title>Sheet.138</title>
			<path d="M0 2453.67 L40.09 2453.67" class="st3"/>
		</g>
		<g id="shape139-523" transform="translate(1961.78,439.167) rotate(45)">
			<title>Sheet.139</title>
			<path d="M0 2453.67 L40.09 2453.67" class="st3"/>
		</g>
		<g id="shape140-526" transform="translate(382.677,-336.189)">
			<title>Circle.140</title>
			<desc>A</desc>
			<path d="M0 2439.5 A14.1732 14.1732 0 1 1 28.35 2439.5 A14.1732 14.1732 0 0 1 0 2439.5 Z" class="st1"/>
			<text x="10.12" y="2443.7" class="st2">A</text>		</g>
		<g id="shape141-529" transform="translate(325.984,-279.496)">
			<title>Circle.141</title>
			<desc>B</desc>
			<path d="M0 2439.5 A14.1732 14.1732 0 1 1 28.35 2439.5 A14.1732 14.1732 0 0 1 0 2439.5 Z" class="st1"/>
			<text x="10.37" y="2443.7" class="st2">B</text>		</g>
		<g id="shape142-532" transform="translate(354.331,-208.63)">
			<title>Circle.142</title>
			<desc>C</desc>
			<path d="M0 2439.5 A14.1732 14.1732 0 1 1 28.35 2439.5 A14.1732 14.1732 0 0 1 0 2439.5 Z" class="st1"/>
			<text x="10.44" y="2443.7" class="st2">C</text>		</g>
		<g id="shape143-535" transform="translate(1494.16,4312.11) rotate(153.435)">
			<title>Sheet.143</title>
			<path d="M0 2453.67 L63.38 2453.67" class="st3"/>
		</g>
		<g id="shape144-538" transform="translate(2381.73,813.122) rotate(56.3099)">
			<title>Sheet.144</title>
			<path d="M0 2453.67 L51.1 2453.67" class="st3"/>
		</g>
		<g id="shape145-541" transform="translate(453.543,-336.189)">
			<title>Circle.145</title>
			<desc>A</desc>
			<path d="M0 2439.5 A14.1732 14.1732 0 1 1 28.35 2439.5 A14.1732 14.1732 0 0 1 0 2439.5 Z" class="st1"/>
			<text x="10.12" y="2443.7" class="st2">A</text>		</g>
		<g id="shape146-544" transform="translate(510.236,-279.496)">
			<title>Circle.146</title>
			<desc>B</desc>
			<path d="M0 2439.5 A14.1732 14.1732 0 1 1 28.35 2439.5 A14.1732 14.1732 0 0 1 0 2439.5 Z" class="st1"/>
			<text x="10.37" y="2443.7" class="st2">B</text>		</g>
		<g id="shape147-547" transform="translate(481.89,-208.63)">
			<title>Circle.147</title>
			<desc>C</desc>
			<path d="M0 2439.5 A14.1732 14.1732 0 1 1 28.35 2439.5 A14.1732 14.1732 0 0 1 0 2439.5 Z" class="st1"/>
			<text x="10.44" y="2443.7" class="st2">C</text>		</g>
		<g id="shape148-550" transform="translate(1565.03,-77.1482) rotate(26.5651)">
			<title>Sheet.148</title>
			<path d="M0 2453.67 L63.38 2453.67" class="st3"/>
		</g>
		<g id="shape149-553" transform="translate(2565.99,3535.22) rotate(123.69)">
			<title>Sheet.149</title>
			<path d="M0 2453.67 L51.1 2453.67" class="st3"/>
		</g>
		<g id="shape151-556" transform="translate(56.6929,-137.764)">
			<title>Sheet.151</title>
			<desc>C B A</desc>
			<rect x="0" y="2425.32" width="85.0394" height="28.3465" class="st4"/>
			<text x="27.76" y="2443.7" class="st13">C B A</text>		</g>
		<g id="shape154-559" transform="translate(184.252,-137.764)">
			<title>Sheet.154</title>
			<desc>A B C</desc>
			<rect x="0" y="2425.32" width="85.0394" height="28.3465" class="st4"/>
			<text x="27.76" y="2443.7" class="st13">A B C</text>		</g>
		<g id="shape156-562" transform="translate(325.984,-137.764)">
			<title>Sheet.156</title>
			<desc>B C A</desc>
			<rect x="0" y="2425.32" width="85.0394" height="28.3465" class="st4"/>
			<text x="27.76" y="2443.7" class="st13">B C A</text>		</g>
		<g id="shape157-565" transform="translate(28.3465,-166.11)">
			<title>Sheet.157</title>
			<desc>Inorder :</desc>
			<rect x="0" y="2425.32" width="70.8661" height="28.3465" class="st4"/>
			<text x="4" y="2443.7" class="st5">Inorder :</text>		</g>
		<g id="shape158-568" transform="translate(453.543,-137.764)">
			<title>Sheet.158</title>
			<desc>A C B</desc>
			<rect x="0" y="2425.32" width="85.0394" height="28.3465" class="st4"/>
			<text x="27.76" y="2443.7" class="st13">A C B</text>		</g>
		<g id="shape159-571" transform="translate(212.598,-364.535)">
			<title>Sheet.159</title>
			<desc>Preorder : Postorder : Levelorder :</desc>
			<rect x="0" y="2354.46" width="85.0394" height="99.2126" class="st4"/>
			<text x="17.25" y="2374.45" class="st5">Preorder   :   <tspan x="17.88" dy="2.4em" class="st6">Postorder :   </tspan><tspan
						x="7.2" dy="2.423em" class="st12">Levelorder : </tspan></text>		</g>
		<g id="shape160-576" transform="translate(297.638,-364.535)">
			<title>Sheet.160</title>
			<desc>A B C C B A A B C</desc>
			<rect x="0" y="2354.46" width="56.6929" height="99.2126" class="st4"/>
			<text x="13.59" y="2374.66" class="st2">A B C  <tspan x="13.59" dy="2.4em" class="st6">C B A  </tspan><tspan x="13.59"
						dy="2.4em" class="st6">A B C</tspan></text>		</g>
	</g>
</svg>
