<?xml version="1.0" encoding="UTF-8" standalone="no"?>
<!DOCTYPE svg PUBLIC "-//W3C//DTD SVG 1.1//EN" "http://www.w3.org/Graphics/SVG/1.1/DTD/svg11.dtd">
<!-- Illustrator: Larry Huang -->
<svg xmlns="http://www.w3.org/2000/svg" xmlns:xlink="http://www.w3.org/1999/xlink" xmlns:ev="http://www.w3.org/2001/xml-events"
		width="7.39671in" height="18.4203in" viewBox="0 0 532.563 1326.26" xml:space="preserve" color-interpolation-filters="sRGB"
		class="st8">
	<style type="text/css">
	<![CDATA[
		.st1 {fill:none;stroke:#000000;stroke-width:0.25}
		.st2 {fill:#000000;font-family:Times New Roman;font-size:1.16666em}
		.st3 {stroke:#000000;stroke-linecap:round;stroke-linejoin:round;stroke-width:1}
		.st4 {stroke:#000000;stroke-width:0.75}
		.st5 {fill:none;stroke:none;stroke-width:0.25}
		.st6 {fill:#0000ff;font-family:Times New Roman;font-size:1.99999em}
		.st7 {fill:#7f7f7f;font-family:Times New Roman;font-size:1.33333em}
		.st8 {fill:none;fill-rule:evenodd;font-size:12px;overflow:visible;stroke-linecap:square;stroke-miterlimit:3}
	]]>
	</style>

	<g>
		<title>Page-1</title>
		<g id="shape1-1" transform="translate(174.156,-1194.63)">
			<title>Circle.130</title>
			<desc>9</desc>
			<path d="M0 1312.09 A14.1732 14.1732 0 1 1 28.35 1312.09 A14.1732 14.1732 0 0 1 0 1312.09 Z" class="st1"/>
			<text x="10.67" y="1316.29" class="st2">9</text>		</g>
		<g id="shape2-4" transform="translate(145.809,-1137.94)">
			<title>Circle.131</title>
			<desc>7</desc>
			<path d="M0 1312.09 A14.1732 14.1732 0 1 1 28.35 1312.09 A14.1732 14.1732 0 0 1 0 1312.09 Z" class="st1"/>
			<text x="10.67" y="1316.29" class="st2">7</text>		</g>
		<g id="shape3-7" transform="translate(117.463,-1081.24)">
			<title>Circle.132</title>
			<desc>5</desc>
			<path d="M0 1312.09 A14.1732 14.1732 0 1 1 28.35 1312.09 A14.1732 14.1732 0 0 1 0 1312.09 Z" class="st1"/>
			<text x="10.67" y="1316.29" class="st2">5</text>		</g>
		<g id="shape4-10" transform="translate(1126.14,1069.45) rotate(135)">
			<title>Sheet.4</title>
			<path d="M0 1326.26 L40.09 1326.26" class="st3"/>
		</g>
		<g id="shape5-13" transform="translate(1097.79,1126.14) rotate(135)">
			<title>Sheet.5</title>
			<path d="M0 1326.26 L40.09 1326.26" class="st3"/>
		</g>
		<g id="shape6-16" transform="translate(372.581,-1194.63)">
			<title>Circle.135</title>
			<desc>2</desc>
			<path d="M0 1312.09 A14.1732 14.1732 0 1 1 28.35 1312.09 A14.1732 14.1732 0 0 1 0 1312.09 Z" class="st1"/>
			<text x="10.67" y="1316.29" class="st2">2</text>		</g>
		<g id="shape7-19" transform="translate(400.927,-1137.94)">
			<title>Circle.136</title>
			<desc>4</desc>
			<path d="M0 1312.09 A14.1732 14.1732 0 1 1 28.35 1312.09 A14.1732 14.1732 0 0 1 0 1312.09 Z" class="st1"/>
			<text x="10.67" y="1316.29" class="st2">4</text>		</g>
		<g id="shape8-22" transform="translate(429.274,-1081.24)">
			<title>Circle.137</title>
			<desc>6</desc>
			<path d="M0 1312.09 A14.1732 14.1732 0 1 1 28.35 1312.09 A14.1732 14.1732 0 0 1 0 1312.09 Z" class="st1"/>
			<text x="10.67" y="1316.29" class="st2">6</text>		</g>
		<g id="shape9-25" transform="translate(1324.56,-806.174) rotate(45)">
			<title>Sheet.9</title>
			<path d="M0 1326.26 L40.09 1326.26" class="st3"/>
		</g>
		<g id="shape10-28" transform="translate(1352.91,-749.481) rotate(45)">
			<title>Sheet.10</title>
			<path d="M0 1326.26 L40.09 1326.26" class="st3"/>
		</g>
		<g id="shape11-31" transform="translate(89.1161,-1024.55)">
			<title>Circle.11</title>
			<desc>3</desc>
			<path d="M0 1312.09 A14.1732 14.1732 0 1 1 28.35 1312.09 A14.1732 14.1732 0 0 1 0 1312.09 Z" class="st1"/>
			<text x="10.67" y="1316.29" class="st2">3</text>		</g>
		<g id="shape12-34" transform="translate(60.7697,-967.856)">
			<title>Circle.12</title>
			<desc>1</desc>
			<path d="M0 1312.09 A14.1732 14.1732 0 1 1 28.35 1312.09 A14.1732 14.1732 0 0 1 0 1312.09 Z" class="st1"/>
			<text x="10.67" y="1316.29" class="st2">1</text>		</g>
		<g id="shape13-37" transform="translate(1069.45,1182.83) rotate(135)">
			<title>Sheet.13</title>
			<path d="M0 1326.26 L40.09 1326.26" class="st3"/>
		</g>
		<g id="shape14-40" transform="translate(1041.1,1239.52) rotate(135)">
			<title>Sheet.14</title>
			<path d="M0 1326.26 L40.09 1326.26" class="st3"/>
		</g>
		<g id="shape15-43" transform="translate(457.62,-1024.55)">
			<title>Circle.15</title>
			<desc>8</desc>
			<path d="M0 1312.09 A14.1732 14.1732 0 1 1 28.35 1312.09 A14.1732 14.1732 0 0 1 0 1312.09 Z" class="st1"/>
			<text x="10.67" y="1316.29" class="st2">8</text>		</g>
		<g id="shape16-46" transform="translate(485.967,-967.856)">
			<title>Circle.16</title>
			<desc>10</desc>
			<path d="M0 1312.09 A14.1732 14.1732 0 1 1 28.35 1312.09 A14.1732 14.1732 0 0 1 0 1312.09 Z" class="st1"/>
			<text x="7.17" y="1316.29" class="st2">10</text>		</g>
		<g id="shape17-49" transform="translate(1381.26,-692.788) rotate(45)">
			<title>Sheet.17</title>
			<path d="M0 1326.26 L40.09 1326.26" class="st3"/>
		</g>
		<g id="shape18-52" transform="translate(1409.6,-636.096) rotate(45)">
			<title>Sheet.18</title>
			<path d="M0 1326.26 L40.09 1326.26" class="st3"/>
		</g>
		<g id="shape19-55" transform="translate(60.7697,-854.471)">
			<title>Circle.19</title>
			<desc>1</desc>
			<path d="M0 1312.09 A14.1732 14.1732 0 1 1 28.35 1312.09 A14.1732 14.1732 0 0 1 0 1312.09 Z" class="st1"/>
			<text x="10.67" y="1316.29" class="st2">1</text>		</g>
		<g id="shape20-58" transform="translate(174.156,-797.778)">
			<title>Circle.20</title>
			<desc>9</desc>
			<path d="M0 1312.09 A14.1732 14.1732 0 1 1 28.35 1312.09 A14.1732 14.1732 0 0 1 0 1312.09 Z" class="st1"/>
			<text x="10.67" y="1316.29" class="st2">9</text>		</g>
		<g id="shape21-61" transform="translate(145.809,-741.085)">
			<title>Circle.22</title>
			<desc>7</desc>
			<path d="M0 1312.09 A14.1732 14.1732 0 1 1 28.35 1312.09 A14.1732 14.1732 0 0 1 0 1312.09 Z" class="st1"/>
			<text x="10.67" y="1316.29" class="st2">7</text>		</g>
		<g id="shape22-64" transform="translate(396.609,-814.872) rotate(14.0362)">
			<title>Sheet.22</title>
			<path d="M0 1326.26 L116.88 1326.26" class="st3"/>
		</g>
		<g id="shape23-67" transform="translate(1126.14,1466.3) rotate(135)">
			<title>Sheet.23</title>
			<path d="M0 1326.26 L40.09 1326.26" class="st3"/>
		</g>
		<g id="shape24-70" transform="translate(485.967,-854.471)">
			<title>Circle.24</title>
			<desc>10</desc>
			<path d="M0 1312.09 A14.1732 14.1732 0 1 1 28.35 1312.09 A14.1732 14.1732 0 0 1 0 1312.09 Z" class="st1"/>
			<text x="7.17" y="1316.29" class="st2">10</text>		</g>
		<g id="shape25-73" transform="translate(372.581,-797.778)">
			<title>Circle.25</title>
			<desc>2</desc>
			<path d="M0 1312.09 A14.1732 14.1732 0 1 1 28.35 1312.09 A14.1732 14.1732 0 0 1 0 1312.09 Z" class="st1"/>
			<text x="10.67" y="1316.29" class="st2">2</text>		</g>
		<g id="shape26-76" transform="translate(400.927,-741.085)">
			<title>Circle.27</title>
			<desc>4</desc>
			<path d="M0 1312.09 A14.1732 14.1732 0 1 1 28.35 1312.09 A14.1732 14.1732 0 0 1 0 1312.09 Z" class="st1"/>
			<text x="10.67" y="1316.29" class="st2">4</text>		</g>
		<g id="shape27-79" transform="translate(821.806,1758.46) rotate(165.964)">
			<title>Sheet.27</title>
			<path d="M0 1326.26 L116.88 1326.26" class="st3"/>
		</g>
		<g id="shape28-82" transform="translate(1324.56,-409.324) rotate(45)">
			<title>Sheet.28</title>
			<path d="M0 1326.26 L40.09 1326.26" class="st3"/>
		</g>
		<g id="shape29-85" transform="translate(117.463,-684.392)">
			<title>Circle.29</title>
			<desc>5</desc>
			<path d="M0 1312.09 A14.1732 14.1732 0 1 1 28.35 1312.09 A14.1732 14.1732 0 0 1 0 1312.09 Z" class="st1"/>
			<text x="10.67" y="1316.29" class="st2">5</text>		</g>
		<g id="shape30-88" transform="translate(89.1161,-627.699)">
			<title>Circle.31</title>
			<desc>3</desc>
			<path d="M0 1312.09 A14.1732 14.1732 0 1 1 28.35 1312.09 A14.1732 14.1732 0 0 1 0 1312.09 Z" class="st1"/>
			<text x="10.67" y="1316.29" class="st2">3</text>		</g>
		<g id="shape31-91" transform="translate(1097.79,1522.99) rotate(135)">
			<title>Sheet.31</title>
			<path d="M0 1326.26 L40.09 1326.26" class="st3"/>
		</g>
		<g id="shape32-94" transform="translate(1069.45,1579.68) rotate(135)">
			<title>Sheet.32</title>
			<path d="M0 1326.26 L40.09 1326.26" class="st3"/>
		</g>
		<g id="shape33-97" transform="translate(429.274,-684.392)">
			<title>Circle.33</title>
			<desc>6</desc>
			<path d="M0 1312.09 A14.1732 14.1732 0 1 1 28.35 1312.09 A14.1732 14.1732 0 0 1 0 1312.09 Z" class="st1"/>
			<text x="10.67" y="1316.29" class="st2">6</text>		</g>
		<g id="shape34-100" transform="translate(457.62,-627.699)">
			<title>Circle.35</title>
			<desc>8</desc>
			<path d="M0 1312.09 A14.1732 14.1732 0 1 1 28.35 1312.09 A14.1732 14.1732 0 0 1 0 1312.09 Z" class="st1"/>
			<text x="10.67" y="1316.29" class="st2">8</text>		</g>
		<g id="shape35-103" transform="translate(1352.91,-352.631) rotate(45)">
			<title>Sheet.35</title>
			<path d="M0 1326.26 L40.09 1326.26" class="st3"/>
		</g>
		<g id="shape36-106" transform="translate(1381.26,-295.938) rotate(45)">
			<title>Sheet.36</title>
			<path d="M0 1326.26 L40.09 1326.26" class="st3"/>
		</g>
		<g id="shape37-109" transform="translate(46.5965,-514.313)">
			<title>Circle.37</title>
			<desc>1</desc>
			<path d="M0 1312.09 A14.1732 14.1732 0 1 1 28.35 1312.09 A14.1732 14.1732 0 0 1 0 1312.09 Z" class="st1"/>
			<text x="10.67" y="1316.29" class="st2">1</text>		</g>
		<g id="shape38-112" transform="translate(188.329,-457.62)">
			<title>Circle.38</title>
			<desc>9</desc>
			<path d="M0 1312.09 A14.1732 14.1732 0 1 1 28.35 1312.09 A14.1732 14.1732 0 0 1 0 1312.09 Z" class="st1"/>
			<text x="10.67" y="1316.29" class="st2">9</text>		</g>
		<g id="shape39-115" transform="translate(103.289,-400.927)">
			<title>Circle.40</title>
			<desc>3</desc>
			<path d="M0 1312.09 A14.1732 14.1732 0 1 1 28.35 1312.09 A14.1732 14.1732 0 0 1 0 1312.09 Z" class="st1"/>
			<text x="10.67" y="1316.29" class="st2">3</text>		</g>
		<g id="shape40-118" transform="translate(320.871,-488.558) rotate(11.3099)">
			<title>Sheet.40</title>
			<path d="M0 1326.26 L144.54 1326.26" class="st3"/>
		</g>
		<g id="shape41-121" transform="translate(621.903,2126.85) rotate(161.565)">
			<title>Sheet.41</title>
			<path d="M0 1326.26 L89.64 1326.26" class="st3"/>
		</g>
		<g id="shape42-124" transform="translate(145.809,-344.234)">
			<title>Circle.42</title>
			<desc>7</desc>
			<path d="M0 1312.09 A14.1732 14.1732 0 1 1 28.35 1312.09 A14.1732 14.1732 0 0 1 0 1312.09 Z" class="st1"/>
			<text x="10.67" y="1316.29" class="st2">7</text>		</g>
		<g id="shape43-127" transform="translate(117.463,-287.541)">
			<title>Circle.44</title>
			<desc>5</desc>
			<path d="M0 1312.09 A14.1732 14.1732 0 1 1 28.35 1312.09 A14.1732 14.1732 0 0 1 0 1312.09 Z" class="st1"/>
			<text x="10.67" y="1316.29" class="st2">5</text>		</g>
		<g id="shape44-130" transform="translate(853.141,-178.182) rotate(33.6901)">
			<title>Sheet.44</title>
			<path d="M0 1326.26 L51.1 1326.26" class="st3"/>
		</g>
		<g id="shape45-133" transform="translate(1097.79,1919.84) rotate(135)">
			<title>Sheet.45</title>
			<path d="M0 1326.26 L40.09 1326.26" class="st3"/>
		</g>
		<g id="shape46-136" transform="translate(485.967,-514.313)">
			<title>Circle.46</title>
			<desc>10</desc>
			<path d="M0 1312.09 A14.1732 14.1732 0 1 1 28.35 1312.09 A14.1732 14.1732 0 0 1 0 1312.09 Z" class="st1"/>
			<text x="7.17" y="1316.29" class="st2">10</text>		</g>
		<g id="shape47-139" transform="translate(344.234,-457.62)">
			<title>Circle.47</title>
			<desc>2</desc>
			<path d="M0 1312.09 A14.1732 14.1732 0 1 1 28.35 1312.09 A14.1732 14.1732 0 0 1 0 1312.09 Z" class="st1"/>
			<text x="10.67" y="1316.29" class="st2">2</text>		</g>
		<g id="shape48-142" transform="translate(429.274,-400.927)">
			<title>Circle.49</title>
			<desc>8</desc>
			<path d="M0 1312.09 A14.1732 14.1732 0 1 1 28.35 1312.09 A14.1732 14.1732 0 0 1 0 1312.09 Z" class="st1"/>
			<text x="10.67" y="1316.29" class="st2">8</text>		</g>
		<g id="shape49-145" transform="translate(760.242,2112.46) rotate(168.69)">
			<title>Sheet.49</title>
			<path d="M0 1326.26 L144.54 1326.26" class="st3"/>
		</g>
		<g id="shape50-148" transform="translate(777.809,-389.561) rotate(18.4349)">
			<title>Sheet.50</title>
			<path d="M0 1326.26 L89.64 1326.26" class="st3"/>
		</g>
		<g id="shape51-151" transform="translate(372.581,-344.234)">
			<title>Circle.51</title>
			<desc>4</desc>
			<path d="M0 1312.09 A14.1732 14.1732 0 1 1 28.35 1312.09 A14.1732 14.1732 0 0 1 0 1312.09 Z" class="st1"/>
			<text x="10.67" y="1316.29" class="st2">4</text>		</g>
		<g id="shape52-154" transform="translate(400.927,-287.541)">
			<title>Circle.53</title>
			<desc>6</desc>
			<path d="M0 1312.09 A14.1732 14.1732 0 1 1 28.35 1312.09 A14.1732 14.1732 0 0 1 0 1312.09 Z" class="st1"/>
			<text x="10.67" y="1316.29" class="st2">6</text>		</g>
		<g id="shape53-157" transform="translate(1036.57,2111.58) rotate(153.435)">
			<title>Sheet.53</title>
			<path d="M0 1326.26 L63.38 1326.26" class="st3"/>
		</g>
		<g id="shape54-160" transform="translate(1324.56,44.2194) rotate(45)">
			<title>Sheet.54</title>
			<path d="M0 1326.26 L40.09 1326.26" class="st3"/>
		</g>
		<g id="shape55-163" transform="translate(202.502,-188.329)">
			<title>Circle</title>
			<desc>4</desc>
			<path d="M0 1312.09 A14.1732 14.1732 0 1 1 28.35 1312.09 A14.1732 14.1732 0 0 1 0 1312.09 Z" class="st1"/>
			<text x="10.67" y="1316.29" class="st2">4</text>		</g>
		<g id="shape56-166" transform="translate(145.809,-131.636)">
			<title>Circle.2</title>
			<desc>3</desc>
			<path d="M0 1312.09 A14.1732 14.1732 0 1 1 28.35 1312.09 A14.1732 14.1732 0 0 1 0 1312.09 Z" class="st1"/>
			<text x="10.67" y="1316.29" class="st2">3</text>		</g>
		<g id="shape57-169" transform="translate(259.195,-131.636)">
			<title>Circle.3</title>
			<desc>5</desc>
			<path d="M0 1312.09 A14.1732 14.1732 0 1 1 28.35 1312.09 A14.1732 14.1732 0 0 1 0 1312.09 Z" class="st1"/>
			<text x="10.67" y="1316.29" class="st2">5</text>		</g>
		<g id="shape59-172" transform="translate(89.1161,-74.9429)">
			<title>Circle.5</title>
			<desc>1</desc>
			<path d="M0 1312.09 A14.1732 14.1732 0 1 1 28.35 1312.09 A14.1732 14.1732 0 0 1 0 1312.09 Z" class="st1"/>
			<text x="10.67" y="1316.29" class="st2">1</text>		</g>
		<g id="shape61-175" transform="translate(315.888,-74.9429)">
			<title>Circle.7</title>
			<desc>7</desc>
			<path d="M0 1312.09 A14.1732 14.1732 0 1 1 28.35 1312.09 A14.1732 14.1732 0 0 1 0 1312.09 Z" class="st1"/>
			<text x="10.67" y="1316.29" class="st2">7</text>		</g>
		<g id="shape62-178" transform="translate(159.982,-159.982)">
			<title>Sheet.62</title>
			<path d="M113.39 1326.26 L56.69 1297.92 L0 1326.26" class="st4"/>
		</g>
		<g id="shape67-181" transform="translate(117.463,-18.25)">
			<title>Circle.68</title>
			<desc>2</desc>
			<path d="M0 1312.09 A14.1732 14.1732 0 1 1 28.35 1312.09 A14.1732 14.1732 0 0 1 0 1312.09 Z" class="st1"/>
			<text x="10.67" y="1316.29" class="st2">2</text>		</g>
		<g id="shape68-184" transform="translate(1041.1,313.511) rotate(45)">
			<title>Sheet.68</title>
			<path d="M0 1326.26 L40.09 1326.26" class="st3"/>
		</g>
		<g id="shape69-187" transform="translate(287.541,-18.25)">
			<title>Circle.70</title>
			<desc>6</desc>
			<path d="M0 1312.09 A14.1732 14.1732 0 1 1 28.35 1312.09 A14.1732 14.1732 0 0 1 0 1312.09 Z" class="st1"/>
			<text x="10.67" y="1316.29" class="st2">6</text>		</g>
		<g id="shape70-190" transform="translate(1267.87,2189.13) rotate(135)">
			<title>Sheet.70</title>
			<path d="M0 1326.26 L40.09 1326.26" class="st3"/>
		</g>
		<g id="shape71-193" transform="translate(18.25,-1279.67)">
			<title>Sheet.71</title>
			<desc>Examples of unbalanced BST</desc>
			<rect x="0" y="1297.92" width="297.638" height="28.3465" class="st5"/>
			<text x="5.86" y="1319.29" class="st6">Examples of unbalanced BST</text>		</g>
		<g id="shape72-196" transform="translate(32.4232,-1222.97)">
			<title>Sheet.72</title>
			<desc>case 1:</desc>
			<rect x="0" y="1297.92" width="56.6929" height="28.3465" class="st5"/>
			<text x="6.36" y="1316.89" class="st7">case 1:</text>		</g>
		<g id="shape73-199" transform="translate(287.541,-1222.97)">
			<title>Sheet.73</title>
			<desc>case 2:</desc>
			<rect x="0" y="1297.92" width="56.6929" height="28.3465" class="st5"/>
			<text x="6.36" y="1316.89" class="st7">case 2:</text>		</g>
		<g id="shape74-202" transform="translate(32.4232,-896.99)">
			<title>Sheet.74</title>
			<desc>case 3:</desc>
			<rect x="0" y="1297.92" width="56.6929" height="28.3465" class="st5"/>
			<text x="6.36" y="1316.89" class="st7">case 3:</text>		</g>
		<g id="shape75-205" transform="translate(287.541,-896.99)">
			<title>Sheet.75</title>
			<desc>case 4:</desc>
			<rect x="0" y="1297.92" width="56.6929" height="28.3465" class="st5"/>
			<text x="6.36" y="1316.89" class="st7">case 4:</text>		</g>
		<g id="shape76-208" transform="translate(32.4232,-556.833)">
			<title>Sheet.76</title>
			<desc>case 5:</desc>
			<rect x="0" y="1297.92" width="56.6929" height="28.3465" class="st5"/>
			<text x="6.36" y="1316.89" class="st7">case 5:</text>		</g>
		<g id="shape77-211" transform="translate(287.541,-556.833)">
			<title>Sheet.77</title>
			<desc>case 6:</desc>
			<rect x="0" y="1297.92" width="56.6929" height="28.3465" class="st5"/>
			<text x="6.36" y="1316.89" class="st7">case 6:</text>		</g>
		<g id="shape78-214" transform="translate(32.4232,-216.675)">
			<title>Sheet.78</title>
			<desc>case 7:</desc>
			<rect x="0" y="1297.92" width="56.6929" height="28.3465" class="st5"/>
			<text x="6.36" y="1316.89" class="st7">case 7:</text>		</g>
		<g id="shape79-217" transform="translate(866.491,8.38156) rotate(26.5651)">
			<title>Sheet.79</title>
			<path d="M0 1326.26 L63.38 1326.26" class="st3"/>
		</g>
		<g id="shape80-220" transform="translate(753.106,2380.87) rotate(153.435)">
			<title>Sheet.80</title>
			<path d="M0 1326.26 L63.38 1326.26" class="st3"/>
		</g>
	</g>
</svg>
