<?xml version="1.0" encoding="UTF-8" standalone="no"?>
<!DOCTYPE svg PUBLIC "-//W3C//DTD SVG 1.1//EN" "http://www.w3.org/Graphics/SVG/1.1/DTD/svg11.dtd">
<!-- Illustrator: Larry Huang -->
<svg xmlns="http://www.w3.org/2000/svg" xmlns:xlink="http://www.w3.org/1999/xlink" xmlns:ev="http://www.w3.org/2001/xml-events"
		width="4.6408in" height="4.83765in" viewBox="0 0 334.138 348.311" xml:space="preserve" color-interpolation-filters="sRGB"
		class="st10">
	<style type="text/css">
	<![CDATA[
		.st1 {fill:none;stroke:#7f7f7f;stroke-width:1}
		.st2 {fill:none;stroke:none;stroke-width:0.25}
		.st3 {fill:#7f7f7f;font-family:Times New Roman;font-size:1.16666em}
		.st4 {fill:#7f7f7f;font-family:Times New Roman;font-size:1.33333em;font-weight:bold}
		.st5 {fill:none;stroke:#000000;stroke-width:1}
		.st6 {fill:#000000;font-family:Times New Roman;font-size:1.00001em}
		.st7 {fill:#000000;font-family:Times New Roman;font-size:1.16666em}
		.st8 {fill:#7f7f7f;font-family:Times New Roman;font-size:16;font-weight:bold}
		.st9 {font-size:16}
		.st10 {fill:none;fill-rule:evenodd;font-size:12px;overflow:visible;stroke-linecap:square;stroke-miterlimit:3}
	]]>
	</style>

	<g>
		<title>Page-1</title>
		<g id="shape45-1" transform="translate(273.368,-259.195)">
			<title>Square.45</title>
			<rect x="0" y="319.965" width="28.3465" height="28.3465" class="st1"/>
		</g>
		<g id="shape1-3" transform="translate(74.9429,-301.715)">
			<title>Sheet.1</title>
			<desc>0</desc>
			<rect x="0" y="319.965" width="28.3465" height="28.3465" class="st2"/>
			<text x="10.67" y="338.34" class="st3">0</text>		</g>
		<g id="shape2-6" transform="translate(103.289,-301.715)">
			<title>Sheet.2</title>
			<desc>1</desc>
			<rect x="0" y="319.965" width="28.3465" height="28.3465" class="st2"/>
			<text x="10.67" y="338.34" class="st3">1</text>		</g>
		<g id="shape3-9" transform="translate(131.636,-301.715)">
			<title>Sheet.3</title>
			<desc>2</desc>
			<rect x="0" y="319.965" width="28.3465" height="28.3465" class="st2"/>
			<text x="10.67" y="338.34" class="st3">2</text>		</g>
		<g id="shape4-12" transform="translate(159.982,-301.715)">
			<title>Sheet.4</title>
			<desc>3</desc>
			<rect x="0" y="319.965" width="28.3465" height="28.3465" class="st2"/>
			<text x="10.67" y="338.34" class="st3">3</text>		</g>
		<g id="shape5-15" transform="translate(188.329,-301.715)">
			<title>Sheet.5</title>
			<desc>… … …</desc>
			<rect x="0" y="319.965" width="85.0394" height="28.3465" class="st2"/>
			<text x="14.52" y="338.94" class="st4">… … …</text>		</g>
		<g id="shape6-18" transform="translate(18.25,-301.715)">
			<title>Sheet.6</title>
			<desc>vertex</desc>
			<rect x="0" y="319.965" width="56.6929" height="28.3465" class="st2"/>
			<text x="10.86" y="338.34" class="st3">vertex</text>		</g>
		<g id="shape7-21" transform="translate(259.195,-301.715)">
			<title>Sheet.7</title>
			<desc>N-1</desc>
			<rect x="0" y="319.965" width="56.6929" height="28.3465" class="st2"/>
			<text x="17.46" y="338.34" class="st3">N-1</text>		</g>
		<g id="shape38-24" transform="translate(32.4232,-259.195)">
			<title>Sheet.38</title>
			<desc>0</desc>
			<rect x="0" y="319.965" width="28.3465" height="28.3465" class="st2"/>
			<text x="10.67" y="338.34" class="st3">0</text>		</g>
		<g id="shape39-27" transform="translate(32.4232,-230.848)">
			<title>Sheet.39</title>
			<desc>1</desc>
			<rect x="0" y="319.965" width="28.3465" height="28.3465" class="st2"/>
			<text x="10.67" y="338.34" class="st3">1</text>		</g>
		<g id="shape40-30" transform="translate(32.4232,-202.502)">
			<title>Sheet.40</title>
			<desc>2</desc>
			<rect x="0" y="319.965" width="28.3465" height="28.3465" class="st2"/>
			<text x="10.67" y="338.34" class="st3">2</text>		</g>
		<g id="shape41-33" transform="translate(32.4232,-174.156)">
			<title>Sheet.41</title>
			<desc>3</desc>
			<rect x="0" y="319.965" width="28.3465" height="28.3465" class="st2"/>
			<text x="10.67" y="338.34" class="st3">3</text>		</g>
		<g id="shape44-36" transform="translate(18.25,-60.7697)">
			<title>Sheet.44</title>
			<desc>N-1</desc>
			<rect x="0" y="319.965" width="56.6929" height="28.3465" class="st2"/>
			<text x="17.46" y="338.34" class="st3">N-1</text>		</g>
		<g id="shape46-39" transform="translate(273.368,-230.848)">
			<title>Square.46</title>
			<rect x="0" y="319.965" width="28.3465" height="28.3465" class="st1"/>
		</g>
		<g id="shape47-41" transform="translate(273.368,-117.463)">
			<title>Square.47</title>
			<rect x="0" y="319.965" width="28.3465" height="28.3465" class="st1"/>
		</g>
		<g id="shape48-43" transform="translate(273.368,-145.809)">
			<title>Square.48</title>
			<rect x="0" y="319.965" width="28.3465" height="28.3465" class="st1"/>
		</g>
		<g id="shape49-45" transform="translate(273.368,-174.156)">
			<title>Square.49</title>
			<rect x="0" y="319.965" width="28.3465" height="28.3465" class="st1"/>
		</g>
		<g id="shape50-47" transform="translate(273.368,-202.502)">
			<title>Square.50</title>
			<rect x="0" y="319.965" width="28.3465" height="28.3465" class="st1"/>
		</g>
		<g id="shape51-49" transform="translate(273.368,-60.7697)">
			<title>Square.51</title>
			<rect x="0" y="319.965" width="28.3465" height="28.3465" class="st1"/>
		</g>
		<g id="shape52-51" transform="translate(273.368,-89.1161)">
			<title>Square.52</title>
			<rect x="0" y="319.965" width="28.3465" height="28.3465" class="st1"/>
		</g>
		<g id="shape53-53" transform="translate(245.022,-60.7697)">
			<title>Square.53</title>
			<rect x="0" y="319.965" width="28.3465" height="28.3465" class="st1"/>
		</g>
		<g id="shape54-55" transform="translate(159.982,-60.7697)">
			<title>Square.54</title>
			<rect x="0" y="319.965" width="28.3465" height="28.3465" class="st1"/>
		</g>
		<g id="shape55-57" transform="translate(131.636,-60.7697)">
			<title>Square.55</title>
			<rect x="0" y="319.965" width="28.3465" height="28.3465" class="st1"/>
		</g>
		<g id="shape56-59" transform="translate(103.289,-60.7697)">
			<title>Square.56</title>
			<rect x="0" y="319.965" width="28.3465" height="28.3465" class="st1"/>
		</g>
		<g id="shape57-61" transform="translate(74.9429,-60.7697)">
			<title>Square.57</title>
			<rect x="0" y="319.965" width="28.3465" height="28.3465" class="st1"/>
		</g>
		<g id="shape58-63" transform="translate(216.675,-60.7697)">
			<title>Square.58</title>
			<rect x="0" y="319.965" width="28.3465" height="28.3465" class="st1"/>
		</g>
		<g id="shape59-65" transform="translate(188.329,-60.7697)">
			<title>Square.59</title>
			<rect x="0" y="319.965" width="28.3465" height="28.3465" class="st1"/>
		</g>
		<g id="shape60-67" transform="translate(245.022,-259.195)">
			<title>Square.60</title>
			<rect x="0" y="319.965" width="28.3465" height="28.3465" class="st1"/>
		</g>
		<g id="shape61-69" transform="translate(216.675,-259.195)">
			<title>Square.61</title>
			<rect x="0" y="319.965" width="28.3465" height="28.3465" class="st1"/>
		</g>
		<g id="shape62-71" transform="translate(188.329,-259.195)">
			<title>Square.62</title>
			<rect x="0" y="319.965" width="28.3465" height="28.3465" class="st1"/>
		</g>
		<g id="shape63-73" transform="translate(74.9429,-117.463)">
			<title>Square.63</title>
			<rect x="0" y="319.965" width="28.3465" height="28.3465" class="st1"/>
		</g>
		<g id="shape64-75" transform="translate(74.9429,-145.809)">
			<title>Square.64</title>
			<rect x="0" y="319.965" width="28.3465" height="28.3465" class="st1"/>
		</g>
		<g id="shape65-77" transform="translate(74.9429,-89.1161)">
			<title>Square.65</title>
			<rect x="0" y="319.965" width="28.3465" height="28.3465" class="st1"/>
		</g>
		<g id="shape66-79" transform="translate(245.022,-230.848)">
			<title>Square.66</title>
			<rect x="0" y="319.965" width="28.3465" height="28.3465" class="st1"/>
		</g>
		<g id="shape67-81" transform="translate(245.022,-117.463)">
			<title>Square.67</title>
			<rect x="0" y="319.965" width="28.3465" height="28.3465" class="st1"/>
		</g>
		<g id="shape68-83" transform="translate(245.022,-145.809)">
			<title>Square.68</title>
			<rect x="0" y="319.965" width="28.3465" height="28.3465" class="st1"/>
		</g>
		<g id="shape69-85" transform="translate(245.022,-174.156)">
			<title>Square.69</title>
			<rect x="0" y="319.965" width="28.3465" height="28.3465" class="st1"/>
		</g>
		<g id="shape70-87" transform="translate(245.022,-202.502)">
			<title>Square.70</title>
			<rect x="0" y="319.965" width="28.3465" height="28.3465" class="st1"/>
		</g>
		<g id="shape71-89" transform="translate(245.022,-89.1161)">
			<title>Square.71</title>
			<rect x="0" y="319.965" width="28.3465" height="28.3465" class="st1"/>
		</g>
		<g id="shape72-91" transform="translate(216.675,-230.848)">
			<title>Square.72</title>
			<rect x="0" y="319.965" width="28.3465" height="28.3465" class="st1"/>
		</g>
		<g id="shape73-93" transform="translate(216.675,-117.463)">
			<title>Square.73</title>
			<rect x="0" y="319.965" width="28.3465" height="28.3465" class="st1"/>
		</g>
		<g id="shape74-95" transform="translate(216.675,-145.809)">
			<title>Square.74</title>
			<rect x="0" y="319.965" width="28.3465" height="28.3465" class="st1"/>
		</g>
		<g id="shape75-97" transform="translate(216.675,-174.156)">
			<title>Square.75</title>
			<rect x="0" y="319.965" width="28.3465" height="28.3465" class="st1"/>
		</g>
		<g id="shape76-99" transform="translate(216.675,-202.502)">
			<title>Square.76</title>
			<rect x="0" y="319.965" width="28.3465" height="28.3465" class="st1"/>
		</g>
		<g id="shape77-101" transform="translate(216.675,-89.1161)">
			<title>Square.77</title>
			<rect x="0" y="319.965" width="28.3465" height="28.3465" class="st1"/>
		</g>
		<g id="shape78-103" transform="translate(188.329,-230.848)">
			<title>Square.78</title>
			<rect x="0" y="319.965" width="28.3465" height="28.3465" class="st1"/>
		</g>
		<g id="shape79-105" transform="translate(188.329,-117.463)">
			<title>Square.79</title>
			<rect x="0" y="319.965" width="28.3465" height="28.3465" class="st1"/>
		</g>
		<g id="shape80-107" transform="translate(188.329,-145.809)">
			<title>Square.80</title>
			<rect x="0" y="319.965" width="28.3465" height="28.3465" class="st1"/>
		</g>
		<g id="shape81-109" transform="translate(188.329,-174.156)">
			<title>Square.81</title>
			<rect x="0" y="319.965" width="28.3465" height="28.3465" class="st1"/>
		</g>
		<g id="shape82-111" transform="translate(188.329,-202.502)">
			<title>Square.82</title>
			<rect x="0" y="319.965" width="28.3465" height="28.3465" class="st1"/>
		</g>
		<g id="shape83-113" transform="translate(188.329,-89.1161)">
			<title>Square.83</title>
			<rect x="0" y="319.965" width="28.3465" height="28.3465" class="st1"/>
		</g>
		<g id="shape84-115" transform="translate(159.982,-117.463)">
			<title>Square.84</title>
			<rect x="0" y="319.965" width="28.3465" height="28.3465" class="st1"/>
		</g>
		<g id="shape85-117" transform="translate(159.982,-145.809)">
			<title>Square.85</title>
			<rect x="0" y="319.965" width="28.3465" height="28.3465" class="st1"/>
		</g>
		<g id="shape86-119" transform="translate(159.982,-89.1161)">
			<title>Square.86</title>
			<rect x="0" y="319.965" width="28.3465" height="28.3465" class="st1"/>
		</g>
		<g id="shape87-121" transform="translate(131.636,-117.463)">
			<title>Square.87</title>
			<rect x="0" y="319.965" width="28.3465" height="28.3465" class="st1"/>
		</g>
		<g id="shape88-123" transform="translate(131.636,-145.809)">
			<title>Square.88</title>
			<rect x="0" y="319.965" width="28.3465" height="28.3465" class="st1"/>
		</g>
		<g id="shape89-125" transform="translate(131.636,-89.1161)">
			<title>Square.89</title>
			<rect x="0" y="319.965" width="28.3465" height="28.3465" class="st1"/>
		</g>
		<g id="shape90-127" transform="translate(103.289,-117.463)">
			<title>Square.90</title>
			<rect x="0" y="319.965" width="28.3465" height="28.3465" class="st1"/>
		</g>
		<g id="shape91-129" transform="translate(103.289,-145.809)">
			<title>Square.91</title>
			<rect x="0" y="319.965" width="28.3465" height="28.3465" class="st1"/>
		</g>
		<g id="shape92-131" transform="translate(103.289,-89.1161)">
			<title>Square.92</title>
			<rect x="0" y="319.965" width="28.3465" height="28.3465" class="st1"/>
		</g>
		<g id="shape8-133" transform="translate(74.9429,-259.195)">
			<title>Square.8</title>
			<desc>nan</desc>
			<rect x="0" y="319.965" width="28.3465" height="28.3465" class="st5"/>
			<text x="5.51" y="337.74" class="st6">nan</text>		</g>
		<g id="shape9-136" transform="translate(103.289,-259.195)">
			<title>Square.9</title>
			<desc>3.5</desc>
			<rect x="0" y="319.965" width="28.3465" height="28.3465" class="st5"/>
			<text x="5.42" y="338.34" class="st7">3.5</text>		</g>
		<g id="shape10-139" transform="translate(131.636,-259.195)">
			<title>Square.10</title>
			<desc>nan</desc>
			<rect x="0" y="319.965" width="28.3465" height="28.3465" class="st5"/>
			<text x="5.51" y="337.74" class="st6">nan</text>		</g>
		<g id="shape11-142" transform="translate(159.982,-259.195)">
			<title>Square.11</title>
			<desc>nan</desc>
			<rect x="0" y="319.965" width="28.3465" height="28.3465" class="st5"/>
			<text x="5.51" y="337.74" class="st6">nan</text>		</g>
		<g id="shape13-145" transform="translate(74.9429,-230.848)">
			<title>Square.13</title>
			<desc>1.6</desc>
			<rect x="0" y="319.965" width="28.3465" height="28.3465" class="st5"/>
			<text x="5.42" y="338.34" class="st7">1.6</text>		</g>
		<g id="shape14-148" transform="translate(103.289,-230.848)">
			<title>Square.14</title>
			<desc>nan</desc>
			<rect x="0" y="319.965" width="28.3465" height="28.3465" class="st5"/>
			<text x="5.51" y="337.74" class="st6">nan</text>		</g>
		<g id="shape15-151" transform="translate(131.636,-230.848)">
			<title>Square.15</title>
			<desc>4.3</desc>
			<rect x="0" y="319.965" width="28.3465" height="28.3465" class="st5"/>
			<text x="5.42" y="338.34" class="st7">4.3</text>		</g>
		<g id="shape16-154" transform="translate(159.982,-230.848)">
			<title>Square.16</title>
			<desc>nan</desc>
			<rect x="0" y="319.965" width="28.3465" height="28.3465" class="st5"/>
			<text x="5.51" y="337.74" class="st6">nan</text>		</g>
		<g id="shape18-157" transform="translate(74.9429,-202.502)">
			<title>Square.18</title>
			<desc>nan</desc>
			<rect x="0" y="319.965" width="28.3465" height="28.3465" class="st5"/>
			<text x="5.51" y="337.74" class="st6">nan</text>		</g>
		<g id="shape19-160" transform="translate(103.289,-202.502)">
			<title>Square.19</title>
			<desc>7.7</desc>
			<rect x="0" y="319.965" width="28.3465" height="28.3465" class="st5"/>
			<text x="5.42" y="338.34" class="st7">7.7</text>		</g>
		<g id="shape20-163" transform="translate(131.636,-202.502)">
			<title>Square.20</title>
			<desc>nan</desc>
			<rect x="0" y="319.965" width="28.3465" height="28.3465" class="st5"/>
			<text x="5.51" y="337.74" class="st6">nan</text>		</g>
		<g id="shape21-166" transform="translate(159.982,-202.502)">
			<title>Square.21</title>
			<desc>9.0</desc>
			<rect x="0" y="319.965" width="28.3465" height="28.3465" class="st5"/>
			<text x="5.42" y="338.34" class="st7">9.0</text>		</g>
		<g id="shape23-169" transform="translate(74.9429,-174.156)">
			<title>Square.23</title>
			<desc>nan</desc>
			<rect x="0" y="319.965" width="28.3465" height="28.3465" class="st5"/>
			<text x="5.51" y="337.74" class="st6">nan</text>		</g>
		<g id="shape24-172" transform="translate(103.289,-174.156)">
			<title>Square.24</title>
			<desc>nan</desc>
			<rect x="0" y="319.965" width="28.3465" height="28.3465" class="st5"/>
			<text x="5.51" y="337.74" class="st6">nan</text>		</g>
		<g id="shape25-175" transform="translate(131.636,-174.156)">
			<title>Square.25</title>
			<desc>2.8</desc>
			<rect x="0" y="319.965" width="28.3465" height="28.3465" class="st5"/>
			<text x="5.42" y="338.34" class="st7">2.8</text>		</g>
		<g id="shape26-178" transform="translate(159.982,-174.156)">
			<title>Square.26</title>
			<desc>nan</desc>
			<rect x="0" y="319.965" width="28.3465" height="28.3465" class="st5"/>
			<text x="5.51" y="337.74" class="st6">nan</text>		</g>
		<g id="shape93-181" transform="translate(32.4232,-89.1161)">
			<title>Sheet.93</title>
			<desc>… … …</desc>
			<rect x="0" y="263.272" width="28.3465" height="85.0394" class="st2"/>
			<text x="-11.58" y="-336.06" writing-mode="tb-rl" transform="rotate(180)" class="st8"><tspan
						glyph-orientation-vertical="0">…</tspan><tspan x="-11.58" y="-317.79" class="st9"> </tspan><tspan x="-11.58"
						y="-316.06" glyph-orientation-vertical="0" class="st9">…</tspan><tspan x="-11.58" y="-297.79" class="st9"> </tspan><tspan
						x="-11.58" y="-296.06" glyph-orientation-vertical="0" class="st9">…</tspan></text>		</g>
		<g id="shape94-189" transform="translate(74.9429,-18.25)">
			<title>Sheet.94</title>
			<desc>nan: not a number</desc>
			<rect x="0" y="319.965" width="113.386" height="28.3465" class="st2"/>
			<text x="5.96" y="338.34" class="st3">nan: not a number</text>		</g>
	</g>
</svg>
