<?xml version="1.0" encoding="UTF-8" standalone="no"?>
<!DOCTYPE svg PUBLIC "-//W3C//DTD SVG 1.1//EN" "http://www.w3.org/Graphics/SVG/1.1/DTD/svg11.dtd">
<!-- Illustrator: Larry Huang -->
<svg xmlns="http://www.w3.org/2000/svg" xmlns:xlink="http://www.w3.org/1999/xlink" xmlns:ev="http://www.w3.org/2001/xml-events"
		width="9.09023in" height="5.5365in" viewBox="0 0 654.496 398.628" xml:space="preserve" color-interpolation-filters="sRGB"
		class="st12">
	<style type="text/css">
	<![CDATA[
		.st1 {fill:none;stroke:#7f7f7f;stroke-width:1}
		.st2 {fill:none;stroke:none;stroke-width:0.25}
		.st3 {fill:#7f7f7f;font-family:Times New Roman;font-size:1.16666em}
		.st4 {fill:#7f7f7f;font-family:Times New Roman;font-size:1.00001em}
		.st5 {fill:none;stroke:#000000;stroke-width:1}
		.st6 {fill:#000000;font-family:Times New Roman;font-size:1.00001em}
		.st7 {fill:#000000;font-family:Times New Roman;font-size:1.16666em}
		.st8 {fill:#ff0000;font-family:Times New Roman;font-size:1.00001em}
		.st9 {stroke:#7f7f7f;stroke-width:0.25}
		.st10 {marker-end:url(#mrkr5-163);stroke:#000000;stroke-linecap:round;stroke-linejoin:round;stroke-width:1}
		.st11 {fill:#000000;fill-opacity:1;stroke:#000000;stroke-opacity:1;stroke-width:0.28409090909091}
		.st12 {fill:none;fill-rule:evenodd;font-size:12px;overflow:visible;stroke-linecap:square;stroke-miterlimit:3}
	]]>
	</style>

	<defs id="Markers">
		<g id="lend5">
			<path d="M 2 1 L 0 0 L 1.98117 -0.993387 C 1.67173 -0.364515 1.67301 0.372641 1.98465 1.00043 " style="stroke:none"/>
		</g>
		<marker id="mrkr5-163" class="st11" refX="-6.16" orient="auto" markerUnits="strokeWidth" overflow="visible">
			<use xlink:href="#lend5" transform="scale(-3.52,-3.52) "/>
		</marker>
	</defs>
	<g>
		<title>Page-1</title>
		<g id="shape103-1" transform="translate(210.3,-60.7697)">
			<title>Sheet.103</title>
			<rect x="0" y="370.282" width="226.772" height="28.3465" class="st1"/>
		</g>
		<g id="shape101-3" transform="translate(352.032,-117.463)">
			<title>Sheet.101</title>
			<rect x="0" y="370.282" width="226.772" height="28.3465" class="st1"/>
		</g>
		<g id="shape100-5" transform="translate(408.725,-188.329)">
			<title>Sheet.100</title>
			<rect x="0" y="370.282" width="226.772" height="28.3465" class="st1"/>
		</g>
		<g id="shape95-7" transform="translate(111.087,-60.7697)">
			<title>Sheet.95</title>
			<rect x="0" y="171.857" width="28.3465" height="226.772" class="st1"/>
		</g>
		<g id="shape99-9" transform="translate(281.166,-259.195)">
			<title>Sheet.99</title>
			<rect x="0" y="370.282" width="226.772" height="28.3465" class="st1"/>
		</g>
		<g id="shape1-11" transform="translate(281.166,-287.541)">
			<title>Sheet.1</title>
			<desc>0</desc>
			<rect x="0" y="370.282" width="28.3465" height="28.3465" class="st2"/>
			<text x="10.67" y="388.66" class="st3">0</text>		</g>
		<g id="shape2-14" transform="translate(309.512,-287.541)">
			<title>Sheet.2</title>
			<desc>1</desc>
			<rect x="0" y="370.282" width="28.3465" height="28.3465" class="st2"/>
			<text x="10.67" y="388.66" class="st3">1</text>		</g>
		<g id="shape3-17" transform="translate(337.859,-287.541)">
			<title>Sheet.3</title>
			<desc>2</desc>
			<rect x="0" y="370.282" width="28.3465" height="28.3465" class="st2"/>
			<text x="10.67" y="388.66" class="st3">2</text>		</g>
		<g id="shape4-20" transform="translate(366.205,-287.541)">
			<title>Sheet.4</title>
			<desc>3</desc>
			<rect x="0" y="370.282" width="28.3465" height="28.3465" class="st2"/>
			<text x="10.67" y="388.66" class="st3">3</text>		</g>
		<g id="shape6-23" transform="translate(68.5673,-287.541)">
			<title>Sheet.6</title>
			<desc>vertex</desc>
			<rect x="0" y="370.282" width="56.6929" height="28.3465" class="st2"/>
			<text x="13.35" y="388.06" class="st4">vertex</text>		</g>
		<g id="shape38-26" transform="translate(82.7405,-259.195)">
			<title>Sheet.38</title>
			<desc>0</desc>
			<rect x="0" y="370.282" width="28.3465" height="28.3465" class="st2"/>
			<text x="10.67" y="388.66" class="st3">0</text>		</g>
		<g id="shape39-29" transform="translate(82.7405,-230.848)">
			<title>Sheet.39</title>
			<desc>1</desc>
			<rect x="0" y="370.282" width="28.3465" height="28.3465" class="st2"/>
			<text x="10.67" y="388.66" class="st3">1</text>		</g>
		<g id="shape40-32" transform="translate(82.7405,-202.502)">
			<title>Sheet.40</title>
			<desc>2</desc>
			<rect x="0" y="370.282" width="28.3465" height="28.3465" class="st2"/>
			<text x="10.67" y="388.66" class="st3">2</text>		</g>
		<g id="shape41-35" transform="translate(82.7405,-174.156)">
			<title>Sheet.41</title>
			<desc>3</desc>
			<rect x="0" y="370.282" width="28.3465" height="28.3465" class="st2"/>
			<text x="10.67" y="388.66" class="st3">3</text>		</g>
		<g id="shape8-38" transform="translate(281.166,-259.195)">
			<title>Square.8</title>
			<desc>nan</desc>
			<rect x="0" y="370.282" width="28.3465" height="28.3465" class="st5"/>
			<text x="5.51" y="388.06" class="st6">nan</text>		</g>
		<g id="shape9-41" transform="translate(309.512,-259.195)">
			<title>Square.9</title>
			<desc>3.5</desc>
			<rect x="0" y="370.282" width="28.3465" height="28.3465" class="st5"/>
			<text x="5.42" y="388.66" class="st7">3.5</text>		</g>
		<g id="shape10-44" transform="translate(337.859,-259.195)">
			<title>Square.10</title>
			<desc>nan</desc>
			<rect x="0" y="370.282" width="28.3465" height="28.3465" class="st5"/>
			<text x="5.51" y="388.66" class="st6">nan</text>		</g>
		<g id="shape11-47" transform="translate(366.205,-259.195)">
			<title>Square.11</title>
			<desc>nan</desc>
			<rect x="0" y="370.282" width="28.3465" height="28.3465" class="st5"/>
			<text x="5.51" y="388.66" class="st6">nan</text>		</g>
		<g id="shape13-50" transform="translate(408.725,-188.329)">
			<title>Square.13</title>
			<desc>-1.6</desc>
			<rect x="0" y="370.282" width="28.3465" height="28.3465" class="st5"/>
			<text x="4.67" y="388.06" class="st8">-1.6</text>		</g>
		<g id="shape14-53" transform="translate(437.071,-188.329)">
			<title>Square.14</title>
			<desc>nan</desc>
			<rect x="0" y="370.282" width="28.3465" height="28.3465" class="st5"/>
			<text x="5.51" y="388.66" class="st6">nan</text>		</g>
		<g id="shape15-56" transform="translate(465.418,-188.329)">
			<title>Square.15</title>
			<desc>9.4</desc>
			<rect x="0" y="370.282" width="28.3465" height="28.3465" class="st5"/>
			<text x="5.42" y="388.66" class="st7">9.4</text>		</g>
		<g id="shape16-59" transform="translate(493.764,-188.329)">
			<title>Square.16</title>
			<desc>nan</desc>
			<rect x="0" y="370.282" width="28.3465" height="28.3465" class="st5"/>
			<text x="5.51" y="388.66" class="st6">nan</text>		</g>
		<g id="shape18-62" transform="translate(352.032,-117.463)">
			<title>Square.18</title>
			<desc>nan</desc>
			<rect x="0" y="370.282" width="28.3465" height="28.3465" class="st5"/>
			<text x="5.51" y="388.66" class="st6">nan</text>		</g>
		<g id="shape19-65" transform="translate(380.378,-117.463)">
			<title>Square.19</title>
			<desc>7.7</desc>
			<rect x="0" y="370.282" width="28.3465" height="28.3465" class="st5"/>
			<text x="5.42" y="388.66" class="st7">7.7</text>		</g>
		<g id="shape20-68" transform="translate(408.725,-117.463)">
			<title>Square.20</title>
			<desc>nan</desc>
			<rect x="0" y="370.282" width="28.3465" height="28.3465" class="st5"/>
			<text x="5.51" y="388.66" class="st6">nan</text>		</g>
		<g id="shape21-71" transform="translate(437.071,-117.463)">
			<title>Square.21</title>
			<desc>0.0</desc>
			<rect x="0" y="370.282" width="28.3465" height="28.3465" class="st5"/>
			<text x="5.42" y="388.66" class="st7">0.0</text>		</g>
		<g id="shape23-74" transform="translate(210.3,-60.7697)">
			<title>Square.23</title>
			<desc>nan</desc>
			<rect x="0" y="370.282" width="28.3465" height="28.3465" class="st5"/>
			<text x="5.51" y="388.66" class="st6">nan</text>		</g>
		<g id="shape24-77" transform="translate(238.646,-60.7697)">
			<title>Square.24</title>
			<desc>nan</desc>
			<rect x="0" y="370.282" width="28.3465" height="28.3465" class="st5"/>
			<text x="5.51" y="388.66" class="st6">nan</text>		</g>
		<g id="shape25-80" transform="translate(266.992,-60.7697)">
			<title>Square.25</title>
			<desc>2.8</desc>
			<rect x="0" y="370.282" width="28.3465" height="28.3465" class="st5"/>
			<text x="5.42" y="388.66" class="st7">2.8</text>		</g>
		<g id="shape26-83" transform="translate(295.339,-60.7697)">
			<title>Square.26</title>
			<desc>nan</desc>
			<rect x="0" y="370.282" width="28.3465" height="28.3465" class="st5"/>
			<text x="5.51" y="388.66" class="st6">nan</text>		</g>
		<g id="shape94-86" transform="translate(111.087,-174.156)">
			<title>Sheet.94</title>
			<rect x="0" y="285.242" width="28.3465" height="113.386" class="st5"/>
		</g>
		<g id="shape96-88" transform="translate(281.166,-259.195)">
			<title>Sheet.96</title>
			<rect x="0" y="370.282" width="113.386" height="28.3465" class="st5"/>
		</g>
		<g id="shape97-90" transform="translate(408.725,-188.329)">
			<title>Sheet.97</title>
			<rect x="0" y="370.282" width="113.386" height="28.3465" class="st5"/>
		</g>
		<g id="shape98-92" transform="translate(352.032,-117.463)">
			<title>Sheet.98</title>
			<rect x="0" y="370.282" width="113.386" height="28.3465" class="st5"/>
		</g>
		<g id="shape102-94" transform="translate(210.3,-60.7697)">
			<title>Sheet.102</title>
			<rect x="0" y="370.282" width="113.386" height="28.3465" class="st5"/>
		</g>
		<g id="shape104-96" transform="translate(281.166,472.865) scale(1,-1)">
			<title>Side brace.29</title>
			<desc>size</desc>
			<path d="M0 390.12 L0 391.54 A7.0865 7.0865 -180 0 0 7.09 398.63 L49.61 398.63 A7.0865 7.0865 0 0 1 56.69 405.71 A7.0865
						 7.0865 0 0 1 63.78 398.63 L106.3 398.63 A7.0865 7.0865 -180 0 0 113.39 391.54 L113.39 390.12" class="st9"/>
			<text x="47.81" y="-409.92" transform="scale(1,-1)" class="st7">size</text>		</g>
		<g id="shape105-100" transform="translate(281.166,444.518) scale(1,-1)">
			<title>Side brace.45</title>
			<desc>capacity</desc>
			<path d="M0 390.12 L0 391.54 A7.0865 7.0865 -180 0 0 7.09 398.63 L106.3 398.63 A7.0865 7.0865 0 0 1 113.39 405.71 A7.0865
						 7.0865 0 0 1 120.47 398.63 L219.69 398.63 A7.0865 7.0865 -180 0 0 226.77 391.54 L226.77 390.12"
					class="st9"/>
			<text x="92.07" y="-409.92" transform="scale(1,-1)" class="st7">capacity</text>		</g>
		<g id="shape106-104" transform="translate(111.087,-344.234)">
			<title>Circle</title>
			<path d="M0 384.46 A14.1732 14.1732 0 0 1 28.35 384.46 A14.1732 14.1732 0 1 1 0 384.46 Z" class="st5"/>
		</g>
		<g id="shape107-106" transform="translate(210.3,-89.1161)">
			<title>Sheet.107</title>
			<desc>0</desc>
			<rect x="0" y="370.282" width="28.3465" height="28.3465" class="st2"/>
			<text x="10.67" y="388.66" class="st3">0</text>		</g>
		<g id="shape108-109" transform="translate(238.646,-89.1161)">
			<title>Sheet.108</title>
			<desc>1</desc>
			<rect x="0" y="370.282" width="28.3465" height="28.3465" class="st2"/>
			<text x="10.67" y="388.66" class="st3">1</text>		</g>
		<g id="shape109-112" transform="translate(266.992,-89.1161)">
			<title>Sheet.109</title>
			<desc>2</desc>
			<rect x="0" y="370.282" width="28.3465" height="28.3465" class="st2"/>
			<text x="10.67" y="388.66" class="st3">2</text>		</g>
		<g id="shape110-115" transform="translate(295.339,-89.1161)">
			<title>Sheet.110</title>
			<desc>3</desc>
			<rect x="0" y="370.282" width="28.3465" height="28.3465" class="st2"/>
			<text x="10.67" y="388.66" class="st3">3</text>		</g>
		<g id="shape113-118" transform="translate(352.032,-145.809)">
			<title>Sheet.113</title>
			<desc>0</desc>
			<rect x="0" y="370.282" width="28.3465" height="28.3465" class="st2"/>
			<text x="10.67" y="388.66" class="st3">0</text>		</g>
		<g id="shape114-121" transform="translate(380.378,-145.809)">
			<title>Sheet.114</title>
			<desc>1</desc>
			<rect x="0" y="370.282" width="28.3465" height="28.3465" class="st2"/>
			<text x="10.67" y="388.66" class="st3">1</text>		</g>
		<g id="shape115-124" transform="translate(408.725,-145.809)">
			<title>Sheet.115</title>
			<desc>2</desc>
			<rect x="0" y="370.282" width="28.3465" height="28.3465" class="st2"/>
			<text x="10.67" y="388.66" class="st3">2</text>		</g>
		<g id="shape116-127" transform="translate(437.071,-145.809)">
			<title>Sheet.116</title>
			<desc>3</desc>
			<rect x="0" y="370.282" width="28.3465" height="28.3465" class="st2"/>
			<text x="10.67" y="388.66" class="st3">3</text>		</g>
		<g id="shape119-130" transform="translate(408.725,-216.675)">
			<title>Sheet.119</title>
			<desc>0</desc>
			<rect x="0" y="370.282" width="28.3465" height="28.3465" class="st2"/>
			<text x="10.67" y="388.66" class="st3">0</text>		</g>
		<g id="shape120-133" transform="translate(437.071,-216.675)">
			<title>Sheet.120</title>
			<desc>1</desc>
			<rect x="0" y="370.282" width="28.3465" height="28.3465" class="st2"/>
			<text x="10.67" y="388.66" class="st3">1</text>		</g>
		<g id="shape121-136" transform="translate(465.418,-216.675)">
			<title>Sheet.121</title>
			<desc>2</desc>
			<rect x="0" y="370.282" width="28.3465" height="28.3465" class="st2"/>
			<text x="10.67" y="388.66" class="st3">2</text>		</g>
		<g id="shape122-139" transform="translate(493.764,-216.675)">
			<title>Sheet.122</title>
			<desc>3</desc>
			<rect x="0" y="370.282" width="28.3465" height="28.3465" class="st2"/>
			<text x="10.67" y="388.66" class="st3">3</text>		</g>
		<g id="shape125-142" transform="translate(472.865,224.473) rotate(90) scale(-1,1)">
			<title>Side brace.125</title>
			<desc>size</desc>
			<path d="M0 390.12 L0 391.54 A7.0865 7.0865 -180 0 0 7.09 398.63 L49.61 398.63 A7.0865 7.0865 0 0 1 56.69 405.71 A7.0865
						 7.0865 0 0 1 63.78 398.63 L106.3 398.63 A7.0865 7.0865 -180 0 0 113.39 391.54 L113.39 390.12" class="st9"/>
			<text x="47.81" y="-409.92" transform="scale(1,-1)" class="st7">size</text>		</g>
		<g id="shape126-146" transform="translate(444.518,337.859) rotate(90) scale(-1,1)">
			<title>Side brace.126</title>
			<desc>capacity</desc>
			<path d="M0 390.12 L0 391.54 A7.0865 7.0865 -180 0 0 7.09 398.63 L106.3 398.63 A7.0865 7.0865 0 0 1 113.39 405.71 A7.0865
						 7.0865 0 0 1 120.47 398.63 L219.69 398.63 A7.0865 7.0865 -180 0 0 226.77 391.54 L226.77 390.12"
					class="st9"/>
			<text x="92.07" y="-409.92" transform="scale(1,-1)" class="st7">capacity</text>		</g>
		<g id="shape127-150" transform="translate(111.087,-259.195)">
			<title>Circle.127</title>
			<path d="M0 384.46 A14.1732 14.1732 0 0 1 28.35 384.46 A14.1732 14.1732 0 1 1 0 384.46 Z" class="st5"/>
		</g>
		<g id="shape128-152" transform="translate(111.087,-230.848)">
			<title>Circle.128</title>
			<path d="M0 384.46 A14.1732 14.1732 0 0 1 28.35 384.46 A14.1732 14.1732 0 1 1 0 384.46 Z" class="st5"/>
		</g>
		<g id="shape129-154" transform="translate(111.087,-202.502)">
			<title>Circle.129</title>
			<path d="M0 384.46 A14.1732 14.1732 0 0 1 28.35 384.46 A14.1732 14.1732 0 1 1 0 384.46 Z" class="st5"/>
		</g>
		<g id="shape130-156" transform="translate(111.087,-174.156)">
			<title>Circle.130</title>
			<path d="M0 384.46 A14.1732 14.1732 0 0 1 28.35 384.46 A14.1732 14.1732 0 1 1 0 384.46 Z" class="st5"/>
		</g>
		<g id="shape131-158" transform="translate(523.888,40.2208) rotate(90)">
			<title>Sheet.131</title>
			<path d="M0 398.63 L64.71 398.63" class="st10"/>
		</g>
		<g id="shape132-164" transform="translate(40.2208,-344.234)">
			<title>Sheet.132</title>
			<desc>vector object</desc>
			<rect x="0" y="370.282" width="70.8661" height="28.3465" class="st2"/>
			<text x="4.28" y="388.06" class="st6">vector object</text>		</g>
		<g id="shape134-167" transform="translate(125.26,-273.368)">
			<title>Sheet.134</title>
			<path d="M0 398.63 L149.75 398.63" class="st10"/>
		</g>
		<g id="shape135-172" transform="translate(444.163,-28.8775) rotate(53.1301)">
			<title>Sheet.135</title>
			<path d="M0 398.63 L135.57 398.63" class="st10"/>
		</g>
		<g id="shape136-177" transform="translate(184.393,-240.611) rotate(8.53077)">
			<title>Sheet.136</title>
			<path d="M0 398.63 L280.48 398.63" class="st10"/>
		</g>
		<g id="shape137-182" transform="translate(265.228,-191.294) rotate(20.556)">
			<title>Sheet.137</title>
			<path d="M0 398.63 L236.03 398.63" class="st10"/>
		</g>
		<g id="shape138-187" transform="translate(111.087,-259.195)">
			<title>Square.138</title>
			<rect x="0" y="370.282" width="28.3465" height="28.3465" class="st5"/>
		</g>
		<g id="shape139-189" transform="translate(111.087,-230.848)">
			<title>Square.139</title>
			<rect x="0" y="370.282" width="28.3465" height="28.3465" class="st5"/>
		</g>
		<g id="shape140-191" transform="translate(111.087,-202.502)">
			<title>Square.140</title>
			<rect x="0" y="370.282" width="28.3465" height="28.3465" class="st5"/>
		</g>
		<g id="shape141-193" transform="translate(210.3,-18.25)">
			<title>Sheet.141</title>
			<desc>nan: not a number</desc>
			<rect x="0" y="370.282" width="113.386" height="28.3465" class="st2"/>
			<text x="5.96" y="388.66" class="st3">nan: not a number</text>		</g>
	</g>
</svg>
