<?xml version="1.0" encoding="UTF-8" standalone="no"?>
<!DOCTYPE svg PUBLIC "-//W3C//DTD SVG 1.1//EN" "http://www.w3.org/Graphics/SVG/1.1/DTD/svg11.dtd">
<!-- Illustrator: Larry Huang -->
<svg xmlns="http://www.w3.org/2000/svg" xmlns:xlink="http://www.w3.org/1999/xlink" xmlns:ev="http://www.w3.org/2001/xml-events"
		width="9.09023in" height="4.95637in" viewBox="0 0 654.496 356.859" xml:space="preserve" color-interpolation-filters="sRGB"
		class="st11">
	<style type="text/css">
	<![CDATA[
		.st1 {fill:none;stroke:#7f7f7f;stroke-width:1}
		.st2 {fill:none;stroke:none;stroke-width:0.25}
		.st3 {fill:#7f7f7f;font-family:Times New Roman;font-size:1.16666em}
		.st4 {fill:#7f7f7f;font-family:Times New Roman;font-size:1.00001em}
		.st5 {fill:none;stroke:#000000;stroke-width:1}
		.st6 {fill:#000000;font-family:Times New Roman;font-size:1.16666em}
		.st7 {stroke:#7f7f7f;stroke-width:0.25}
		.st8 {marker-end:url(#mrkr5-163);stroke:#000000;stroke-linecap:round;stroke-linejoin:round;stroke-width:1}
		.st9 {fill:#000000;fill-opacity:1;stroke:#000000;stroke-opacity:1;stroke-width:0.28409090909091}
		.st10 {fill:#000000;font-family:Times New Roman;font-size:1.00001em}
		.st11 {fill:none;fill-rule:evenodd;font-size:12px;overflow:visible;stroke-linecap:square;stroke-miterlimit:3}
	]]>
	</style>

	<defs id="Markers">
		<g id="lend5">
			<path d="M 2 1 L 0 0 L 1.98117 -0.993387 C 1.67173 -0.364515 1.67301 0.372641 1.98465 1.00043 " style="stroke:none"/>
		</g>
		<marker id="mrkr5-163" class="st9" refX="-6.16" orient="auto" markerUnits="strokeWidth" overflow="visible">
			<use xlink:href="#lend5" transform="scale(-3.52,-3.52) "/>
		</marker>
	</defs>
	<g>
		<title>Page-1</title>
		<g id="shape103-1" transform="translate(210.3,-19)">
			<title>Sheet.103</title>
			<rect x="0" y="328.512" width="226.772" height="28.3465" class="st1"/>
		</g>
		<g id="shape101-3" transform="translate(352.032,-75.6929)">
			<title>Sheet.101</title>
			<rect x="0" y="328.512" width="226.772" height="28.3465" class="st1"/>
		</g>
		<g id="shape100-5" transform="translate(408.725,-146.559)">
			<title>Sheet.100</title>
			<rect x="0" y="328.512" width="226.772" height="28.3465" class="st1"/>
		</g>
		<g id="shape95-7" transform="translate(111.087,-19)">
			<title>Sheet.95</title>
			<rect x="0" y="130.087" width="28.3465" height="226.772" class="st1"/>
		</g>
		<g id="shape99-9" transform="translate(281.166,-217.425)">
			<title>Sheet.99</title>
			<rect x="0" y="328.512" width="226.772" height="28.3465" class="st1"/>
		</g>
		<g id="shape1-11" transform="translate(281.166,-245.772)">
			<title>Sheet.1</title>
			<desc>0</desc>
			<rect x="0" y="328.512" width="28.3465" height="28.3465" class="st2"/>
			<text x="10.67" y="346.89" class="st3">0</text>		</g>
		<g id="shape2-14" transform="translate(309.512,-245.772)">
			<title>Sheet.2</title>
			<desc>1</desc>
			<rect x="0" y="328.512" width="28.3465" height="28.3465" class="st2"/>
			<text x="10.67" y="346.89" class="st3">1</text>		</g>
		<g id="shape3-17" transform="translate(337.859,-245.772)">
			<title>Sheet.3</title>
			<desc>2</desc>
			<rect x="0" y="328.512" width="28.3465" height="28.3465" class="st2"/>
			<text x="10.67" y="346.89" class="st3">2</text>		</g>
		<g id="shape4-20" transform="translate(366.205,-245.772)">
			<title>Sheet.4</title>
			<desc>3</desc>
			<rect x="0" y="328.512" width="28.3465" height="28.3465" class="st2"/>
			<text x="10.67" y="346.89" class="st3">3</text>		</g>
		<g id="shape6-23" transform="translate(68.5673,-245.772)">
			<title>Sheet.6</title>
			<desc>vertex</desc>
			<rect x="0" y="328.512" width="56.6929" height="28.3465" class="st2"/>
			<text x="13.35" y="346.29" class="st4">vertex</text>		</g>
		<g id="shape38-26" transform="translate(82.7405,-217.425)">
			<title>Sheet.38</title>
			<desc>0</desc>
			<rect x="0" y="328.512" width="28.3465" height="28.3465" class="st2"/>
			<text x="10.67" y="346.89" class="st3">0</text>		</g>
		<g id="shape39-29" transform="translate(82.7405,-189.079)">
			<title>Sheet.39</title>
			<desc>1</desc>
			<rect x="0" y="328.512" width="28.3465" height="28.3465" class="st2"/>
			<text x="10.67" y="346.89" class="st3">1</text>		</g>
		<g id="shape40-32" transform="translate(82.7405,-160.732)">
			<title>Sheet.40</title>
			<desc>2</desc>
			<rect x="0" y="328.512" width="28.3465" height="28.3465" class="st2"/>
			<text x="10.67" y="346.89" class="st3">2</text>		</g>
		<g id="shape41-35" transform="translate(82.7405,-132.386)">
			<title>Sheet.41</title>
			<desc>3</desc>
			<rect x="0" y="328.512" width="28.3465" height="28.3465" class="st2"/>
			<text x="10.67" y="346.89" class="st3">3</text>		</g>
		<g id="shape8-38" transform="translate(281.166,-217.425)">
			<title>Square.8</title>
			<desc>0</desc>
			<rect x="0" y="328.512" width="28.3465" height="28.3465" class="st5"/>
			<text x="10.67" y="346.89" class="st6">0</text>		</g>
		<g id="shape9-41" transform="translate(309.512,-217.425)">
			<title>Square.9</title>
			<desc>1</desc>
			<rect x="0" y="328.512" width="28.3465" height="28.3465" class="st5"/>
			<text x="10.67" y="346.89" class="st6">1</text>		</g>
		<g id="shape10-44" transform="translate(337.859,-217.425)">
			<title>Square.10</title>
			<desc>0</desc>
			<rect x="0" y="328.512" width="28.3465" height="28.3465" class="st5"/>
			<text x="10.67" y="346.89" class="st6">0</text>		</g>
		<g id="shape11-47" transform="translate(366.205,-217.425)">
			<title>Square.11</title>
			<desc>0</desc>
			<rect x="0" y="328.512" width="28.3465" height="28.3465" class="st5"/>
			<text x="10.67" y="346.89" class="st6">0</text>		</g>
		<g id="shape13-50" transform="translate(408.725,-146.559)">
			<title>Square.13</title>
			<desc>1</desc>
			<rect x="0" y="328.512" width="28.3465" height="28.3465" class="st5"/>
			<text x="10.67" y="346.89" class="st6">1</text>		</g>
		<g id="shape14-53" transform="translate(437.071,-146.559)">
			<title>Square.14</title>
			<desc>0</desc>
			<rect x="0" y="328.512" width="28.3465" height="28.3465" class="st5"/>
			<text x="10.67" y="346.89" class="st6">0</text>		</g>
		<g id="shape15-56" transform="translate(465.418,-146.559)">
			<title>Square.15</title>
			<desc>1</desc>
			<rect x="0" y="328.512" width="28.3465" height="28.3465" class="st5"/>
			<text x="10.67" y="346.89" class="st6">1</text>		</g>
		<g id="shape16-59" transform="translate(493.764,-146.559)">
			<title>Square.16</title>
			<desc>0</desc>
			<rect x="0" y="328.512" width="28.3465" height="28.3465" class="st5"/>
			<text x="10.67" y="346.89" class="st6">0</text>		</g>
		<g id="shape18-62" transform="translate(352.032,-75.6929)">
			<title>Square.18</title>
			<desc>0</desc>
			<rect x="0" y="328.512" width="28.3465" height="28.3465" class="st5"/>
			<text x="10.67" y="346.89" class="st6">0</text>		</g>
		<g id="shape19-65" transform="translate(380.378,-75.6929)">
			<title>Square.19</title>
			<desc>1</desc>
			<rect x="0" y="328.512" width="28.3465" height="28.3465" class="st5"/>
			<text x="10.67" y="346.89" class="st6">1</text>		</g>
		<g id="shape20-68" transform="translate(408.725,-75.6929)">
			<title>Square.20</title>
			<desc>0</desc>
			<rect x="0" y="328.512" width="28.3465" height="28.3465" class="st5"/>
			<text x="10.67" y="346.89" class="st6">0</text>		</g>
		<g id="shape21-71" transform="translate(437.071,-75.6929)">
			<title>Square.21</title>
			<desc>1</desc>
			<rect x="0" y="328.512" width="28.3465" height="28.3465" class="st5"/>
			<text x="10.67" y="346.89" class="st6">1</text>		</g>
		<g id="shape23-74" transform="translate(210.3,-19)">
			<title>Square.23</title>
			<desc>0</desc>
			<rect x="0" y="328.512" width="28.3465" height="28.3465" class="st5"/>
			<text x="10.67" y="346.89" class="st6">0</text>		</g>
		<g id="shape24-77" transform="translate(238.646,-19)">
			<title>Square.24</title>
			<desc>0</desc>
			<rect x="0" y="328.512" width="28.3465" height="28.3465" class="st5"/>
			<text x="10.67" y="346.89" class="st6">0</text>		</g>
		<g id="shape25-80" transform="translate(266.992,-19)">
			<title>Square.25</title>
			<desc>1</desc>
			<rect x="0" y="328.512" width="28.3465" height="28.3465" class="st5"/>
			<text x="10.67" y="346.89" class="st6">1</text>		</g>
		<g id="shape26-83" transform="translate(295.339,-19)">
			<title>Square.26</title>
			<desc>0</desc>
			<rect x="0" y="328.512" width="28.3465" height="28.3465" class="st5"/>
			<text x="10.67" y="346.89" class="st6">0</text>		</g>
		<g id="shape94-86" transform="translate(111.087,-132.386)">
			<title>Sheet.94</title>
			<rect x="0" y="243.473" width="28.3465" height="113.386" class="st5"/>
		</g>
		<g id="shape96-88" transform="translate(281.166,-217.425)">
			<title>Sheet.96</title>
			<rect x="0" y="328.512" width="113.386" height="28.3465" class="st5"/>
		</g>
		<g id="shape97-90" transform="translate(408.725,-146.559)">
			<title>Sheet.97</title>
			<rect x="0" y="328.512" width="113.386" height="28.3465" class="st5"/>
		</g>
		<g id="shape98-92" transform="translate(352.032,-75.6929)">
			<title>Sheet.98</title>
			<rect x="0" y="328.512" width="113.386" height="28.3465" class="st5"/>
		</g>
		<g id="shape102-94" transform="translate(210.3,-19)">
			<title>Sheet.102</title>
			<rect x="0" y="328.512" width="113.386" height="28.3465" class="st5"/>
		</g>
		<g id="shape104-96" transform="translate(281.166,431.095) scale(1,-1)">
			<title>Side brace.29</title>
			<desc>size</desc>
			<path d="M0 348.35 L0 349.77 A7.0865 7.0865 -180 0 0 7.09 356.86 L49.61 356.86 A7.0865 7.0865 0 0 1 56.69 363.95 A7.0865
						 7.0865 0 0 1 63.78 356.86 L106.3 356.86 A7.0865 7.0865 -180 0 0 113.39 349.77 L113.39 348.35" class="st7"/>
			<text x="47.81" y="-368.15" transform="scale(1,-1)" class="st6">size</text>		</g>
		<g id="shape105-100" transform="translate(281.166,402.749) scale(1,-1)">
			<title>Side brace.45</title>
			<desc>capacity</desc>
			<path d="M0 348.35 L0 349.77 A7.0865 7.0865 -180 0 0 7.09 356.86 L106.3 356.86 A7.0865 7.0865 0 0 1 113.39 363.95 A7.0865
						 7.0865 0 0 1 120.47 356.86 L219.69 356.86 A7.0865 7.0865 -180 0 0 226.77 349.77 L226.77 348.35"
					class="st7"/>
			<text x="92.07" y="-368.15" transform="scale(1,-1)" class="st6">capacity</text>		</g>
		<g id="shape106-104" transform="translate(111.087,-302.465)">
			<title>Circle</title>
			<path d="M0 342.69 A14.1732 14.1732 0 0 1 28.35 342.69 A14.1732 14.1732 0 1 1 0 342.69 Z" class="st5"/>
		</g>
		<g id="shape107-106" transform="translate(210.3,-47.3465)">
			<title>Sheet.107</title>
			<desc>0</desc>
			<rect x="0" y="328.512" width="28.3465" height="28.3465" class="st2"/>
			<text x="10.67" y="346.89" class="st3">0</text>		</g>
		<g id="shape108-109" transform="translate(238.646,-47.3465)">
			<title>Sheet.108</title>
			<desc>1</desc>
			<rect x="0" y="328.512" width="28.3465" height="28.3465" class="st2"/>
			<text x="10.67" y="346.89" class="st3">1</text>		</g>
		<g id="shape109-112" transform="translate(266.992,-47.3465)">
			<title>Sheet.109</title>
			<desc>2</desc>
			<rect x="0" y="328.512" width="28.3465" height="28.3465" class="st2"/>
			<text x="10.67" y="346.89" class="st3">2</text>		</g>
		<g id="shape110-115" transform="translate(295.339,-47.3465)">
			<title>Sheet.110</title>
			<desc>3</desc>
			<rect x="0" y="328.512" width="28.3465" height="28.3465" class="st2"/>
			<text x="10.67" y="346.89" class="st3">3</text>		</g>
		<g id="shape113-118" transform="translate(352.032,-104.039)">
			<title>Sheet.113</title>
			<desc>0</desc>
			<rect x="0" y="328.512" width="28.3465" height="28.3465" class="st2"/>
			<text x="10.67" y="346.89" class="st3">0</text>		</g>
		<g id="shape114-121" transform="translate(380.378,-104.039)">
			<title>Sheet.114</title>
			<desc>1</desc>
			<rect x="0" y="328.512" width="28.3465" height="28.3465" class="st2"/>
			<text x="10.67" y="346.89" class="st3">1</text>		</g>
		<g id="shape115-124" transform="translate(408.725,-104.039)">
			<title>Sheet.115</title>
			<desc>2</desc>
			<rect x="0" y="328.512" width="28.3465" height="28.3465" class="st2"/>
			<text x="10.67" y="346.89" class="st3">2</text>		</g>
		<g id="shape116-127" transform="translate(437.071,-104.039)">
			<title>Sheet.116</title>
			<desc>3</desc>
			<rect x="0" y="328.512" width="28.3465" height="28.3465" class="st2"/>
			<text x="10.67" y="346.89" class="st3">3</text>		</g>
		<g id="shape119-130" transform="translate(408.725,-174.906)">
			<title>Sheet.119</title>
			<desc>0</desc>
			<rect x="0" y="328.512" width="28.3465" height="28.3465" class="st2"/>
			<text x="10.67" y="346.89" class="st3">0</text>		</g>
		<g id="shape120-133" transform="translate(437.071,-174.906)">
			<title>Sheet.120</title>
			<desc>1</desc>
			<rect x="0" y="328.512" width="28.3465" height="28.3465" class="st2"/>
			<text x="10.67" y="346.89" class="st3">1</text>		</g>
		<g id="shape121-136" transform="translate(465.418,-174.906)">
			<title>Sheet.121</title>
			<desc>2</desc>
			<rect x="0" y="328.512" width="28.3465" height="28.3465" class="st2"/>
			<text x="10.67" y="346.89" class="st3">2</text>		</g>
		<g id="shape122-139" transform="translate(493.764,-174.906)">
			<title>Sheet.122</title>
			<desc>3</desc>
			<rect x="0" y="328.512" width="28.3465" height="28.3465" class="st2"/>
			<text x="10.67" y="346.89" class="st3">3</text>		</g>
		<g id="shape125-142" transform="translate(431.095,224.473) rotate(90) scale(-1,1)">
			<title>Side brace.125</title>
			<desc>size</desc>
			<path d="M0 348.35 L0 349.77 A7.0865 7.0865 -180 0 0 7.09 356.86 L49.61 356.86 A7.0865 7.0865 0 0 1 56.69 363.95 A7.0865
						 7.0865 0 0 1 63.78 356.86 L106.3 356.86 A7.0865 7.0865 -180 0 0 113.39 349.77 L113.39 348.35" class="st7"/>
			<text x="47.81" y="-368.15" transform="scale(1,-1)" class="st6">size</text>		</g>
		<g id="shape126-146" transform="translate(402.749,337.859) rotate(90) scale(-1,1)">
			<title>Side brace.126</title>
			<desc>capacity</desc>
			<path d="M0 348.35 L0 349.77 A7.0865 7.0865 -180 0 0 7.09 356.86 L106.3 356.86 A7.0865 7.0865 0 0 1 113.39 363.95 A7.0865
						 7.0865 0 0 1 120.47 356.86 L219.69 356.86 A7.0865 7.0865 -180 0 0 226.77 349.77 L226.77 348.35"
					class="st7"/>
			<text x="92.07" y="-368.15" transform="scale(1,-1)" class="st6">capacity</text>		</g>
		<g id="shape127-150" transform="translate(111.087,-217.425)">
			<title>Circle.127</title>
			<path d="M0 342.69 A14.1732 14.1732 0 0 1 28.35 342.69 A14.1732 14.1732 0 1 1 0 342.69 Z" class="st5"/>
		</g>
		<g id="shape128-152" transform="translate(111.087,-189.079)">
			<title>Circle.128</title>
			<path d="M0 342.69 A14.1732 14.1732 0 0 1 28.35 342.69 A14.1732 14.1732 0 1 1 0 342.69 Z" class="st5"/>
		</g>
		<g id="shape129-154" transform="translate(111.087,-160.732)">
			<title>Circle.129</title>
			<path d="M0 342.69 A14.1732 14.1732 0 0 1 28.35 342.69 A14.1732 14.1732 0 1 1 0 342.69 Z" class="st5"/>
		</g>
		<g id="shape130-156" transform="translate(111.087,-132.386)">
			<title>Circle.130</title>
			<path d="M0 342.69 A14.1732 14.1732 0 0 1 28.35 342.69 A14.1732 14.1732 0 1 1 0 342.69 Z" class="st5"/>
		</g>
		<g id="shape131-158" transform="translate(482.119,40.2208) rotate(90)">
			<title>Sheet.131</title>
			<path d="M0 356.86 L64.71 356.86" class="st8"/>
		</g>
		<g id="shape132-164" transform="translate(40.2208,-302.465)">
			<title>Sheet.132</title>
			<desc>vector object</desc>
			<rect x="0" y="328.512" width="70.8661" height="28.3465" class="st2"/>
			<text x="4.28" y="346.29" class="st10">vector object</text>		</g>
		<g id="shape134-167" transform="translate(125.26,-231.598)">
			<title>Sheet.134</title>
			<path d="M0 356.86 L149.75 356.86" class="st8"/>
		</g>
		<g id="shape135-172" transform="translate(410.747,-3.81565) rotate(53.1301)">
			<title>Sheet.135</title>
			<path d="M0 356.86 L135.57 356.86" class="st8"/>
		</g>
		<g id="shape136-177" transform="translate(178.197,-199.304) rotate(8.53077)">
			<title>Sheet.136</title>
			<path d="M0 356.86 L280.48 356.86" class="st8"/>
		</g>
		<g id="shape137-182" transform="translate(250.562,-152.184) rotate(20.556)">
			<title>Sheet.137</title>
			<path d="M0 356.86 L236.03 356.86" class="st8"/>
		</g>
		<g id="shape138-187" transform="translate(111.087,-217.425)">
			<title>Square.138</title>
			<rect x="0" y="328.512" width="28.3465" height="28.3465" class="st5"/>
		</g>
		<g id="shape139-189" transform="translate(111.087,-189.079)">
			<title>Square.139</title>
			<rect x="0" y="328.512" width="28.3465" height="28.3465" class="st5"/>
		</g>
		<g id="shape140-191" transform="translate(111.087,-160.732)">
			<title>Square.140</title>
			<rect x="0" y="328.512" width="28.3465" height="28.3465" class="st5"/>
		</g>
	</g>
</svg>
