<?xml version="1.0" encoding="UTF-8" standalone="no"?>
<!DOCTYPE svg PUBLIC "-//W3C//DTD SVG 1.1//EN" "http://www.w3.org/Graphics/SVG/1.1/DTD/svg11.dtd">
<!-- Illustrator: Larry Huang -->
<svg xmlns="http://www.w3.org/2000/svg" xmlns:xlink="http://www.w3.org/1999/xlink" xmlns:ev="http://www.w3.org/2001/xml-events"
		width="7.21027in" height="5.24177in" viewBox="0 0 519.14 377.407" xml:space="preserve" color-interpolation-filters="sRGB"
		class="st17">
	<style type="text/css">
	<![CDATA[
		.st1 {fill:none;stroke:#7f7f7f;stroke-width:1}
		.st2 {fill:none;stroke:none;stroke-width:0.25}
		.st3 {fill:#7f7f7f;font-family:Times New Roman;font-size:1.16666em}
		.st4 {fill:#7f7f7f;font-family:Times New Roman;font-size:16;font-weight:bold}
		.st5 {font-size:16}
		.st6 {stroke:#7f7f7f;stroke-width:0.25}
		.st7 {fill:#000000;font-family:Times New Roman;font-size:1.16666em}
		.st8 {fill:none;stroke:#000000;stroke-width:1}
		.st9 {marker-end:url(#mrkr5-66);stroke:#000000;stroke-linecap:round;stroke-linejoin:round;stroke-width:1}
		.st10 {fill:#000000;fill-opacity:1;stroke:#000000;stroke-opacity:1;stroke-width:0.28409090909091}
		.st11 {marker-end:url(#mrkr5-82);stroke:#7f7f7f;stroke-linecap:round;stroke-linejoin:round;stroke-width:1}
		.st12 {fill:#7f7f7f;fill-opacity:1;stroke:#7f7f7f;stroke-opacity:1;stroke-width:0.28409090909091}
		.st13 {fill:#0000ff;font-family:Times New Roman;font-size:1.99999em}
		.st14 {stroke:#7f7f7f;stroke-dasharray:7,5;stroke-linecap:round;stroke-linejoin:round;stroke-width:1}
		.st15 {fill:#7f7f7f;font-family:Times New Roman;font-size:1.00001em}
		.st16 {font-size:1em}
		.st17 {fill:none;fill-rule:evenodd;font-size:12px;overflow:visible;stroke-linecap:square;stroke-miterlimit:3}
	]]>
	</style>

	<defs id="Markers">
		<g id="lend5">
			<path d="M 2 1 L 0 0 L 1.98117 -0.993387 C 1.67173 -0.364515 1.67301 0.372641 1.98465 1.00043 " style="stroke:none"/>
		</g>
		<marker id="mrkr5-66" class="st10" refX="-6.16" orient="auto" markerUnits="strokeWidth" overflow="visible">
			<use xlink:href="#lend5" transform="scale(-3.52,-3.52) "/>
		</marker>
		<marker id="mrkr5-82" class="st12" refX="-6.16" orient="auto" markerUnits="strokeWidth" overflow="visible">
			<use xlink:href="#lend5" transform="scale(-3.52,-3.52) "/>
		</marker>
	</defs>
	<g>
		<title>Page-1</title>
		<g id="shape37-1" transform="translate(216.675,-160.732)">
			<title>Sheet.37</title>
			<rect x="0" y="349.061" width="113.386" height="28.3465" class="st1"/>
		</g>
		<g id="shape25-3" transform="translate(273.368,-217.425)">
			<title>Sheet.25</title>
			<rect x="0" y="349.061" width="226.772" height="28.3465" class="st1"/>
		</g>
		<g id="shape1-5" transform="translate(18.25,-259.945)">
			<title>Sheet.1</title>
			<desc>vertex</desc>
			<rect x="0" y="349.061" width="56.6929" height="28.3465" class="st2"/>
			<text x="10.86" y="367.43" class="st3">vertex</text>		</g>
		<g id="shape2-8" transform="translate(32.4232,-217.425)">
			<title>Sheet.2</title>
			<desc>0</desc>
			<rect x="0" y="349.061" width="28.3465" height="28.3465" class="st2"/>
			<text x="10.67" y="367.43" class="st3">0</text>		</g>
		<g id="shape3-11" transform="translate(32.4232,-189.079)">
			<title>Sheet.3</title>
			<desc>1</desc>
			<rect x="0" y="349.061" width="28.3465" height="28.3465" class="st2"/>
			<text x="10.67" y="367.43" class="st3">1</text>		</g>
		<g id="shape4-14" transform="translate(32.4232,-160.732)">
			<title>Sheet.4</title>
			<desc>2</desc>
			<rect x="0" y="349.061" width="28.3465" height="28.3465" class="st2"/>
			<text x="10.67" y="367.43" class="st3">2</text>		</g>
		<g id="shape5-17" transform="translate(32.4232,-132.386)">
			<title>Sheet.5</title>
			<desc>3</desc>
			<rect x="0" y="349.061" width="28.3465" height="28.3465" class="st2"/>
			<text x="10.67" y="367.43" class="st3">3</text>		</g>
		<g id="shape6-20" transform="translate(18.25,-19)">
			<title>Sheet.6</title>
			<desc>N-1</desc>
			<rect x="0" y="349.061" width="56.6929" height="28.3465" class="st2"/>
			<text x="17.46" y="367.43" class="st3">N-1</text>		</g>
		<g id="shape7-23" transform="translate(32.4232,-47.3465)">
			<title>Sheet.7</title>
			<desc>… … …</desc>
			<rect x="0" y="292.368" width="28.3465" height="85.0394" class="st2"/>
			<text x="-11.58" y="-365.15" writing-mode="tb-rl" transform="rotate(180)" class="st4"><tspan
						glyph-orientation-vertical="0">…</tspan><tspan x="-11.58" y="-346.89" class="st5"> </tspan><tspan x="-11.58"
						y="-345.15" glyph-orientation-vertical="0" class="st5">…</tspan><tspan x="-11.58" y="-326.89" class="st5"> </tspan><tspan
						x="-11.58" y="-325.15" glyph-orientation-vertical="0" class="st5">…</tspan></text>		</g>
		<g id="shape8-31" transform="translate(60.7697,-19)">
			<title>Sheet.8</title>
			<rect x="0" y="150.636" width="28.3465" height="226.772" class="st1"/>
		</g>
		<g id="shape17-33" transform="translate(60.7697,-104.039)">
			<title>Square.49</title>
			<rect x="0" y="349.061" width="28.3465" height="28.3465" class="st1"/>
		</g>
		<g id="shape18-35" transform="translate(60.7697,-75.6929)">
			<title>Square.18</title>
			<rect x="0" y="349.061" width="28.3465" height="28.3465" class="st1"/>
		</g>
		<g id="shape19-37" transform="translate(60.7697,-47.3465)">
			<title>Square.19</title>
			<rect x="0" y="349.061" width="28.3465" height="28.3465" class="st1"/>
		</g>
		<g id="shape20-39" transform="translate(60.7697,-19)">
			<title>Square.20</title>
			<rect x="0" y="349.061" width="28.3465" height="28.3465" class="st1"/>
		</g>
		<g id="shape21-41" transform="translate(60.7697,-104.039)">
			<title>Circle.21</title>
			<path d="M0 363.23 A14.1732 14.1732 0 0 1 28.35 363.23 A14.1732 14.1732 0 1 1 0 363.23 Z" class="st1"/>
		</g>
		<g id="shape22-43" transform="translate(60.7697,-75.6929)">
			<title>Circle.22</title>
			<path d="M0 363.23 A14.1732 14.1732 0 0 1 28.35 363.23 A14.1732 14.1732 0 1 1 0 363.23 Z" class="st1"/>
		</g>
		<g id="shape23-45" transform="translate(60.7697,-47.3465)">
			<title>Circle.23</title>
			<path d="M0 363.23 A14.1732 14.1732 0 0 1 28.35 363.23 A14.1732 14.1732 0 1 1 0 363.23 Z" class="st1"/>
		</g>
		<g id="shape24-47" transform="translate(60.7697,-19)">
			<title>Circle.24</title>
			<path d="M0 363.23 A14.1732 14.1732 0 0 1 28.35 363.23 A14.1732 14.1732 0 1 1 0 363.23 Z" class="st1"/>
		</g>
		<g id="shape35-49" transform="translate(273.368,486.366) scale(1,-1)">
			<title>Side brace.29</title>
			<desc>size</desc>
			<path d="M0 368.9 L0 370.32 A7.0865 7.0865 -180 0 0 7.09 377.41 L63.78 377.41 A7.0865 7.0865 0 0 1 70.87 384.49 A7.0865
						 7.0865 0 0 1 77.95 377.41 L134.65 377.41 A7.0865 7.0865 -180 0 0 141.73 370.32 L141.73 368.9" class="st6"/>
			<text x="61.98" y="-388.7" transform="scale(1,-1)" class="st7">size</text>		</g>
		<g id="shape36-53" transform="translate(273.368,458.02) scale(1,-1)">
			<title>Side brace.45</title>
			<desc>capacity</desc>
			<path d="M0 368.9 L0 370.32 A7.0865 7.0865 -180 0 0 7.09 377.41 L106.3 377.41 A7.0865 7.0865 0 0 1 113.39 384.49 A7.0865
						 7.0865 0 0 1 120.47 377.41 L219.69 377.41 A7.0865 7.0865 -180 0 0 226.77 370.32 L226.77 368.9" class="st6"/>
			<text x="92.07" y="-388.7" transform="scale(1,-1)" class="st7">capacity</text>		</g>
		<g id="shape39-57" transform="translate(145.809,-189.079)">
			<title>Square.39</title>
			<rect x="0" y="349.061" width="28.3465" height="28.3465" class="st8"/>
		</g>
		<g id="shape40-59" transform="translate(174.156,-189.079)">
			<title>Square.40</title>
			<rect x="0" y="349.061" width="28.3465" height="28.3465" class="st8"/>
		</g>
		<g id="shape44-61" transform="translate(74.9429,-231.598)">
			<title>Sheet.44</title>
			<path d="M0 377.41 L192.27 377.41" class="st9"/>
		</g>
		<g id="shape45-67" transform="translate(74.9429,-174.906)">
			<title>Sheet.45</title>
			<path d="M0 377.41 L135.57 377.41" class="st9"/>
		</g>
		<g id="shape46-72" transform="translate(74.9429,-203.252)">
			<title>Sheet.46</title>
			<path d="M0 377.41 L64.71 377.41" class="st9"/>
		</g>
		<g id="shape47-77" transform="translate(74.9429,-89.8661)">
			<title>Sheet.47</title>
			<path d="M0 377.41 L50.53 377.41" class="st11"/>
		</g>
		<g id="shape48-83" transform="translate(74.9429,-61.5197)">
			<title>Sheet.48</title>
			<path d="M0 377.41 L107.23 377.41" class="st11"/>
		</g>
		<g id="shape50-88" transform="translate(131.636,-75.6929)">
			<title>Sheet.50</title>
			<rect x="0" y="349.061" width="28.3465" height="28.3465" class="st1"/>
		</g>
		<g id="shape51-90" transform="translate(188.329,-47.3465)">
			<title>Sheet.51</title>
			<rect x="0" y="349.061" width="28.3465" height="28.3465" class="st1"/>
		</g>
		<g id="shape52-92" transform="translate(216.675,-47.3465)">
			<title>Sheet.52</title>
			<rect x="0" y="349.061" width="28.3465" height="28.3465" class="st1"/>
		</g>
		<g id="shape53-94" transform="translate(245.022,-47.3465)">
			<title>Sheet.53</title>
			<rect x="0" y="349.061" width="28.3465" height="28.3465" class="st1"/>
		</g>
		<g id="shape54-96" transform="translate(273.368,-47.3465)">
			<title>Sheet.54</title>
			<rect x="0" y="349.061" width="28.3465" height="28.3465" class="st1"/>
		</g>
		<g id="shape38-98" transform="translate(216.675,-160.732)">
			<title>Square.38</title>
			<rect x="0" y="349.061" width="28.3465" height="28.3465" class="st8"/>
		</g>
		<g id="shape42-100" transform="translate(245.022,-160.732)">
			<title>Square.42</title>
			<rect x="0" y="349.061" width="28.3465" height="28.3465" class="st8"/>
		</g>
		<g id="shape43-102" transform="translate(273.368,-160.732)">
			<title>Square.43</title>
			<rect x="0" y="349.061" width="28.3465" height="28.3465" class="st8"/>
		</g>
		<g id="shape30-104" transform="translate(273.368,-217.425)">
			<title>Square.8</title>
			<rect x="0" y="349.061" width="28.3465" height="28.3465" class="st8"/>
		</g>
		<g id="shape31-106" transform="translate(301.715,-217.425)">
			<title>Square.9</title>
			<rect x="0" y="349.061" width="28.3465" height="28.3465" class="st8"/>
		</g>
		<g id="shape32-108" transform="translate(330.061,-217.425)">
			<title>Square.10</title>
			<rect x="0" y="349.061" width="28.3465" height="28.3465" class="st8"/>
		</g>
		<g id="shape33-110" transform="translate(358.407,-217.425)">
			<title>Square.11</title>
			<rect x="0" y="349.061" width="28.3465" height="28.3465" class="st8"/>
		</g>
		<g id="shape34-112" transform="translate(273.368,-217.425)">
			<title>Sheet.34</title>
			<rect x="0" y="349.061" width="113.386" height="28.3465" class="st8"/>
		</g>
		<g id="shape41-114" transform="translate(386.754,-217.425)">
			<title>Square.41</title>
			<rect x="0" y="349.061" width="28.3465" height="28.3465" class="st8"/>
		</g>
		<g id="shape9-116" transform="translate(60.7697,-132.386)">
			<title>Sheet.9</title>
			<rect x="0" y="264.022" width="28.3465" height="113.386" class="st8"/>
		</g>
		<g id="shape10-118" transform="translate(60.7697,-217.425)">
			<title>Circle.127</title>
			<path d="M0 363.23 A14.1732 14.1732 0 0 1 28.35 363.23 A14.1732 14.1732 0 1 1 0 363.23 Z" class="st8"/>
		</g>
		<g id="shape11-120" transform="translate(60.7697,-189.079)">
			<title>Circle.128</title>
			<path d="M0 363.23 A14.1732 14.1732 0 0 1 28.35 363.23 A14.1732 14.1732 0 1 1 0 363.23 Z" class="st8"/>
		</g>
		<g id="shape12-122" transform="translate(60.7697,-160.732)">
			<title>Circle.129</title>
			<path d="M0 363.23 A14.1732 14.1732 0 0 1 28.35 363.23 A14.1732 14.1732 0 1 1 0 363.23 Z" class="st8"/>
		</g>
		<g id="shape13-124" transform="translate(60.7697,-132.386)">
			<title>Circle.130</title>
			<path d="M0 363.23 A14.1732 14.1732 0 0 1 28.35 363.23 A14.1732 14.1732 0 1 1 0 363.23 Z" class="st8"/>
		</g>
		<g id="shape14-126" transform="translate(60.7697,-217.425)">
			<title>Square.138</title>
			<rect x="0" y="349.061" width="28.3465" height="28.3465" class="st8"/>
		</g>
		<g id="shape15-128" transform="translate(60.7697,-189.079)">
			<title>Square.139</title>
			<rect x="0" y="349.061" width="28.3465" height="28.3465" class="st8"/>
		</g>
		<g id="shape16-130" transform="translate(60.7697,-160.732)">
			<title>Square.140</title>
			<rect x="0" y="349.061" width="28.3465" height="28.3465" class="st8"/>
		</g>
		<g id="shape55-132" transform="translate(18.25,-330.811)">
			<title>Sheet.55</title>
			<desc>Adjacency List</desc>
			<rect x="0" y="349.061" width="155.906" height="28.3465" class="st2"/>
			<text x="4.98" y="370.43" class="st13">Adjacency List</text>		</g>
		<g id="shape56-135" transform="translate(564.186,-176.51) rotate(24.4439)">
			<title>Sheet.56</title>
			<path d="M0 377.41 L85.63 377.41" class="st14"/>
		</g>
		<g id="shape57-138" transform="translate(400.927,-75.6929)">
			<title>Sheet.57</title>
			<desc>vertex</desc>
			<rect x="0" y="334.888" width="42.5197" height="42.5197" rx="8.50394" ry="8.50394" class="st1"/>
			<text x="6.27" y="359.75" class="st15">vertex</text>		</g>
		<g id="shape58-141" transform="translate(443.447,-75.6929)">
			<title>Sheet.58</title>
			<desc>edge weight</desc>
			<rect x="0" y="334.888" width="42.5197" height="42.5197" rx="8.50394" ry="8.50394" class="st1"/>
			<text x="9.93" y="352.55" class="st15">edge <tspan x="4.93" dy="1.2em" class="st16">weight</tspan></text>		</g>
		<g id="shape59-145" transform="translate(400.927,-118.213)">
			<title>Sheet.59</title>
			<desc>std::pair</desc>
			<rect x="0" y="347.036" width="85.0394" height="30.3712" class="st2"/>
			<text x="19.58" y="366.42" class="st3">std::pair</text>		</g>
		<g id="shape60-148" transform="translate(400.927,-75.6929)">
			<title>Square.215</title>
			<rect x="0" y="292.368" width="85.0394" height="85.0394" class="st8"/>
		</g>
		<g id="shape61-150" transform="translate(771.248,167.069) rotate(90)">
			<title>Sheet.61</title>
			<path d="M0 377.41 L42.52 377.41" class="st14"/>
		</g>
	</g>
</svg>
