<?xml version="1.0" encoding="UTF-8" standalone="no"?>
<!DOCTYPE svg PUBLIC "-//W3C//DTD SVG 1.1//EN" "http://www.w3.org/Graphics/SVG/1.1/DTD/svg11.dtd">
<!-- Illustrator: Larry Huang -->
<svg xmlns="http://www.w3.org/2000/svg" xmlns:xlink="http://www.w3.org/1999/xlink" xmlns:ev="http://www.w3.org/2001/xml-events"
		width="20.0056in" height="6.23333in" viewBox="0 0 1440.4 448.8" xml:space="preserve" color-interpolation-filters="sRGB"
		class="st20">
	<style type="text/css">
	<![CDATA[
		.st1 {fill:none;stroke:#000000;stroke-width:1}
		.st2 {fill:#f2f2f2;stroke:#000000;stroke-width:1}
		.st3 {fill:none;stroke:none;stroke-width:0.25}
		.st4 {fill:#7f7f7f;font-family:Times New Roman;font-size:1.00001em}
		.st5 {fill:none;stroke:#000000;stroke-width:1.5}
		.st6 {fill:#000000;font-family:Times New Roman;font-size:1.33333em}
		.st7 {marker-end:url(#mrkr5-39);stroke:#000000;stroke-dasharray:7,5;stroke-linecap:round;stroke-linejoin:round;stroke-width:1}
		.st8 {fill:#000000;fill-opacity:1;stroke:#000000;stroke-opacity:1;stroke-width:0.28409090909091}
		.st9 {fill:#7f7f7f;font-family:Times New Roman;font-size:1.16666em}
		.st10 {fill:#7f7f7f;font-family:Times New Roman;font-size:1.33333em;font-weight:bold}
		.st11 {font-size:1em}
		.st12 {fill:none;stroke:#7f7f7f;stroke-width:1}
		.st13 {fill:#000000;font-family:Times New Roman;font-size:1.16666em}
		.st14 {marker-end:url(#mrkr5-39);stroke:#000000;stroke-linecap:round;stroke-linejoin:round;stroke-width:1}
		.st15 {marker-end:url(#mrkr5-39);stroke:#000000;stroke-width:1}
		.st16 {stroke:#7f7f7f;stroke-dasharray:7,5;stroke-linecap:round;stroke-linejoin:round;stroke-width:1}
		.st17 {fill:#0000ff;font-family:Times New Roman;font-size:1.99999em}
		.st18 {fill:#ff0000;font-size:1em;font-weight:bold}
		.st19 {stroke:#7f7f7f;stroke-width:0.25}
		.st20 {fill:none;fill-rule:evenodd;font-size:12px;overflow:visible;stroke-linecap:square;stroke-miterlimit:3}
	]]>
	</style>

	<defs id="Markers">
		<g id="lend5">
			<path d="M 2 1 L 0 0 L 1.98117 -0.993387 C 1.67173 -0.364515 1.67301 0.372641 1.98465 1.00043 " style="stroke:none"/>
		</g>
		<marker id="mrkr5-39" class="st8" refX="-6.16" orient="auto" markerUnits="strokeWidth" overflow="visible">
			<use xlink:href="#lend5" transform="scale(-3.52,-3.52) "/>
		</marker>
	</defs>
	<g>
		<title>Page-1</title>
		<g id="shape163-1" transform="translate(556.833,-203.252)">
			<title>Rectangle.251</title>
			<rect x="0" y="363.76" width="28.3465" height="85.0394" class="st1"/>
		</g>
		<g id="shape164-3" transform="translate(556.833,-203.252)">
			<title>Rectangle.293</title>
			<rect x="0" y="363.76" width="28.3465" height="85.0394" class="st1"/>
		</g>
		<g id="shape165-5" transform="translate(556.833,-203.252)">
			<title>Sheet.165</title>
			<rect x="0" y="420.453" width="28.3465" height="28.3465" class="st1"/>
		</g>
		<g id="shape166-7" transform="translate(556.833,-259.945)">
			<title>Sheet.166</title>
			<rect x="0" y="420.453" width="28.3465" height="28.3465" class="st1"/>
		</g>
		<g id="shape167-9" transform="translate(556.833,-231.598)">
			<title>Sheet.167</title>
			<rect x="0" y="420.453" width="28.3465" height="28.3465" class="st1"/>
		</g>
		<g id="shape168-11" transform="translate(556.833,-373.331)">
			<title>Sheet.168</title>
			<rect x="0" y="420.453" width="28.3465" height="28.3465" class="st2"/>
		</g>
		<g id="shape169-13" transform="translate(556.833,-344.984)">
			<title>Sheet.169</title>
			<rect x="0" y="420.453" width="28.3465" height="28.3465" class="st2"/>
		</g>
		<g id="shape170-15" transform="translate(556.833,-316.638)">
			<title>Sheet.170</title>
			<rect x="0" y="420.453" width="28.3465" height="28.3465" class="st1"/>
		</g>
		<g id="shape171-17" transform="translate(556.833,-174.906)">
			<title>Sheet.171</title>
			<rect x="0" y="420.453" width="28.3465" height="28.3465" class="st2"/>
		</g>
		<g id="shape172-19" transform="translate(556.833,-146.559)">
			<title>Sheet.172</title>
			<rect x="0" y="420.453" width="28.3465" height="28.3465" class="st1"/>
		</g>
		<g id="shape173-21" transform="translate(556.833,-118.213)">
			<title>Sheet.173</title>
			<rect x="0" y="420.453" width="28.3465" height="28.3465" class="st2"/>
		</g>
		<g id="shape174-23" transform="translate(556.833,-288.291)">
			<title>Sheet.174</title>
			<rect x="0" y="420.453" width="28.3465" height="28.3465" class="st2"/>
		</g>
		<g id="shape175-25" transform="translate(571.006,-344.984)">
			<title>Sheet.175</title>
			<desc>collision</desc>
			<rect x="0" y="420.453" width="70.8661" height="28.3465" class="st3"/>
			<text x="14.77" y="438.23" class="st4">collision</text>		</g>
		<g id="shape176-28" transform="translate(159.982,-231.598)">
			<title>Diamond.275</title>
			<desc>hash function</desc>
			<path d="M70.87 448.8 L141.73 420.45 L70.87 392.11 L0 420.45 L70.87 448.8 Z" class="st5"/>
			<text x="27.54" y="425.25" class="st6">hash function</text>		</g>
		<g id="shape177-31" transform="translate(344.234,-245.772)">
			<title>Sheet.177</title>
			<desc>hash value</desc>
			<rect x="0" y="420.453" width="85.0394" height="28.3465" class="st3"/>
			<text x="8.53" y="439.43" class="st6">hash value</text>		</g>
		<g id="shape178-34" transform="translate(117.463,-259.945)">
			<title>Sheet.178</title>
			<path d="M0 448.8 L36.36 448.8" class="st7"/>
		</g>
		<g id="shape179-40" transform="translate(301.715,-259.945)">
			<title>Sheet.179</title>
			<path d="M0 448.8 L36.36 448.8" class="st7"/>
		</g>
		<g id="shape180-45" transform="translate(514.313,-373.331)">
			<title>Sheet.180</title>
			<desc>0</desc>
			<rect x="0" y="420.453" width="28.3465" height="28.3465" class="st3"/>
			<text x="10.67" y="438.83" class="st9">0</text>		</g>
		<g id="shape181-48" transform="translate(514.313,-344.984)">
			<title>Sheet.181</title>
			<desc>1</desc>
			<rect x="0" y="420.453" width="28.3465" height="28.3465" class="st3"/>
			<text x="10.67" y="438.83" class="st9">1</text>		</g>
		<g id="shape182-51" transform="translate(514.313,-316.638)">
			<title>Sheet.182</title>
			<desc>2</desc>
			<rect x="0" y="420.453" width="28.3465" height="28.3465" class="st3"/>
			<text x="10.67" y="438.83" class="st9">2</text>		</g>
		<g id="shape183-54" transform="translate(514.313,-288.291)">
			<title>Sheet.183</title>
			<desc>3</desc>
			<rect x="0" y="420.453" width="28.3465" height="28.3465" class="st3"/>
			<text x="10.67" y="438.83" class="st9">3</text>		</g>
		<g id="shape184-57" transform="translate(514.313,-118.213)">
			<title>Sheet.184</title>
			<desc>n-1</desc>
			<rect x="0" y="420.453" width="28.3465" height="28.3465" class="st3"/>
			<text x="4.84" y="438.83" class="st9">n-1</text>		</g>
		<g id="shape185-60" transform="translate(514.313,-174.906)">
			<title>Sheet.185</title>
			<desc>n-3</desc>
			<rect x="0" y="420.453" width="28.3465" height="28.3465" class="st3"/>
			<text x="4.84" y="438.83" class="st9">n-3</text>		</g>
		<g id="shape186-63" transform="translate(514.313,-146.559)">
			<title>Sheet.186</title>
			<desc>n-2</desc>
			<rect x="0" y="420.453" width="28.3465" height="28.3465" class="st3"/>
			<text x="4.84" y="438.83" class="st9">n-2</text>		</g>
		<g id="shape187-66" transform="translate(514.313,-189.079)">
			<title>Sheet.187</title>
			<desc>. . . . .</desc>
			<rect x="0" y="335.414" width="28.3465" height="113.386" class="st3"/>
			<text x="12.17" y="358.51" class="st10">. <tspan x="12.17" dy="1.2em" class="st11">. </tspan><tspan x="12.17"
						dy="1.2em" class="st11">. </tspan><tspan x="12.17" dy="1.2em" class="st11">. </tspan><tspan x="12.17"
						dy="1.2em" class="st11">.</tspan></text>		</g>
		<g id="shape188-73" transform="translate(429.274,-259.945)">
			<title>Sheet.188</title>
			<path d="M0 448.8 L64.71 448.8" class="st7"/>
		</g>
		<g id="shape189-78" transform="translate(148.911,-161.599) rotate(-38.6598)">
			<title>Sheet.189</title>
			<path d="M0 448.8 L84.59 448.8" class="st7"/>
		</g>
		<g id="shape190-83" transform="translate(709.636,-161.599) rotate(38.6598)">
			<title>Sheet.190</title>
			<path d="M0 448.8 L84.59 448.8" class="st7"/>
		</g>
		<g id="shape191-88" transform="translate(36.9522,-29.1017) rotate(-60.9454)">
			<title>Sheet.191</title>
			<path d="M0 448.8 L139.76 448.8" class="st7"/>
		</g>
		<g id="shape192-93" transform="translate(821.595,-29.1017) rotate(60.9454)">
			<title>Sheet.192</title>
			<path d="M0 448.8 L139.76 448.8" class="st7"/>
		</g>
		<g id="shape193-98" transform="translate(32.4232,-231.598)">
			<title>Sheet.193</title>
			<desc>unique key (vertex)</desc>
			<rect x="0" y="392.107" width="85.0394" height="56.6929" class="st3"/>
			<text x="7.2" y="415.65" class="st6">unique key <tspan x="17.2" dy="1.2em" class="st11">(vertex)</tspan></text>		</g>
		<g id="shape206-102" transform="translate(939.51,-316.638)">
			<title>Rectangle</title>
			<rect x="0" y="377.933" width="99.2126" height="70.8661" rx="8.50394" ry="8.50394" class="st1"/>
		</g>
		<g id="shape207-104" transform="translate(946.596,-323.724)">
			<title>Sheet.207</title>
			<desc>vertex</desc>
			<rect x="0" y="420.453" width="42.5197" height="28.3465" rx="8.50394" ry="8.50394" class="st12"/>
			<text x="6.27" y="438.23" class="st4">vertex</text>		</g>
		<g id="shape208-107" transform="translate(989.116,-323.724)">
			<title>Sheet.208</title>
			<desc>edges</desc>
			<rect x="0" y="420.453" width="42.5197" height="28.3465" rx="8.50394" ry="8.50394" class="st12"/>
			<text x="7.6" y="438.23" class="st4">edges</text>		</g>
		<g id="shape209-110" transform="translate(960.77,-352.071)">
			<title>Sheet.209</title>
			<desc>std::pair</desc>
			<rect x="0" y="420.453" width="56.6929" height="28.3465" class="st3"/>
			<text x="5.4" y="438.83" class="st9">std::pair</text>		</g>
		<g id="shape210-113" transform="translate(1038.72,-316.638)">
			<title>Sheet.210</title>
			<rect x="0" y="377.933" width="28.3465" height="70.8661" rx="5.66929" ry="5.66929" class="st1"/>
		</g>
		<g id="shape211-115" transform="translate(1052.9,-231.598)">
			<title>Square.211</title>
			<rect x="0" y="420.453" width="28.3465" height="28.3465" class="st2"/>
		</g>
		<g id="shape212-117" transform="translate(1038.72,-26.0866)">
			<title>Sheet.212</title>
			<desc>vertex (neighbor)</desc>
			<rect x="0" y="392.107" width="60.9449" height="56.6929" rx="8.50394" ry="8.50394" class="st12"/>
			<text x="15.48" y="416.85" class="st4">vertex <tspan x="5.15" dy="1.2em" class="st11">(neighbor)</tspan></text>		</g>
		<g id="shape213-121" transform="translate(1099.67,-26.0866)">
			<title>Sheet.213</title>
			<desc>edge weight</desc>
			<rect x="0" y="392.107" width="52.4409" height="56.6929" rx="8.50394" ry="8.50394" class="st12"/>
			<text x="14.89" y="416.85" class="st4">edge <tspan x="9.89" dy="1.2em" class="st11">weight</tspan></text>		</g>
		<g id="shape214-125" transform="translate(1068.59,-86.8472)">
			<title>Sheet.214</title>
			<desc>std::pair</desc>
			<rect x="0" y="418.428" width="60.7424" height="30.3712" class="st3"/>
			<text x="7.43" y="437.81" class="st9">std::pair</text>		</g>
		<g id="shape215-128" transform="translate(1038.72,-19)">
			<title>Square.215</title>
			<rect x="0" y="335.414" width="113.386" height="113.386" class="st1"/>
		</g>
		<g id="shape216-130" transform="translate(783.604,-366.244)">
			<title>Rounded Rectangle.330</title>
			<desc>node</desc>
			<path d="M4.25 448.8 L38.27 448.8 A4.2519 4.2519 -180 0 0 42.52 444.55 L42.52 410.53 A4.2519 4.2519 -180 0 0 38.27 406.28
						 L4.25 406.28 A4.2519 4.2519 -180 0 0 0 410.53 L0 444.55 A4.2519 4.2519 -180 0 0 4.25 448.8 Z" class="st1"/>
			<text x="7.65" y="431.74" class="st13">node</text>		</g>
		<g id="shape217-133" transform="translate(641.872,-118.213)">
			<title>Rounded Rectangle.346</title>
			<desc>node</desc>
			<path d="M4.25 448.8 L38.27 448.8 A4.2519 4.2519 -180 0 0 42.52 444.55 L42.52 410.53 A4.2519 4.2519 -180 0 0 38.27 406.28
						 L4.25 406.28 A4.2519 4.2519 -180 0 0 0 410.53 L0 444.55 A4.2519 4.2519 -180 0 0 4.25 448.8 Z" class="st1"/>
			<text x="7.65" y="431.74" class="st13">node</text>		</g>
		<g id="shape218-136" transform="translate(769.431,-245.772)">
			<title>Rounded Rectangle.347</title>
			<desc>node</desc>
			<path d="M4.25 448.8 L38.27 448.8 A4.2519 4.2519 -180 0 0 42.52 444.55 L42.52 410.53 A4.2519 4.2519 -180 0 0 38.27 406.28
						 L4.25 406.28 A4.2519 4.2519 -180 0 0 0 410.53 L0 444.55 A4.2519 4.2519 -180 0 0 4.25 448.8 Z" class="st1"/>
			<text x="7.65" y="431.74" class="st13">node</text>		</g>
		<g id="shape219-139" transform="translate(712.738,-174.906)">
			<title>Rounded Rectangle.348</title>
			<desc>node</desc>
			<path d="M4.25 448.8 L38.27 448.8 A4.2519 4.2519 -180 0 0 42.52 444.55 L42.52 410.53 A4.2519 4.2519 -180 0 0 38.27 406.28
						 L4.25 406.28 A4.2519 4.2519 -180 0 0 0 410.53 L0 444.55 A4.2519 4.2519 -180 0 0 4.25 448.8 Z" class="st1"/>
			<text x="7.65" y="431.74" class="st13">node</text>		</g>
		<g id="shape220-142" transform="translate(656.045,-316.638)">
			<title>Rounded Rectangle.220</title>
			<desc>node</desc>
			<path d="M4.25 448.8 L38.27 448.8 A4.2519 4.2519 -180 0 0 42.52 444.55 L42.52 410.53 A4.2519 4.2519 -180 0 0 38.27 406.28
						 L4.25 406.28 A4.2519 4.2519 -180 0 0 0 410.53 L0 444.55 A4.2519 4.2519 -180 0 0 4.25 448.8 Z" class="st1"/>
			<text x="7.65" y="431.74" class="st13">node</text>		</g>
		<g id="shape221-145" transform="translate(684.392,-245.772)">
			<title>Rounded Rectangle.350</title>
			<desc>node</desc>
			<path d="M4.25 448.8 L38.27 448.8 A4.2519 4.2519 -180 0 0 42.52 444.55 L42.52 410.53 A4.2519 4.2519 -180 0 0 38.27 406.28
						 L4.25 406.28 A4.2519 4.2519 -180 0 0 0 410.53 L0 444.55 A4.2519 4.2519 -180 0 0 4.25 448.8 Z" class="st1"/>
			<text x="7.65" y="431.74" class="st13">node</text>		</g>
		<g id="shape222-148" transform="translate(571.006,-387.504)">
			<title>Sheet.222</title>
			<path d="M0 448.8 L206.44 448.8" class="st14"/>
		</g>
		<g id="shape223-153" transform="translate(854.016,-258.678) rotate(39.0939)">
			<title>Sheet.223</title>
			<path d="M0 448.8 L139.93 448.8" class="st14"/>
		</g>
		<g id="shape224-158" transform="translate(733.998,-267.031) rotate(2.75698E-06)">
			<title>Sheet.224</title>
			<path d="M0 448.8 L29.27 448.8" class="st14"/>
		</g>
		<g id="shape225-163" transform="translate(386.834,-92.8562) rotate(-24.2277)">
			<title>Sheet.225</title>
			<path d="M0 448.8 L149.26 448.8" class="st14"/>
		</g>
		<g id="shape226-168" transform="translate(828.376,-107.95) rotate(34.992)">
			<title>Sheet.226</title>
			<path d="M0 448.8 L80.34 448.8" class="st14"/>
		</g>
		<g id="shape227-173" transform="translate(826.124,-366.244)">
			<title>Rounded Rectangle.369</title>
			<path d="M1.42 448.8 L12.76 448.8 A1.4173 1.4173 -180 0 0 14.17 447.38 L14.17 407.7 A1.4173 1.4173 -180 0 0 12.76 406.28
						 L1.42 406.28 A1.4173 1.4173 -180 0 0 -0 407.7 L0 447.38 A1.4173 1.4173 -180 0 0 1.42 448.8 Z" class="st1"/>
		</g>
		<g id="shape228-175" transform="translate(726.911,-245.772)">
			<title>Rounded Rectangle.370</title>
			<path d="M1.42 448.8 L12.76 448.8 A1.4173 1.4173 -180 0 0 14.17 447.38 L14.17 407.7 A1.4173 1.4173 -180 0 0 12.76 406.28
						 L1.42 406.28 A1.4173 1.4173 -180 0 0 -0 407.7 L0 447.38 A1.4173 1.4173 -180 0 0 1.42 448.8 Z" class="st1"/>
		</g>
		<g id="shape229-177" transform="translate(684.392,-118.213)">
			<title>Rounded Rectangle.371</title>
			<path d="M1.42 448.8 L12.76 448.8 A1.4173 1.4173 -180 0 0 14.17 447.38 L14.17 407.7 A1.4173 1.4173 -180 0 0 12.76 406.28
						 L1.42 406.28 A1.4173 1.4173 -180 0 0 -0 407.7 L0 447.38 A1.4173 1.4173 -180 0 0 1.42 448.8 Z" class="st1"/>
		</g>
		<g id="shape230-179" transform="translate(755.258,-174.906)">
			<title>Rounded Rectangle.372</title>
			<path d="M1.42 448.8 L12.76 448.8 A1.4173 1.4173 -180 0 0 14.17 447.38 L14.17 407.7 A1.4173 1.4173 -180 0 0 12.76 406.28
						 L1.42 406.28 A1.4173 1.4173 -180 0 0 -0 407.7 L0 447.38 A1.4173 1.4173 -180 0 0 1.42 448.8 Z" class="st1"/>
		</g>
		<g id="shape231-181" transform="translate(698.565,-316.638)">
			<title>Rounded Rectangle.231</title>
			<path d="M1.42 448.8 L12.76 448.8 A1.4173 1.4173 -180 0 0 14.17 447.38 L14.17 407.7 A1.4173 1.4173 -180 0 0 12.76 406.28
						 L1.42 406.28 A1.4173 1.4173 -180 0 0 -0 407.7 L0 447.38 A1.4173 1.4173 -180 0 0 1.42 448.8 Z" class="st1"/>
		</g>
		<g id="shape232-183" transform="translate(811.951,-245.772)">
			<title>Rounded Rectangle.374</title>
			<path d="M1.42 448.8 L12.76 448.8 A1.4173 1.4173 -180 0 0 14.17 447.38 L14.17 407.7 A1.4173 1.4173 -180 0 0 12.76 406.28
						 L1.42 406.28 A1.4173 1.4173 -180 0 0 -0 407.7 L0 447.38 A1.4173 1.4173 -180 0 0 1.42 448.8 Z" class="st1"/>
		</g>
		<g id="shape233-185" transform="translate(398.391,-267.942) rotate(-22.6198)">
			<title>Sheet.233</title>
			<path d="M0 448.8 L85.97 448.8" class="st14"/>
		</g>
		<g id="shape234-190" transform="translate(571.006,-344.984)">
			<title>Sheet.234</title>
			<desc>collision</desc>
			<rect x="0" y="420.453" width="70.8661" height="28.3465" class="st3"/>
			<text x="14.77" y="438.23" class="st4">collision</text>		</g>
		<g id="shape235-193" transform="translate(1081.24,-231.598)">
			<title>Square.235</title>
			<rect x="0" y="420.453" width="28.3465" height="28.3465" class="st2"/>
		</g>
		<g id="shape236-195" transform="translate(1109.59,-231.598)">
			<title>Square.236</title>
			<rect x="0" y="420.453" width="28.3465" height="28.3465" class="st2"/>
		</g>
		<g id="shape237-197" transform="translate(1222.97,-231.598)">
			<title>Square.237</title>
			<rect x="0" y="420.453" width="28.3465" height="28.3465" class="st2"/>
		</g>
		<g id="shape238-199" transform="translate(1251.32,-231.598)">
			<title>Square.238</title>
			<rect x="0" y="420.453" width="28.3465" height="28.3465" class="st2"/>
		</g>
		<g id="shape239-201" transform="translate(1137.94,-231.598)">
			<title>Rectangle.239</title>
			<desc>………</desc>
			<rect x="0" y="420.453" width="85.0394" height="28.3465" class="st2"/>
			<text x="18.52" y="439.43" class="st6">………</text>		</g>
		<g id="shape240-204" transform="translate(1279.67,-231.598)">
			<title>Rectangle.240</title>
			<rect x="0" y="420.453" width="141.732" height="28.3465" class="st1"/>
		</g>
		<g id="shape241-206" transform="translate(1010.38,-245.772)">
			<title>Sheet.241</title>
			<path d="M0 371.56 L0 448.8 L36.36 448.8" class="st15"/>
		</g>
		<g id="shape242-211" transform="translate(1474.42,-23.319) rotate(56.2893)">
			<title>Sheet.242</title>
			<path d="M0 448.8 L91.93 448.8" class="st16"/>
		</g>
		<g id="shape243-214" transform="translate(1463.08,474.848) rotate(123.711)">
			<title>Sheet.243</title>
			<path d="M0 448.8 L91.93 448.8" class="st16"/>
		</g>
		<g id="shape244-217" transform="translate(850.219,-391.756)">
			<title>Sheet.244</title>
			<path d="M0 448.8 L89.29 448.8" class="st16"/>
		</g>
		<g id="shape245-220" transform="translate(1131.81,-284.189) rotate(39.0939)">
			<title>Sheet.245</title>
			<path d="M0 448.8 L116.88 448.8" class="st16"/>
		</g>
		<g id="shape328-223" transform="translate(18.25,-401.677)">
			<title>Sheet.328</title>
			<desc>Adjacency List’</desc>
			<rect x="0" y="420.453" width="184.252" height="28.3465" class="st3"/>
			<text x="15.16" y="441.86" class="st17">Adjacency List<tspan class="st18">’</tspan></text>		</g>
		<g id="shape492-227" transform="translate(1052.9,614.977) scale(1,-1)">
			<title>Side brace.29</title>
			<desc>size</desc>
			<path d="M0 440.3 L0 441.71 A7.0865 7.0865 -180 0 0 7.09 448.8 L106.3 448.8 A7.0865 7.0865 0 0 1 113.39 455.89 A7.0865
						 7.0865 0 0 1 120.47 448.8 L219.69 448.8 A7.0865 7.0865 -180 0 0 226.77 441.71 L226.77 440.3" class="st19"/>
			<text x="104.5" y="-460.09" transform="scale(1,-1)" class="st13">size</text>		</g>
		<g id="shape493-231" transform="translate(1052.9,586.631) scale(1,-1)">
			<title>Side brace.45</title>
			<desc>capacity</desc>
			<path d="M0 440.3 L0 441.71 A7.0865 7.0865 -180 0 0 7.09 448.8 L177.17 448.8 A7.0865 7.0865 0 0 1 184.25 455.89 A7.0865
						 7.0865 0 0 1 191.34 448.8 L361.42 448.8 A7.0865 7.0865 -180 0 0 368.5 441.71 L368.5 440.3" class="st19"/>
			<text x="162.93" y="-460.09" transform="scale(1,-1)" class="st13">capacity</text>		</g>
	</g>
</svg>
