<?xml version="1.0" encoding="UTF-8" standalone="no"?>
<!DOCTYPE svg PUBLIC "-//W3C//DTD SVG 1.1//EN" "http://www.w3.org/Graphics/SVG/1.1/DTD/svg11.dtd">
<!-- Illustrator: Larry Huang -->
<svg xmlns="http://www.w3.org/2000/svg" xmlns:xlink="http://www.w3.org/1999/xlink" xmlns:ev="http://www.w3.org/2001/xml-events"
		width="15.0947in" height="4.66164in" viewBox="0 0 1086.82 335.638" xml:space="preserve" color-interpolation-filters="sRGB"
		class="st14">
	<style type="text/css">
	<![CDATA[
		.st1 {fill:none;stroke:#000000;stroke-width:1}
		.st2 {fill:#000000;font-family:Times New Roman;font-size:1.16666em}
		.st3 {marker-end:url(#mrkr5-33);stroke:#000000;stroke-linecap:round;stroke-linejoin:round;stroke-width:1}
		.st4 {fill:#000000;fill-opacity:1;stroke:#000000;stroke-opacity:1;stroke-width:0.28409090909091}
		.st5 {marker-start:url(#mrkr5-79);stroke:#000000;stroke-linecap:round;stroke-linejoin:round;stroke-width:1}
		.st6 {marker-end:url(#mrkr5-95);stroke:#000000;stroke-linecap:round;stroke-linejoin:round;stroke-width:1}
		.st7 {fill:none;stroke:none;stroke-width:0.25}
		.st8 {fill:#0000ff;font-family:Times New Roman;font-size:1.00001em}
		.st9 {fill:none;stroke:#7f7f7f;stroke-dasharray:7,5;stroke-width:1}
		.st10 {fill:#ff0000;font-family:Times New Roman;font-size:1.16666em}
		.st11 {fill:#000000;font-family:Times New Roman;font-size:1.33333em}
		.st12 {stroke:#0000ff;stroke-linecap:round;stroke-linejoin:round;stroke-width:1}
		.st13 {stroke:#000000;stroke-linecap:round;stroke-linejoin:round;stroke-width:1}
		.st14 {fill:none;fill-rule:evenodd;font-size:12px;overflow:visible;stroke-linecap:square;stroke-miterlimit:3}
	]]>
	</style>

	<defs id="Markers">
		<g id="lend5">
			<path d="M 2 1 L 0 0 L 1.98117 -0.993387 C 1.67173 -0.364515 1.67301 0.372641 1.98465 1.00043 " style="stroke:none"/>
		</g>
		<marker id="mrkr5-33" class="st4" refX="-6.16" orient="auto" markerUnits="strokeWidth" overflow="visible">
			<use xlink:href="#lend5" transform="scale(-3.52,-3.52) "/>
		</marker>
		<marker id="mrkr5-79" class="st4" refX="5.8" orient="auto" markerUnits="strokeWidth" overflow="visible">
			<use xlink:href="#lend5" transform="scale(3.52) "/>
		</marker>
		<marker id="mrkr5-95" class="st4" refX="-5.8" orient="auto" markerUnits="strokeWidth" overflow="visible">
			<use xlink:href="#lend5" transform="scale(-3.52,-3.52) "/>
		</marker>
	</defs>
	<g>
		<title>Page-1</title>
		<g id="shape1-1" transform="translate(33.1732,-259.945)">
			<title>Circle.104</title>
			<desc>A</desc>
			<path d="M0 314.38 A21.2598 21.2598 0 0 1 42.52 314.38 A21.2598 21.2598 0 1 1 0 314.38 Z" class="st1"/>
			<text x="16.2" y="318.58" class="st2">A</text>		</g>
		<g id="shape2-4" transform="translate(146.559,-146.559)">
			<title>Circle.105</title>
			<desc>E</desc>
			<path d="M0 314.38 A21.2598 21.2598 0 0 1 42.52 314.38 A21.2598 21.2598 0 1 1 0 314.38 Z" class="st1"/>
			<text x="16.98" y="318.58" class="st2">E</text>		</g>
		<g id="shape3-7" transform="translate(33.1732,-146.559)">
			<title>Circle.106</title>
			<desc>D</desc>
			<path d="M0 314.38 A21.2598 21.2598 0 0 1 42.52 314.38 A21.2598 21.2598 0 1 1 0 314.38 Z" class="st1"/>
			<text x="16.2" y="318.58" class="st2">D</text>		</g>
		<g id="shape4-10" transform="translate(259.945,-146.559)">
			<title>Circle.107</title>
			<desc>F</desc>
			<path d="M0 314.38 A21.2598 21.2598 0 0 1 42.52 314.38 A21.2598 21.2598 0 1 1 0 314.38 Z" class="st1"/>
			<text x="17.37" y="318.58" class="st2">F</text>		</g>
		<g id="shape5-13" transform="translate(146.559,-259.945)">
			<title>Circle.108</title>
			<desc>B</desc>
			<path d="M0 314.38 A21.2598 21.2598 0 0 1 42.52 314.38 A21.2598 21.2598 0 1 1 0 314.38 Z" class="st1"/>
			<text x="16.59" y="318.58" class="st2">B</text>		</g>
		<g id="shape6-16" transform="translate(259.945,-259.945)">
			<title>Circle.109</title>
			<desc>C</desc>
			<path d="M0 314.38 A21.2598 21.2598 0 0 1 42.52 314.38 A21.2598 21.2598 0 1 1 0 314.38 Z" class="st1"/>
			<text x="16.59" y="318.58" class="st2">C</text>		</g>
		<g id="shape7-19" transform="translate(146.559,-33.1732)">
			<title>Circle.110</title>
			<desc>H</desc>
			<path d="M0 314.38 A21.2598 21.2598 0 0 1 42.52 314.38 A21.2598 21.2598 0 1 1 0 314.38 Z" class="st1"/>
			<text x="16.2" y="318.58" class="st2">H</text>		</g>
		<g id="shape8-22" transform="translate(33.1732,-33.1732)">
			<title>Circle.111</title>
			<desc>G</desc>
			<path d="M0 314.38 A21.2598 21.2598 0 0 1 42.52 314.38 A21.2598 21.2598 0 1 1 0 314.38 Z" class="st1"/>
			<text x="16.2" y="318.58" class="st2">G</text>		</g>
		<g id="shape9-25" transform="translate(259.945,-33.1732)">
			<title>Circle.112</title>
			<desc>I</desc>
			<path d="M0 314.38 A21.2598 21.2598 0 0 1 42.52 314.38 A21.2598 21.2598 0 1 1 0 314.38 Z" class="st1"/>
			<text x="18.93" y="318.58" class="st2">I</text>		</g>
		<g id="shape10-28" transform="translate(75.6929,-281.205)">
			<title>Sheet.10</title>
			<path d="M0 335.64 L64.71 335.64" class="st3"/>
		</g>
		<g id="shape11-34" transform="translate(390.071,75.6929) rotate(90)">
			<title>Sheet.11</title>
			<path d="M0 335.64 L64.71 335.64" class="st3"/>
		</g>
		<g id="shape12-39" transform="translate(306.8,-167.864) rotate(45)">
			<title>Sheet.12</title>
			<path d="M0 335.64 L111.67 335.64" class="st3"/>
		</g>
		<g id="shape13-44" transform="translate(390.071,189.079) rotate(90)">
			<title>Sheet.13</title>
			<path d="M0 335.64 L64.71 335.64" class="st3"/>
		</g>
		<g id="shape14-49" transform="translate(75.6929,-54.4331)">
			<title>Sheet.14</title>
			<path d="M0 335.64 L64.71 335.64" class="st3"/>
		</g>
		<g id="shape15-54" transform="translate(306.8,-54.4779) rotate(45)">
			<title>Sheet.15</title>
			<path d="M0 335.64 L111.67 335.64" class="st3"/>
		</g>
		<g id="shape16-59" transform="translate(189.079,-167.819)">
			<title>Sheet.16</title>
			<path d="M0 335.64 L64.71 335.64" class="st3"/>
		</g>
		<g id="shape17-64" transform="translate(189.079,-54.4331)">
			<title>Sheet.17</title>
			<path d="M0 335.64 L64.71 335.64" class="st3"/>
		</g>
		<g id="shape18-69" transform="translate(503.457,75.6929) rotate(90)">
			<title>Sheet.18</title>
			<path d="M0 335.64 L64.71 335.64" class="st3"/>
		</g>
		<g id="shape19-74" transform="translate(503.457,189.079) rotate(90)">
			<title>Sheet.19</title>
			<path d="M5.8 335.64 L6.16 335.64 L70.87 335.64" class="st5"/>
		</g>
		<g id="shape20-80" transform="translate(616.843,75.6929) rotate(90)">
			<title>Sheet.20</title>
			<path d="M5.8 335.64 L6.16 335.64 L70.87 335.64" class="st5"/>
		</g>
		<g id="shape21-85" transform="translate(-54.4779,28.838) rotate(-45)">
			<title>Sheet.21</title>
			<path d="M0 335.64 L111.67 335.64" class="st3"/>
		</g>
		<g id="shape22-90" transform="translate(638.102,54.4331) rotate(90)">
			<title>Sheet.22</title>
			<path d="M-0 335.64 A172.947 89.7325 14.2 0 1 221.13 333.16 L221.46 333.3" class="st6"/>
		</g>
		<g id="shape23-96" transform="translate(33.1732,-203.252)">
			<title>Sheet.23</title>
			<desc>1</desc>
			<rect x="0" y="293.118" width="28.3465" height="42.5197" class="st7"/>
			<text x="11.17" y="317.98" class="st8">1</text>		</g>
		<g id="shape24-99" transform="translate(33.1732,-89.8661)">
			<title>Sheet.24</title>
			<desc>1</desc>
			<rect x="0" y="293.118" width="28.3465" height="42.5197" class="st7"/>
			<text x="11.17" y="317.98" class="st8">1</text>		</g>
		<g id="shape25-102" transform="translate(146.559,-89.8661)">
			<title>Sheet.25</title>
			<desc>1</desc>
			<rect x="0" y="293.118" width="28.3465" height="42.5197" class="st7"/>
			<text x="11.17" y="317.98" class="st8">1</text>		</g>
		<g id="shape26-105" transform="translate(259.945,-203.252)">
			<title>Sheet.26</title>
			<desc>1</desc>
			<rect x="0" y="293.118" width="28.3465" height="42.5197" class="st7"/>
			<text x="11.17" y="317.98" class="st8">1</text>		</g>
		<g id="shape27-108" transform="translate(330.811,-146.559)">
			<title>Sheet.27</title>
			<desc>2</desc>
			<rect x="0" y="293.118" width="28.3465" height="42.5197" class="st7"/>
			<text x="11.17" y="317.98" class="st8">2</text>		</g>
		<g id="shape28-111" transform="translate(203.252,-160.732)">
			<title>Sheet.28</title>
			<desc>1</desc>
			<rect x="0" y="307.291" width="42.5197" height="28.3465" class="st7"/>
			<text x="18.26" y="325.06" class="st8">1</text>		</g>
		<g id="shape29-114" transform="translate(89.8661,-47.3465)">
			<title>Sheet.29</title>
			<desc>1</desc>
			<rect x="0" y="307.291" width="42.5197" height="28.3465" class="st7"/>
			<text x="18.26" y="325.06" class="st8">1</text>		</g>
		<g id="shape30-117" transform="translate(104.039,-104.039)">
			<title>Sheet.30</title>
			<desc>3</desc>
			<rect x="0" y="307.291" width="28.3465" height="28.3465" class="st7"/>
			<text x="11.17" y="325.06" class="st8">3</text>		</g>
		<g id="shape31-120" transform="translate(203.252,-47.3465)">
			<title>Sheet.31</title>
			<desc>6</desc>
			<rect x="0" y="307.291" width="42.5197" height="28.3465" class="st7"/>
			<text x="18.26" y="325.06" class="st8">6</text>		</g>
		<g id="shape32-123" transform="translate(89.8661,-274.118)">
			<title>Sheet.32</title>
			<desc>2</desc>
			<rect x="0" y="307.291" width="42.5197" height="28.3465" class="st7"/>
			<text x="18.26" y="325.06" class="st8">2</text>		</g>
		<g id="shape33-126" transform="translate(146.559,-203.252)">
			<title>Sheet.33</title>
			<desc>3</desc>
			<rect x="0" y="293.118" width="28.3465" height="42.5197" class="st7"/>
			<text x="11.17" y="317.98" class="st8">3</text>		</g>
		<g id="shape34-129" transform="translate(203.252,-104.039)">
			<title>Sheet.34</title>
			<desc>3</desc>
			<rect x="0" y="307.291" width="28.3465" height="28.3465" class="st7"/>
			<text x="11.17" y="325.06" class="st8">3</text>		</g>
		<g id="shape35-132" transform="translate(104.039,-217.425)">
			<title>Sheet.35</title>
			<desc>5</desc>
			<rect x="0" y="307.291" width="28.3465" height="28.3465" class="st7"/>
			<text x="11.17" y="325.06" class="st8">5</text>		</g>
		<g id="shape36-135" transform="translate(19,-19)">
			<title>Sheet.36</title>
			<path d="M0 335.64 L340.16 335.64 L340.16 38 L0 38 L0 335.64 Z" class="st9"/>
		</g>
		<g id="shape37-137" transform="translate(415.85,-189.079)">
			<title>Circle.269</title>
			<desc>src</desc>
			<path d="M0 314.38 A21.2598 21.2598 0 0 1 42.52 314.38 A21.2598 21.2598 0 1 1 0 314.38 Z" class="st1"/>
			<text x="13.1" y="318.58" class="st2">src</text>		</g>
		<g id="shape38-140" transform="translate(670.969,-189.079)">
			<title>Circle.270</title>
			<desc>dest</desc>
			<path d="M0 314.38 A21.2598 21.2598 0 0 1 42.52 314.38 A21.2598 21.2598 0 1 1 0 314.38 Z" class="st1"/>
			<text x="9.98" y="318.58" class="st2">dest</text>		</g>
		<g id="shape39-143" transform="translate(543.409,-259.945)">
			<title>Circle.271</title>
			<desc>A</desc>
			<path d="M0 314.38 A21.2598 21.2598 0 0 1 42.52 314.38 A21.2598 21.2598 0 1 1 0 314.38 Z" class="st1"/>
			<text x="16.2" y="318.58" class="st2">A</text>		</g>
		<g id="shape40-146" transform="translate(486.717,-132.386)">
			<title>Circle.272</title>
			<desc>B</desc>
			<path d="M0 314.38 A21.2598 21.2598 0 0 1 42.52 314.38 A21.2598 21.2598 0 1 1 0 314.38 Z" class="st1"/>
			<text x="16.59" y="318.58" class="st2">B</text>		</g>
		<g id="shape41-149" transform="translate(600.102,-132.386)">
			<title>Circle.273</title>
			<desc>C</desc>
			<path d="M0 314.38 A21.2598 21.2598 0 0 1 42.52 314.38 A21.2598 21.2598 0 1 1 0 314.38 Z" class="st1"/>
			<text x="16.59" y="318.58" class="st2">C</text>		</g>
		<g id="shape42-152" transform="translate(458.37,-210.339) rotate(1.06279E-06)">
			<title>Sheet.42</title>
			<path d="M0 335.64 L206.44 335.64" class="st3"/>
		</g>
		<g id="shape43-157" transform="translate(710.427,-74.0099) rotate(50.3112)">
			<title>Sheet.43</title>
			<path d="M0 335.64 L47.97 335.64" class="st3"/>
		</g>
		<g id="shape44-162" transform="translate(529.236,-153.646)">
			<title>Sheet.44</title>
			<path d="M0 335.64 L64.71 335.64" class="st3"/>
		</g>
		<g id="shape45-167" transform="translate(276.993,-176.048) rotate(-31.4563)">
			<title>Sheet.45</title>
			<path d="M0 335.64 L100.83 335.64" class="st3"/>
		</g>
		<g id="shape46-172" transform="translate(384.341,-32.352) rotate(-50.3112)">
			<title>Sheet.46</title>
			<path d="M0 335.64 L47.97 335.64" class="st3"/>
		</g>
		<g id="shape47-177" transform="translate(761.081,-231.879) rotate(31.4563)">
			<title>Sheet.47</title>
			<path d="M0 335.64 L100.83 335.64" class="st3"/>
		</g>
		<g id="shape48-182" transform="translate(543.409,-203.252)">
			<title>Sheet.48</title>
			<desc>5</desc>
			<rect x="0" y="307.291" width="42.5197" height="28.3465" class="st7"/>
			<text x="18.26" y="325.06" class="st8">5</text>		</g>
		<g id="shape49-185" transform="translate(472.543,-245.772)">
			<title>Sheet.49</title>
			<desc>1</desc>
			<rect x="0" y="307.291" width="28.3465" height="28.3465" class="st7"/>
			<text x="11.17" y="325.06" class="st8">1</text>		</g>
		<g id="shape50-188" transform="translate(628.449,-245.772)">
			<title>Sheet.50</title>
			<desc>2</desc>
			<rect x="0" y="307.291" width="28.3465" height="28.3465" class="st7"/>
			<text x="11.17" y="325.06" class="st8">2</text>		</g>
		<g id="shape51-191" transform="translate(444.197,-146.559)">
			<title>Sheet.51</title>
			<desc>3</desc>
			<rect x="0" y="307.291" width="28.3465" height="28.3465" class="st7"/>
			<text x="11.17" y="325.06" class="st8">3</text>		</g>
		<g id="shape52-194" transform="translate(656.795,-146.559)">
			<title>Sheet.52</title>
			<desc>-8</desc>
			<rect x="0" y="307.291" width="28.3465" height="28.3465" class="st7"/>
			<text x="8.34" y="325.66" class="st10">-8</text>		</g>
		<g id="shape53-197" transform="translate(543.409,-146.559)">
			<title>Sheet.53</title>
			<desc>6</desc>
			<rect x="0" y="307.291" width="42.5197" height="28.3465" class="st7"/>
			<text x="18.26" y="325.06" class="st8">6</text>		</g>
		<g id="shape54-200" transform="translate(401.677,-118.213)">
			<title>Sheet.54</title>
			<path d="M0 335.64 L325.98 335.64 L325.98 137.21 L0 137.21 L0 335.64 Z" class="st9"/>
		</g>
		<g id="shape55-202" transform="translate(784.354,-245.772)">
			<title>Circle.45</title>
			<desc>A</desc>
			<path d="M0 314.38 A21.2598 21.2598 0 0 1 42.52 314.38 A21.2598 21.2598 0 1 1 0 314.38 Z" class="st1"/>
			<text x="15.48" y="319.18" class="st11">A</text>		</g>
		<g id="shape56-205" transform="translate(897.74,-245.772)">
			<title>Circle.46</title>
			<desc>B</desc>
			<path d="M0 314.38 A21.2598 21.2598 0 0 1 42.52 314.38 A21.2598 21.2598 0 1 1 0 314.38 Z" class="st1"/>
			<text x="15.92" y="319.18" class="st11">B</text>		</g>
		<g id="shape57-208" transform="translate(1011.13,-245.772)">
			<title>Circle.47</title>
			<desc>C</desc>
			<path d="M0 314.38 A21.2598 21.2598 0 0 1 42.52 314.38 A21.2598 21.2598 0 1 1 0 314.38 Z" class="st1"/>
			<text x="15.92" y="319.18" class="st11">C</text>		</g>
		<g id="shape58-211" transform="translate(784.354,-132.386)">
			<title>Circle.48</title>
			<desc>D</desc>
			<path d="M0 314.38 A21.2598 21.2598 0 0 1 42.52 314.38 A21.2598 21.2598 0 1 1 0 314.38 Z" class="st1"/>
			<text x="15.48" y="319.18" class="st11">D</text>		</g>
		<g id="shape59-214" transform="translate(897.74,-132.386)">
			<title>Circle.49</title>
			<desc>E</desc>
			<path d="M0 314.38 A21.2598 21.2598 0 0 1 42.52 314.38 A21.2598 21.2598 0 1 1 0 314.38 Z" class="st1"/>
			<text x="16.37" y="319.18" class="st11">E</text>		</g>
		<g id="shape60-217" transform="translate(1011.13,-132.386)">
			<title>Circle.50</title>
			<desc>F</desc>
			<path d="M0 314.38 A21.2598 21.2598 0 0 1 42.52 314.38 A21.2598 21.2598 0 1 1 0 314.38 Z" class="st1"/>
			<text x="16.81" y="319.18" class="st11">F</text>		</g>
		<g id="shape61-220" transform="translate(826.874,-267.032)">
			<title>Sheet.61</title>
			<path d="M0 335.64 L70.87 335.64" class="st12"/>
		</g>
		<g id="shape62-223" transform="translate(1141.25,89.8661) rotate(90)">
			<title>Sheet.62</title>
			<path d="M0 335.64 L70.87 335.64" class="st13"/>
		</g>
		<g id="shape63-226" transform="translate(826.874,-153.646)">
			<title>Sheet.63</title>
			<path d="M0 335.64 L70.87 335.64" class="st12"/>
		</g>
		<g id="shape64-229" transform="translate(940.26,-153.646)">
			<title>Sheet.64</title>
			<path d="M0 335.64 L70.87 335.64" class="st12"/>
		</g>
		<g id="shape65-232" transform="translate(940.26,-267.032)">
			<title>Sheet.65</title>
			<path d="M0 335.64 L70.87 335.64" class="st13"/>
		</g>
		<g id="shape66-235" transform="translate(1254.64,89.8661) rotate(90)">
			<title>Sheet.66</title>
			<path d="M0 335.64 L70.87 335.64" class="st12"/>
		</g>
		<g id="shape67-238" transform="translate(1368.02,89.8661) rotate(90)">
			<title>Sheet.67</title>
			<path d="M0 335.64 L70.87 335.64" class="st12"/>
		</g>
		<g id="shape68-241" transform="translate(1254.68,320.973) rotate(135)">
			<title>Sheet.68</title>
			<path d="M0 335.64 L117.83 335.64" class="st13"/>
		</g>
		<g id="shape69-244" transform="translate(1141.3,320.973) rotate(135)">
			<title>Sheet.69</title>
			<path d="M0 335.64 L117.83 335.64" class="st13"/>
		</g>
		<g id="shape70-247" transform="translate(770.181,-189.079)">
			<title>Sheet.70</title>
			<desc>3</desc>
			<rect x="0" y="293.118" width="42.5197" height="42.5197" class="st7"/>
			<text x="17.26" y="319.18" class="st11">3</text>		</g>
		<g id="shape71-250" transform="translate(1025.3,-189.079)">
			<title>Sheet.71</title>
			<desc>2</desc>
			<rect x="0" y="293.118" width="42.5197" height="42.5197" class="st7"/>
			<text x="17.26" y="319.18" class="st11">2</text>		</g>
		<g id="shape72-253" transform="translate(883.567,-189.079)">
			<title>Sheet.72</title>
			<desc>1</desc>
			<rect x="0" y="293.118" width="42.5197" height="42.5197" class="st7"/>
			<text x="17.26" y="319.18" class="st11">1</text>		</g>
		<g id="shape73-256" transform="translate(841.047,-146.559)">
			<title>Sheet.73</title>
			<desc>1</desc>
			<rect x="0" y="293.118" width="42.5197" height="42.5197" class="st7"/>
			<text x="17.26" y="319.18" class="st11">1</text>		</g>
		<g id="shape74-259" transform="translate(954.433,-146.559)">
			<title>Sheet.74</title>
			<desc>4</desc>
			<rect x="0" y="293.118" width="42.5197" height="42.5197" class="st7"/>
			<text x="17.26" y="319.18" class="st11">4</text>		</g>
		<g id="shape75-262" transform="translate(826.874,-189.079)">
			<title>Sheet.75</title>
			<desc>5</desc>
			<rect x="0" y="293.118" width="42.5197" height="42.5197" class="st7"/>
			<text x="17.26" y="319.18" class="st11">5</text>		</g>
		<g id="shape76-265" transform="translate(940.26,-189.079)">
			<title>Sheet.76</title>
			<desc>5</desc>
			<rect x="0" y="293.118" width="42.5197" height="42.5197" class="st7"/>
			<text x="17.26" y="319.18" class="st11">5</text>		</g>
		<g id="shape77-268" transform="translate(841.047,-259.945)">
			<title>Sheet.77</title>
			<desc>1</desc>
			<rect x="0" y="293.118" width="42.5197" height="42.5197" class="st7"/>
			<text x="17.26" y="319.18" class="st11">1</text>		</g>
		<g id="shape78-271" transform="translate(954.433,-259.945)">
			<title>Sheet.78</title>
			<desc>6</desc>
			<rect x="0" y="293.118" width="42.5197" height="42.5197" class="st7"/>
			<text x="17.26" y="319.18" class="st11">6</text>		</g>
		<g id="shape79-274" transform="translate(770.181,-118.213)">
			<title>Sheet.79</title>
			<path d="M0 335.64 L297.64 335.64 L297.64 137.21 L0 137.21 L0 335.64 Z" class="st9"/>
		</g>
	</g>
</svg>
