<?xml version="1.0" encoding="UTF-8" standalone="no"?>
<!DOCTYPE svg PUBLIC "-//W3C//DTD SVG 1.1//EN" "http://www.w3.org/Graphics/SVG/1.1/DTD/svg11.dtd">
<!-- Illustrator: Larry Huang -->
<svg xmlns="http://www.w3.org/2000/svg" xmlns:xlink="http://www.w3.org/1999/xlink" xmlns:ev="http://www.w3.org/2001/xml-events"
		width="6.21908in" height="7.20333in" viewBox="0 0 447.774 518.64" xml:space="preserve" color-interpolation-filters="sRGB"
		class="st17">
	<style type="text/css">
	<![CDATA[
		.st1 {fill:none;stroke:none;stroke-linecap:round;stroke-linejoin:round;stroke-width:0.75}
		.st2 {fill:#0000ff;font-family:Times New Roman;font-size:1.99999em}
		.st3 {fill:#000000;font-family:Times New Roman;font-size:1.33333em}
		.st4 {stroke:#000000;stroke-linecap:round;stroke-linejoin:round;stroke-width:0.75}
		.st5 {fill:#000000;font-family:Times New Roman;font-size:1.16666em}
		.st6 {fill:#7f7f7f;font-family:Times New Roman;font-size:1.16666em}
		.st7 {fill:#ff0000;font-family:Times New Roman;font-size:1.16666em}
		.st8 {fill:#7f7f7f;font-family:Times New Roman;font-size:1.00001em}
		.st9 {fill:#7f7f7f;font-family:Times New Roman;font-size:1.33333em}
		.st10 {fill:#ff0000;font-family:Times New Roman;font-size:1.33333em}
		.st11 {marker-end:url(#mrkr5-96);stroke:#ff0000;stroke-linecap:round;stroke-linejoin:round;stroke-width:0.75}
		.st12 {fill:#ff0000;fill-opacity:1;stroke:#ff0000;stroke-opacity:1;stroke-width:0.22935779816514}
		.st13 {marker-end:url(#mrkr5-102);stroke:#000000;stroke-dasharray:0.75,1.5;stroke-linecap:round;stroke-linejoin:round;stroke-width:0.75}
		.st14 {fill:#000000;fill-opacity:1;stroke:#000000;stroke-opacity:1;stroke-width:0.22935779816514}
		.st15 {marker-end:url(#mrkr5-111);stroke:#7f7f7f;stroke-linecap:round;stroke-linejoin:round;stroke-width:0.75}
		.st16 {fill:#7f7f7f;fill-opacity:1;stroke:#7f7f7f;stroke-opacity:1;stroke-width:0.22935779816514}
		.st17 {fill:none;fill-rule:evenodd;font-size:12px;overflow:visible;stroke-linecap:square;stroke-miterlimit:3}
	]]>
	</style>

	<defs id="Markers">
		<g id="lend5">
			<path d="M 2 1 L 0 0 L 1.98117 -0.993387 C 1.67173 -0.364515 1.67301 0.372641 1.98465 1.00043 " style="stroke:none"/>
		</g>
		<marker id="mrkr5-96" class="st12" refX="-7.63" orient="auto" markerUnits="strokeWidth" overflow="visible">
			<use xlink:href="#lend5" transform="scale(-4.36,-4.36) "/>
		</marker>
		<marker id="mrkr5-102" class="st14" refX="-7.63" orient="auto" markerUnits="strokeWidth" overflow="visible">
			<use xlink:href="#lend5" transform="scale(-4.36,-4.36) "/>
		</marker>
		<marker id="mrkr5-111" class="st16" refX="-7.63" orient="auto" markerUnits="strokeWidth" overflow="visible">
			<use xlink:href="#lend5" transform="scale(-4.36,-4.36) "/>
		</marker>
	</defs>
	<g>
		<title>頁-1</title>
		<g id="shape1-1" transform="translate(18.375,-471.918)">
			<title>Sheet.1</title>
			<desc>GCD (Greatest Common Divisor)</desc>
			<rect x="0" y="490.293" width="340.157" height="28.3464" class="st1"/>
			<text x="7.1" y="511.67" class="st2">GCD (Greatest Common Divisor)</text>		</g>
		<g id="shape36-4" transform="translate(46.7215,-415.225)">
			<title>Sheet.36</title>
			<desc>GCD(99, 63) = 9 = GCD(63, 99)</desc>
			<rect x="0" y="490.293" width="240.945" height="28.3464" class="st1"/>
			<text x="7.01" y="509.27" class="st3">GCD(99, 63)  =  9  =  GCD(63, 99)</text>		</g>
		<g id="shape38-7" transform="translate(18.375,-75.068)">
			<title>Sheet.38</title>
			<desc>LCM (Least Common Multiple)</desc>
			<rect x="0" y="490.293" width="325.984" height="28.3465" class="st1"/>
			<text x="8.01" y="511.67" class="st2">LCM (Least Common Multiple)</text>		</g>
		<g id="shape39-10" transform="translate(46.7215,-18.375)">
			<title>Sheet.39</title>
			<desc>LCM(m, n) = (m / GCD(m, n)) * n</desc>
			<rect x="0" y="476.12" width="240.945" height="42.5197" class="st1"/>
			<text x="8.86" y="502.18" class="st3">LCM(m, n) = (m / GCD(m, n)) * n</text>		</g>
		<g id="shape2-13" transform="translate(721.267,160.107) rotate(90)">
			<title>Sheet.2</title>
			<path d="M0 518.64 L155.91 518.64" class="st4"/>
		</g>
		<g id="shape3-16" transform="translate(891.346,160.107) rotate(90)">
			<title>Sheet.3</title>
			<path d="M0 518.64 L155.91 518.64" class="st4"/>
		</g>
		<g id="shape4-19" transform="translate(806.306,160.107) rotate(90)">
			<title>Sheet.4</title>
			<path d="M0 518.64 L155.91 518.64" class="st4"/>
		</g>
		<g id="shape5-22" transform="translate(202.627,-330.186)">
			<title>Sheet.5</title>
			<desc>99</desc>
			<rect x="0" y="490.293" width="85.0394" height="28.3465" class="st1"/>
			<text x="35.52" y="508.67" class="st5">99</text>		</g>
		<g id="shape6-25" transform="translate(287.666,-330.186)">
			<title>Sheet.6</title>
			<desc>63</desc>
			<rect x="0" y="490.293" width="85.0394" height="28.3465" class="st1"/>
			<text x="35.52" y="508.67" class="st5">63</text>		</g>
		<g id="shape7-28" transform="translate(202.627,-301.84)">
			<title>Sheet.7</title>
			<desc>63</desc>
			<rect x="0" y="490.293" width="85.0394" height="28.3464" class="st1"/>
			<text x="35.52" y="508.67" class="st5">63</text>		</g>
		<g id="shape8-31" transform="translate(174.281,-330.186)">
			<title>Sheet.8</title>
			<desc>1</desc>
			<rect x="0" y="490.293" width="28.3465" height="28.3465" class="st1"/>
			<text x="10.67" y="508.67" class="st6">1</text>		</g>
		<g id="shape9-34" transform="translate(202.627,-301.84)">
			<title>Sheet.9</title>
			<path d="M0 518.64 L85.04 518.64" class="st4"/>
		</g>
		<g id="shape10-37" transform="translate(202.627,-273.493)">
			<title>Sheet.10</title>
			<desc>36</desc>
			<rect x="0" y="490.293" width="85.0394" height="28.3465" class="st1"/>
			<text x="35.52" y="508.67" class="st5">36</text>		</g>
		<g id="shape11-40" transform="translate(287.666,-301.84)">
			<title>Sheet.11</title>
			<desc>36</desc>
			<rect x="0" y="490.293" width="85.0394" height="28.3464" class="st1"/>
			<text x="35.52" y="508.67" class="st5">36</text>		</g>
		<g id="shape12-43" transform="translate(372.706,-330.186)">
			<title>Sheet.12</title>
			<desc>1</desc>
			<rect x="0" y="490.293" width="28.3465" height="28.3465" class="st1"/>
			<text x="10.67" y="508.67" class="st6">1</text>		</g>
		<g id="shape13-46" transform="translate(287.666,-301.84)">
			<title>Sheet.13</title>
			<path d="M0 518.64 L85.04 518.64" class="st4"/>
		</g>
		<g id="shape14-49" transform="translate(287.666,-273.493)">
			<title>Sheet.14</title>
			<desc>27</desc>
			<rect x="0" y="490.293" width="85.0394" height="28.3465" class="st1"/>
			<text x="35.52" y="508.67" class="st5">27</text>		</g>
		<g id="shape15-52" transform="translate(202.627,-245.147)">
			<title>Sheet.15</title>
			<desc>27</desc>
			<rect x="0" y="490.293" width="85.0394" height="28.3464" class="st1"/>
			<text x="35.52" y="508.67" class="st5">27</text>		</g>
		<g id="shape16-55" transform="translate(174.281,-273.493)">
			<title>Sheet.16</title>
			<desc>1</desc>
			<rect x="0" y="490.293" width="28.3465" height="28.3465" class="st1"/>
			<text x="10.67" y="508.67" class="st6">1</text>		</g>
		<g id="shape17-58" transform="translate(202.627,-245.147)">
			<title>Sheet.17</title>
			<path d="M0 518.64 L85.04 518.64" class="st4"/>
		</g>
		<g id="shape18-61" transform="translate(202.627,-216.8)">
			<title>Sheet.18</title>
			<desc>9</desc>
			<rect x="0" y="490.293" width="85.0394" height="28.3465" class="st1"/>
			<text x="39.02" y="508.67" class="st7">9</text>		</g>
		<g id="shape19-64" transform="translate(287.666,-245.147)">
			<title>Sheet.19</title>
			<desc>27</desc>
			<rect x="0" y="490.293" width="85.0394" height="28.3464" class="st1"/>
			<text x="35.52" y="508.67" class="st5">27</text>		</g>
		<g id="shape20-67" transform="translate(287.666,-245.147)">
			<title>Sheet.20</title>
			<path d="M0 518.64 L85.04 518.64" class="st4"/>
		</g>
		<g id="shape21-70" transform="translate(287.666,-216.8)">
			<title>Sheet.21</title>
			<desc>0</desc>
			<rect x="0" y="490.293" width="85.0394" height="28.3465" class="st1"/>
			<text x="39.02" y="508.67" class="st5">0</text>		</g>
		<g id="shape22-73" transform="translate(372.706,-273.493)">
			<title>Sheet.22</title>
			<desc>3</desc>
			<rect x="0" y="490.293" width="28.3465" height="28.3465" class="st1"/>
			<text x="10.67" y="508.67" class="st6">3</text>		</g>
		<g id="shape23-76" transform="translate(145.934,-358.533)">
			<title>Sheet.23</title>
			<desc>quotient</desc>
			<rect x="0" y="476.12" width="56.6929" height="42.5197" class="st1"/>
			<text x="13.36" y="500.98" class="st8">quotient</text>		</g>
		<g id="shape24-79" transform="translate(372.706,-358.533)">
			<title>Sheet.24</title>
			<desc>quotient</desc>
			<rect x="0" y="476.12" width="56.6929" height="42.5197" class="st1"/>
			<text x="4" y="500.98" class="st8">quotient</text>		</g>
		<g id="shape25-82" transform="translate(202.627,-358.533)">
			<title>Sheet.25</title>
			<desc>m</desc>
			<rect x="0" y="476.12" width="85.0394" height="42.5197" class="st1"/>
			<text x="36.3" y="502.18" class="st9">m</text>		</g>
		<g id="shape26-85" transform="translate(287.666,-358.533)">
			<title>Sheet.26</title>
			<desc>n</desc>
			<rect x="0" y="476.12" width="85.0394" height="42.5197" class="st1"/>
			<text x="38.52" y="502.18" class="st9">n</text>		</g>
		<g id="shape27-88" transform="translate(216.8,-160.107)">
			<title>Sheet.27</title>
			<desc>GCD</desc>
			<rect x="0" y="490.293" width="56.6929" height="28.3465" class="st1"/>
			<text x="11.46" y="509.27" class="st10">GCD</text>		</g>
		<g id="shape28-91" transform="translate(-273.493,330.186) rotate(-90)">
			<title>Sheet.28</title>
			<path d="M0 518.64 L22.62 518.64" class="st11"/>
		</g>
		<g id="shape29-97" transform="translate(547.956,638.166) rotate(153.435)">
			<title>Sheet.29</title>
			<path d="M0 518.64 L57.66 518.64" class="st13"/>
		</g>
		<g id="shape30-103" transform="translate(287.666,-160.107)">
			<title>Sheet.30</title>
			<desc>remainder</desc>
			<rect x="0" y="490.293" width="85.0394" height="28.3465" class="st1"/>
			<text x="18.2" y="508.07" class="st8">remainder</text>		</g>
		<g id="shape31-106" transform="translate(-188.454,330.186) rotate(-90)">
			<title>Sheet.31</title>
			<path d="M0 518.64 L22.62 518.64" class="st15"/>
		</g>
		<g id="shape33-112" transform="translate(547.955,694.859) rotate(153.435)">
			<title>Sheet.33</title>
			<path d="M0 518.64 L57.66 518.64" class="st13"/>
		</g>
		<g id="shape34-117" transform="translate(27.3771,-232.912) rotate(-26.5651)">
			<title>Sheet.34</title>
			<path d="M0 518.64 L57.66 518.64" class="st13"/>
		</g>
		<g id="shape35-122" transform="translate(27.3771,-176.219) rotate(-26.5651)">
			<title>Sheet.35</title>
			<path d="M0 518.64 L57.66 518.64" class="st13"/>
		</g>
	</g>
</svg>
