<?xml version="1.0" encoding="UTF-8" standalone="no"?>
<!DOCTYPE svg PUBLIC "-//W3C//DTD SVG 1.1//EN" "http://www.w3.org/Graphics/SVG/1.1/DTD/svg11.dtd">
<!-- Illustrator: Larry Huang -->
<svg xmlns="http://www.w3.org/2000/svg" xmlns:xlink="http://www.w3.org/1999/xlink" xmlns:ev="http://www.w3.org/2001/xml-events"
		width="10.9399in" height="5.62853in" viewBox="0 0 787.676 405.254" xml:space="preserve" color-interpolation-filters="sRGB"
		class="st20">
	<style type="text/css">
	<![CDATA[
		.st1 {fill:none;stroke:#000000;stroke-linecap:round;stroke-linejoin:round;stroke-width:0.24}
		.st2 {fill:#000000;font-family:新細明體;font-size:0.833336em}
		.st3 {fill:#f2f2f2;stroke:#000000;stroke-linecap:round;stroke-linejoin:round;stroke-width:0.24}
		.st4 {marker-end:url(#mrkr5-54);marker-start:url(#mrkr5-52);stroke:#000000;stroke-linecap:round;stroke-linejoin:round;stroke-width:0.75}
		.st5 {fill:#000000;fill-opacity:1;stroke:#000000;stroke-opacity:1;stroke-width:0.22935779816514}
		.st6 {marker-end:url(#mrkr5-194);marker-start:url(#mrkr5-52);stroke:#000000;stroke-linecap:round;stroke-linejoin:round;stroke-width:0.75}
		.st7 {fill:#ff0000;font-family:新細明體;font-size:0.833336em}
		.st8 {stroke:#7f7f7f;stroke-linecap:round;stroke-linejoin:round;stroke-width:0.75}
		.st9 {fill:none;stroke:none;stroke-linecap:round;stroke-linejoin:round;stroke-width:0.75}
		.st10 {fill:#7f7f7f;font-family:新細明體;font-size:1.66667em}
		.st11 {fill:#7f7f7f;font-family:新細明體;font-size:1.5em}
		.st12 {fill:#7f7f7f;font-family:新細明體;font-size:1.33333em}
		.st13 {stroke:#bfbfbf;stroke-linecap:round;stroke-linejoin:round;stroke-width:0.75}
		.st14 {fill:#bfbfbf;font-family:新細明體;font-size:0.833336em}
		.st15 {stroke:#000000;stroke-linecap:round;stroke-linejoin:round;stroke-width:0.75}
		.st16 {fill:#0000ff;font-family:新細明體;font-size:0.833336em}
		.st17 {fill:#ff0000;font-family:新細明體;font-size:1.00001em}
		.st18 {fill:#0000ff;font-family:Times New Roman;font-size:1.99999em}
		.st19 {fill:#a5a5a5;font-family:新細明體;font-size:0.833336em}
		.st20 {fill:none;fill-rule:evenodd;font-size:12px;overflow:visible;stroke-linecap:square;stroke-miterlimit:3}
	]]>
	</style>

	<defs id="Markers">
		<g id="lend5">
			<path d="M 2 1 L 0 0 L 1.98117 -0.993387 C 1.67173 -0.364515 1.67301 0.372641 1.98465 1.00043 " style="stroke:none"/>
		</g>
		<marker id="mrkr5-52" class="st5" refX="7.15" orient="auto" markerUnits="strokeWidth" overflow="visible">
			<use xlink:href="#lend5" transform="scale(4.36) "/>
		</marker>
		<marker id="mrkr5-54" class="st5" refX="-7.15" orient="auto" markerUnits="strokeWidth" overflow="visible">
			<use xlink:href="#lend5" transform="scale(-4.36,-4.36) "/>
		</marker>
		<marker id="mrkr5-194" class="st5" refX="-7.63" orient="auto" markerUnits="strokeWidth" overflow="visible">
			<use xlink:href="#lend5" transform="scale(-4.36,-4.36) "/>
		</marker>
	</defs>
	<g>
		<title>頁-1</title>
		<g id="shape1-1" transform="translate(471.663,-358.532)">
			<title>方形</title>
			<desc>A</desc>
			<rect x="0" y="391.081" width="14.1732" height="14.1732" class="st1"/>
			<text x="4" y="401.17" class="st2">A</text>		</g>
		<g id="shape2-4" transform="translate(485.837,-358.532)">
			<title>方形.2</title>
			<desc>B</desc>
			<rect x="0" y="391.081" width="14.1732" height="14.1732" class="st1"/>
			<text x="4" y="401.17" class="st2">B</text>		</g>
		<g id="shape3-7" transform="translate(500.01,-358.532)">
			<title>方形.3</title>
			<desc>C</desc>
			<rect x="0" y="391.081" width="14.1732" height="14.1732" class="st1"/>
			<text x="4" y="401.17" class="st2">C</text>		</g>
		<g id="shape4-10" transform="translate(514.183,-358.532)">
			<title>方形.4</title>
			<desc>D</desc>
			<rect x="0" y="391.081" width="14.1732" height="14.1732" class="st1"/>
			<text x="4" y="401.17" class="st2">D</text>		</g>
		<g id="shape5-13" transform="translate(528.356,-358.532)">
			<title>方形.5</title>
			<desc>E</desc>
			<rect x="0" y="391.081" width="14.1732" height="14.1732" class="st1"/>
			<text x="4.22" y="401.17" class="st2">E</text>		</g>
		<g id="shape8-16" transform="translate(372.451,-273.493)">
			<title>方形.8</title>
			<desc>B</desc>
			<rect x="0" y="391.081" width="14.1732" height="14.1732" class="st3"/>
			<text x="4" y="401.17" class="st2">B</text>		</g>
		<g id="shape9-19" transform="translate(386.624,-273.493)">
			<title>方形.9</title>
			<desc>A</desc>
			<rect x="0" y="391.081" width="14.1732" height="14.1732" class="st1"/>
			<text x="4" y="401.17" class="st2">A</text>		</g>
		<g id="shape10-22" transform="translate(400.797,-273.493)">
			<title>方形.10</title>
			<desc>C</desc>
			<rect x="0" y="391.081" width="14.1732" height="14.1732" class="st1"/>
			<text x="4" y="401.17" class="st2">C</text>		</g>
		<g id="shape11-25" transform="translate(414.97,-273.493)">
			<title>方形.11</title>
			<desc>D</desc>
			<rect x="0" y="391.081" width="14.1732" height="14.1732" class="st1"/>
			<text x="4" y="401.17" class="st2">D</text>		</g>
		<g id="shape12-28" transform="translate(429.144,-273.493)">
			<title>方形.12</title>
			<desc>E</desc>
			<rect x="0" y="391.081" width="14.1732" height="14.1732" class="st1"/>
			<text x="4.22" y="401.17" class="st2">E</text>		</g>
		<g id="shape13-31" transform="translate(230.718,-202.627)">
			<title>方形.13</title>
			<desc>A</desc>
			<rect x="0" y="391.081" width="14.1732" height="14.1732" class="st1"/>
			<text x="4" y="401.17" class="st2">A</text>		</g>
		<g id="shape14-34" transform="translate(244.892,-202.627)">
			<title>方形.14</title>
			<desc>C</desc>
			<rect x="0" y="391.081" width="14.1732" height="14.1732" class="st3"/>
			<text x="4" y="401.17" class="st2">C</text>		</g>
		<g id="shape15-37" transform="translate(259.065,-202.627)">
			<title>方形.15</title>
			<desc>B</desc>
			<rect x="0" y="391.081" width="14.1732" height="14.1732" class="st1"/>
			<text x="4" y="401.17" class="st2">B</text>		</g>
		<g id="shape16-40" transform="translate(273.238,-202.627)">
			<title>方形.16</title>
			<desc>D</desc>
			<rect x="0" y="391.081" width="14.1732" height="14.1732" class="st1"/>
			<text x="4" y="401.17" class="st2">D</text>		</g>
		<g id="shape17-43" transform="translate(287.411,-202.627)">
			<title>方形.17</title>
			<desc>E</desc>
			<rect x="0" y="391.081" width="14.1732" height="14.1732" class="st1"/>
			<text x="4.22" y="401.17" class="st2">E</text>		</g>
		<g id="shape18-46" transform="translate(379.537,-287.666)">
			<title>Sheet.18</title>
			<path d="M1.29 400.05 L1.38 399.7 A10.022 48.3904 0 0 1 12.8 399.7 L12.88 400.05" class="st4"/>
		</g>
		<g id="shape19-55" transform="translate(251.978,-216.8)">
			<title>Sheet.19</title>
			<path d="M1.29 400.05 L1.38 399.7 A10.022 48.3904 0 0 1 12.8 399.7 L12.88 400.05" class="st4"/>
		</g>
		<g id="shape20-62" transform="translate(145.679,-131.761)">
			<title>方形.20</title>
			<desc>A</desc>
			<rect x="0" y="391.081" width="14.1732" height="14.1732" class="st1"/>
			<text x="4" y="401.17" class="st2">A</text>		</g>
		<g id="shape21-65" transform="translate(159.852,-131.761)">
			<title>方形.21</title>
			<desc>B</desc>
			<rect x="0" y="391.081" width="14.1732" height="14.1732" class="st1"/>
			<text x="4" y="401.17" class="st2">B</text>		</g>
		<g id="shape22-68" transform="translate(174.026,-131.761)">
			<title>方形.22</title>
			<desc>D</desc>
			<rect x="0" y="391.081" width="14.1732" height="14.1732" class="st3"/>
			<text x="4" y="401.17" class="st2">D</text>		</g>
		<g id="shape23-71" transform="translate(188.199,-131.761)">
			<title>方形.23</title>
			<desc>C</desc>
			<rect x="0" y="391.081" width="14.1732" height="14.1732" class="st1"/>
			<text x="4" y="401.17" class="st2">C</text>		</g>
		<g id="shape24-74" transform="translate(202.372,-131.761)">
			<title>方形.24</title>
			<desc>E</desc>
			<rect x="0" y="391.081" width="14.1732" height="14.1732" class="st1"/>
			<text x="4.22" y="401.17" class="st2">E</text>		</g>
		<g id="shape25-77" transform="translate(181.112,-145.934)">
			<title>Sheet.25</title>
			<path d="M1.29 400.05 L1.38 399.7 A10.022 48.3904 0 0 1 12.8 399.7 L12.88 400.05" class="st4"/>
		</g>
		<g id="shape26-84" transform="translate(103.159,-60.8947)">
			<title>方形.26</title>
			<desc>A</desc>
			<rect x="0" y="391.081" width="14.1732" height="14.1732" class="st1"/>
			<text x="4" y="401.17" class="st2">A</text>		</g>
		<g id="shape27-87" transform="translate(117.333,-60.8947)">
			<title>方形.27</title>
			<desc>B</desc>
			<rect x="0" y="391.081" width="14.1732" height="14.1732" class="st1"/>
			<text x="4" y="401.17" class="st2">B</text>		</g>
		<g id="shape28-90" transform="translate(131.506,-60.8947)">
			<title>方形.28</title>
			<desc>C</desc>
			<rect x="0" y="391.081" width="14.1732" height="14.1732" class="st1"/>
			<text x="4" y="401.17" class="st2">C</text>		</g>
		<g id="shape29-93" transform="translate(145.679,-60.8947)">
			<title>方形.29</title>
			<desc>E</desc>
			<rect x="0" y="391.081" width="14.1732" height="14.1732" class="st3"/>
			<text x="4.22" y="401.17" class="st2">E</text>		</g>
		<g id="shape30-96" transform="translate(159.852,-60.8947)">
			<title>方形.30</title>
			<desc>D</desc>
			<rect x="0" y="391.081" width="14.1732" height="14.1732" class="st1"/>
			<text x="4" y="401.17" class="st2">D</text>		</g>
		<g id="shape31-99" transform="translate(152.766,-75.0679)">
			<title>Sheet.31</title>
			<path d="M1.29 400.05 L1.38 399.7 A10.022 48.3904 0 0 1 12.8 399.7 L12.88 400.05" class="st4"/>
		</g>
		<g id="shape32-106" transform="translate(471.663,-273.493)">
			<title>方形.32</title>
			<desc>C</desc>
			<rect x="0" y="391.081" width="14.1732" height="14.1732" class="st3"/>
			<text x="4" y="401.17" class="st2">C</text>		</g>
		<g id="shape33-109" transform="translate(485.837,-273.493)">
			<title>方形.33</title>
			<desc>B</desc>
			<rect x="0" y="391.081" width="14.1732" height="14.1732" class="st1"/>
			<text x="4" y="401.17" class="st2">B</text>		</g>
		<g id="shape34-112" transform="translate(500.01,-273.493)">
			<title>方形.34</title>
			<desc>A</desc>
			<rect x="0" y="391.081" width="14.1732" height="14.1732" class="st1"/>
			<text x="4" y="401.17" class="st2">A</text>		</g>
		<g id="shape35-115" transform="translate(514.183,-273.493)">
			<title>方形.35</title>
			<desc>D</desc>
			<rect x="0" y="391.081" width="14.1732" height="14.1732" class="st1"/>
			<text x="4" y="401.17" class="st2">D</text>		</g>
		<g id="shape36-118" transform="translate(528.356,-273.493)">
			<title>方形.36</title>
			<desc>E</desc>
			<rect x="0" y="391.081" width="14.1732" height="14.1732" class="st1"/>
			<text x="4.22" y="401.17" class="st2">E</text>		</g>
		<g id="shape37-121" transform="translate(478.75,-287.666)">
			<title>Sheet.37</title>
			<path d="M2.35 400.44 L2.51 400.11 A20.044 48.3904 0 0 1 25.83 400.11 L25.99 400.44" class="st4"/>
		</g>
		<g id="shape38-128" transform="translate(570.876,-273.493)">
			<title>方形.38</title>
			<desc>D</desc>
			<rect x="0" y="391.081" width="14.1732" height="14.1732" class="st3"/>
			<text x="4" y="401.17" class="st2">D</text>		</g>
		<g id="shape39-131" transform="translate(585.049,-273.493)">
			<title>方形.39</title>
			<desc>B</desc>
			<rect x="0" y="391.081" width="14.1732" height="14.1732" class="st1"/>
			<text x="4" y="401.17" class="st2">B</text>		</g>
		<g id="shape40-134" transform="translate(599.222,-273.493)">
			<title>方形.40</title>
			<desc>C</desc>
			<rect x="0" y="391.081" width="14.1732" height="14.1732" class="st1"/>
			<text x="4" y="401.17" class="st2">C</text>		</g>
		<g id="shape41-137" transform="translate(613.396,-273.493)">
			<title>方形.41</title>
			<desc>A</desc>
			<rect x="0" y="391.081" width="14.1732" height="14.1732" class="st1"/>
			<text x="4" y="401.17" class="st2">A</text>		</g>
		<g id="shape42-140" transform="translate(627.569,-273.493)">
			<title>方形.42</title>
			<desc>E</desc>
			<rect x="0" y="391.081" width="14.1732" height="14.1732" class="st1"/>
			<text x="4.22" y="401.17" class="st2">E</text>		</g>
		<g id="shape43-143" transform="translate(577.963,-287.666)">
			<title>Sheet.43</title>
			<path d="M3.13 400.9 L3.34 400.61 A30.066 48.3904 0 0 1 39.18 400.61 L39.39 400.9" class="st4"/>
		</g>
		<g id="shape44-150" transform="translate(670.089,-273.493)">
			<title>方形.44</title>
			<desc>E</desc>
			<rect x="0" y="391.081" width="14.1732" height="14.1732" class="st3"/>
			<text x="4.22" y="401.17" class="st2">E</text>		</g>
		<g id="shape45-153" transform="translate(684.262,-273.493)">
			<title>方形.45</title>
			<desc>B</desc>
			<rect x="0" y="391.081" width="14.1732" height="14.1732" class="st1"/>
			<text x="4" y="401.17" class="st2">B</text>		</g>
		<g id="shape46-156" transform="translate(698.435,-273.493)">
			<title>方形.46</title>
			<desc>C</desc>
			<rect x="0" y="391.081" width="14.1732" height="14.1732" class="st1"/>
			<text x="4" y="401.17" class="st2">C</text>		</g>
		<g id="shape47-159" transform="translate(712.608,-273.493)">
			<title>方形.47</title>
			<desc>D</desc>
			<rect x="0" y="391.081" width="14.1732" height="14.1732" class="st1"/>
			<text x="4" y="401.17" class="st2">D</text>		</g>
		<g id="shape48-162" transform="translate(726.781,-273.493)">
			<title>方形.48</title>
			<desc>A</desc>
			<rect x="0" y="391.081" width="14.1732" height="14.1732" class="st1"/>
			<text x="4" y="401.17" class="st2">A</text>		</g>
		<g id="shape49-165" transform="translate(677.175,-287.666)">
			<title>Sheet.49</title>
			<path d="M3.68 401.35 L3.93 401.09 A40.0879 48.3904 0 0 1 52.76 401.09 L53.01 401.35" class="st4"/>
		</g>
		<g id="shape50-172" transform="translate(273.238,-273.493)">
			<title>方形.50</title>
			<desc>A</desc>
			<rect x="0" y="391.081" width="14.1732" height="14.1732" class="st3"/>
			<text x="4" y="401.17" class="st2">A</text>		</g>
		<g id="shape51-175" transform="translate(287.411,-273.493)">
			<title>方形.51</title>
			<desc>B</desc>
			<rect x="0" y="391.081" width="14.1732" height="14.1732" class="st1"/>
			<text x="4" y="401.17" class="st2">B</text>		</g>
		<g id="shape52-178" transform="translate(301.585,-273.493)">
			<title>方形.52</title>
			<desc>C</desc>
			<rect x="0" y="391.081" width="14.1732" height="14.1732" class="st1"/>
			<text x="4" y="401.17" class="st2">C</text>		</g>
		<g id="shape53-181" transform="translate(315.758,-273.493)">
			<title>方形.53</title>
			<desc>D</desc>
			<rect x="0" y="391.081" width="14.1732" height="14.1732" class="st1"/>
			<text x="4" y="401.17" class="st2">D</text>		</g>
		<g id="shape54-184" transform="translate(329.931,-273.493)">
			<title>方形.54</title>
			<desc>E</desc>
			<rect x="0" y="391.081" width="14.1732" height="14.1732" class="st1"/>
			<text x="4.22" y="401.17" class="st2">E</text>		</g>
		<g id="shape55-187" transform="translate(280.325,-287.666)">
			<title>Sheet.55</title>
			<path d="M0 399.89 L0 399.53 L0 391.08 L0 399.53" class="st6"/>
		</g>
		<g id="shape56-195" transform="translate(315.758,-202.627)">
			<title>方形.56</title>
			<desc>A</desc>
			<rect x="0" y="391.081" width="14.1732" height="14.1732" class="st1"/>
			<text x="4" y="401.17" class="st2">A</text>		</g>
		<g id="shape57-198" transform="translate(329.931,-202.627)">
			<title>方形.57</title>
			<desc>D</desc>
			<rect x="0" y="391.081" width="14.1732" height="14.1732" class="st3"/>
			<text x="4" y="401.17" class="st2">D</text>		</g>
		<g id="shape58-201" transform="translate(344.104,-202.627)">
			<title>方形.58</title>
			<desc>C</desc>
			<rect x="0" y="391.081" width="14.1732" height="14.1732" class="st1"/>
			<text x="4" y="401.17" class="st2">C</text>		</g>
		<g id="shape59-204" transform="translate(358.277,-202.627)">
			<title>方形.59</title>
			<desc>B</desc>
			<rect x="0" y="391.081" width="14.1732" height="14.1732" class="st1"/>
			<text x="4" y="401.17" class="st2">B</text>		</g>
		<g id="shape60-207" transform="translate(372.451,-202.627)">
			<title>方形.60</title>
			<desc>E</desc>
			<rect x="0" y="391.081" width="14.1732" height="14.1732" class="st1"/>
			<text x="4.22" y="401.17" class="st2">E</text>		</g>
		<g id="shape61-210" transform="translate(337.018,-216.8)">
			<title>Sheet.61</title>
			<path d="M2.35 400.44 L2.51 400.11 A20.044 48.3904 0 0 1 25.83 400.11 L25.99 400.44" class="st4"/>
		</g>
		<g id="shape62-217" transform="translate(400.797,-202.627)">
			<title>方形.62</title>
			<desc>A</desc>
			<rect x="0" y="391.081" width="14.1732" height="14.1732" class="st1"/>
			<text x="4" y="401.17" class="st2">A</text>		</g>
		<g id="shape63-220" transform="translate(414.97,-202.627)">
			<title>方形.63</title>
			<desc>E</desc>
			<rect x="0" y="391.081" width="14.1732" height="14.1732" class="st3"/>
			<text x="4.22" y="401.17" class="st2">E</text>		</g>
		<g id="shape64-223" transform="translate(429.144,-202.627)">
			<title>方形.64</title>
			<desc>C</desc>
			<rect x="0" y="391.081" width="14.1732" height="14.1732" class="st1"/>
			<text x="4" y="401.17" class="st2">C</text>		</g>
		<g id="shape65-226" transform="translate(443.317,-202.627)">
			<title>方形.65</title>
			<desc>D</desc>
			<rect x="0" y="391.081" width="14.1732" height="14.1732" class="st1"/>
			<text x="4" y="401.17" class="st2">D</text>		</g>
		<g id="shape66-229" transform="translate(457.49,-202.627)">
			<title>方形.66</title>
			<desc>B</desc>
			<rect x="0" y="391.081" width="14.1732" height="14.1732" class="st1"/>
			<text x="4" y="401.17" class="st2">B</text>		</g>
		<g id="shape67-232" transform="translate(422.057,-216.8)">
			<title>Sheet.67</title>
			<path d="M3.13 400.9 L3.34 400.61 A30.066 48.3904 0 0 1 39.18 400.61 L39.39 400.9" class="st4"/>
		</g>
		<g id="shape68-239" transform="translate(145.679,-202.627)">
			<title>方形.68</title>
			<desc>A</desc>
			<rect x="0" y="391.081" width="14.1732" height="14.1732" class="st1"/>
			<text x="4" y="401.17" class="st2">A</text>		</g>
		<g id="shape69-242" transform="translate(159.852,-202.627)">
			<title>方形.69</title>
			<desc>B</desc>
			<rect x="0" y="391.081" width="14.1732" height="14.1732" class="st3"/>
			<text x="4" y="401.17" class="st2">B</text>		</g>
		<g id="shape70-245" transform="translate(174.026,-202.627)">
			<title>方形.70</title>
			<desc>C</desc>
			<rect x="0" y="391.081" width="14.1732" height="14.1732" class="st1"/>
			<text x="4" y="401.17" class="st2">C</text>		</g>
		<g id="shape71-248" transform="translate(188.199,-202.627)">
			<title>方形.71</title>
			<desc>D</desc>
			<rect x="0" y="391.081" width="14.1732" height="14.1732" class="st1"/>
			<text x="4" y="401.17" class="st2">D</text>		</g>
		<g id="shape72-251" transform="translate(202.372,-202.627)">
			<title>方形.72</title>
			<desc>E</desc>
			<rect x="0" y="391.081" width="14.1732" height="14.1732" class="st1"/>
			<text x="4.22" y="401.17" class="st2">E</text>		</g>
		<g id="shape73-254" transform="translate(166.939,-216.8)">
			<title>Sheet.73</title>
			<path d="M0 399.89 L0 399.53 L0 391.08 L0 399.53" class="st6"/>
		</g>
		<g id="shape74-261" transform="translate(230.718,-131.761)">
			<title>方形.74</title>
			<desc>A</desc>
			<rect x="0" y="391.081" width="14.1732" height="14.1732" class="st1"/>
			<text x="4" y="401.17" class="st2">A</text>		</g>
		<g id="shape75-264" transform="translate(244.892,-131.761)">
			<title>方形.75</title>
			<desc>B</desc>
			<rect x="0" y="391.081" width="14.1732" height="14.1732" class="st1"/>
			<text x="4" y="401.17" class="st2">B</text>		</g>
		<g id="shape76-267" transform="translate(259.065,-131.761)">
			<title>方形.76</title>
			<desc>E</desc>
			<rect x="0" y="391.081" width="14.1732" height="14.1732" class="st3"/>
			<text x="4.22" y="401.17" class="st2">E</text>		</g>
		<g id="shape77-270" transform="translate(273.238,-131.761)">
			<title>方形.77</title>
			<desc>D</desc>
			<rect x="0" y="391.081" width="14.1732" height="14.1732" class="st1"/>
			<text x="4" y="401.17" class="st2">D</text>		</g>
		<g id="shape78-273" transform="translate(287.411,-131.761)">
			<title>方形.78</title>
			<desc>C</desc>
			<rect x="0" y="391.081" width="14.1732" height="14.1732" class="st1"/>
			<text x="4" y="401.17" class="st2">C</text>		</g>
		<g id="shape79-276" transform="translate(266.152,-145.934)">
			<title>Sheet.79</title>
			<path d="M2.35 400.44 L2.51 400.11 A20.044 48.3904 0 0 1 25.83 400.11 L25.99 400.44" class="st4"/>
		</g>
		<g id="shape80-283" transform="translate(60.6397,-131.761)">
			<title>方形.80</title>
			<desc>A</desc>
			<rect x="0" y="391.081" width="14.1732" height="14.1732" class="st1"/>
			<text x="4" y="401.17" class="st2">A</text>		</g>
		<g id="shape81-286" transform="translate(74.8129,-131.761)">
			<title>方形.81</title>
			<desc>B</desc>
			<rect x="0" y="391.081" width="14.1732" height="14.1732" class="st1"/>
			<text x="4" y="401.17" class="st2">B</text>		</g>
		<g id="shape82-289" transform="translate(88.9861,-131.761)">
			<title>方形.82</title>
			<desc>C</desc>
			<rect x="0" y="391.081" width="14.1732" height="14.1732" class="st3"/>
			<text x="4" y="401.17" class="st2">C</text>		</g>
		<g id="shape83-292" transform="translate(103.159,-131.761)">
			<title>方形.83</title>
			<desc>D</desc>
			<rect x="0" y="391.081" width="14.1732" height="14.1732" class="st1"/>
			<text x="4" y="401.17" class="st2">D</text>		</g>
		<g id="shape84-295" transform="translate(117.333,-131.761)">
			<title>方形.84</title>
			<desc>E</desc>
			<rect x="0" y="391.081" width="14.1732" height="14.1732" class="st1"/>
			<text x="4.22" y="401.17" class="st2">E</text>		</g>
		<g id="shape85-298" transform="translate(96.0728,-145.934)">
			<title>Sheet.85</title>
			<path d="M0 399.89 L0 399.53 L0 391.08 L0 399.53" class="st6"/>
		</g>
		<g id="shape86-305" transform="translate(18.12,-60.8947)">
			<title>方形.86</title>
			<desc>A</desc>
			<rect x="0" y="391.081" width="14.1732" height="14.1732" class="st1"/>
			<text x="4" y="401.17" class="st2">A</text>		</g>
		<g id="shape87-308" transform="translate(32.2932,-60.8947)">
			<title>方形.87</title>
			<desc>B</desc>
			<rect x="0" y="391.081" width="14.1732" height="14.1732" class="st1"/>
			<text x="4" y="401.17" class="st2">B</text>		</g>
		<g id="shape88-311" transform="translate(46.4665,-60.8947)">
			<title>方形.88</title>
			<desc>C</desc>
			<rect x="0" y="391.081" width="14.1732" height="14.1732" class="st1"/>
			<text x="4" y="401.17" class="st2">C</text>		</g>
		<g id="shape89-314" transform="translate(60.6397,-60.8947)">
			<title>方形.89</title>
			<desc>D</desc>
			<rect x="0" y="391.081" width="14.1732" height="14.1732" class="st3"/>
			<text x="4" y="401.17" class="st2">D</text>		</g>
		<g id="shape90-317" transform="translate(74.8129,-60.8947)">
			<title>方形.90</title>
			<desc>E</desc>
			<rect x="0" y="391.081" width="14.1732" height="14.1732" class="st1"/>
			<text x="4.22" y="401.17" class="st2">E</text>		</g>
		<g id="shape91-320" transform="translate(67.7263,-75.0679)">
			<title>Sheet.91</title>
			<path d="M0 399.89 L0 399.53 L0 391.08 L0 399.53" class="st6"/>
		</g>
		<g id="shape92-327" transform="translate(18.12,-18.375)">
			<title>方形.92</title>
			<desc>A</desc>
			<rect x="0" y="391.081" width="14.1732" height="14.1732" class="st1"/>
			<text x="4" y="401.17" class="st7">A</text>		</g>
		<g id="shape93-330" transform="translate(32.2932,-18.375)">
			<title>方形.93</title>
			<desc>B</desc>
			<rect x="0" y="391.081" width="14.1732" height="14.1732" class="st1"/>
			<text x="4" y="401.17" class="st7">B</text>		</g>
		<g id="shape94-333" transform="translate(46.4665,-18.375)">
			<title>方形.94</title>
			<desc>C</desc>
			<rect x="0" y="391.081" width="14.1732" height="14.1732" class="st1"/>
			<text x="4" y="401.17" class="st7">C</text>		</g>
		<g id="shape95-336" transform="translate(60.6397,-18.375)">
			<title>方形.95</title>
			<desc>D</desc>
			<rect x="0" y="391.081" width="14.1732" height="14.1732" class="st1"/>
			<text x="4" y="401.17" class="st7">D</text>		</g>
		<g id="shape96-339" transform="translate(74.8129,-18.375)">
			<title>方形.96</title>
			<desc>E</desc>
			<rect x="0" y="391.081" width="14.1732" height="14.1732" class="st1"/>
			<text x="4.22" y="401.17" class="st7">E</text>		</g>
		<g id="shape98-342" transform="translate(310.484,238.719) rotate(-97.125)">
			<title>Sheet.98</title>
			<path d="M0 405.25 L57.13 405.25" class="st8"/>
		</g>
		<g id="shape99-345" transform="translate(347.33,330.748) rotate(-110.556)">
			<title>Sheet.99</title>
			<path d="M0 405.25 L60.55 405.25" class="st8"/>
		</g>
		<g id="shape100-348" transform="translate(296.31,138.188) rotate(-82.875)">
			<title>Sheet.100</title>
			<path d="M0 405.25 L57.13 405.25" class="st8"/>
		</g>
		<g id="shape101-351" transform="translate(304.811,46.1596) rotate(-69.444)">
			<title>Sheet.101</title>
			<path d="M0 405.25 L60.55 405.25" class="st8"/>
		</g>
		<g id="shape102-354" transform="translate(655.915,-188.454)">
			<title>Sheet.102</title>
			<desc>………</desc>
			<rect x="0" y="376.907" width="99.2126" height="28.3465" class="st9"/>
			<text x="19.61" y="397.31" class="st10">………</text>		</g>
		<g id="shape103-357" transform="translate(436.603,-160.107)">
			<title>Sheet.103</title>
			<path d="M14.17 405.25 L0 362.73 L0 405.25" class="st8"/>
		</g>
		<g id="shape104-360" transform="translate(821.061,330.779) rotate(108.435)">
			<title>Sheet.104</title>
			<path d="M0 405.25 L44.82 405.25" class="st8"/>
		</g>
		<g id="shape105-363" transform="translate(394.084,-131.761)">
			<title>Sheet.105</title>
			<desc>………</desc>
			<rect x="0" y="376.907" width="85.0394" height="28.3465" class="st9"/>
			<text x="15.52" y="396.69" class="st11">………</text>		</g>
		<g id="shape106-366" transform="translate(251.605,-89.2411)">
			<title>Sheet.106</title>
			<path d="M28.35 405.25 L14.17 362.73 L0 405.25" class="st8"/>
		</g>
		<g id="shape107-369" transform="translate(713.925,344.359) rotate(90)">
			<title>Sheet.107</title>
			<path d="M0 405.25 L28.35 405.25" class="st8"/>
		</g>
		<g id="shape108-372" transform="translate(628.886,344.359) rotate(90)">
			<title>Sheet.108</title>
			<path d="M0 405.25 L28.35 405.25" class="st8"/>
		</g>
		<g id="shape109-375" transform="translate(244.892,-60.8947)">
			<title>Sheet.109</title>
			<desc>……</desc>
			<rect x="0" y="376.907" width="42.5197" height="28.3465" class="st9"/>
			<text x="5.26" y="396.06" class="st12">……</text>		</g>
		<g id="shape111-378" transform="translate(103.159,-18.375)">
			<title>方形.111</title>
			<desc>A</desc>
			<rect x="0" y="391.081" width="14.1732" height="14.1732" class="st1"/>
			<text x="4" y="401.17" class="st7">A</text>		</g>
		<g id="shape112-381" transform="translate(117.333,-18.375)">
			<title>方形.112</title>
			<desc>B</desc>
			<rect x="0" y="391.081" width="14.1732" height="14.1732" class="st1"/>
			<text x="4" y="401.17" class="st7">B</text>		</g>
		<g id="shape113-384" transform="translate(131.506,-18.375)">
			<title>方形.113</title>
			<desc>C</desc>
			<rect x="0" y="391.081" width="14.1732" height="14.1732" class="st1"/>
			<text x="4" y="401.17" class="st7">C</text>		</g>
		<g id="shape114-387" transform="translate(145.679,-18.375)">
			<title>方形.114</title>
			<desc>E</desc>
			<rect x="0" y="391.081" width="14.1732" height="14.1732" class="st1"/>
			<text x="4.22" y="401.17" class="st7">E</text>		</g>
		<g id="shape115-390" transform="translate(159.852,-18.375)">
			<title>方形.115</title>
			<desc>D</desc>
			<rect x="0" y="391.081" width="14.1732" height="14.1732" class="st1"/>
			<text x="4" y="401.17" class="st7">D</text>		</g>
		<g id="shape120-393" transform="translate(211.271,238.719) rotate(-97.125)">
			<title>Sheet.120</title>
			<path d="M0 405.25 L57.13 405.25" class="st8"/>
		</g>
		<g id="shape121-396" transform="translate(248.118,330.748) rotate(-110.556)">
			<title>Sheet.121</title>
			<path d="M0 405.25 L60.55 405.25" class="st8"/>
		</g>
		<g id="shape122-399" transform="translate(197.098,138.188) rotate(-82.875)">
			<title>Sheet.122</title>
			<path d="M0 405.25 L57.13 405.25" class="st8"/>
		</g>
		<g id="shape123-402" transform="translate(205.598,46.1596) rotate(-69.444)">
			<title>Sheet.123</title>
			<path d="M0 405.25 L60.55 405.25" class="st8"/>
		</g>
		<g id="shape124-405" transform="translate(556.703,-188.454)">
			<title>Sheet.124</title>
			<desc>………</desc>
			<rect x="0" y="376.907" width="99.2126" height="28.3465" class="st9"/>
			<text x="19.61" y="397.31" class="st10">………</text>		</g>
		<g id="shape125-408" transform="translate(112.058,238.719) rotate(-97.125)">
			<title>Sheet.125</title>
			<path d="M0 405.25 L57.13 405.25" class="st8"/>
		</g>
		<g id="shape126-411" transform="translate(148.905,330.748) rotate(-110.556)">
			<title>Sheet.126</title>
			<path d="M0 405.25 L60.55 405.25" class="st8"/>
		</g>
		<g id="shape127-414" transform="translate(97.8853,138.188) rotate(-82.875)">
			<title>Sheet.127</title>
			<path d="M0 405.25 L57.13 405.25" class="st8"/>
		</g>
		<g id="shape128-417" transform="translate(106.385,46.1596) rotate(-69.444)">
			<title>Sheet.128</title>
			<path d="M0 405.25 L60.55 405.25" class="st8"/>
		</g>
		<g id="shape129-420" transform="translate(457.49,-188.454)">
			<title>Sheet.129</title>
			<desc>………</desc>
			<rect x="0" y="376.907" width="99.2126" height="28.3465" class="st9"/>
			<text x="19.61" y="397.31" class="st10">………</text>		</g>
		<g id="shape130-423" transform="translate(9.75877,211.038) rotate(-97.125)">
			<title>Sheet.130</title>
			<path d="M0 405.25 L29.24 405.25" class="st13"/>
		</g>
		<g id="shape131-426" transform="translate(59.9599,341.342) rotate(-116.565)">
			<title>Sheet.131</title>
			<path d="M0 405.25 L31.69 405.25" class="st13"/>
		</g>
		<g id="shape132-429" transform="translate(2.47133,110.783) rotate(-82.875)">
			<title>Sheet.132</title>
			<path d="M0 405.25 L29.52 405.25" class="st13"/>
		</g>
		<g id="shape133-432" transform="translate(31.6134,-21.1278) rotate(-63.4349)">
			<title>Sheet.133</title>
			<path d="M0 405.25 L31.69 405.25" class="st13"/>
		</g>
		<g id="shape134-435" transform="translate(386.624,-230.973)">
			<title>Sheet.134</title>
			<desc>………</desc>
			<rect x="0" y="391.081" width="42.5197" height="14.1732" class="st9"/>
			<text x="6.26" y="401.28" class="st14">………</text>		</g>
		<g id="shape135-438" transform="translate(350.818,-160.107)">
			<title>Sheet.135</title>
			<path d="M14.17 405.25 L0 362.73 L0 405.25" class="st8"/>
		</g>
		<g id="shape136-441" transform="translate(735.276,330.779) rotate(108.435)">
			<title>Sheet.136</title>
			<path d="M0 405.25 L44.82 405.25" class="st8"/>
		</g>
		<g id="shape137-444" transform="translate(308.298,-131.761)">
			<title>Sheet.137</title>
			<desc>………</desc>
			<rect x="0" y="376.907" width="85.0394" height="28.3465" class="st9"/>
			<text x="15.52" y="396.69" class="st11">………</text>		</g>
		<g id="shape138-447" transform="translate(507.469,-160.107)">
			<title>Sheet.138</title>
			<path d="M14.17 405.25 L0 362.73 L0 405.25" class="st8"/>
		</g>
		<g id="shape139-450" transform="translate(891.927,330.779) rotate(108.435)">
			<title>Sheet.139</title>
			<path d="M0 405.25 L44.82 405.25" class="st8"/>
		</g>
		<g id="shape140-453" transform="translate(464.95,-131.761)">
			<title>Sheet.140</title>
			<desc>………</desc>
			<rect x="0" y="376.907" width="85.0394" height="28.3465" class="st9"/>
			<text x="15.52" y="396.69" class="st11">………</text>		</g>
		<g id="shape142-456" transform="translate(648.371,330.779) rotate(108.435)">
			<title>Sheet.142</title>
			<path d="M0 405.25 L29.49 405.25" class="st13"/>
		</g>
		<g id="shape144-459" transform="translate(669.168,202.627) rotate(90)">
			<title>Sheet.144</title>
			<path d="M0 405.25 L28.35 405.25" class="st13"/>
		</g>
		<g id="shape146-462" transform="translate(-120.544,330.779) rotate(71.5651) scale(1,-1)">
			<title>Sheet.146</title>
			<path d="M0 405.25 L29.49 405.25" class="st13"/>
		</g>
		<g id="shape147-465" transform="translate(244.892,-160.107)">
			<title>Sheet.147</title>
			<desc>……</desc>
			<rect x="0" y="391.081" width="42.5197" height="14.1732" class="st9"/>
			<text x="11.26" y="401.28" class="st14">……</text>		</g>
		<g id="shape150-468" transform="translate(564.328,462.087) rotate(171.881)">
			<title>Sheet.150</title>
			<path d="M0 405.25 L200.72 405.25" class="st15"/>
		</g>
		<g id="shape151-471" transform="translate(450.183,462.132) rotate(8.0732) scale(1,-1)">
			<title>Sheet.151</title>
			<path d="M0 405.25 L201.84 405.25" class="st15"/>
		</g>
		<g id="shape152-474" transform="translate(619.917,450.127) rotate(163.836)">
			<title>Sheet.152</title>
			<path d="M0 405.25 L101.82 405.25" class="st15"/>
		</g>
		<g id="shape153-477" transform="translate(618.723,-328.682) rotate(15.9887)">
			<title>Sheet.153</title>
			<path d="M0 405.25 L102.91 405.25" class="st15"/>
		</g>
		<g id="shape154-480" transform="translate(912.35,60.8947) rotate(90)">
			<title>Sheet.154</title>
			<path d="M0 405.25 L28.35 405.25" class="st15"/>
		</g>
		<g id="shape155-483" transform="translate(396.397,527.406) rotate(167.498)">
			<title>Sheet.155</title>
			<path d="M0 405.25 L130.95 405.25" class="st15"/>
		</g>
		<g id="shape156-486" transform="translate(265.868,-245.147)">
			<title>Sheet.156</title>
			<path d="M0 405.25 L42.8 376.91 L171.78 405.25" class="st15"/>
		</g>
		<g id="shape157-489" transform="translate(534.507,-204.734) rotate(33.8672)">
			<title>Sheet.157</title>
			<path d="M0 405.25 L50.87 405.25" class="st15"/>
		</g>
		<g id="shape159-492" transform="translate(95.7893,-174.281)">
			<title>Sheet.159</title>
			<path d="M85.32 405.25 L85.32 376.91 L0 405.25" class="st15"/>
		</g>
		<g id="shape160-495" transform="translate(312.369,-180.782) rotate(18.8982)">
			<title>Sheet.160</title>
			<path d="M0 405.25 L87.52 405.25" class="st15"/>
		</g>
		<g id="shape161-498" transform="translate(53.2696,-103.414)">
			<title>Sheet.161</title>
			<path d="M86.74 405.25 L42.8 376.91 L0 405.25" class="st15"/>
		</g>
		<g id="shape162-501" transform="translate(458.807,344.359) rotate(90)">
			<title>Sheet.162</title>
			<path d="M0 405.25 L28.35 405.25" class="st15"/>
		</g>
		<g id="shape163-504" transform="translate(543.846,344.359) rotate(90)">
			<title>Sheet.163</title>
			<path d="M0 405.25 L28.35 405.25" class="st15"/>
		</g>
		<g id="shape164-507" transform="translate(244.892,-301.84)">
			<title>Sheet.164</title>
			<desc>Index = 0</desc>
			<rect x="0" y="391.081" width="70.8661" height="14.1732" class="st9"/>
			<text x="17.14" y="401.17" class="st16">Index = 0</text>		</g>
		<g id="shape166-510" transform="translate(131.506,-230.973)">
			<title>Sheet.166</title>
			<desc>Index = 1</desc>
			<rect x="0" y="391.081" width="70.8661" height="14.1732" class="st9"/>
			<text x="17.14" y="401.17" class="st16">Index = 1</text>		</g>
		<g id="shape167-513" transform="translate(60.6397,-160.107)">
			<title>Sheet.167</title>
			<desc>Index = 2</desc>
			<rect x="0" y="391.081" width="70.8661" height="14.1732" class="st9"/>
			<text x="17.14" y="401.17" class="st16">Index = 2</text>		</g>
		<g id="shape168-516" transform="translate(32.2932,-89.2411)">
			<title>Sheet.168</title>
			<desc>Index = 3</desc>
			<rect x="0" y="391.081" width="70.8661" height="14.1732" class="st9"/>
			<text x="17.14" y="401.17" class="st16">Index = 3</text>		</g>
		<g id="shape169-519" transform="translate(259.065,-160.107)">
			<title>Sheet.169</title>
			<desc>swap</desc>
			<rect x="0" y="391.081" width="42.5197" height="14.1732" class="st9"/>
			<text x="11.61" y="401.17" class="st16">swap</text>		</g>
		<g id="shape170-522" transform="translate(145.679,-89.2411)">
			<title>Sheet.170</title>
			<desc>swap</desc>
			<rect x="0" y="391.081" width="28.3465" height="14.1732" class="st9"/>
			<text x="4.52" y="401.17" class="st16">swap</text>		</g>
		<g id="shape172-525" transform="translate(372.451,-301.84)">
			<title>Sheet.172</title>
			<desc>swap</desc>
			<rect x="0" y="391.081" width="28.3465" height="14.1732" class="st9"/>
			<text x="4.52" y="401.17" class="st16">swap</text>		</g>
		<g id="shape173-528" transform="translate(471.663,-301.84)">
			<title>Sheet.173</title>
			<desc>swap</desc>
			<rect x="0" y="391.081" width="42.5197" height="14.1732" class="st9"/>
			<text x="11.61" y="401.17" class="st16">swap</text>		</g>
		<g id="shape174-531" transform="translate(570.876,-301.84)">
			<title>Sheet.174</title>
			<desc>swap</desc>
			<rect x="0" y="391.081" width="56.6929" height="14.1732" class="st9"/>
			<text x="18.7" y="401.17" class="st16">swap</text>		</g>
		<g id="shape175-534" transform="translate(670.089,-301.84)">
			<title>Sheet.175</title>
			<desc>swap</desc>
			<rect x="0" y="391.081" width="70.8661" height="14.1732" class="st9"/>
			<text x="25.78" y="401.17" class="st16">swap</text>		</g>
		<g id="shape176-537" transform="translate(414.97,-230.973)">
			<title>Sheet.176</title>
			<desc>swap</desc>
			<rect x="0" y="391.081" width="56.6929" height="14.1732" class="st9"/>
			<text x="18.7" y="401.17" class="st16">swap</text>		</g>
		<g id="shape177-540" transform="translate(329.931,-230.973)">
			<title>Sheet.177</title>
			<desc>swap</desc>
			<rect x="0" y="391.081" width="42.5197" height="14.1732" class="st9"/>
			<text x="11.61" y="401.17" class="st16">swap</text>		</g>
		<g id="shape178-543" transform="translate(244.892,-230.973)">
			<title>Sheet.178</title>
			<desc>swap</desc>
			<rect x="0" y="391.081" width="28.3465" height="14.1732" class="st9"/>
			<text x="4.52" y="401.17" class="st16">swap</text>		</g>
		<g id="shape179-546" transform="translate(174.026,-160.107)">
			<title>Sheet.179</title>
			<desc>swap</desc>
			<rect x="0" y="391.081" width="28.3465" height="14.1732" class="st9"/>
			<text x="4.52" y="401.17" class="st16">swap</text>		</g>
		<g id="shape181-549" transform="translate(468.043,560.051) rotate(135)">
			<title>Sheet.181</title>
			<path d="M0 405.25 L20.04 405.25" class="st13"/>
		</g>
		<g id="shape182-552" transform="translate(468.043,-13.0647) rotate(45)">
			<title>Sheet.182</title>
			<path d="M0 405.25 L20.04 405.25" class="st13"/>
		</g>
		<g id="shape183-555" transform="translate(159.852,-103.414)">
			<title>Sheet.183</title>
			<desc>……</desc>
			<rect x="0" y="391.081" width="42.5197" height="14.1732" class="st9"/>
			<text x="11.26" y="401.28" class="st14">……</text>		</g>
		<g id="shape184-558" transform="translate(188.199,-18.375)">
			<title>方形.184</title>
			<desc>A</desc>
			<rect x="0" y="391.081" width="14.1732" height="14.1732" class="st1"/>
			<text x="4" y="401.17" class="st7">A</text>		</g>
		<g id="shape185-561" transform="translate(202.372,-18.375)">
			<title>方形.185</title>
			<desc>B</desc>
			<rect x="0" y="391.081" width="14.1732" height="14.1732" class="st1"/>
			<text x="4" y="401.17" class="st7">B</text>		</g>
		<g id="shape186-564" transform="translate(216.545,-18.375)">
			<title>方形.186</title>
			<desc>D</desc>
			<rect x="0" y="391.081" width="14.1732" height="14.1732" class="st1"/>
			<text x="4" y="401.17" class="st7">D</text>		</g>
		<g id="shape187-567" transform="translate(230.718,-18.375)">
			<title>方形.187</title>
			<desc>C</desc>
			<rect x="0" y="391.081" width="14.1732" height="14.1732" class="st1"/>
			<text x="4" y="401.17" class="st7">C</text>		</g>
		<g id="shape188-570" transform="translate(244.892,-18.375)">
			<title>方形.188</title>
			<desc>E</desc>
			<rect x="0" y="391.081" width="14.1732" height="14.1732" class="st1"/>
			<text x="4.22" y="401.17" class="st7">E</text>		</g>
		<g id="shape189-573" transform="translate(273.238,-18.375)">
			<title>方形.189</title>
			<desc>A</desc>
			<rect x="0" y="391.081" width="14.1732" height="14.1732" class="st1"/>
			<text x="4" y="401.17" class="st7">A</text>		</g>
		<g id="shape190-576" transform="translate(287.411,-18.375)">
			<title>方形.190</title>
			<desc>B</desc>
			<rect x="0" y="391.081" width="14.1732" height="14.1732" class="st1"/>
			<text x="4" y="401.17" class="st7">B</text>		</g>
		<g id="shape191-579" transform="translate(301.585,-18.375)">
			<title>方形.191</title>
			<desc>D</desc>
			<rect x="0" y="391.081" width="14.1732" height="14.1732" class="st1"/>
			<text x="4" y="401.17" class="st7">D</text>		</g>
		<g id="shape192-582" transform="translate(315.758,-18.375)">
			<title>方形.192</title>
			<desc>E</desc>
			<rect x="0" y="391.081" width="14.1732" height="14.1732" class="st1"/>
			<text x="4.22" y="401.17" class="st7">E</text>		</g>
		<g id="shape193-585" transform="translate(329.931,-18.375)">
			<title>方形.193</title>
			<desc>C</desc>
			<rect x="0" y="391.081" width="14.1732" height="14.1732" class="st1"/>
			<text x="4" y="401.17" class="st7">C</text>		</g>
		<g id="shape194-588" transform="translate(627.569,-18.375)">
			<title>方形.194</title>
			<desc>E</desc>
			<rect x="0" y="391.081" width="14.1732" height="14.1732" class="st1"/>
			<text x="4.22" y="401.17" class="st7">E</text>		</g>
		<g id="shape195-591" transform="translate(641.742,-18.375)">
			<title>方形.195</title>
			<desc>D</desc>
			<rect x="0" y="391.081" width="14.1732" height="14.1732" class="st1"/>
			<text x="4" y="401.17" class="st7">D</text>		</g>
		<g id="shape196-594" transform="translate(655.915,-18.375)">
			<title>方形.196</title>
			<desc>C</desc>
			<rect x="0" y="391.081" width="14.1732" height="14.1732" class="st1"/>
			<text x="4" y="401.17" class="st7">C</text>		</g>
		<g id="shape197-597" transform="translate(670.089,-18.375)">
			<title>方形.197</title>
			<desc>B</desc>
			<rect x="0" y="391.081" width="14.1732" height="14.1732" class="st1"/>
			<text x="4" y="401.17" class="st7">B</text>		</g>
		<g id="shape198-600" transform="translate(684.262,-18.375)">
			<title>方形.198</title>
			<desc>A</desc>
			<rect x="0" y="391.081" width="14.1732" height="14.1732" class="st1"/>
			<text x="4" y="401.17" class="st7">A</text>		</g>
		<g id="shape204-603" transform="translate(1068.26,344.359) rotate(90)">
			<title>Sheet.204</title>
			<path d="M0 405.25 L28.35 405.25" class="st8"/>
		</g>
		<g id="shape205-606" transform="translate(528.356,-18.375)">
			<title>Sheet.205</title>
			<desc>………………</desc>
			<rect x="0" y="391.081" width="85.0394" height="14.1732" class="st9"/>
			<text x="6.52" y="401.77" class="st17">………………</text>		</g>
		<g id="shape212-609" transform="translate(336.645,-89.2411)">
			<title>Sheet.212</title>
			<path d="M28.35 405.25 L14.17 362.73 L0 405.25" class="st8"/>
		</g>
		<g id="shape213-612" transform="translate(329.931,-60.8947)">
			<title>Sheet.213</title>
			<desc>……</desc>
			<rect x="0" y="376.907" width="42.5197" height="28.3465" class="st9"/>
			<text x="5.26" y="396.06" class="st12">……</text>		</g>
		<g id="shape214-615" transform="translate(32.2932,-358.532)">
			<title>Sheet.214</title>
			<desc>Permutation</desc>
			<rect x="0" y="376.907" width="127.559" height="28.3465" class="st9"/>
			<text x="5.12" y="398.28" class="st18">Permutation</text>		</g>
		<g id="shape215-618" transform="translate(607.428,-160.107)">
			<title>Sheet.215</title>
			<path d="M14.17 405.25 L0 362.73 L0 405.25" class="st8"/>
		</g>
		<g id="shape216-621" transform="translate(991.886,330.779) rotate(108.435)">
			<title>Sheet.216</title>
			<path d="M0 405.25 L44.82 405.25" class="st8"/>
		</g>
		<g id="shape217-624" transform="translate(564.908,-131.761)">
			<title>Sheet.217</title>
			<desc>………</desc>
			<rect x="0" y="376.907" width="85.0394" height="28.3465" class="st9"/>
			<text x="15.52" y="396.69" class="st11">………</text>		</g>
		<g id="shape218-627" transform="translate(705.522,-160.107)">
			<title>Sheet.218</title>
			<path d="M14.17 405.25 L0 362.73 L0 405.25" class="st8"/>
		</g>
		<g id="shape219-630" transform="translate(1089.98,330.779) rotate(108.435)">
			<title>Sheet.219</title>
			<path d="M0 405.25 L44.82 405.25" class="st8"/>
		</g>
		<g id="shape220-633" transform="translate(663.002,-131.761)">
			<title>Sheet.220</title>
			<desc>………</desc>
			<rect x="0" y="376.907" width="85.0394" height="28.3465" class="st9"/>
			<text x="15.52" y="396.69" class="st11">………</text>		</g>
		<g id="shape221-636" transform="translate(421.684,-89.2411)">
			<title>Sheet.221</title>
			<path d="M28.35 405.25 L14.17 362.73 L0 405.25" class="st8"/>
		</g>
		<g id="shape222-639" transform="translate(414.97,-60.8947)">
			<title>Sheet.222</title>
			<desc>……</desc>
			<rect x="0" y="376.907" width="42.5197" height="28.3465" class="st9"/>
			<text x="5.26" y="396.06" class="st12">……</text>		</g>
		<g id="shape223-642" transform="translate(492.55,-89.2411)">
			<title>Sheet.223</title>
			<path d="M28.35 405.25 L14.17 362.73 L0 405.25" class="st8"/>
		</g>
		<g id="shape224-645" transform="translate(485.837,-60.8947)">
			<title>Sheet.224</title>
			<desc>……</desc>
			<rect x="0" y="376.907" width="42.5197" height="28.3465" class="st9"/>
			<text x="5.26" y="396.06" class="st12">……</text>		</g>
		<g id="shape225-648" transform="translate(591.763,-89.2411)">
			<title>Sheet.225</title>
			<path d="M28.35 405.25 L14.17 362.73 L0 405.25" class="st8"/>
		</g>
		<g id="shape226-651" transform="translate(585.049,-60.8947)">
			<title>Sheet.226</title>
			<desc>……</desc>
			<rect x="0" y="376.907" width="42.5197" height="28.3465" class="st9"/>
			<text x="5.26" y="396.06" class="st12">……</text>		</g>
		<g id="shape227-654" transform="translate(690.975,-89.2411)">
			<title>Sheet.227</title>
			<path d="M28.35 405.25 L14.17 362.73 L0 405.25" class="st8"/>
		</g>
		<g id="shape228-657" transform="translate(684.262,-60.8947)">
			<title>Sheet.228</title>
			<desc>……</desc>
			<rect x="0" y="376.907" width="42.5197" height="28.3465" class="st9"/>
			<text x="5.26" y="396.06" class="st12">……</text>		</g>
		<g id="shape229-660" transform="translate(471.663,-344.359)">
			<title>Sheet.229</title>
			<desc>0</desc>
			<rect x="0" y="391.081" width="14.1732" height="14.1732" class="st9"/>
			<text x="4.74" y="401.17" class="st19">0</text>		</g>
		<g id="shape230-663" transform="translate(485.837,-344.359)">
			<title>Sheet.230</title>
			<desc>1</desc>
			<rect x="0" y="391.081" width="14.1732" height="14.1732" class="st9"/>
			<text x="4.74" y="401.17" class="st19">1</text>		</g>
		<g id="shape231-666" transform="translate(500.01,-344.359)">
			<title>Sheet.231</title>
			<desc>2</desc>
			<rect x="0" y="391.081" width="14.1732" height="14.1732" class="st9"/>
			<text x="4.74" y="401.17" class="st19">2</text>		</g>
		<g id="shape232-669" transform="translate(514.183,-344.359)">
			<title>Sheet.232</title>
			<desc>3</desc>
			<rect x="0" y="391.081" width="14.1732" height="14.1732" class="st9"/>
			<text x="4.74" y="401.17" class="st19">3</text>		</g>
		<g id="shape233-672" transform="translate(528.356,-344.359)">
			<title>Sheet.233</title>
			<desc>4</desc>
			<rect x="0" y="391.081" width="14.1732" height="14.1732" class="st9"/>
			<text x="4.74" y="401.17" class="st19">4</text>		</g>
		<g id="shape234-675" transform="translate(358.277,-18.375)">
			<title>方形.234</title>
			<desc>A</desc>
			<rect x="0" y="391.081" width="14.1732" height="14.1732" class="st1"/>
			<text x="4" y="401.17" class="st7">A</text>		</g>
		<g id="shape235-678" transform="translate(372.451,-18.375)">
			<title>方形.235</title>
			<desc>B</desc>
			<rect x="0" y="391.081" width="14.1732" height="14.1732" class="st1"/>
			<text x="4" y="401.17" class="st7">B</text>		</g>
		<g id="shape236-681" transform="translate(386.624,-18.375)">
			<title>方形.236</title>
			<desc>E</desc>
			<rect x="0" y="391.081" width="14.1732" height="14.1732" class="st1"/>
			<text x="4.22" y="401.17" class="st7">E</text>		</g>
		<g id="shape237-684" transform="translate(400.797,-18.375)">
			<title>方形.237</title>
			<desc>D</desc>
			<rect x="0" y="391.081" width="14.1732" height="14.1732" class="st1"/>
			<text x="4" y="401.17" class="st7">D</text>		</g>
		<g id="shape238-687" transform="translate(414.97,-18.375)">
			<title>方形.238</title>
			<desc>C</desc>
			<rect x="0" y="391.081" width="14.1732" height="14.1732" class="st1"/>
			<text x="4" y="401.17" class="st7">C</text>		</g>
		<g id="shape239-690" transform="translate(443.317,-18.375)">
			<title>方形.239</title>
			<desc>A</desc>
			<rect x="0" y="391.081" width="14.1732" height="14.1732" class="st1"/>
			<text x="4" y="401.17" class="st7">A</text>		</g>
		<g id="shape240-693" transform="translate(457.49,-18.375)">
			<title>方形.240</title>
			<desc>B</desc>
			<rect x="0" y="391.081" width="14.1732" height="14.1732" class="st1"/>
			<text x="4" y="401.17" class="st7">B</text>		</g>
		<g id="shape241-696" transform="translate(471.663,-18.375)">
			<title>方形.241</title>
			<desc>E</desc>
			<rect x="0" y="391.081" width="14.1732" height="14.1732" class="st1"/>
			<text x="4.22" y="401.17" class="st7">E</text>		</g>
		<g id="shape242-699" transform="translate(485.837,-18.375)">
			<title>方形.242</title>
			<desc>C</desc>
			<rect x="0" y="391.081" width="14.1732" height="14.1732" class="st1"/>
			<text x="4" y="401.17" class="st7">C</text>		</g>
		<g id="shape243-702" transform="translate(500.01,-18.375)">
			<title>方形.243</title>
			<desc>D</desc>
			<rect x="0" y="391.081" width="14.1732" height="14.1732" class="st1"/>
			<text x="4" y="401.17" class="st7">D</text>		</g>
		<g id="shape244-705" transform="translate(712.608,-18.375)">
			<title>Sheet.244</title>
			<desc>…………</desc>
			<rect x="0" y="391.081" width="56.6929" height="14.1732" class="st9"/>
			<text x="4.35" y="401.77" class="st17">…………</text>		</g>
		<g id="shape245-708" transform="translate(798.964,344.359) rotate(90)">
			<title>Sheet.245</title>
			<path d="M0 405.25 L28.35 405.25" class="st8"/>
		</g>
		<g id="shape246-711" transform="translate(884.004,344.359) rotate(90)">
			<title>Sheet.246</title>
			<path d="M0 405.25 L28.35 405.25" class="st8"/>
		</g>
	</g>
</svg>
