<?xml version="1.0" encoding="UTF-8" standalone="no"?>
<!DOCTYPE svg PUBLIC "-//W3C//DTD SVG 1.1//EN" "http://www.w3.org/Graphics/SVG/1.1/DTD/svg11.dtd">
<!-- Illustrator: Larry Huang -->
<svg xmlns="http://www.w3.org/2000/svg" xmlns:xlink="http://www.w3.org/1999/xlink" xmlns:ev="http://www.w3.org/2001/xml-events"
		width="8.20147in" height="8.00462in" viewBox="0 0 590.506 576.333" xml:space="preserve" color-interpolation-filters="sRGB"
		class="st10">
	<style type="text/css">
	<![CDATA[
		.st1 {fill:none;stroke:#7f7f7f;stroke-width:3}
		.st2 {stroke:#7f7f7f;stroke-linecap:round;stroke-linejoin:round;stroke-width:3}
		.st3 {fill:none;stroke:#000000;stroke-width:2}
		.st4 {fill:#000000;font-family:Calibri;font-size:1.5em}
		.st5 {font-size:1em}
		.st6 {fill:none;stroke:#000000;stroke-dasharray:14,10;stroke-width:2}
		.st7 {fill:#7f7f7f;font-family:Calibri;font-size:1.5em}
		.st8 {fill:none;stroke:none;stroke-width:0.25}
		.st9 {fill:#0000ff;font-family:Times New Roman;font-size:1.99999em}
		.st10 {fill:none;fill-rule:evenodd;font-size:12px;overflow:visible;stroke-linecap:square;stroke-miterlimit:3}
	]]>
	</style>

	<g>
		<title>Page-1</title>
		<g id="shape66-1" transform="translate(188.329,-62.0197)">
			<title>Rounded Rectangle.66</title>
			<path d="M32.6 576.33 L293.39 576.33 A32.5979 32.5979 -180 0 0 325.98 543.73 L325.98 212.08 A32.5979 32.5979 -180 0 0
						 293.39 179.48 L32.6 179.48 A32.5979 32.5979 -180 0 0 -0 212.08 L0 543.73 A32.5979 32.5979 -180 0 0 32.6
						 576.33 Z" class="st1"/>
		</g>
		<g id="shape67-3" transform="translate(1076.47,74.9429) rotate(90)">
			<title>Sheet.67</title>
			<path d="M0 576.33 L28.35 576.33" class="st2"/>
		</g>
		<g id="shape69-6" transform="translate(1033.95,74.9429) rotate(90)">
			<title>Sheet.69</title>
			<path d="M0 576.33 L28.35 576.33" class="st2"/>
		</g>
		<g id="shape70-9" transform="translate(991.433,74.9429) rotate(90)">
			<title>Sheet.70</title>
			<path d="M0 576.33 L28.35 576.33" class="st2"/>
		</g>
		<g id="shape72-12" transform="translate(863.874,74.9429) rotate(90)">
			<title>Sheet.72</title>
			<path d="M0 576.33 L28.35 576.33" class="st2"/>
		</g>
		<g id="shape73-15" transform="translate(906.394,74.9429) rotate(90)">
			<title>Sheet.73</title>
			<path d="M0 576.33 L28.35 576.33" class="st2"/>
		</g>
		<g id="shape74-18" transform="translate(821.354,74.9429) rotate(90)">
			<title>Sheet.74</title>
			<path d="M0 576.33 L28.35 576.33" class="st2"/>
		</g>
		<g id="shape75-21" transform="translate(778.835,74.9429) rotate(90)">
			<title>Sheet.75</title>
			<path d="M0 576.33 L28.35 576.33" class="st2"/>
		</g>
		<g id="shape76-24" transform="translate(948.913,74.9429) rotate(90)">
			<title>Sheet.76</title>
			<path d="M0 576.33 L28.35 576.33" class="st2"/>
		</g>
		<g id="shape77-27" transform="translate(542.659,-388.004)">
			<title>Sheet.77</title>
			<path d="M0 576.33 L28.35 576.33" class="st2"/>
		</g>
		<g id="shape78-30" transform="translate(542.659,-430.524)">
			<title>Sheet.78</title>
			<path d="M0 576.33 L28.35 576.33" class="st2"/>
		</g>
		<g id="shape79-33" transform="translate(542.659,-260.445)">
			<title>Sheet.79</title>
			<path d="M0 576.33 L28.35 576.33" class="st2"/>
		</g>
		<g id="shape80-36" transform="translate(542.659,-345.484)">
			<title>Sheet.80</title>
			<path d="M0 576.33 L28.35 576.33" class="st2"/>
		</g>
		<g id="shape81-39" transform="translate(542.659,-302.965)">
			<title>Sheet.81</title>
			<path d="M0 576.33 L28.35 576.33" class="st2"/>
		</g>
		<g id="shape83-42" transform="translate(542.659,-90.3661)">
			<title>Sheet.83</title>
			<path d="M0 576.33 L28.35 576.33" class="st2"/>
		</g>
		<g id="shape84-45" transform="translate(542.659,-175.406)">
			<title>Sheet.84</title>
			<path d="M0 576.33 L28.35 576.33" class="st2"/>
		</g>
		<g id="shape85-48" transform="translate(542.659,-132.886)">
			<title>Sheet.85</title>
			<path d="M0 576.33 L28.35 576.33" class="st2"/>
		</g>
		<g id="shape86-51" transform="translate(542.659,-217.925)">
			<title>Sheet.86</title>
			<path d="M0 576.33 L28.35 576.33" class="st2"/>
		</g>
		<g id="shape95-54" transform="translate(216.675,-90.3661)">
			<title>Rectangle.95</title>
			<desc>Transistors , Capacitors</desc>
			<rect x="0" y="533.813" width="269.291" height="42.5197" rx="8.50394" ry="8.50394" class="st3"/>
			<text x="49.8" y="560.47" class="st4">Transistors , Capacitors</text>		</g>
		<g id="shape96-57" transform="translate(216.675,-147.059)">
			<title>Rectangle.96</title>
			<desc>Logic Gates</desc>
			<rect x="0" y="533.813" width="269.291" height="42.5197" rx="8.50394" ry="8.50394" class="st3"/>
			<text x="92.97" y="560.47" class="st4">Logic Gates</text>		</g>
		<g id="shape97-60" transform="translate(230.848,-217.925)">
			<title>Rectangle.97</title>
			<desc>Functional Units</desc>
			<rect x="0" y="533.813" width="240.945" height="42.5197" rx="8.50394" ry="8.50394" class="st3"/>
			<text x="61.01" y="560.47" class="st4">Functional Units</text>		</g>
		<g id="shape98-63" transform="translate(230.848,-274.618)">
			<title>Rectangle.98</title>
			<desc>Execution Units</desc>
			<rect x="0" y="533.813" width="240.945" height="42.5197" rx="8.50394" ry="8.50394" class="st3"/>
			<text x="63.48" y="560.47" class="st4">Execution Units</text>		</g>
		<g id="shape99-66" transform="translate(216.675,-388.004)">
			<title>Rectangle.99</title>
			<desc>Instruction Set Architecture (ISA)</desc>
			<rect x="0" y="533.813" width="269.291" height="42.5197" rx="8.50394" ry="8.50394" class="st3"/>
			<text x="33.59" y="549.67" class="st4">Instruction Set Architecture <tspan x="117.58" dy="1.2em" class="st5">(ISA)</tspan></text>		</g>
		<g id="shape101-70" transform="translate(216.675,-203.752)">
			<title>Rectangle.101</title>
			<desc>Microarchitecture</desc>
			<rect x="0" y="406.254" width="269.291" height="170.079" rx="8.50394" ry="8.50394" class="st6"/>
			<text x="68.49" y="432.91" class="st7">Microarchitecture</text>		</g>
		<g id="shape102-73" transform="translate(18.25,-487.217)">
			<title>Sheet.102</title>
			<desc>Central Processing Unit (CPU)</desc>
			<rect x="0" y="505.467" width="240.945" height="70.8661" class="st8"/>
			<text x="5.82" y="533.7" class="st9">Central Processing Unit <tspan x="89.14" dy="1.2em" class="st5">(CPU)</tspan></text>		</g>
		<g id="shape103-77" transform="translate(159.982,-47.8465)">
			<title>Rectangle</title>
			<rect x="0" y="151.136" width="382.677" height="425.197" class="st1"/>
		</g>
		<g id="shape104-79" transform="translate(131.636,-388.004)">
			<title>Sheet.104</title>
			<path d="M0 576.33 L28.35 576.33" class="st2"/>
		</g>
		<g id="shape105-82" transform="translate(131.636,-430.524)">
			<title>Sheet.105</title>
			<path d="M0 576.33 L28.35 576.33" class="st2"/>
		</g>
		<g id="shape106-85" transform="translate(131.636,-260.445)">
			<title>Sheet.106</title>
			<path d="M0 576.33 L28.35 576.33" class="st2"/>
		</g>
		<g id="shape107-88" transform="translate(131.636,-345.484)">
			<title>Sheet.107</title>
			<path d="M0 576.33 L28.35 576.33" class="st2"/>
		</g>
		<g id="shape108-91" transform="translate(131.636,-302.965)">
			<title>Sheet.108</title>
			<path d="M0 576.33 L28.35 576.33" class="st2"/>
		</g>
		<g id="shape109-94" transform="translate(131.636,-90.3661)">
			<title>Sheet.109</title>
			<path d="M0 576.33 L28.35 576.33" class="st2"/>
		</g>
		<g id="shape110-97" transform="translate(131.636,-175.406)">
			<title>Sheet.110</title>
			<path d="M0 576.33 L28.35 576.33" class="st2"/>
		</g>
		<g id="shape111-100" transform="translate(131.636,-132.886)">
			<title>Sheet.111</title>
			<path d="M0 576.33 L28.35 576.33" class="st2"/>
		</g>
		<g id="shape112-103" transform="translate(131.636,-217.925)">
			<title>Sheet.112</title>
			<path d="M0 576.33 L28.35 576.33" class="st2"/>
		</g>
		<g id="shape113-106" transform="translate(1076.47,528.486) rotate(90)">
			<title>Sheet.113</title>
			<path d="M0 576.33 L28.35 576.33" class="st2"/>
		</g>
		<g id="shape114-109" transform="translate(1033.95,528.486) rotate(90)">
			<title>Sheet.114</title>
			<path d="M0 576.33 L28.35 576.33" class="st2"/>
		</g>
		<g id="shape115-112" transform="translate(991.433,528.486) rotate(90)">
			<title>Sheet.115</title>
			<path d="M0 576.33 L28.35 576.33" class="st2"/>
		</g>
		<g id="shape116-115" transform="translate(863.874,528.486) rotate(90)">
			<title>Sheet.116</title>
			<path d="M0 576.33 L28.35 576.33" class="st2"/>
		</g>
		<g id="shape117-118" transform="translate(906.394,528.486) rotate(90)">
			<title>Sheet.117</title>
			<path d="M0 576.33 L28.35 576.33" class="st2"/>
		</g>
		<g id="shape118-121" transform="translate(821.354,528.486) rotate(90)">
			<title>Sheet.118</title>
			<path d="M0 576.33 L28.35 576.33" class="st2"/>
		</g>
		<g id="shape119-124" transform="translate(778.835,528.486) rotate(90)">
			<title>Sheet.119</title>
			<path d="M0 576.33 L28.35 576.33" class="st2"/>
		</g>
		<g id="shape120-127" transform="translate(948.913,528.486) rotate(90)">
			<title>Sheet.120</title>
			<path d="M0 576.33 L28.35 576.33" class="st2"/>
		</g>
	</g>
</svg>
