<?xml version="1.0" encoding="UTF-8" standalone="no"?>
<!DOCTYPE svg PUBLIC "-//W3C//DTD SVG 1.1//EN" "http://www.w3.org/Graphics/SVG/1.1/DTD/svg11.dtd">
<!-- Illustrator: Larry Huang -->
<svg xmlns="http://www.w3.org/2000/svg" xmlns:xlink="http://www.w3.org/1999/xlink" xmlns:ev="http://www.w3.org/2001/xml-events"
		width="9.16836in" height="10.5568in" viewBox="0 0 660.122 760.088" xml:space="preserve" color-interpolation-filters="sRGB"
		class="st22">
	<style type="text/css">
	<![CDATA[
		.st1 {fill:none;stroke:none;stroke-width:0.25}
		.st2 {fill:#7f7f7f;font-family:Times New Roman;font-size:1.16666em}
		.st3 {font-size:1em}
		.st4 {fill:#000000;font-family:Times New Roman;font-size:1.16666em}
		.st5 {marker-end:url(#mrkr5-48);stroke:#0000ff;stroke-linecap:round;stroke-linejoin:round;stroke-width:2}
		.st6 {fill:#0000ff;fill-opacity:1;stroke:#0000ff;stroke-opacity:1;stroke-width:0.38167938931298}
		.st7 {stroke:#000000;stroke-dasharray:7,5;stroke-linecap:round;stroke-linejoin:round;stroke-width:1}
		.st8 {marker-end:url(#mrkr5-60);stroke:#000000;stroke-linecap:round;stroke-linejoin:round;stroke-width:1}
		.st9 {fill:#000000;fill-opacity:1;stroke:#000000;stroke-opacity:1;stroke-width:0.23584905660377}
		.st10 {fill:#0000ff;font-family:Times New Roman;font-size:1.66667em;font-weight:bold}
		.st11 {fill:#000000;font-family:Times New Roman;font-size:1.00001em}
		.st12 {marker-start:url(#mrkr5-75);stroke:#ff0000;stroke-linecap:round;stroke-linejoin:round;stroke-width:2}
		.st13 {fill:#ff0000;fill-opacity:1;stroke:#ff0000;stroke-opacity:1;stroke-width:0.38167938931298}
		.st14 {fill:#ff0000;font-family:Times New Roman;font-size:2.50001em}
		.st15 {marker-start:url(#mrkr5-90);stroke:#000000;stroke-linecap:round;stroke-linejoin:round;stroke-width:1}
		.st16 {fill:none;stroke:#000000;stroke-width:1}
		.st17 {fill:#000000;font-family:Times New Roman;font-size:1.33333em}
		.st18 {marker-end:url(#mrkr5-150);stroke:#0000ff;stroke-linecap:round;stroke-linejoin:round;stroke-width:1}
		.st19 {fill:#0000ff;fill-opacity:1;stroke:#0000ff;stroke-opacity:1;stroke-width:0.28409090909091}
		.st20 {marker-start:url(#mrkr5-156);stroke:#ff0000;stroke-linecap:round;stroke-linejoin:round;stroke-width:1}
		.st21 {fill:#ff0000;fill-opacity:1;stroke:#ff0000;stroke-opacity:1;stroke-width:0.28409090909091}
		.st22 {fill:none;fill-rule:evenodd;font-size:12px;overflow:visible;stroke-linecap:square;stroke-miterlimit:3}
	]]>
	</style>

	<defs id="Markers">
		<g id="lend5">
			<path d="M 2 1 L 0 0 L 1.98117 -0.993387 C 1.67173 -0.364515 1.67301 0.372641 1.98465 1.00043 " style="stroke:none"/>
		</g>
		<marker id="mrkr5-48" class="st6" refX="-4.585" orient="auto" markerUnits="strokeWidth" overflow="visible">
			<use xlink:href="#lend5" transform="scale(-2.62,-2.62) "/>
		</marker>
		<marker id="mrkr5-60" class="st9" refX="-7.42" orient="auto" markerUnits="strokeWidth" overflow="visible">
			<use xlink:href="#lend5" transform="scale(-4.24,-4.24) "/>
		</marker>
		<marker id="mrkr5-75" class="st13" refX="4.405" orient="auto" markerUnits="strokeWidth" overflow="visible">
			<use xlink:href="#lend5" transform="scale(2.62) "/>
		</marker>
		<marker id="mrkr5-90" class="st9" refX="7.06" orient="auto" markerUnits="strokeWidth" overflow="visible">
			<use xlink:href="#lend5" transform="scale(4.24) "/>
		</marker>
		<marker id="mrkr5-150" class="st19" refX="-5.8" orient="auto" markerUnits="strokeWidth" overflow="visible">
			<use xlink:href="#lend5" transform="scale(-3.52,-3.52) "/>
		</marker>
		<marker id="mrkr5-156" class="st21" refX="5.8" orient="auto" markerUnits="strokeWidth" overflow="visible">
			<use xlink:href="#lend5" transform="scale(3.52) "/>
		</marker>
	</defs>
	<g>
		<title>Page-1</title>
		<g id="shape1-1" transform="translate(259.195,-387.507)">
			<title>Sheet.1</title>
			<desc>0 1111111111111111111111111111111 0 1111111111111111111111111...</desc>
			<rect x="0" y="434.104" width="240.945" height="325.984" class="st1"/>
			<text x="0.286em 0.786em 1.036em 1.536em 2.036em 2.536em 3.036em 3.536em 4.036em 4.536em 5.036em 5.536em 6.036em 6.536em
						 7.036em 7.536em 8.036em 8.536em 9.036em 9.536em 10.036em 10.536em 11.036em 11.536em 12.036em 12.536em 13.036em
						 13.536em 14.036em 14.536em 15.036em 15.536em 16.036em" y="450.1" class="st2">0 1111111111111111111111111111111 <tspan
						x="0.286em 0.786em 1.036em 1.536em 2.036em 2.536em 3.036em 3.536em 4.036em 4.536em 5.036em 5.536em 6.036em
							 6.536em 7.036em 7.536em 8.036em 8.536em 9.036em 9.536em 10.036em 10.536em 11.036em 11.536em 12.036em
							 12.536em 13.036em 13.536em 14.036em 14.536em 15.036em 15.536em 16.036em" dy="1.2em" class="st3">0 1111111111111111111111111111110 </tspan><tspan
						x="0.286em 0.786em 1.036em 1.536em 2.036em 2.536em 3.036em 3.536em 4.036em 4.536em 5.036em 5.536em 6.036em
							 6.536em 7.036em 7.536em 8.036em 8.536em 9.036em 9.536em 10.036em 10.536em 11.036em 11.536em 12.036em
							 12.536em 13.036em 13.536em 14.036em 14.536em 15.036em 15.536em 16.036em" dy="1.2em" class="st3">0 1111111111111111111111111111101 </tspan><tspan
						x="0.286em 0.536em 0.786em 1.036em 1.286em 1.536em 1.786em 2.036em 2.286em 2.536em 2.786em 3.036em 3.286em
							 3.536em 3.786em 4.036em 4.286em 4.536em 4.786em 5.036em 5.286em 5.536em 5.786em 6.036em 6.286em 6.536em
							 6.786em 7.036em 7.286em 7.536em 7.786em 8.036em 8.286em 8.536em 8.786em 9.036em 9.286em 9.536em 9.786em
							 10.036em 10.286em 10.536em 10.786em 11.036em 11.286em 11.536em 11.786em 12.036em 12.286em 12.536em 12.786em
							 13.036em 13.286em 13.536em 13.786em 14.036em 14.286em 14.536em 14.786em 15.036em 15.286em 15.536em 15.786em
							 16.036em" dy="1.2em" class="st3">................................................................ </tspan><tspan
						x="0.286em 0.786em 1.036em 1.536em 2.036em 2.536em 3.036em 3.536em 4.036em 4.536em 5.036em 5.536em 6.036em
							 6.536em 7.036em 7.536em 8.036em 8.536em 9.036em 9.536em 10.036em 10.536em 11.036em 11.536em 12.036em
							 12.536em 13.036em 13.536em 14.036em 14.536em 15.036em 15.536em 16.036em" dy="1.2em" class="st3">0 0000000000000000000000000000101 </tspan><tspan
						x="0.286em 0.786em 1.036em 1.536em 2.036em 2.536em 3.036em 3.536em 4.036em 4.536em 5.036em 5.536em 6.036em
							 6.536em 7.036em 7.536em 8.036em 8.536em 9.036em 9.536em 10.036em 10.536em 11.036em 11.536em 12.036em
							 12.536em 13.036em 13.536em 14.036em 14.536em 15.036em 15.536em 16.036em" dy="1.2em" class="st3">0 0000000000000000000000000000100 </tspan><tspan
						x="0.286em 0.786em 1.036em 1.536em 2.036em 2.536em 3.036em 3.536em 4.036em 4.536em 5.036em 5.536em 6.036em
							 6.536em 7.036em 7.536em 8.036em 8.536em 9.036em 9.536em 10.036em 10.536em 11.036em 11.536em 12.036em
							 12.536em 13.036em 13.536em 14.036em 14.536em 15.036em 15.536em 16.036em" dy="1.2em" class="st3">0 0000000000000000000000000000011 </tspan><tspan
						x="0.286em 0.786em 1.036em 1.536em 2.036em 2.536em 3.036em 3.536em 4.036em 4.536em 5.036em 5.536em 6.036em
							 6.536em 7.036em 7.536em 8.036em 8.536em 9.036em 9.536em 10.036em 10.536em 11.036em 11.536em 12.036em
							 12.536em 13.036em 13.536em 14.036em 14.536em 15.036em 15.536em 16.036em" dy="1.2em" class="st3">0 0000000000000000000000000000010 </tspan><tspan
						x="0.286em 0.786em 1.036em 1.536em 2.036em 2.536em 3.036em 3.536em 4.036em 4.536em 5.036em 5.536em 6.036em
							 6.536em 7.036em 7.536em 8.036em 8.536em 9.036em 9.536em 10.036em 10.536em 11.036em 11.536em 12.036em
							 12.536em 13.036em 13.536em 14.036em 14.536em 15.036em 15.536em 16.036em" dy="1.2em" class="st3">0 0000000000000000000000000000001 </tspan><tspan
						x="0.286em 0.786em 1.036em 1.536em 2.036em 2.536em 3.036em 3.536em 4.036em 4.536em 5.036em 5.536em 6.036em
							 6.536em 7.036em 7.536em 8.036em 8.536em 9.036em 9.536em 10.036em 10.536em 11.036em 11.536em 12.036em
							 12.536em 13.036em 13.536em 14.036em 14.536em 15.036em 15.536em 16.036em" dy="1.2em" class="st3">0 0000000000000000000000000000000 </tspan><tspan
						x="0.286em 0.786em 1.036em 1.536em 2.036em 2.536em 3.036em 3.536em 4.036em 4.536em 5.036em 5.536em 6.036em
							 6.536em 7.036em 7.536em 8.036em 8.536em 9.036em 9.536em 10.036em 10.536em 11.036em 11.536em 12.036em
							 12.536em 13.036em 13.536em 14.036em 14.536em 15.036em 15.536em 16.036em" dy="1.2em" class="st3">1 1111111111111111111111111111111 </tspan><tspan
						x="0.286em 0.786em 1.036em 1.536em 2.036em 2.536em 3.036em 3.536em 4.036em 4.536em 5.036em 5.536em 6.036em
							 6.536em 7.036em 7.536em 8.036em 8.536em 9.036em 9.536em 10.036em 10.536em 11.036em 11.536em 12.036em
							 12.536em 13.036em 13.536em 14.036em 14.536em 15.036em 15.536em 16.036em" dy="1.2em" class="st3">1 1111111111111111111111111111110 </tspan><tspan
						x="0.286em 0.786em 1.036em 1.536em 2.036em 2.536em 3.036em 3.536em 4.036em 4.536em 5.036em 5.536em 6.036em
							 6.536em 7.036em 7.536em 8.036em 8.536em 9.036em 9.536em 10.036em 10.536em 11.036em 11.536em 12.036em
							 12.536em 13.036em 13.536em 14.036em 14.536em 15.036em 15.536em 16.036em" dy="1.2em" class="st3">1 1111111111111111111111111111101 </tspan><tspan
						x="0.286em 0.786em 1.036em 1.536em 2.036em 2.536em 3.036em 3.536em 4.036em 4.536em 5.036em 5.536em 6.036em
							 6.536em 7.036em 7.536em 8.036em 8.536em 9.036em 9.536em 10.036em 10.536em 11.036em 11.536em 12.036em
							 12.536em 13.036em 13.536em 14.036em 14.536em 15.036em 15.536em 16.036em" dy="1.2em" class="st3">1 1111111111111111111111111111100 </tspan><tspan
						x="0.286em 0.786em 1.036em 1.536em 2.036em 2.536em 3.036em 3.536em 4.036em 4.536em 5.036em 5.536em 6.036em
							 6.536em 7.036em 7.536em 8.036em 8.536em 9.036em 9.536em 10.036em 10.536em 11.036em 11.536em 12.036em
							 12.536em 13.036em 13.536em 14.036em 14.536em 15.036em 15.536em 16.036em" dy="1.2em" class="st3">1 1111111111111111111111111111011 </tspan><tspan
						x="0.286em 0.536em 0.786em 1.036em 1.286em 1.536em 1.786em 2.036em 2.286em 2.536em 2.786em 3.036em 3.286em
							 3.536em 3.786em 4.036em 4.286em 4.536em 4.786em 5.036em 5.286em 5.536em 5.786em 6.036em 6.286em 6.536em
							 6.786em 7.036em 7.286em 7.536em 7.786em 8.036em 8.286em 8.536em 8.786em 9.036em 9.286em 9.536em 9.786em
							 10.036em 10.286em 10.536em 10.786em 11.036em 11.286em 11.536em 11.786em 12.036em 12.286em 12.536em 12.786em
							 13.036em 13.286em 13.536em 13.786em 14.036em 14.286em 14.536em 14.786em 15.036em 15.286em 15.536em 15.786em
							 16.036em" dy="1.2em" class="st3">................................................................ </tspan><tspan
						x="0.286em 0.786em 1.036em 1.536em 2.036em 2.536em 3.036em 3.536em 4.036em 4.536em 5.036em 5.536em 6.036em
							 6.536em 7.036em 7.536em 8.036em 8.536em 9.036em 9.536em 10.036em 10.536em 11.036em 11.536em 12.036em
							 12.536em 13.036em 13.536em 14.036em 14.536em 15.036em 15.536em 16.036em" dy="1.2em" class="st3">1 0000000000000000000000000000010 </tspan><tspan
						x="0.286em 0.786em 1.036em 1.536em 2.036em 2.536em 3.036em 3.536em 4.036em 4.536em 5.036em 5.536em 6.036em
							 6.536em 7.036em 7.536em 8.036em 8.536em 9.036em 9.536em 10.036em 10.536em 11.036em 11.536em 12.036em
							 12.536em 13.036em 13.536em 14.036em 14.536em 15.036em 15.536em 16.036em" dy="1.2em" class="st3">1 0000000000000000000000000000001 </tspan><tspan
						x="0.286em 0.786em 1.036em 1.536em 2.036em 2.536em 3.036em 3.536em 4.036em 4.536em 5.036em 5.536em 6.036em
							 6.536em 7.036em 7.536em 8.036em 8.536em 9.036em 9.536em 10.036em 10.536em 11.036em 11.536em 12.036em
							 12.536em 13.036em 13.536em 14.036em 14.536em 15.036em 15.536em 16.036em" dy="1.2em" class="st3">1 0000000000000000000000000000000</tspan></text>		</g>
		<g id="shape2-22" transform="translate(159.982,-387.507)">
			<title>Sheet.2</title>
			<desc>2147483647 2147483646 2147483645 ...... 5 4 3 2 1 0 -1 -2 -3 ...</desc>
			<rect x="0" y="434.104" width="85.0394" height="325.984" class="st1"/>
			<text x="4" y="450.1" class="st4">2147483647 <tspan x="4" dy="1.2em" class="st3">2147483646 </tspan><tspan x="4"
						dy="1.2em" class="st3">2147483645 </tspan><tspan x="4" dy="1.2em" class="st3">...... </tspan><tspan x="4"
						dy="1.2em" class="st3">5 </tspan><tspan x="4" dy="1.2em" class="st3">4 </tspan><tspan x="4" dy="1.2em"
						class="st3">3 </tspan><tspan x="4" dy="1.2em" class="st3">2 </tspan><tspan x="4" dy="1.2em" class="st3">1 </tspan><tspan
						x="4" dy="1.2em" class="st3">0 </tspan><tspan x="4" dy="1.2em" class="st3">-</tspan>1 <tspan x="4"
						dy="1.2em" class="st3">-</tspan>2 <tspan x="4" dy="1.2em" class="st3">-</tspan>3 <tspan x="4" dy="1.2em"
						class="st3">-</tspan>4 <tspan x="4" dy="1.2em" class="st3">-</tspan>5 <tspan x="4" dy="1.2em" class="st3">...... </tspan><tspan
						x="4" dy="1.2em" class="st3">-</tspan>2147483646 <tspan x="4" dy="1.2em" class="st3">-</tspan>2147483647 <tspan
						x="4" dy="1.2em" class="st3">-</tspan>2147483648</text>		</g>
		<g id="shape3-43" transform="translate(-231.602,216.675) rotate(-90)">
			<title>Sheet.3</title>
			<path d="M0 760.09 L160.91 760.09" class="st5"/>
		</g>
		<g id="shape6-49" transform="translate(556.833,-713.492)">
			<title>Dynamic connector</title>
			<path d="M0 760.09 L0 1071.9 L28.35 1071.9" class="st7"/>
		</g>
		<g id="shape7-52" transform="translate(528.486,-713.492)">
			<title>Sheet.7</title>
			<path d="M0 760.09 L28.35 760.09" class="st7"/>
		</g>
		<g id="shape8-55" transform="translate(-174.909,358.407) rotate(-90)">
			<title>Sheet.8</title>
			<path d="M0 760.09 L77.62 760.09" class="st8"/>
		</g>
		<g id="shape9-61" transform="translate(514.313,-500.893)">
			<title>Sheet.9</title>
			<desc>+</desc>
			<rect x="0" y="717.569" width="28.3465" height="42.5197" class="st1"/>
			<text x="8.48" y="744.83" class="st10">+</text>		</g>
		<g id="shape10-64" transform="translate(514.313,-713.492)">
			<title>Sheet.10</title>
			<desc>overflow</desc>
			<rect x="0" y="731.742" width="56.6929" height="28.3465" class="st1"/>
			<text x="6.69" y="749.52" class="st11">overflow</text>		</g>
		<g id="shape12-67" transform="translate(585.179,-430.027)">
			<title>Sheet.12</title>
			<desc>overflow</desc>
			<rect x="0" y="731.742" width="56.6929" height="28.3465" class="st1"/>
			<text x="6.69" y="749.52" class="st11">overflow</text>		</g>
		<g id="shape13-70" transform="translate(-628.452,372.581) rotate(-90)">
			<title>Sheet.13</title>
			<path d="M8.81 760.09 L9.17 760.09 L170.08 760.09" class="st12"/>
		</g>
		<g id="shape14-76" transform="translate(117.463,-557.586)">
			<title>Sheet.14</title>
			<desc>-</desc>
			<rect x="0" y="717.569" width="28.3465" height="42.5197" class="st1"/>
			<text x="9.18" y="747.83" class="st14">-</text>		</g>
		<g id="shape15-79" transform="translate(103.289,-699.319)">
			<title>Dynamic connector.15</title>
			<path d="M0 760.09 L0 1071.9 L28.35 1071.9" class="st7"/>
		</g>
		<g id="shape16-82" transform="translate(74.9429,-699.319)">
			<title>Sheet.16</title>
			<path d="M0 760.09 L28.35 760.09" class="st7"/>
		</g>
		<g id="shape17-85" transform="translate(-685.145,145.809) rotate(-90)">
			<title>Sheet.17</title>
			<path d="M7.06 760.09 L7.42 760.09 L85.04 760.09" class="st15"/>
		</g>
		<g id="shape18-91" transform="translate(89.1161,-359.161)">
			<title>Sheet.18</title>
			<desc>overflow</desc>
			<rect x="0" y="731.742" width="56.6929" height="28.3465" class="st1"/>
			<text x="6.69" y="749.52" class="st11">overflow</text>		</g>
		<g id="shape20-94" transform="translate(18.25,-642.626)">
			<title>Sheet.20</title>
			<desc>overflow</desc>
			<rect x="0" y="731.742" width="56.6929" height="28.3465" class="st1"/>
			<text x="6.69" y="749.52" class="st11">overflow</text>		</g>
		<g id="shape21-97" transform="translate(259.195,-118.216)">
			<title>Circle</title>
			<path d="M0 660.88 A99.2126 99.2126 0 1 1 198.43 660.88 A99.2126 99.2126 0 1 1 -0 660.88 Z" class="st16"/>
		</g>
		<g id="shape22-99" transform="translate(344.234,-316.641)">
			<title>Sheet.22</title>
			<desc>0</desc>
			<rect x="0" y="731.742" width="28.3465" height="28.3465" class="st1"/>
			<text x="10.17" y="750.72" class="st17">0</text>		</g>
		<g id="shape23-102" transform="translate(372.581,-302.468)">
			<title>Sheet.23</title>
			<desc>1</desc>
			<rect x="0" y="717.569" width="28.3465" height="42.5197" class="st1"/>
			<text x="10.17" y="743.63" class="st17">1</text>		</g>
		<g id="shape24-105" transform="translate(400.927,-288.295)">
			<title>Sheet.24</title>
			<desc>2</desc>
			<rect x="0" y="717.569" width="28.3465" height="42.5197" class="st1"/>
			<text x="10.17" y="743.63" class="st17">2</text>		</g>
		<g id="shape25-108" transform="translate(415.1,-274.122)">
			<title>Sheet.25</title>
			<desc>3</desc>
			<rect x="0" y="717.569" width="42.5197" height="42.5197" class="st1"/>
			<text x="17.26" y="743.63" class="st17">3</text>		</g>
		<g id="shape26-111" transform="translate(315.888,-302.468)">
			<title>Sheet.26</title>
			<desc>-1</desc>
			<rect x="0" y="717.569" width="28.3465" height="42.5197" class="st1"/>
			<text x="7.51" y="743.63" class="st17">-1</text>		</g>
		<g id="shape27-114" transform="translate(287.541,-288.295)">
			<title>Sheet.27</title>
			<desc>-2</desc>
			<rect x="0" y="717.569" width="28.3465" height="42.5197" class="st1"/>
			<text x="7.51" y="743.63" class="st17">-2</text>		</g>
		<g id="shape28-117" transform="translate(259.195,-274.122)">
			<title>Sheet.28</title>
			<desc>-3</desc>
			<rect x="0" y="717.569" width="42.5197" height="42.5197" class="st1"/>
			<text x="14.6" y="743.63" class="st17">-3</text>		</g>
		<g id="shape29-120" transform="translate(315.888,-89.8697)">
			<title>Sheet.29</title>
			<desc>-2147483648</desc>
			<rect x="0" y="731.742" width="85.0394" height="28.3465" class="st1"/>
			<text x="5.19" y="750.12" class="st4">-2147483648</text>		</g>
		<g id="shape31-123" transform="translate(400.927,-104.043)">
			<title>Sheet.31</title>
			<desc>2147483647</desc>
			<rect x="0" y="717.569" width="85.0394" height="42.5197" class="st1"/>
			<text x="7.52" y="743.03" class="st4">2147483647</text>		</g>
		<g id="shape32-126" transform="translate(230.848,-104.043)">
			<title>Sheet.32</title>
			<desc>-2147483647</desc>
			<rect x="0" y="717.569" width="85.0394" height="42.5197" class="st1"/>
			<text x="5.19" y="743.03" class="st4">-2147483647</text>		</g>
		<g id="shape33-129" transform="translate(400.927,-89.8697)">
			<title>Sheet.33</title>
			<desc>INT_MAX</desc>
			<rect x="0" y="731.742" width="85.0394" height="28.3465" class="st1"/>
			<text x="11.02" y="750.12" class="st2">INT_MAX</text>		</g>
		<g id="shape34-132" transform="translate(315.888,-61.5232)">
			<title>Sheet.34</title>
			<desc>INT_MIN</desc>
			<rect x="0" y="717.569" width="85.0394" height="42.5197" class="st1"/>
			<text x="13.75" y="743.03" class="st2">INT_MIN</text>		</g>
		<g id="shape35-135" transform="translate(443.447,-160.736)">
			<title>Sheet.35</title>
			<desc>… … …</desc>
			<rect x="0" y="660.876" width="42.5197" height="99.2126" class="st1"/>
			<text x="14.26" y="681.08" class="st4">…  <tspan x="14.26" dy="2.4em" class="st3">…  </tspan><tspan x="14.26"
						dy="2.4em" class="st3">…</tspan></text>		</g>
		<g id="shape36-140" transform="translate(230.848,-160.736)">
			<title>Sheet.36</title>
			<desc>… … …</desc>
			<rect x="0" y="660.876" width="42.5197" height="99.2126" class="st1"/>
			<text x="14.26" y="681.08" class="st4">…  <tspan x="14.26" dy="2.4em" class="st3">…  </tspan><tspan x="14.26"
						dy="2.4em" class="st3">…</tspan></text>		</g>
		<g id="shape37-145" transform="translate(814.667,1319.66) rotate(155.556)">
			<title>Sheet.37</title>
			<path d="M0 760.09 A121.096 112.035 0 0 1 166.63 756.02 L166.9 756.26" class="st18"/>
		</g>
		<g id="shape39-151" transform="translate(854.235,1307.54) rotate(153.435)">
			<title>Sheet.39</title>
			<path d="M4.54 756.48 L4.83 756.26 A134.459 112.035 0 0 1 190.15 760.09" class="st20"/>
		</g>
		<g id="shape40-157" transform="translate(400.927,-33.1768)">
			<title>Sheet.40</title>
			<desc>overflow</desc>
			<rect x="0" y="731.742" width="99.2126" height="28.3465" class="st1"/>
			<text x="20.73" y="750.72" class="st17">overflow</text>		</g>
		<g id="shape41-160" transform="translate(429.274,-259.948)">
			<title>Sheet.41</title>
			<desc>4</desc>
			<rect x="0" y="731.742" width="42.5197" height="28.3465" class="st1"/>
			<text x="17.26" y="750.72" class="st17">4</text>		</g>
		<g id="shape42-163" transform="translate(245.022,-259.948)">
			<title>Sheet.42</title>
			<desc>-4</desc>
			<rect x="0" y="731.742" width="42.5197" height="28.3465" class="st1"/>
			<text x="14.6" y="750.72" class="st17">-4</text>		</g>
	</g>
</svg>
