<?xml version="1.0" encoding="UTF-8" standalone="no"?>
<!DOCTYPE svg PUBLIC "-//W3C//DTD SVG 1.1//EN" "http://www.w3.org/Graphics/SVG/1.1/DTD/svg11.dtd">
<!-- Illustrator: Larry Huang -->
<svg xmlns="http://www.w3.org/2000/svg" xmlns:xlink="http://www.w3.org/1999/xlink" xmlns:ev="http://www.w3.org/2001/xml-events"
		width="32.6005in" height="15.9021in" viewBox="0 0 2347.24 1144.95" xml:space="preserve" color-interpolation-filters="sRGB"
		class="st28">
	<style type="text/css">
	<![CDATA[
		.st1 {fill:#ffffff;stroke:#000000;stroke-linecap:round;stroke-linejoin:round;stroke-width:0.75}
		.st2 {fill:#000000;font-family:Georgia;font-size:1.00001em}
		.st3 {fill:#000000;font-family:Georgia;font-size:1.5em}
		.st4 {fill:#000000;font-family:Georgia;font-size:1.99999em}
		.st5 {fill:#000000;font-family:Georgia;font-size:2.50001em}
		.st6 {fill:#000000;font-family:Georgia;font-size:3em}
		.st7 {fill:#000000;font-family:Georgia;font-size:4.00001em}
		.st8 {fill:#000000;font-family:Georgia;font-size:4.99999em}
		.st9 {fill:#000000;font-family:Georgia;font-size:6em}
		.st10 {fill:#000000;font-family:Georgia;font-size:6.66666em}
		.st11 {stroke:#0000ff;stroke-linecap:round;stroke-linejoin:round;stroke-width:1.5}
		.st12 {fill:none;stroke:none;stroke-linecap:round;stroke-linejoin:round;stroke-width:0.75}
		.st13 {fill:#0000ff;font-family:Times New Roman;font-size:1.99999em}
		.st14 {fill:none;stroke:none;stroke-width:0.25}
		.st15 {fill:#7f7f7f;font-family:Times New Roman;font-size:1.66667em}
		.st16 {fill:#ffffff;stroke:none;stroke-linecap:round;stroke-linejoin:round;stroke-width:0.24}
		.st17 {fill:#000000;font-family:Calibri;font-size:2.50001em}
		.st18 {stroke:#0000ff;stroke-dasharray:0.75,1.5;stroke-linecap:round;stroke-linejoin:round;stroke-width:0.75}
		.st19 {fill:#0000ff;font-family:Calibri;font-size:2.50001em}
		.st20 {fill:#ffffff;stroke:none;stroke-linecap:round;stroke-linejoin:round;stroke-width:1.5}
		.st21 {fill:none;stroke:#000000;stroke-linecap:round;stroke-linejoin:round;stroke-width:0.24}
		.st22 {stroke:#000000;stroke-linecap:round;stroke-linejoin:round;stroke-width:2.25}
		.st23 {fill:#000000;font-family:Times New Roman;font-size:1.66667em}
		.st24 {stroke:#000000;stroke-linecap:round;stroke-linejoin:round;stroke-width:1.5}
		.st25 {fill:#3f3f3f;font-family:Times New Roman;font-size:1.33333em}
		.st26 {fill:#3f3f3f;font-family:Times New Roman;font-size:1.33333em;font-weight:bold}
		.st27 {fill:#0000ff;font-family:Times New Roman;font-size:2.50001em}
		.st28 {fill:none;fill-rule:evenodd;font-size:12px;overflow:visible;stroke-linecap:square;stroke-miterlimit:3}
	]]>
	</style>

	<g>
		<title>頁-1</title>
		<g id="group104-1" transform="translate(18.75,-49.4144)">
			<title>Sheet.104</title>
			<g id="shape1-2" transform="translate(340.157,-552.756)">
				<title>Sheet.1</title>
				<desc>1</desc>
				<rect x="0" y="1130.78" width="14.1732" height="14.1732" class="st1"/>
				<text x="4.51" y="1141.47" class="st2">1</text>			</g>
			<g id="shape2-5" transform="translate(354.331,-552.756)">
				<title>Sheet.2</title>
				<desc>1</desc>
				<rect x="0" y="1130.78" width="14.1732" height="14.1732" class="st1"/>
				<text x="4.51" y="1141.47" class="st2">1</text>			</g>
			<g id="shape3-8" transform="translate(340.157,-566.929)">
				<title>Sheet.3</title>
				<desc>2</desc>
				<rect x="0" y="1116.61" width="28.3465" height="28.3465" class="st1"/>
				<text x="9.15" y="1136.18" class="st3">2</text>			</g>
			<g id="shape4-11" transform="translate(297.638,-552.756)">
				<title>Sheet.4</title>
				<desc>3</desc>
				<rect x="0" y="1102.44" width="42.5197" height="42.5197" class="st1"/>
				<text x="14.64" y="1130.9" class="st4">3</text>			</g>
			<g id="shape5-14" transform="translate(297.638,-481.89)">
				<title>Sheet.5</title>
				<desc>5</desc>
				<rect x="0" y="1074.09" width="70.8661" height="70.8661" class="st1"/>
				<text x="27.51" y="1118.52" class="st5">5</text>			</g>
			<g id="shape6-17" transform="translate(368.504,-481.89)">
				<title>Sheet.6</title>
				<desc>8</desc>
				<rect x="0" y="1031.57" width="113.386" height="113.386" class="st1"/>
				<text x="45.96" y="1099.06" class="st6">8</text>			</g>
			<g id="shape7-20" transform="translate(297.638,-595.276)">
				<title>Sheet.7</title>
				<desc>13</desc>
				<rect x="0" y="960.703" width="184.252" height="184.252" class="st1"/>
				<text x="68.57" y="1067.23" class="st7">13</text>			</g>
			<g id="shape8-23" transform="translate(4.79616E-13,-481.89)">
				<title>Sheet.8</title>
				<desc>21</desc>
				<rect x="0" y="847.317" width="297.638" height="297.638" class="st1"/>
				<text x="119.17" y="1014.14" class="st8">21</text>			</g>
			<g id="shape9-26">
				<title>Sheet.9</title>
				<desc>34</desc>
				<rect x="0" y="663.065" width="481.89" height="481.89" class="st1"/>
				<text x="200.74" y="925.61" class="st9">34</text>			</g>
			<g id="shape10-29" transform="translate(481.89,-2.27374E-13)">
				<title>Sheet.10</title>
				<desc>55</desc>
				<rect x="0" y="365.427" width="779.528" height="779.528" class="st1"/>
				<text x="347.5" y="779.19" class="st10">55</text>			</g>
			<g id="shape11-32" transform="translate(1163.94,1401.8) rotate(-45) scale(1,-1)">
				<title>Sheet.11</title>
				<path d="M-0 1144.95 A14.1732 14.1732 45 0 1 20.04 1144.95" class="st11"/>
			</g>
			<g id="shape12-35" transform="translate(-455.275,1401.8) rotate(-135)">
				<title>Sheet.12</title>
				<path d="M-0 1144.95 A14.1732 14.1732 58 0 1 20.04 1144.95" class="st11"/>
			</g>
			<g id="shape13-38" transform="translate(297.638,-481.89)">
				<title>Sheet.13</title>
				<path d="M70.87 1059.92 A28.3465 28.3465 180 0 0 42.52 1031.57 A42.5197 42.5197 180 0 0 0 1074.09 A70.8661 70.8661
							 -180 0 0 70.87 1144.95 A113.386 113.386 -180 0 0 184.25 1031.57" class="st11"/>
			</g>
			<g id="shape14-41" transform="translate(-289.556,1321.12) rotate(-135)">
				<title>Sheet.14</title>
				<path d="M0 1090.99 A184.252 184.252 -135 0 0 260.57 1090.99" class="st11"/>
			</g>
			<g id="shape15-44">
				<title>Sheet.15</title>
				<path d="M297.64 365.43 A297.638 297.638 -180 0 0 0 663.06 A481.89 481.89 -90 0 0 481.89 1144.95 A779.528 779.528
							 -180 0 0 1261.42 365.43" class="st11"/>
			</g>
		</g>
		<g id="shape128-47" transform="translate(32.9232,-1098.23)">
			<title>Sheet.128</title>
			<desc>Fibonacci numbers</desc>
			<rect x="0" y="1116.61" width="198.425" height="28.3465" class="st12"/>
			<text x="7.57" y="1137.98" class="st13">Fibonacci numbers</text>		</g>
		<g id="shape16-50" transform="translate(1478.59,-21.0679)">
			<title>Sheet.16</title>
			<desc>Pascal&#39;s Triangle</desc>
			<rect x="0" y="1088.26" width="850.394" height="56.6929" class="st14"/>
			<text x="357.58" y="1122.61" class="st15">Pascal&#39;s Triangle</text>		</g>
		<g id="shape38-53" transform="translate(1860.52,-843.115)">
			<title>三角形</title>
			<desc>1</desc>
			<path d="M85.04 1144.95 L42.52 1059.92 L0 1144.95 L85.04 1144.95 Z" class="st16"/>
			<text x="34.92" y="1125.61" class="st17">1</text>		</g>
		<g id="shape39-56" transform="translate(1775.48,-673.036)">
			<title>三角形.39</title>
			<desc>1</desc>
			<path d="M85.04 1144.95 L42.52 1059.92 L0 1144.95 L85.04 1144.95 Z" class="st16"/>
			<text x="34.92" y="1125.61" class="st17">1</text>		</g>
		<g id="shape40-59" transform="translate(1945.56,-673.036)">
			<title>三角形.40</title>
			<desc>1</desc>
			<path d="M85.04 1144.95 L42.52 1059.92 L0 1144.95 L85.04 1144.95 Z" class="st16"/>
			<text x="34.92" y="1125.61" class="st17">1</text>		</g>
		<g id="shape41-62" transform="translate(1860.52,-673.036)">
			<title>三角形.41</title>
			<desc>2</desc>
			<path d="M85.04 1144.95 L42.52 1059.92 L0 1144.95 L85.04 1144.95 Z" class="st16"/>
			<text x="34.92" y="1125.61" class="st17">2</text>		</g>
		<g id="shape42-65" transform="translate(1903.04,-758.076)">
			<title>三角形.42</title>
			<desc>1</desc>
			<path d="M85.04 1144.95 L42.52 1059.92 L0 1144.95 L85.04 1144.95 Z" class="st16"/>
			<text x="34.92" y="1125.61" class="st17">1</text>		</g>
		<g id="shape43-68" transform="translate(1818,-758.076)">
			<title>三角形.43</title>
			<desc>1</desc>
			<path d="M85.04 1144.95 L42.52 1059.92 L0 1144.95 L85.04 1144.95 Z" class="st16"/>
			<text x="34.92" y="1125.61" class="st17">1</text>		</g>
		<g id="shape44-71" transform="translate(1732.96,-587.997)">
			<title>三角形.44</title>
			<desc>1</desc>
			<path d="M85.04 1144.95 L42.52 1059.92 L0 1144.95 L85.04 1144.95 Z" class="st16"/>
			<text x="34.92" y="1125.61" class="st17">1</text>		</g>
		<g id="shape45-74" transform="translate(1988.08,-587.997)">
			<title>三角形.45</title>
			<desc>1</desc>
			<path d="M85.04 1144.95 L42.52 1059.92 L0 1144.95 L85.04 1144.95 Z" class="st16"/>
			<text x="34.92" y="1125.61" class="st17">1</text>		</g>
		<g id="shape46-77" transform="translate(1818,-587.997)">
			<title>三角形.46</title>
			<desc>3</desc>
			<path d="M85.04 1144.95 L42.52 1059.92 L0 1144.95 L85.04 1144.95 Z" class="st16"/>
			<text x="34.92" y="1125.61" class="st17">3</text>		</g>
		<g id="shape47-80" transform="translate(1903.04,-587.997)">
			<title>三角形.47</title>
			<desc>3</desc>
			<path d="M85.04 1144.95 L42.52 1059.92 L0 1144.95 L85.04 1144.95 Z" class="st16"/>
			<text x="34.92" y="1125.61" class="st17">3</text>		</g>
		<g id="shape48-83" transform="translate(1690.44,-502.958)">
			<title>三角形.48</title>
			<desc>1</desc>
			<path d="M85.04 1144.95 L42.52 1059.92 L0 1144.95 L85.04 1144.95 Z" class="st16"/>
			<text x="34.92" y="1125.61" class="st17">1</text>		</g>
		<g id="shape49-86" transform="translate(2030.6,-502.958)">
			<title>三角形.49</title>
			<desc>1</desc>
			<path d="M85.04 1144.95 L42.52 1059.92 L0 1144.95 L85.04 1144.95 Z" class="st16"/>
			<text x="34.92" y="1125.61" class="st17">1</text>		</g>
		<g id="shape50-89" transform="translate(1775.48,-502.958)">
			<title>三角形.50</title>
			<desc>4</desc>
			<path d="M85.04 1144.95 L42.52 1059.92 L0 1144.95 L85.04 1144.95 Z" class="st16"/>
			<text x="34.92" y="1125.61" class="st17">4</text>		</g>
		<g id="shape51-92" transform="translate(1860.52,-502.958)">
			<title>三角形.51</title>
			<desc>6</desc>
			<path d="M85.04 1144.95 L42.52 1059.92 L0 1144.95 L85.04 1144.95 Z" class="st16"/>
			<text x="34.92" y="1125.61" class="st17">6</text>		</g>
		<g id="shape52-95" transform="translate(1945.56,-502.958)">
			<title>三角形.52</title>
			<desc>4</desc>
			<path d="M85.04 1144.95 L42.52 1059.92 L0 1144.95 L85.04 1144.95 Z" class="st16"/>
			<text x="34.92" y="1125.61" class="st17">4</text>		</g>
		<g id="shape53-98" transform="translate(1647.93,-417.918)">
			<title>三角形.53</title>
			<desc>1</desc>
			<path d="M85.04 1144.95 L42.52 1059.92 L0 1144.95 L85.04 1144.95 Z" class="st16"/>
			<text x="34.92" y="1125.61" class="st17">1</text>		</g>
		<g id="shape54-101" transform="translate(1732.96,-417.918)">
			<title>三角形.54</title>
			<desc>5</desc>
			<path d="M85.04 1144.95 L42.52 1059.92 L0 1144.95 L85.04 1144.95 Z" class="st16"/>
			<text x="34.92" y="1125.61" class="st17">5</text>		</g>
		<g id="shape55-104" transform="translate(1818,-417.918)">
			<title>三角形.55</title>
			<desc>10</desc>
			<path d="M85.04 1144.95 L42.52 1059.92 L0 1144.95 L85.04 1144.95 Z" class="st16"/>
			<text x="27.31" y="1125.61" class="st17">10</text>		</g>
		<g id="shape56-107" transform="translate(1903.04,-417.918)">
			<title>三角形.56</title>
			<desc>10</desc>
			<path d="M85.04 1144.95 L42.52 1059.92 L0 1144.95 L85.04 1144.95 Z" class="st16"/>
			<text x="27.31" y="1125.61" class="st17">10</text>		</g>
		<g id="shape57-110" transform="translate(1988.08,-417.918)">
			<title>三角形.57</title>
			<desc>5</desc>
			<path d="M85.04 1144.95 L42.52 1059.92 L0 1144.95 L85.04 1144.95 Z" class="st16"/>
			<text x="34.92" y="1125.61" class="st17">5</text>		</g>
		<g id="shape58-113" transform="translate(2073.12,-417.918)">
			<title>三角形.58</title>
			<desc>1</desc>
			<path d="M85.04 1144.95 L42.52 1059.92 L0 1144.95 L85.04 1144.95 Z" class="st16"/>
			<text x="34.92" y="1125.61" class="st17">1</text>		</g>
		<g id="shape59-116" transform="translate(1605.41,-332.879)">
			<title>三角形.59</title>
			<desc>1</desc>
			<path d="M85.04 1144.95 L42.52 1059.92 L0 1144.95 L85.04 1144.95 Z" class="st16"/>
			<text x="34.92" y="1125.61" class="st17">1</text>		</g>
		<g id="shape60-119" transform="translate(1690.44,-332.879)">
			<title>三角形.60</title>
			<desc>6</desc>
			<path d="M85.04 1144.95 L42.52 1059.92 L0 1144.95 L85.04 1144.95 Z" class="st16"/>
			<text x="34.92" y="1125.61" class="st17">6</text>		</g>
		<g id="shape61-122" transform="translate(1945.56,-332.879)">
			<title>三角形.61</title>
			<desc>15</desc>
			<path d="M85.04 1144.95 L42.52 1059.92 L0 1144.95 L85.04 1144.95 Z" class="st16"/>
			<text x="27.31" y="1125.61" class="st17">15</text>		</g>
		<g id="shape62-125" transform="translate(2030.6,-332.879)">
			<title>三角形.62</title>
			<desc>6</desc>
			<path d="M85.04 1144.95 L42.52 1059.92 L0 1144.95 L85.04 1144.95 Z" class="st16"/>
			<text x="34.92" y="1125.61" class="st17">6</text>		</g>
		<g id="shape63-128" transform="translate(1775.48,-332.879)">
			<title>三角形.63</title>
			<desc>15</desc>
			<path d="M85.04 1144.95 L42.52 1059.92 L0 1144.95 L85.04 1144.95 Z" class="st16"/>
			<text x="27.31" y="1125.61" class="st17">15</text>		</g>
		<g id="shape64-131" transform="translate(1860.52,-332.879)">
			<title>三角形.64</title>
			<desc>20</desc>
			<path d="M85.04 1144.95 L42.52 1059.92 L0 1144.95 L85.04 1144.95 Z" class="st16"/>
			<text x="27.31" y="1125.61" class="st17">20</text>		</g>
		<g id="shape65-134" transform="translate(2115.64,-332.879)">
			<title>三角形.65</title>
			<desc>1</desc>
			<path d="M85.04 1144.95 L42.52 1059.92 L0 1144.95 L85.04 1144.95 Z" class="st16"/>
			<text x="34.92" y="1125.61" class="st17">1</text>		</g>
		<g id="shape67-137" transform="translate(2115.64,-956.501)">
			<title>動態連接器.67</title>
			<path d="M0 1144.95 L-680.31 1598.5" class="st18"/>
		</g>
		<g id="shape68-140" transform="translate(2115.64,-899.808)">
			<title>動態連接器.68</title>
			<path d="M0 1144.95 L-680.31 1598.5" class="st18"/>
		</g>
		<g id="shape69-143" transform="translate(2115.64,-843.115)">
			<title>動態連接器.69</title>
			<path d="M0 1144.95 L-680.31 1598.5" class="st18"/>
		</g>
		<g id="shape71-146" transform="translate(2115.64,-786.422)">
			<title>動態連接器.71</title>
			<path d="M0 1144.95 L-680.31 1598.5" class="st18"/>
		</g>
		<g id="shape72-149" transform="translate(2115.64,-729.729)">
			<title>動態連接器.72</title>
			<path d="M0 1144.95 L-680.31 1598.5" class="st18"/>
		</g>
		<g id="shape73-152" transform="translate(2115.64,-673.036)">
			<title>動態連接器.73</title>
			<path d="M0 1144.95 L-680.31 1598.5" class="st18"/>
		</g>
		<g id="shape75-155" transform="translate(1562.89,-247.84)">
			<title>三角形.75</title>
			<desc>1</desc>
			<path d="M85.04 1144.95 L42.52 1059.92 L0 1144.95 L85.04 1144.95 Z" class="st16"/>
			<text x="34.92" y="1125.61" class="st17">1</text>		</g>
		<g id="shape74-158" transform="translate(2115.64,-616.344)">
			<title>動態連接器.74</title>
			<path d="M0 1144.95 L-680.31 1598.5" class="st18"/>
		</g>
		<g id="shape76-161" transform="translate(1647.93,-247.84)">
			<title>三角形.76</title>
			<desc>7</desc>
			<path d="M85.04 1144.95 L42.52 1059.92 L0 1144.95 L85.04 1144.95 Z" class="st16"/>
			<text x="34.92" y="1125.61" class="st17">7</text>		</g>
		<g id="shape77-164" transform="translate(1732.96,-247.84)">
			<title>三角形.77</title>
			<desc>21</desc>
			<path d="M85.04 1144.95 L42.52 1059.92 L0 1144.95 L85.04 1144.95 Z" class="st16"/>
			<text x="27.31" y="1125.61" class="st17">21</text>		</g>
		<g id="shape78-167" transform="translate(1818,-247.84)">
			<title>三角形.78</title>
			<desc>35</desc>
			<path d="M85.04 1144.95 L42.52 1059.92 L0 1144.95 L85.04 1144.95 Z" class="st16"/>
			<text x="27.31" y="1125.61" class="st17">35</text>		</g>
		<g id="shape79-170" transform="translate(1903.04,-247.84)">
			<title>三角形.79</title>
			<desc>35</desc>
			<path d="M85.04 1144.95 L42.52 1059.92 L0 1144.95 L85.04 1144.95 Z" class="st16"/>
			<text x="27.31" y="1125.61" class="st17">35</text>		</g>
		<g id="shape80-173" transform="translate(1988.08,-247.84)">
			<title>三角形.80</title>
			<desc>21</desc>
			<path d="M85.04 1144.95 L42.52 1059.92 L0 1144.95 L85.04 1144.95 Z" class="st16"/>
			<text x="27.31" y="1125.61" class="st17">21</text>		</g>
		<g id="shape81-176" transform="translate(2073.12,-247.84)">
			<title>三角形.81</title>
			<desc>7</desc>
			<path d="M85.04 1144.95 L42.52 1059.92 L0 1144.95 L85.04 1144.95 Z" class="st16"/>
			<text x="34.92" y="1125.61" class="st17">7</text>		</g>
		<g id="shape82-179" transform="translate(2158.16,-247.84)">
			<title>三角形.82</title>
			<desc>1</desc>
			<path d="M85.04 1144.95 L42.52 1059.92 L0 1144.95 L85.04 1144.95 Z" class="st16"/>
			<text x="34.92" y="1125.61" class="st17">1</text>		</g>
		<g id="shape83-182" transform="translate(2115.64,-1013.19)">
			<title>動態連接器.83</title>
			<path d="M0 1144.95 L-680.31 1598.5" class="st18"/>
		</g>
		<g id="shape84-185" transform="translate(1378.63,-531.304)">
			<title>Sheet.84</title>
			<desc>1</desc>
			<rect x="0" y="1088.26" width="85.0394" height="56.6929" class="st12"/>
			<text x="34.92" y="1125.61" class="st19">1</text>		</g>
		<g id="shape85-188" transform="translate(1378.63,-417.918)">
			<title>Sheet.85</title>
			<desc>2</desc>
			<rect x="0" y="1088.26" width="85.0394" height="56.6929" class="st12"/>
			<text x="34.92" y="1125.61" class="st19">2</text>		</g>
		<g id="shape86-191" transform="translate(1378.63,-361.225)">
			<title>Sheet.86</title>
			<desc>3</desc>
			<rect x="0" y="1088.26" width="85.0394" height="56.6929" class="st12"/>
			<text x="34.92" y="1125.61" class="st19">3</text>		</g>
		<g id="shape87-194" transform="translate(1378.63,-474.611)">
			<title>Sheet.87</title>
			<desc>1</desc>
			<rect x="0" y="1088.26" width="85.0394" height="56.6929" class="st12"/>
			<text x="34.92" y="1125.61" class="st19">1</text>		</g>
		<g id="shape88-197" transform="translate(1378.63,-191.147)">
			<title>Sheet.88</title>
			<desc>13</desc>
			<rect x="0" y="1088.26" width="85.0394" height="56.6929" class="st12"/>
			<text x="27.31" y="1125.61" class="st19">13</text>		</g>
		<g id="shape89-200" transform="translate(1378.63,-247.84)">
			<title>Sheet.89</title>
			<desc>8</desc>
			<rect x="0" y="1088.26" width="85.0394" height="56.6929" class="st12"/>
			<text x="34.92" y="1125.61" class="st19">8</text>		</g>
		<g id="shape90-203" transform="translate(1378.63,-304.532)">
			<title>Sheet.90</title>
			<desc>5</desc>
			<rect x="0" y="1088.26" width="85.0394" height="56.6929" class="st12"/>
			<text x="34.92" y="1125.61" class="st19">5</text>		</g>
		<g id="shape91-206" transform="translate(1378.63,-134.454)">
			<title>Sheet.91</title>
			<desc>21</desc>
			<rect x="0" y="1088.26" width="85.0394" height="56.6929" class="st12"/>
			<text x="27.31" y="1125.61" class="st19">21</text>		</g>
		<g id="shape92-209" transform="translate(1520.37,-162.8)">
			<title>三角形.92</title>
			<desc>1</desc>
			<path d="M85.04 1144.95 L42.52 1059.92 L0 1144.95 L85.04 1144.95 Z" class="st16"/>
			<text x="34.92" y="1125.61" class="st17">1</text>		</g>
		<g id="shape93-212" transform="translate(1605.41,-162.8)">
			<title>三角形.93</title>
			<desc>8</desc>
			<path d="M85.04 1144.95 L42.52 1059.92 L0 1144.95 L85.04 1144.95 Z" class="st16"/>
			<text x="34.92" y="1125.61" class="st17">8</text>		</g>
		<g id="shape94-215" transform="translate(1690.44,-162.8)">
			<title>三角形.94</title>
			<desc>28</desc>
			<path d="M85.04 1144.95 L42.52 1059.92 L0 1144.95 L85.04 1144.95 Z" class="st16"/>
			<text x="27.31" y="1125.61" class="st17">28</text>		</g>
		<g id="shape95-218" transform="translate(1775.48,-162.8)">
			<title>三角形.95</title>
			<desc>56</desc>
			<path d="M85.04 1144.95 L42.52 1059.92 L0 1144.95 L85.04 1144.95 Z" class="st16"/>
			<text x="27.31" y="1125.61" class="st17">56</text>		</g>
		<g id="shape96-221" transform="translate(1860.52,-162.8)">
			<title>三角形.96</title>
			<desc>70</desc>
			<path d="M85.04 1144.95 L42.52 1059.92 L0 1144.95 L85.04 1144.95 Z" class="st16"/>
			<text x="27.31" y="1125.61" class="st17">70</text>		</g>
		<g id="shape97-224" transform="translate(1945.56,-162.8)">
			<title>三角形.97</title>
			<desc>56</desc>
			<path d="M85.04 1144.95 L42.52 1059.92 L0 1144.95 L85.04 1144.95 Z" class="st16"/>
			<text x="27.31" y="1125.61" class="st17">56</text>		</g>
		<g id="shape98-227" transform="translate(2030.6,-162.8)">
			<title>三角形.98</title>
			<desc>28</desc>
			<path d="M85.04 1144.95 L42.52 1059.92 L0 1144.95 L85.04 1144.95 Z" class="st16"/>
			<text x="27.31" y="1125.61" class="st17">28</text>		</g>
		<g id="shape99-230" transform="translate(2115.64,-162.8)">
			<title>三角形.99</title>
			<desc>8</desc>
			<path d="M85.04 1144.95 L42.52 1059.92 L0 1144.95 L85.04 1144.95 Z" class="st16"/>
			<text x="34.92" y="1125.61" class="st17">8</text>		</g>
		<g id="shape100-233" transform="translate(2200.68,-162.8)">
			<title>三角形.100</title>
			<desc>1</desc>
			<path d="M85.04 1144.95 L42.52 1059.92 L0 1144.95 L85.04 1144.95 Z" class="st16"/>
			<text x="34.92" y="1125.61" class="st17">1</text>		</g>
		<g id="shape101-236" transform="translate(2115.64,-559.651)">
			<title>動態連接器.101</title>
			<path d="M0 1144.95 L-680.31 1598.5" class="st18"/>
		</g>
		<g id="shape102-239" transform="translate(1378.63,-77.7608)">
			<title>Sheet.102</title>
			<desc>34</desc>
			<rect x="0" y="1088.26" width="85.0394" height="56.6929" class="st12"/>
			<text x="27.31" y="1125.61" class="st19">34</text>		</g>
		<g id="shape105-242" transform="translate(2243.2,-77.7608)">
			<title>三角形.105</title>
			<desc>1</desc>
			<path d="M85.04 1144.95 L42.52 1059.92 L0 1144.95 L85.04 1144.95 Z" class="st20"/>
			<text x="34.92" y="1125.61" class="st17">1</text>		</g>
		<g id="shape115-245" transform="translate(1477.85,-77.7608)">
			<title>三角形.115</title>
			<desc>1</desc>
			<path d="M85.04 1144.95 L42.52 1059.92 L0 1144.95 L85.04 1144.95 Z" class="st20"/>
			<text x="34.92" y="1125.61" class="st17">1</text>		</g>
		<g id="shape116-248" transform="translate(1562.89,-77.7608)">
			<title>三角形.116</title>
			<desc>9</desc>
			<path d="M85.04 1144.95 L42.52 1059.92 L0 1144.95 L85.04 1144.95 Z" class="st20"/>
			<text x="34.92" y="1125.61" class="st17">9</text>		</g>
		<g id="shape117-251" transform="translate(2158.16,-77.7608)">
			<title>三角形.117</title>
			<desc>9</desc>
			<path d="M85.04 1144.95 L42.52 1059.92 L0 1144.95 L85.04 1144.95 Z" class="st20"/>
			<text x="34.92" y="1125.61" class="st17">9</text>		</g>
		<g id="shape118-254" transform="translate(1647.93,-77.7608)">
			<title>三角形.118</title>
			<desc>36</desc>
			<path d="M85.04 1144.95 L42.52 1059.92 L0 1144.95 L85.04 1144.95 Z" class="st20"/>
			<text x="27.31" y="1125.61" class="st17">36</text>		</g>
		<g id="shape119-257" transform="translate(2073.12,-77.7608)">
			<title>三角形.119</title>
			<desc>36</desc>
			<path d="M85.04 1144.95 L42.52 1059.92 L0 1144.95 L85.04 1144.95 Z" class="st20"/>
			<text x="27.31" y="1125.61" class="st17">36</text>		</g>
		<g id="shape120-260" transform="translate(1734.96,-77.7608)">
			<title>三角形.120</title>
			<desc>84</desc>
			<path d="M85.04 1144.95 L42.52 1059.92 L0 1144.95 L85.04 1144.95 Z" class="st20"/>
			<text x="27.31" y="1125.61" class="st17">84</text>		</g>
		<g id="shape121-263" transform="translate(1988.08,-77.7608)">
			<title>三角形.121</title>
			<desc>84</desc>
			<path d="M85.04 1144.95 L42.52 1059.92 L0 1144.95 L85.04 1144.95 Z" class="st20"/>
			<text x="27.31" y="1125.61" class="st17">84</text>		</g>
		<g id="shape122-266" transform="translate(1818,-77.7608)">
			<title>三角形.122</title>
			<desc>126</desc>
			<path d="M85.04 1144.95 L42.52 1059.92 L0 1144.95 L85.04 1144.95 Z" class="st20"/>
			<text x="19.71" y="1125.61" class="st17">126</text>		</g>
		<g id="shape123-269" transform="translate(1905.04,-77.7608)">
			<title>三角形.123</title>
			<desc>126</desc>
			<path d="M85.04 1144.95 L42.52 1059.92 L0 1144.95 L85.04 1144.95 Z" class="st20"/>
			<text x="19.71" y="1125.61" class="st17">126</text>		</g>
		<g id="shape124-272" transform="translate(2115.64,-502.958)">
			<title>動態連接器.124</title>
			<path d="M0 1144.95 L-680.31 1598.5" class="st18"/>
		</g>
		<g id="shape103-275" transform="translate(1478.59,-77.7608)">
			<title>三角形.103</title>
			<path d="M850.39 1144.95 L425.2 294.56 L0 1144.95 L850.39 1144.95 Z" class="st21"/>
		</g>
		<g id="shape125-277" transform="translate(1378.63,-21.0679)">
			<title>Sheet.125</title>
			<desc>55</desc>
			<rect x="0" y="1088.26" width="85.0394" height="56.6929" class="st12"/>
			<text x="27.31" y="1125.61" class="st19">55</text>		</g>
		<g id="shape129-280" transform="translate(146.309,-928.155)">
			<title>左大括弧</title>
			<path d="M28.35 1144.95 A37.9502 18.9751 0 0 1 14.17 1133.62 L14.17 1088.26 L0 1088.26 L14.17 1088.26 L14.17 1042.91
						 A37.9502 18.9751 0 0 1 28.35 1031.57" class="st22"/>
		</g>
		<g id="shape130-283" transform="translate(61.2696,-956.501)">
			<title>Sheet.130</title>
			<desc>F(n)</desc>
			<rect x="0" y="1088.26" width="85.0394" height="56.6929" class="st12"/>
			<text x="25.3" y="1122.61" class="st23">F(n)</text>		</g>
		<g id="shape131-286" transform="translate(203.002,-956.501)">
			<title>Sheet.131</title>
			<desc>n</desc>
			<rect x="0" y="1088.26" width="170.079" height="56.6929" class="st12"/>
			<text x="4" y="1122.61" class="st23">n</text>		</g>
		<g id="shape133-289" transform="translate(174.655,-899.808)">
			<title>Sheet.133</title>
			<desc>F(n-2) + F(n-1)</desc>
			<rect x="0" y="1088.26" width="198.425" height="56.6929" class="st12"/>
			<text x="37.47" y="1122.61" class="st23">F(n-2) + F(n-1)</text>		</g>
		<g id="shape134-292" transform="translate(373.081,-956.501)">
			<title>Sheet.134</title>
			<desc>, if n = 0 , 1</desc>
			<rect x="0" y="1088.26" width="113.386" height="56.6929" class="st12"/>
			<text x="4" y="1122.61" class="st23">, if n = 0 , 1</text>		</g>
		<g id="shape136-295" transform="translate(373.081,-899.808)">
			<title>Sheet.136</title>
			<desc>, if n &#62; 1</desc>
			<rect x="0" y="1088.26" width="113.386" height="56.6929" class="st12"/>
			<text x="4" y="1122.61" class="st23">, if n &#62; 1</text>		</g>
		<g id="shape186-298" transform="translate(174.655,-1013.19)">
			<title>Sheet.186</title>
			<desc>F(n+2) - F(n+1)</desc>
			<rect x="0" y="1088.26" width="198.425" height="56.6929" class="st12"/>
			<text x="35.16" y="1122.61" class="st23">F(n+2) - F(n+1)</text>		</g>
		<g id="shape187-301" transform="translate(373.081,-1013.19)">
			<title>Sheet.187</title>
			<desc>, if n &#60; 0</desc>
			<rect x="0" y="1088.26" width="113.386" height="56.6929" class="st12"/>
			<text x="4" y="1122.61" class="st23">, if n &#60; 0</text>		</g>
		<g id="shape138-304" transform="translate(557.333,-991.934)">
			<title>動態連接器</title>
			<path d="M0 1152.04 L82.68 1152.04 A2.3622 2.3622 0 1 1 87.4 1152.04 L1275.59 1152.04" class="st24"/>
		</g>
		<g id="shape139-307" transform="translate(635.285,-1041.54)">
			<title>動態連接器.139</title>
			<path d="M7.09 1144.95 L7.09 1258.34" class="st24"/>
		</g>
		<g id="shape140-310" transform="translate(571.506,-984.847)">
			<title>Sheet.140</title>
			<desc>n</desc>
			<rect x="0" y="1102.44" width="70.8661" height="42.5197" class="st12"/>
			<text x="31.43" y="1128.5" class="st25">n</text>		</g>
		<g id="shape141-313" transform="translate(571.506,-942.328)">
			<title>Sheet.141</title>
			<desc>F(n)</desc>
			<rect x="0" y="1102.44" width="70.8661" height="42.5197" class="st12"/>
			<text x="20.77" y="1128.5" class="st26">F(n)</text>		</g>
		<g id="shape142-316" transform="translate(642.372,-984.847)">
			<title>Sheet.142</title>
			<desc>-10</desc>
			<rect x="0" y="1102.44" width="42.5197" height="42.5197" class="st12"/>
			<text x="10.6" y="1128.5" class="st25">-10</text>		</g>
		<g id="shape143-319" transform="translate(699.065,-984.847)">
			<title>Sheet.143</title>
			<desc>-9</desc>
			<rect x="0" y="1102.44" width="42.5197" height="42.5197" class="st12"/>
			<text x="14.6" y="1128.5" class="st25">-9</text>		</g>
		<g id="shape144-322" transform="translate(755.758,-984.847)">
			<title>Sheet.144</title>
			<desc>-8</desc>
			<rect x="0" y="1102.44" width="42.5197" height="42.5197" class="st12"/>
			<text x="14.6" y="1128.5" class="st25">-8</text>		</g>
		<g id="shape145-325" transform="translate(812.451,-984.847)">
			<title>Sheet.145</title>
			<desc>-7</desc>
			<rect x="0" y="1102.44" width="42.5197" height="42.5197" class="st12"/>
			<text x="14.6" y="1128.5" class="st25">-7</text>		</g>
		<g id="shape146-328" transform="translate(869.144,-984.847)">
			<title>Sheet.146</title>
			<desc>-6</desc>
			<rect x="0" y="1102.44" width="42.5197" height="42.5197" class="st12"/>
			<text x="14.6" y="1128.5" class="st25">-6</text>		</g>
		<g id="shape147-331" transform="translate(925.837,-984.847)">
			<title>Sheet.147</title>
			<desc>-5</desc>
			<rect x="0" y="1102.44" width="42.5197" height="42.5197" class="st12"/>
			<text x="14.6" y="1128.5" class="st25">-5</text>		</g>
		<g id="shape148-334" transform="translate(982.53,-984.847)">
			<title>Sheet.148</title>
			<desc>-4</desc>
			<rect x="0" y="1102.44" width="42.5197" height="42.5197" class="st12"/>
			<text x="14.6" y="1128.5" class="st25">-4</text>		</g>
		<g id="shape149-337" transform="translate(1095.92,-984.847)">
			<title>Sheet.149</title>
			<desc>-2</desc>
			<rect x="0" y="1102.44" width="42.5197" height="42.5197" class="st12"/>
			<text x="14.6" y="1128.5" class="st25">-2</text>		</g>
		<g id="shape150-340" transform="translate(1152.61,-984.847)">
			<title>Sheet.150</title>
			<desc>-1</desc>
			<rect x="0" y="1102.44" width="42.5197" height="42.5197" class="st12"/>
			<text x="14.6" y="1128.5" class="st25">-1</text>		</g>
		<g id="shape151-343" transform="translate(1209.3,-984.847)">
			<title>Sheet.151</title>
			<desc>0</desc>
			<rect x="0" y="1102.44" width="42.5197" height="42.5197" class="st12"/>
			<text x="17.26" y="1128.5" class="st25">0</text>		</g>
		<g id="shape152-346" transform="translate(1039.22,-984.847)">
			<title>Sheet.152</title>
			<desc>-3</desc>
			<rect x="0" y="1102.44" width="42.5197" height="42.5197" class="st12"/>
			<text x="14.6" y="1128.5" class="st25">-3</text>		</g>
		<g id="shape153-349" transform="translate(1776.23,-984.847)">
			<title>Sheet.153</title>
			<desc>10</desc>
			<rect x="0" y="1102.44" width="42.5197" height="42.5197" class="st12"/>
			<text x="13.26" y="1128.5" class="st25">10</text>		</g>
		<g id="shape154-352" transform="translate(1719.54,-984.847)">
			<title>Sheet.154</title>
			<desc>9</desc>
			<rect x="0" y="1102.44" width="42.5197" height="42.5197" class="st12"/>
			<text x="17.26" y="1128.5" class="st25">9</text>		</g>
		<g id="shape155-355" transform="translate(1662.84,-984.847)">
			<title>Sheet.155</title>
			<desc>8</desc>
			<rect x="0" y="1102.44" width="42.5197" height="42.5197" class="st12"/>
			<text x="17.26" y="1128.5" class="st25">8</text>		</g>
		<g id="shape156-358" transform="translate(1606.15,-984.847)">
			<title>Sheet.156</title>
			<desc>7</desc>
			<rect x="0" y="1102.44" width="42.5197" height="42.5197" class="st12"/>
			<text x="17.26" y="1128.5" class="st25">7</text>		</g>
		<g id="shape157-361" transform="translate(1549.46,-984.847)">
			<title>Sheet.157</title>
			<desc>6</desc>
			<rect x="0" y="1102.44" width="42.5197" height="42.5197" class="st12"/>
			<text x="17.26" y="1128.5" class="st25">6</text>		</g>
		<g id="shape158-364" transform="translate(1492.77,-984.847)">
			<title>Sheet.158</title>
			<desc>5</desc>
			<rect x="0" y="1102.44" width="42.5197" height="42.5197" class="st12"/>
			<text x="17.26" y="1128.5" class="st25">5</text>		</g>
		<g id="shape159-367" transform="translate(1436.07,-984.847)">
			<title>Sheet.159</title>
			<desc>4</desc>
			<rect x="0" y="1102.44" width="42.5197" height="42.5197" class="st12"/>
			<text x="17.26" y="1128.5" class="st25">4</text>		</g>
		<g id="shape160-370" transform="translate(1322.69,-984.847)">
			<title>Sheet.160</title>
			<desc>2</desc>
			<rect x="0" y="1102.44" width="42.5197" height="42.5197" class="st12"/>
			<text x="17.26" y="1128.5" class="st25">2</text>		</g>
		<g id="shape161-373" transform="translate(1265.99,-984.847)">
			<title>Sheet.161</title>
			<desc>1</desc>
			<rect x="0" y="1102.44" width="42.5197" height="42.5197" class="st12"/>
			<text x="17.26" y="1128.5" class="st25">1</text>		</g>
		<g id="shape162-376" transform="translate(1209.3,-942.328)">
			<title>Sheet.162</title>
			<desc>0</desc>
			<rect x="0" y="1102.44" width="42.5197" height="42.5197" class="st12"/>
			<text x="17.26" y="1128.5" class="st26">0</text>		</g>
		<g id="shape163-379" transform="translate(1379.38,-984.847)">
			<title>Sheet.163</title>
			<desc>3</desc>
			<rect x="0" y="1102.44" width="42.5197" height="42.5197" class="st12"/>
			<text x="17.26" y="1128.5" class="st25">3</text>		</g>
		<g id="shape164-382" transform="translate(1265.99,-942.328)">
			<title>Sheet.164</title>
			<desc>1</desc>
			<rect x="0" y="1102.44" width="42.5197" height="42.5197" class="st12"/>
			<text x="17.26" y="1128.5" class="st26">1</text>		</g>
		<g id="shape165-385" transform="translate(1322.69,-942.328)">
			<title>Sheet.165</title>
			<desc>1</desc>
			<rect x="0" y="1102.44" width="42.5197" height="42.5197" class="st12"/>
			<text x="17.26" y="1128.5" class="st26">1</text>		</g>
		<g id="shape166-388" transform="translate(1379.38,-942.328)">
			<title>Sheet.166</title>
			<desc>2</desc>
			<rect x="0" y="1102.44" width="42.5197" height="42.5197" class="st12"/>
			<text x="17.26" y="1128.5" class="st26">2</text>		</g>
		<g id="shape167-391" transform="translate(1549.46,-942.328)">
			<title>Sheet.167</title>
			<desc>8</desc>
			<rect x="0" y="1102.44" width="42.5197" height="42.5197" class="st12"/>
			<text x="17.26" y="1128.5" class="st26">8</text>		</g>
		<g id="shape168-394" transform="translate(1492.77,-942.328)">
			<title>Sheet.168</title>
			<desc>5</desc>
			<rect x="0" y="1102.44" width="42.5197" height="42.5197" class="st12"/>
			<text x="17.26" y="1128.5" class="st26">5</text>		</g>
		<g id="shape169-397" transform="translate(1436.07,-942.328)">
			<title>Sheet.169</title>
			<desc>3</desc>
			<rect x="0" y="1102.44" width="42.5197" height="42.5197" class="st12"/>
			<text x="17.26" y="1128.5" class="st26">3</text>		</g>
		<g id="shape170-400" transform="translate(1776.23,-942.328)">
			<title>Sheet.170</title>
			<desc>55</desc>
			<rect x="0" y="1102.44" width="42.5197" height="42.5197" class="st12"/>
			<text x="13.26" y="1128.5" class="st26">55</text>		</g>
		<g id="shape171-403" transform="translate(1719.54,-942.328)">
			<title>Sheet.171</title>
			<desc>34</desc>
			<rect x="0" y="1102.44" width="42.5197" height="42.5197" class="st12"/>
			<text x="13.26" y="1128.5" class="st26">34</text>		</g>
		<g id="shape172-406" transform="translate(1662.84,-942.328)">
			<title>Sheet.172</title>
			<desc>21</desc>
			<rect x="0" y="1102.44" width="42.5197" height="42.5197" class="st12"/>
			<text x="13.26" y="1128.5" class="st26">21</text>		</g>
		<g id="shape173-409" transform="translate(1606.15,-942.328)">
			<title>Sheet.173</title>
			<desc>13</desc>
			<rect x="0" y="1102.44" width="42.5197" height="42.5197" class="st12"/>
			<text x="13.26" y="1128.5" class="st26">13</text>		</g>
		<g id="shape174-412" transform="translate(1152.61,-942.328)">
			<title>Sheet.174</title>
			<desc>1</desc>
			<rect x="0" y="1102.44" width="42.5197" height="42.5197" class="st12"/>
			<text x="17.26" y="1128.5" class="st26">1</text>		</g>
		<g id="shape175-415" transform="translate(1095.92,-942.328)">
			<title>Sheet.175</title>
			<desc>-1</desc>
			<rect x="0" y="1102.44" width="42.5197" height="42.5197" class="st12"/>
			<text x="14.6" y="1128.5" class="st26">-1</text>		</g>
		<g id="shape176-418" transform="translate(1039.22,-942.328)">
			<title>Sheet.176</title>
			<desc>2</desc>
			<rect x="0" y="1102.44" width="42.5197" height="42.5197" class="st12"/>
			<text x="17.26" y="1128.5" class="st26">2</text>		</g>
		<g id="shape177-421" transform="translate(869.144,-942.328)">
			<title>Sheet.177</title>
			<desc>-8</desc>
			<rect x="0" y="1102.44" width="42.5197" height="42.5197" class="st12"/>
			<text x="14.6" y="1128.5" class="st26">-8</text>		</g>
		<g id="shape178-424" transform="translate(925.837,-942.328)">
			<title>Sheet.178</title>
			<desc>5</desc>
			<rect x="0" y="1102.44" width="42.5197" height="42.5197" class="st12"/>
			<text x="17.26" y="1128.5" class="st26">5</text>		</g>
		<g id="shape179-427" transform="translate(982.53,-942.328)">
			<title>Sheet.179</title>
			<desc>-3</desc>
			<rect x="0" y="1102.44" width="42.5197" height="42.5197" class="st12"/>
			<text x="14.6" y="1128.5" class="st26">-3</text>		</g>
		<g id="shape180-430" transform="translate(642.372,-942.328)">
			<title>Sheet.180</title>
			<desc>-55</desc>
			<rect x="0" y="1102.44" width="42.5197" height="42.5197" class="st12"/>
			<text x="10.6" y="1128.5" class="st26">-55</text>		</g>
		<g id="shape181-433" transform="translate(699.065,-942.328)">
			<title>Sheet.181</title>
			<desc>34</desc>
			<rect x="0" y="1102.44" width="42.5197" height="42.5197" class="st12"/>
			<text x="13.26" y="1128.5" class="st26">34</text>		</g>
		<g id="shape182-436" transform="translate(755.758,-942.328)">
			<title>Sheet.182</title>
			<desc>-21</desc>
			<rect x="0" y="1102.44" width="42.5197" height="42.5197" class="st12"/>
			<text x="10.6" y="1128.5" class="st26">-21</text>		</g>
		<g id="shape183-439" transform="translate(812.451,-942.328)">
			<title>Sheet.183</title>
			<desc>13</desc>
			<rect x="0" y="1102.44" width="42.5197" height="42.5197" class="st12"/>
			<text x="13.26" y="1128.5" class="st26">13</text>		</g>
		<g id="shape188-442" transform="translate(2102.21,-984.847)">
			<title>Sheet.188</title>
			<desc>+</desc>
			<rect x="0" y="1088.26" width="56.6929" height="56.6929" class="st12"/>
			<text x="19.89" y="1125.61" class="st27">+</text>		</g>
		<g id="shape189-445" transform="translate(2102.21,-928.155)">
			<title>Sheet.189</title>
			<desc>+</desc>
			<rect x="0" y="1088.26" width="56.6929" height="56.6929" class="st12"/>
			<text x="19.89" y="1125.61" class="st27">+</text>		</g>
		<g id="shape190-448" transform="translate(2102.21,-871.462)">
			<title>Sheet.190</title>
			<desc>+</desc>
			<rect x="0" y="1088.26" width="56.6929" height="56.6929" class="st12"/>
			<text x="19.89" y="1125.61" class="st27">+</text>		</g>
		<g id="shape191-451" transform="translate(2102.21,-814.769)">
			<title>Sheet.191</title>
			<desc>+</desc>
			<rect x="0" y="1088.26" width="56.6929" height="56.6929" class="st12"/>
			<text x="19.89" y="1125.61" class="st27">+</text>		</g>
		<g id="shape192-454" transform="translate(2102.21,-758.076)">
			<title>Sheet.192</title>
			<desc>+</desc>
			<rect x="0" y="1088.26" width="56.6929" height="56.6929" class="st12"/>
			<text x="19.89" y="1125.61" class="st27">+</text>		</g>
		<g id="shape193-457" transform="translate(2102.21,-701.383)">
			<title>Sheet.193</title>
			<desc>+</desc>
			<rect x="0" y="1088.26" width="56.6929" height="56.6929" class="st12"/>
			<text x="19.89" y="1125.61" class="st27">+</text>		</g>
		<g id="shape194-460" transform="translate(2102.21,-644.69)">
			<title>Sheet.194</title>
			<desc>+</desc>
			<rect x="0" y="1088.26" width="56.6929" height="56.6929" class="st12"/>
			<text x="19.89" y="1125.61" class="st27">+</text>		</g>
		<g id="shape195-463" transform="translate(2102.21,-587.997)">
			<title>Sheet.195</title>
			<desc>+</desc>
			<rect x="0" y="1088.26" width="56.6929" height="56.6929" class="st12"/>
			<text x="19.89" y="1125.61" class="st27">+</text>		</g>
		<g id="shape196-466" transform="translate(2102.21,-531.304)">
			<title>Sheet.196</title>
			<desc>+</desc>
			<rect x="0" y="1088.26" width="56.6929" height="56.6929" class="st12"/>
			<text x="19.89" y="1125.61" class="st27">+</text>		</g>
		<g id="shape197-469" transform="translate(2101.47,-474.611)">
			<title>Sheet.197</title>
			<desc>+</desc>
			<rect x="0" y="1088.26" width="56.6929" height="56.6929" class="st12"/>
			<text x="19.89" y="1125.61" class="st27">+</text>		</g>
		<g id="shape198-472" transform="translate(18.75,-18.375)">
			<title>Sheet.198</title>
			<desc>Tiling</desc>
			<rect x="0" y="1116.61" width="1261.42" height="28.3465" class="st12"/>
			<text x="606.27" y="1136.78" class="st15">Tiling</text>		</g>
	</g>
</svg>
