<?xml version="1.0" encoding="UTF-8" standalone="no"?>
<!DOCTYPE svg PUBLIC "-//W3C//DTD SVG 1.1//EN" "http://www.w3.org/Graphics/SVG/1.1/DTD/svg11.dtd">
<!-- Illustrator: Larry Huang -->
<svg xmlns="http://www.w3.org/2000/svg" xmlns:xlink="http://www.w3.org/1999/xlink" xmlns:ev="http://www.w3.org/2001/xml-events"
		width="11.3337in" height="3.8534in" viewBox="0 0 816.028 277.445" xml:space="preserve" color-interpolation-filters="sRGB"
		class="st15">
	<style type="text/css">
	<![CDATA[
		.st1 {fill:none;stroke:none;stroke-width:0.25}
		.st2 {fill:#0000ff;font-family:Times New Roman;font-size:1.99999em}
		.st3 {fill:none;stroke:#000000;stroke-width:0.25}
		.st4 {fill:#000000;font-family:Times New Roman;font-size:1.16666em}
		.st5 {fill:none;stroke:#000000;stroke-width:1}
		.st6 {stroke:#7f7f7f;stroke-width:0.25}
		.st7 {fill:#f2f2f2;stroke:#000000;stroke-width:1}
		.st8 {fill:#000000;font-family:Times New Roman;font-size:1.5em}
		.st9 {stroke:#7f7f7f;stroke-linecap:round;stroke-linejoin:round;stroke-width:1}
		.st10 {fill:none;stroke:#7f7f7f;stroke-dasharray:1.75,1.25;stroke-width:0.25}
		.st11 {fill:#7f7f7f;font-family:Times New Roman;font-size:1.00001em}
		.st12 {marker-end:url(#mrkr5-58);stroke:#000000;stroke-linecap:round;stroke-linejoin:round;stroke-width:1}
		.st13 {fill:#000000;fill-opacity:1;stroke:#000000;stroke-opacity:1;stroke-width:0.28409090909091}
		.st14 {marker-end:url(#mrkr5-58);stroke:#000000;stroke-width:1}
		.st15 {fill:none;fill-rule:evenodd;font-size:12px;overflow:visible;stroke-linecap:square;stroke-miterlimit:3}
	]]>
	</style>

	<defs id="Markers">
		<g id="lend5">
			<path d="M 2 1 L 0 0 L 1.98117 -0.993387 C 1.67173 -0.364515 1.67301 0.372641 1.98465 1.00043 " style="stroke:none"/>
		</g>
		<marker id="mrkr5-58" class="st13" refX="-6.16" orient="auto" markerUnits="strokeWidth" overflow="visible">
			<use xlink:href="#lend5" transform="scale(-3.52,-3.52) "/>
		</marker>
	</defs>
	<g>
		<title>Page-1</title>
		<g id="shape1-1" transform="translate(18.25,-230.848)">
			<title>Sheet.1</title>
			<desc>vector</desc>
			<rect x="0" y="249.098" width="70.8661" height="28.3465" class="st1"/>
			<text x="5.45" y="270.47" class="st2">vector</text>		</g>
		<g id="shape2-4" transform="translate(89.1161,-60.7697)">
			<title>Circle</title>
			<path d="M0 206.58 A70.8661 70.8661 0 1 1 141.73 206.58 A70.8661 70.8661 0 1 1 0 206.58 Z" class="st3"/>
		</g>
		<g id="shape3-6" transform="translate(138.722,-149.352)">
			<title>Rounded Rectangle</title>
			<desc>first</desc>
			<path d="M4.25 277.44 L38.27 277.44 A4.2519 4.2519 -180 0 0 42.52 273.19 L42.52 260.44 A4.2519 4.2519 -180 0 0 38.27
						 256.19 L4.25 256.19 A4.2519 4.2519 -180 0 0 -0 260.44 L0 273.19 A4.2519 4.2519 -180 0 0 4.25 277.44 Z"
					class="st3"/>
			<text x="9.98" y="271.02" class="st4">first</text>		</g>
		<g id="shape4-9" transform="translate(138.722,-92.6595)">
			<title>Rounded Rectangle.26</title>
			<desc>last</desc>
			<path d="M4.25 277.44 L38.27 277.44 A4.2519 4.2519 -180 0 0 42.52 273.19 L42.52 260.44 A4.2519 4.2519 -180 0 0 38.27
						 256.19 L4.25 256.19 A4.2519 4.2519 -180 0 0 -0 260.44 L0 273.19 A4.2519 4.2519 -180 0 0 4.25 277.44 Z"
					class="st3"/>
			<text x="11.54" y="271.02" class="st4">last</text>		</g>
		<g id="shape5-12" transform="translate(138.722,-64.313)">
			<title>Rounded Rectangle.27</title>
			<desc>end</desc>
			<path d="M4.25 277.44 L38.27 277.44 A4.2519 4.2519 -180 0 0 42.52 273.19 L42.52 260.44 A4.2519 4.2519 -180 0 0 38.27
						 256.19 L4.25 256.19 A4.2519 4.2519 -180 0 0 -0 260.44 L0 273.19 A4.2519 4.2519 -180 0 0 4.25 277.44 Z"
					class="st3"/>
			<text x="11.15" y="271.02" class="st4">end</text>		</g>
		<g id="shape6-15" transform="translate(315.888,-145.809)">
			<title>Sheet.6</title>
			<rect x="0" y="249.098" width="439.37" height="28.3465" class="st5"/>
		</g>
		<g id="shape7-17" transform="translate(315.888,366.561) scale(1,-1)">
			<title>Side brace.29</title>
			<desc>size ( )</desc>
			<path d="M0 268.94 L0 270.36 A7.0865 7.0865 -180 0 0 7.09 277.44 L106.3 277.44 A7.0865 7.0865 0 0 1 113.39 284.53 A7.0865
						 7.0865 0 0 1 120.47 277.44 L219.69 277.44 A7.0865 7.0865 -180 0 0 226.77 270.36 L226.77 268.94"
					class="st6"/>
			<text x="96.34" y="-288.73" transform="scale(1,-1)" class="st4">size ( )</text>		</g>
		<g id="shape8-21" transform="translate(315.888,-145.809)">
			<title>Sheet.8</title>
			<rect x="0" y="249.098" width="28.3465" height="28.3465" class="st7"/>
		</g>
		<g id="shape9-23" transform="translate(344.234,-145.809)">
			<title>Sheet.9</title>
			<rect x="0" y="249.098" width="28.3465" height="28.3465" class="st7"/>
		</g>
		<g id="shape10-25" transform="translate(485.967,-145.809)">
			<title>Sheet.10</title>
			<rect x="0" y="249.098" width="28.3465" height="28.3465" class="st7"/>
		</g>
		<g id="shape11-27" transform="translate(400.927,-145.809)">
			<title>Sheet.11</title>
			<desc>……</desc>
			<rect x="0" y="249.098" width="85.0394" height="28.3465" class="st7"/>
			<text x="24.52" y="268.67" class="st8">……</text>		</g>
		<g id="shape12-30" transform="translate(514.313,-145.809)">
			<title>Sheet.12</title>
			<rect x="0" y="249.098" width="28.3465" height="28.3465" class="st7"/>
		</g>
		<g id="shape13-32" transform="translate(301.715,-103.289)">
			<title>Sheet.13</title>
			<desc>front ( )</desc>
			<rect x="0" y="234.925" width="56.6929" height="42.5197" class="st1"/>
			<text x="6.58" y="260.39" class="st4">front ( )</text>		</g>
		<g id="shape14-35" transform="translate(500.14,-103.289)">
			<title>Sheet.14</title>
			<desc>back ( )</desc>
			<rect x="0" y="234.925" width="56.6929" height="42.5197" class="st1"/>
			<text x="6.97" y="260.39" class="st4">back ( )</text>		</g>
		<g id="shape15-38" transform="translate(607.506,117.463) rotate(90)">
			<title>Sheet.15</title>
			<path d="M0 277.44 L28.35 277.44" class="st9"/>
		</g>
		<g id="shape16-41" transform="translate(805.931,117.463) rotate(90)">
			<title>Sheet.16</title>
			<path d="M0 277.44 L28.35 277.44" class="st9"/>
		</g>
		<g id="shape17-44" transform="translate(259.195,-46.5965)">
			<title>Sheet.17</title>
			<path d="M0 277.44 L538.58 277.44 L538.58 64.85 L0 64.85 L0 277.44 Z" class="st10"/>
		</g>
		<g id="shape18-46" transform="translate(528.486,-18.25)">
			<title>Sheet.18</title>
			<desc>on the heap / free store / dynamic memory allocation</desc>
			<rect x="0" y="249.098" width="269.291" height="28.3465" class="st1"/>
			<text x="7.86" y="266.87" class="st11">on the heap / free store / dynamic memory allocation</text>		</g>
		<g id="shape19-49" transform="translate(315.888,338.215) scale(1,-1)">
			<title>Side brace.45</title>
			<desc>capacity ( )</desc>
			<path d="M0 268.94 L0 270.36 A7.0865 7.0865 -180 0 0 7.09 277.44 L212.6 277.44 A7.0865 7.0865 0 0 1 219.69 284.53 A7.0865
						 7.0865 0 0 1 226.77 277.44 L432.28 277.44 A7.0865 7.0865 -180 0 0 439.37 270.36 L439.37 268.94"
					class="st6"/>
			<text x="190.21" y="-288.73" transform="scale(1,-1)" class="st4">capacity ( )</text>		</g>
		<g id="shape20-53" transform="translate(181.242,-159.982) rotate(6.9125E-08)">
			<title>Sheet.20</title>
			<path d="M0 277.44 L128.49 277.44" class="st12"/>
		</g>
		<g id="shape21-59" transform="translate(181.242,-103.289)">
			<title>Sheet.21</title>
			<path d="M0 277.44 L375.59 277.44 L375.59 226.91" class="st14"/>
		</g>
		<g id="shape22-64" transform="translate(181.242,-74.9429)">
			<title>Sheet.22</title>
			<path d="M0 277.44 L588.19 277.44 L588.19 198.57" class="st14"/>
		</g>
		<g id="shape23-69" transform="translate(372.581,-145.809)">
			<title>Sheet.23</title>
			<rect x="0" y="249.098" width="28.3465" height="28.3465" class="st7"/>
		</g>
		<g id="shape24-71" transform="translate(18.25,-117.463)">
			<title>Sheet.24</title>
			<desc>vector object</desc>
			<rect x="0" y="249.098" width="70.8661" height="28.3465" class="st1"/>
			<text x="4.28" y="266.87" class="st11">vector object</text>		</g>
	</g>
</svg>
